M48
; DRILL file {KiCad 5.1.6-c6e7f7d~87~ubuntu18.04.1} date Tue Nov  2 16:25:47 2021
; FORMAT={-:-/ absolute / inch / decimal}
; #@! TF.CreationDate,2021-11-02T16:25:47+02:00
; #@! TF.GenerationSoftware,Kicad,Pcbnew,5.1.6-c6e7f7d~87~ubuntu18.04.1
; #@! TF.FileFunction,Plated,1,4,PTH
FMAT,2
INCH
T1C0.0157
T2C0.0236
T3C0.0354
T4C0.0394
%
G90
G05
T1
X5.175Y-3.6975
X5.2102Y-3.7008
X5.22Y-3.2
X5.22Y-3.86
X5.2225Y-3.3975
X5.2275Y-3.0939
X5.23Y-2.7
X5.235Y-3.755
X5.235Y-3.785
X5.235Y-3.815
X5.24Y-3.015
X5.25Y-3.2
X5.255Y-2.4275
X5.255Y-2.4575
X5.2632Y-3.245
X5.2675Y-3.5189
X5.2725Y-2.7925
X5.2725Y-2.8225
X5.2725Y-3.08
X5.2742Y-3.2855
X5.2749Y-3.3925
X5.295Y-3.79
X5.3Y-2.575
X5.315Y-2.67
X5.3181Y-3.7436
X5.32Y-3.825
X5.325Y-2.46
X5.3422Y-3.8425
X5.3488Y-3.7438
X5.355Y-2.6
X5.3555Y-2.46
X5.3558Y-2.6287
X5.374Y-3.8325
X5.3775Y-3.743
X5.379Y-2.71
X5.3928Y-3.519
X5.4025Y-3.559
X5.4025Y-3.8325
X5.4132Y-2.804
X5.415Y-2.715
X5.4187Y-3.0613
X5.42Y-2.4275
X5.4216Y-3.1394
X5.4228Y-3.17
X5.4228Y-3.2997
X5.423Y-3.2588
X5.431Y-3.7094
X5.4325Y-2.7641
X5.4363Y-3.392
X5.4375Y-3.8475
X5.4393Y-3.0414
X5.4482Y-2.58
X5.4486Y-2.5463
X5.45Y-2.4275
X5.45Y-2.465
X5.4546Y-2.5096
X5.4665Y-3.8485
X5.4665Y-3.565
X5.4675Y-3.6325
X5.4718Y-3.7077
X5.48Y-2.4275
X5.5024Y-3.3957
X5.51Y-2.4275
X5.5201Y-2.5999
X5.532Y-3.397
X5.5344Y-3.1822
X5.54Y-2.4275
X5.5425Y-2.54
X5.5425Y-2.57
X5.5497Y-2.5997
X5.5518Y-2.7326
X5.5525Y-3.07
X5.555Y-3.03
X5.5575Y-3.765
X5.5636Y-2.5214
X5.57Y-2.4275
X5.5739Y-2.7642
X5.5804Y-3.0568
X5.5843Y-2.8594
X5.5861Y-3.2181
X5.5902Y-3.2718
X5.5925Y-2.52
X5.601Y-2.731
X5.6025Y-2.7625
X5.6026Y-2.985
X5.6032Y-3.7562
X5.6037Y-3.1372
X5.6042Y-3.1086
X5.605Y-2.4275
X5.615Y-2.79
X5.6216Y-3.4013
X5.625Y-2.86
X5.6275Y-2.48
X5.6275Y-2.51
X5.63Y-3.4332
X5.633Y-2.7299
X5.635Y-3.5325
X5.64Y-2.8858
X5.65Y-3.13
X5.6644Y-2.7282
X5.6675Y-2.4275
X5.6675Y-3.6675
X5.6711Y-3.4931
X5.6728Y-3.761
X5.6731Y-3.7905
X5.6749Y-2.6004
X5.678Y-3.12
X5.6832Y-3.4625
X5.6885Y-2.993
X5.69Y-3.0525
X5.6901Y-3.0225
X5.6904Y-3.5405
X5.6908Y-2.964
X5.6919Y-2.935
X5.695Y-3.57
X5.6975Y-2.4275
X5.7025Y-3.2675
X5.7075Y-2.4675
X5.7605Y-3.1926
X5.769Y-3.733
X5.769Y-3.761
X5.7725Y-3.8725
X5.7806Y-3.5544
X5.785Y-2.8525
X5.795Y-3.75
X5.8001Y-3.24
X5.807Y-3.5654
X5.8085Y-3.1578
X5.81Y-3.2114
X5.8109Y-3.415
X5.815Y-3.5375
X5.8292Y-2.8708
X5.8292Y-2.9016
X5.835Y-2.4275
X5.8385Y-3.1532
X5.8429Y-3.815
X5.8475Y-3.5375
X5.8496Y-3.0586
X5.85Y-2.73
X5.8518Y-2.6668
X5.86Y-2.605
X5.8648Y-2.9815
X5.865Y-2.4275
X5.8715Y-3.815
X5.8718Y-2.7735
X5.875Y-3.4143
X5.8791Y-2.9566
X5.8806Y-3.0053
X5.89Y-2.46
X5.89Y-2.51
X5.89Y-2.605
X5.8918Y-2.8248
X5.8933Y-3.0982
X5.8947Y-3.2889
X5.8975Y-2.4275
X5.9025Y-3.215
X5.9075Y-3.8125
X5.9075Y-3.8425
X5.91Y-2.49
X5.9149Y-3.5299
X5.915Y-2.535
X5.916Y-3.573
X5.9275Y-2.4275
X5.9275Y-2.46
X5.94Y-2.49
X5.9432Y-3.72
X5.9432Y-3.7525
X5.945Y-2.62
X5.945Y-2.705
X5.9484Y-3.373
X5.9484Y-3.6385
X5.95Y-3.82
X5.95Y-3.85
X5.963Y-3.612
X5.9676Y-2.53
X5.985Y-3.49
X5.9868Y-3.31
X6.0101Y-2.82
X6.015Y-2.535
X6.015Y-3.1025
X6.0171Y-3.3504
X6.0175Y-3.39
X6.0235Y-2.9926
X6.025Y-3.495
X6.0262Y-3.1612
X6.03Y-3.05
X6.03Y-3.585
X6.03Y-3.615
X6.0321Y-3.2171
X6.0475Y-3.3625
X6.0475Y-3.475
X6.0475Y-3.515
X6.05Y-3.8
X6.057Y-3.007
X6.06Y-3.585
X6.06Y-3.615
T3
X5.5006Y-3.9393
X5.5805Y-3.9392
T4
X6.1Y-3.45
X6.1Y-3.55
X6.1Y-3.65
X6.1Y-3.75
X6.1Y-3.85
X6.1Y-3.95
X6.1Y-2.45
X6.1Y-2.55
X6.1Y-2.65
X6.1Y-2.75
X6.1Y-2.85
X6.1Y-2.95
X6.1Y-3.05
X6.1Y-3.15
X6.1Y-3.25
X6.1Y-3.35
X5.2Y-3.45
X5.2Y-3.55
X5.2Y-3.65
X5.2Y-2.45
X5.2Y-2.55
X5.2Y-2.65
X5.2Y-2.75
X5.2Y-2.85
X5.2Y-2.95
X5.2Y-3.05
X5.2Y-3.15
X5.2Y-3.25
X5.2Y-3.35
T2
G00X5.7283Y-3.7214
M15
G01X5.7283Y-3.745
M16
G05
G00X5.7283Y-3.858
M15
G01X5.7283Y-3.8817
M16
G05
G00X6.0117Y-3.7214
M15
G01X6.0117Y-3.745
M16
G05
G00X6.0117Y-3.858
M15
G01X6.0117Y-3.8817
M16
G05
T0
M30
