G04 #@! TF.GenerationSoftware,KiCad,Pcbnew,5.1.6-c6e7f7d~87~ubuntu18.04.1*
G04 #@! TF.CreationDate,2021-11-02T16:25:14+02:00*
G04 #@! TF.ProjectId,NB-IoT-DevKit_Rev_D,4e422d49-6f54-42d4-9465-764b69745f52,D*
G04 #@! TF.SameCoordinates,Original*
G04 #@! TF.FileFunction,Legend,Bot*
G04 #@! TF.FilePolarity,Positive*
%FSLAX46Y46*%
G04 Gerber Fmt 4.6, Leading zero omitted, Abs format (unit mm)*
G04 Created by KiCad (PCBNEW 5.1.6-c6e7f7d~87~ubuntu18.04.1) date 2021-11-02 16:25:14*
%MOMM*%
%LPD*%
G01*
G04 APERTURE LIST*
%ADD10C,0.120000*%
%ADD11C,0.127000*%
%ADD12C,0.254000*%
%ADD13C,0.158750*%
%ADD14C,0.190500*%
%ADD15C,0.300000*%
%ADD16C,0.150000*%
%ADD17C,0.152400*%
%ADD18C,0.009000*%
%ADD19C,0.200000*%
%ADD20C,0.101600*%
%ADD21C,0.225000*%
G04 APERTURE END LIST*
D10*
X141859000Y-81153000D02*
X142049500Y-81280000D01*
X141859000Y-81153000D02*
X141859000Y-81343500D01*
X141859000Y-81153000D02*
X142113000Y-81597500D01*
X145605500Y-70739000D02*
X145478500Y-70993000D01*
X145478500Y-70993000D02*
X145351500Y-70739000D01*
X145478500Y-66675000D02*
X145478500Y-70993000D01*
D11*
X151422100Y-79946500D02*
X151574500Y-79946500D01*
X151574500Y-79946500D02*
X151574500Y-80073500D01*
X140533204Y-75374500D02*
X140398500Y-75438000D01*
X140525500Y-75374500D02*
X140398500Y-75311000D01*
X139890500Y-75374500D02*
X140525500Y-75374500D01*
X139827000Y-75438000D02*
X139890500Y-75374500D01*
X133552474Y-97769196D02*
X133552474Y-97938529D01*
X133818569Y-98011100D02*
X133818569Y-97769196D01*
X133310569Y-97769196D01*
X133310569Y-98011100D01*
X133310569Y-98180434D02*
X133818569Y-98519100D01*
X133310569Y-98519100D02*
X133818569Y-98180434D01*
X133310569Y-98640053D02*
X133310569Y-98930339D01*
X133818569Y-98785196D02*
X133310569Y-98785196D01*
X133818569Y-99365767D02*
X133818569Y-99075481D01*
X133818569Y-99220624D02*
X133310569Y-99220624D01*
X133383140Y-99172243D01*
X133431521Y-99123862D01*
X133455712Y-99075481D01*
X133286379Y-99946339D02*
X133939521Y-99510910D01*
X133552474Y-100285005D02*
X133576664Y-100357577D01*
X133600855Y-100381767D01*
X133649236Y-100405958D01*
X133721807Y-100405958D01*
X133770188Y-100381767D01*
X133794379Y-100357577D01*
X133818569Y-100309196D01*
X133818569Y-100115672D01*
X133310569Y-100115672D01*
X133310569Y-100285005D01*
X133334760Y-100333386D01*
X133358950Y-100357577D01*
X133407331Y-100381767D01*
X133455712Y-100381767D01*
X133504093Y-100357577D01*
X133528283Y-100333386D01*
X133552474Y-100285005D01*
X133552474Y-100115672D01*
X133673426Y-100599481D02*
X133673426Y-100841386D01*
X133818569Y-100551100D02*
X133310569Y-100720434D01*
X133818569Y-100889767D01*
X133310569Y-100986529D02*
X133310569Y-101276815D01*
X133818569Y-101131672D02*
X133310569Y-101131672D01*
D12*
X149768560Y-99882960D02*
X149438360Y-99552760D01*
X149438360Y-99882960D02*
X149768560Y-99882960D01*
X149438360Y-99862640D02*
X149438360Y-99552760D01*
X150114000Y-99187000D02*
X149438360Y-99862640D01*
D13*
X152756809Y-99514660D02*
X152817285Y-99484421D01*
X152908000Y-99484421D01*
X152998714Y-99514660D01*
X153059190Y-99575136D01*
X153089428Y-99635612D01*
X153119666Y-99756564D01*
X153119666Y-99847279D01*
X153089428Y-99968231D01*
X153059190Y-100028707D01*
X152998714Y-100089183D01*
X152908000Y-100119421D01*
X152847523Y-100119421D01*
X152756809Y-100089183D01*
X152726571Y-100058945D01*
X152726571Y-99847279D01*
X152847523Y-99847279D01*
X152454428Y-100119421D02*
X152454428Y-99484421D01*
X152091571Y-100119421D01*
X152091571Y-99484421D01*
X151789190Y-100119421D02*
X151789190Y-99484421D01*
X151638000Y-99484421D01*
X151547285Y-99514660D01*
X151486809Y-99575136D01*
X151456571Y-99635612D01*
X151426333Y-99756564D01*
X151426333Y-99847279D01*
X151456571Y-99968231D01*
X151486809Y-100028707D01*
X151547285Y-100089183D01*
X151638000Y-100119421D01*
X151789190Y-100119421D01*
D11*
X137383520Y-84074000D02*
X137160000Y-84302600D01*
X151574500Y-79946500D02*
X151130000Y-80391000D01*
X138444211Y-100559809D02*
X138613545Y-100317904D01*
X138734497Y-100559809D02*
X138734497Y-100051809D01*
X138540973Y-100051809D01*
X138492592Y-100076000D01*
X138468402Y-100100190D01*
X138444211Y-100148571D01*
X138444211Y-100221142D01*
X138468402Y-100269523D01*
X138492592Y-100293714D01*
X138540973Y-100317904D01*
X138734497Y-100317904D01*
X138153926Y-100559809D02*
X138202307Y-100535619D01*
X138226497Y-100511428D01*
X138250688Y-100463047D01*
X138250688Y-100317904D01*
X138226497Y-100269523D01*
X138202307Y-100245333D01*
X138153926Y-100221142D01*
X138081354Y-100221142D01*
X138032973Y-100245333D01*
X138008783Y-100269523D01*
X137984592Y-100317904D01*
X137984592Y-100463047D01*
X138008783Y-100511428D01*
X138032973Y-100535619D01*
X138081354Y-100559809D01*
X138153926Y-100559809D01*
X137766878Y-100559809D02*
X137766878Y-100051809D01*
X137766878Y-100293714D02*
X137476592Y-100293714D01*
X137476592Y-100559809D02*
X137476592Y-100051809D01*
X137258878Y-100535619D02*
X137186307Y-100559809D01*
X137065354Y-100559809D01*
X137016973Y-100535619D01*
X136992783Y-100511428D01*
X136968592Y-100463047D01*
X136968592Y-100414666D01*
X136992783Y-100366285D01*
X137016973Y-100342095D01*
X137065354Y-100317904D01*
X137162116Y-100293714D01*
X137210497Y-100269523D01*
X137234688Y-100245333D01*
X137258878Y-100196952D01*
X137258878Y-100148571D01*
X137234688Y-100100190D01*
X137210497Y-100076000D01*
X137162116Y-100051809D01*
X137041164Y-100051809D01*
X136968592Y-100076000D01*
X151447500Y-86868000D02*
X152400000Y-86868000D01*
X151447500Y-86868000D02*
X151447500Y-85153500D01*
X151447500Y-85153500D02*
X152400000Y-85153500D01*
X152463500Y-88900000D02*
X152654000Y-88900000D01*
X152654000Y-88709500D02*
X152654000Y-88900000D01*
X152400000Y-88646000D02*
X152400000Y-85153500D01*
X152654000Y-88900000D02*
X152400000Y-88646000D01*
D13*
X133632181Y-88810253D02*
X133632181Y-89203348D01*
X133874086Y-88991681D01*
X133874086Y-89082396D01*
X133904324Y-89142872D01*
X133934562Y-89173110D01*
X133995039Y-89203348D01*
X134146229Y-89203348D01*
X134206705Y-89173110D01*
X134236943Y-89142872D01*
X134267181Y-89082396D01*
X134267181Y-88900967D01*
X134236943Y-88840491D01*
X134206705Y-88810253D01*
D14*
X136280434Y-92841354D02*
X136280434Y-92405925D01*
X136280434Y-92623640D02*
X135518434Y-92623640D01*
X135627291Y-92551068D01*
X135699862Y-92478497D01*
X135736148Y-92405925D01*
D11*
X135805333Y-97892809D02*
X135490857Y-97892809D01*
X135660190Y-98086333D01*
X135587619Y-98086333D01*
X135539238Y-98110523D01*
X135515047Y-98134714D01*
X135490857Y-98183095D01*
X135490857Y-98304047D01*
X135515047Y-98352428D01*
X135539238Y-98376619D01*
X135587619Y-98400809D01*
X135732761Y-98400809D01*
X135781142Y-98376619D01*
X135805333Y-98352428D01*
X135781142Y-98893690D02*
X135756952Y-98869500D01*
X135708571Y-98845309D01*
X135587619Y-98845309D01*
X135539238Y-98869500D01*
X135515047Y-98893690D01*
X135490857Y-98942071D01*
X135490857Y-98990452D01*
X135515047Y-99063023D01*
X135805333Y-99353309D01*
X135490857Y-99353309D01*
X134919357Y-101258309D02*
X135209642Y-101258309D01*
X135064500Y-101258309D02*
X135064500Y-100750309D01*
X135112880Y-100822880D01*
X135161261Y-100871261D01*
X135209642Y-100895452D01*
X134493000Y-97663000D02*
X134493000Y-98806000D01*
D12*
X135001000Y-99314000D02*
X134810500Y-99314000D01*
X135001000Y-98869500D02*
X135001000Y-99314000D01*
X134810500Y-99314000D02*
X134810500Y-98869500D01*
X134810500Y-98869500D02*
X135001000Y-98869500D01*
X135001000Y-99758500D02*
X135001000Y-100203000D01*
X135001000Y-100203000D02*
X134810500Y-100203000D01*
X134810500Y-99758500D02*
X135001000Y-99758500D01*
X134810500Y-100203000D02*
X134810500Y-99758500D01*
X134810500Y-98425000D02*
X134810500Y-97980500D01*
X135001000Y-98425000D02*
X134810500Y-98425000D01*
X135001000Y-97980500D02*
X135001000Y-98425000D01*
X134810500Y-97980500D02*
X135001000Y-97980500D01*
D11*
X135318500Y-97663000D02*
X135318500Y-100520500D01*
X134493000Y-97663000D02*
X135318500Y-97663000D01*
X134493000Y-100520500D02*
X135318500Y-100520500D01*
X134493000Y-99631500D02*
X134493000Y-100520500D01*
X140095211Y-101273428D02*
X140119402Y-101297619D01*
X140191973Y-101321809D01*
X140240354Y-101321809D01*
X140312926Y-101297619D01*
X140361307Y-101249238D01*
X140385497Y-101200857D01*
X140409688Y-101104095D01*
X140409688Y-101031523D01*
X140385497Y-100934761D01*
X140361307Y-100886380D01*
X140312926Y-100838000D01*
X140240354Y-100813809D01*
X140191973Y-100813809D01*
X140119402Y-100838000D01*
X140095211Y-100862190D01*
X139804926Y-101321809D02*
X139853307Y-101297619D01*
X139877497Y-101273428D01*
X139901688Y-101225047D01*
X139901688Y-101079904D01*
X139877497Y-101031523D01*
X139853307Y-101007333D01*
X139804926Y-100983142D01*
X139732354Y-100983142D01*
X139683973Y-101007333D01*
X139659783Y-101031523D01*
X139635592Y-101079904D01*
X139635592Y-101225047D01*
X139659783Y-101273428D01*
X139683973Y-101297619D01*
X139732354Y-101321809D01*
X139804926Y-101321809D01*
X139417878Y-101321809D02*
X139417878Y-100983142D01*
X139417878Y-101031523D02*
X139393688Y-101007333D01*
X139345307Y-100983142D01*
X139272735Y-100983142D01*
X139224354Y-101007333D01*
X139200164Y-101055714D01*
X139200164Y-101321809D01*
X139200164Y-101055714D02*
X139175973Y-101007333D01*
X139127592Y-100983142D01*
X139055021Y-100983142D01*
X139006640Y-101007333D01*
X138982450Y-101055714D01*
X138982450Y-101321809D01*
X138740545Y-100983142D02*
X138740545Y-101491142D01*
X138740545Y-101007333D02*
X138692164Y-100983142D01*
X138595402Y-100983142D01*
X138547021Y-101007333D01*
X138522830Y-101031523D01*
X138498640Y-101079904D01*
X138498640Y-101225047D01*
X138522830Y-101273428D01*
X138547021Y-101297619D01*
X138595402Y-101321809D01*
X138692164Y-101321809D01*
X138740545Y-101297619D01*
X138208354Y-101321809D02*
X138256735Y-101297619D01*
X138280926Y-101249238D01*
X138280926Y-100813809D01*
X138014830Y-101321809D02*
X138014830Y-100983142D01*
X138014830Y-100813809D02*
X138039021Y-100838000D01*
X138014830Y-100862190D01*
X137990640Y-100838000D01*
X138014830Y-100813809D01*
X138014830Y-100862190D01*
X137555211Y-101321809D02*
X137555211Y-101055714D01*
X137579402Y-101007333D01*
X137627783Y-100983142D01*
X137724545Y-100983142D01*
X137772926Y-101007333D01*
X137555211Y-101297619D02*
X137603592Y-101321809D01*
X137724545Y-101321809D01*
X137772926Y-101297619D01*
X137797116Y-101249238D01*
X137797116Y-101200857D01*
X137772926Y-101152476D01*
X137724545Y-101128285D01*
X137603592Y-101128285D01*
X137555211Y-101104095D01*
X137313307Y-100983142D02*
X137313307Y-101321809D01*
X137313307Y-101031523D02*
X137289116Y-101007333D01*
X137240735Y-100983142D01*
X137168164Y-100983142D01*
X137119783Y-101007333D01*
X137095592Y-101055714D01*
X137095592Y-101321809D01*
X136926259Y-100983142D02*
X136732735Y-100983142D01*
X136853688Y-100813809D02*
X136853688Y-101249238D01*
X136829497Y-101297619D01*
X136781116Y-101321809D01*
X136732735Y-101321809D01*
D12*
X143579547Y-100847071D02*
X142805452Y-100847071D01*
X143192500Y-101234119D02*
X143192500Y-100460023D01*
X144292500Y-80829000D02*
X144492500Y-80829000D01*
X144492500Y-80829000D02*
X144492500Y-78429000D01*
X144292500Y-78429000D02*
X144492500Y-78429000D01*
X142092500Y-80829000D02*
X141892500Y-80829000D01*
X142092500Y-78429000D02*
X141992500Y-78529000D01*
X141892500Y-79879000D02*
X141892500Y-80829000D01*
X149423500Y-62230000D02*
X149923500Y-62230000D01*
X149423500Y-62130000D02*
X149423500Y-62330000D01*
X150623500Y-61330000D02*
X150623500Y-61530000D01*
X150623500Y-62930000D02*
X150623500Y-63130000D01*
X149223500Y-62930000D02*
X149223500Y-63130000D01*
X149223500Y-61330000D02*
X149223500Y-61530000D01*
X149423500Y-62330000D02*
X149923500Y-62330000D01*
X149423500Y-62130000D02*
X149923500Y-62130000D01*
X149223500Y-63130000D02*
G75*
G03*
X149223500Y-61330000I0J900000D01*
G01*
D15*
X149245440Y-62998221D02*
G75*
G03*
X149323500Y-61468000I-21940J768221D01*
G01*
D12*
X149223500Y-62930000D02*
G75*
G03*
X149223500Y-61530000I0J700000D01*
G01*
D15*
X150687000Y-62992000D02*
G75*
G03*
X150687000Y-61468000I-63500J762000D01*
G01*
D12*
X150623500Y-63130000D02*
G75*
G03*
X150623500Y-61330000I0J900000D01*
G01*
X150623500Y-62930000D02*
G75*
G03*
X150623500Y-61530000I0J700000D01*
G01*
X136146000Y-74793500D02*
X135446000Y-74793500D01*
X134421000Y-66611500D02*
X134421000Y-63893500D01*
X141224000Y-62493500D02*
X140208000Y-62493500D01*
X138684000Y-62493500D02*
X137668000Y-62493500D01*
X141224000Y-74793500D02*
X140208000Y-74793500D01*
X144471000Y-66611500D02*
X144471000Y-62493500D01*
X144471000Y-74793500D02*
X142748000Y-74793500D01*
X144471000Y-62493500D02*
X142748000Y-62493500D01*
X134421000Y-73743500D02*
X134421000Y-70675500D01*
X144471000Y-74793500D02*
X144471000Y-73393500D01*
X144471000Y-72275500D02*
X144471000Y-70675500D01*
X136146000Y-62493500D02*
X134421000Y-62493500D01*
X135446000Y-74793500D02*
X134421000Y-73743500D01*
X138684000Y-74793500D02*
X137668000Y-74793500D01*
X134421000Y-63893500D02*
X134421000Y-62493500D01*
X140716000Y-80746600D02*
X140716000Y-81457800D01*
X139877800Y-80746600D02*
X140716000Y-80746600D01*
X139877800Y-83591400D02*
X140716000Y-83591400D01*
X140716000Y-82880200D02*
X140716000Y-83591400D01*
X138112500Y-78740000D02*
X138112500Y-78486000D01*
X138112500Y-78740000D02*
X138112500Y-78994000D01*
X137223500Y-78740000D02*
X137223500Y-78994000D01*
X137223500Y-78740000D02*
X137223500Y-78486000D01*
X137795000Y-93281500D02*
X137541000Y-93281500D01*
X137795000Y-93281500D02*
X138049000Y-93281500D01*
X137795000Y-94170500D02*
X138049000Y-94170500D01*
X137795000Y-94170500D02*
X137541000Y-94170500D01*
X145796000Y-71247000D02*
X145542000Y-71247000D01*
X145796000Y-71247000D02*
X146050000Y-71247000D01*
X145796000Y-72136000D02*
X146050000Y-72136000D01*
X145796000Y-72136000D02*
X145542000Y-72136000D01*
X135255000Y-78676500D02*
X135509000Y-78676500D01*
X135255000Y-78676500D02*
X135001000Y-78676500D01*
X135255000Y-77787500D02*
X135001000Y-77787500D01*
X135255000Y-77787500D02*
X135509000Y-77787500D01*
X137795000Y-95059500D02*
X138049000Y-95059500D01*
X137795000Y-95059500D02*
X137541000Y-95059500D01*
X137795000Y-94170500D02*
X137541000Y-94170500D01*
X137795000Y-94170500D02*
X138049000Y-94170500D01*
X148590000Y-63373000D02*
X148336000Y-63373000D01*
X148590000Y-63373000D02*
X148844000Y-63373000D01*
X148590000Y-64262000D02*
X148844000Y-64262000D01*
X148590000Y-64262000D02*
X148336000Y-64262000D01*
X141287500Y-85026500D02*
X141541500Y-85026500D01*
X141287500Y-85026500D02*
X141033500Y-85026500D01*
X141287500Y-84137500D02*
X141033500Y-84137500D01*
X141287500Y-84137500D02*
X141541500Y-84137500D01*
X146812000Y-83693000D02*
X146812000Y-84074000D01*
X146939000Y-83566000D02*
X146939000Y-84201000D01*
X147066000Y-83439000D02*
X147066000Y-84201000D01*
X147193000Y-83439000D02*
X147193000Y-84328000D01*
X147320000Y-84328000D02*
X147320000Y-83185000D01*
X147447000Y-83185000D02*
X147447000Y-84455000D01*
X147574000Y-84582000D02*
X147574000Y-83058000D01*
X146354800Y-82880200D02*
X146177000Y-82880200D01*
X146354800Y-84785200D02*
X146177000Y-84785200D01*
X146177000Y-82880200D02*
X146177000Y-84785200D01*
X147726400Y-82880200D02*
X147726400Y-84785200D01*
X146354800Y-82880200D02*
X146354800Y-84785200D01*
X146354800Y-83794600D02*
X147726400Y-84785200D01*
X147726400Y-82880200D02*
X146354800Y-83794600D01*
X148310600Y-83832700D02*
X145834100Y-83832700D01*
X146812000Y-81661000D02*
X146812000Y-82042000D01*
X146939000Y-81534000D02*
X146939000Y-82169000D01*
X147066000Y-81407000D02*
X147066000Y-82169000D01*
X147193000Y-81407000D02*
X147193000Y-82296000D01*
X147320000Y-82296000D02*
X147320000Y-81153000D01*
X147447000Y-81153000D02*
X147447000Y-82423000D01*
X147574000Y-82550000D02*
X147574000Y-81026000D01*
X146354800Y-80848200D02*
X146177000Y-80848200D01*
X146354800Y-82753200D02*
X146177000Y-82753200D01*
X146177000Y-80848200D02*
X146177000Y-82753200D01*
X147726400Y-80848200D02*
X147726400Y-82753200D01*
X146354800Y-80848200D02*
X146354800Y-82753200D01*
X146354800Y-81762600D02*
X147726400Y-82753200D01*
X147726400Y-80848200D02*
X146354800Y-81762600D01*
X148310600Y-81800700D02*
X145834100Y-81800700D01*
X139377600Y-79324200D02*
X139377600Y-78917800D01*
X140698400Y-77698600D02*
X139911000Y-77698600D01*
X140698400Y-78359000D02*
X140698400Y-77698600D01*
X140698400Y-80543400D02*
X140698400Y-79883000D01*
X139911000Y-80543400D02*
X140698400Y-80543400D01*
D16*
X151511000Y-98171000D02*
X151511000Y-98679000D01*
X151257000Y-98933000D02*
X150241000Y-98933000D01*
X149987000Y-98679000D02*
X149987000Y-98171000D01*
X150241000Y-97917000D02*
X151257000Y-97917000D01*
D17*
X151257000Y-97917000D02*
G75*
G02*
X151511000Y-98171000I0J-254000D01*
G01*
X149987000Y-98171000D02*
G75*
G02*
X150241000Y-97917000I254000J0D01*
G01*
X150241000Y-98933000D02*
G75*
G02*
X149987000Y-98679000I0J254000D01*
G01*
X151511000Y-98679000D02*
G75*
G02*
X151257000Y-98933000I-254000J0D01*
G01*
D12*
X148844000Y-97790000D02*
X147828000Y-97790000D01*
X148844000Y-99314000D02*
X147828000Y-99314000D01*
X136271000Y-85026500D02*
X136271000Y-85280500D01*
X136271000Y-85026500D02*
X136271000Y-84772500D01*
X137160000Y-85026500D02*
X137160000Y-84772500D01*
X137160000Y-85026500D02*
X137160000Y-85280500D01*
X145669000Y-80835500D02*
X145923000Y-80835500D01*
X145669000Y-80835500D02*
X145415000Y-80835500D01*
X145669000Y-79946500D02*
X145415000Y-79946500D01*
X145669000Y-79946500D02*
X145923000Y-79946500D01*
X153670000Y-60960000D02*
X156210000Y-60960000D01*
X155956000Y-66040000D02*
X156210000Y-66294000D01*
X156210000Y-65786000D02*
X155956000Y-66040000D01*
X156210000Y-63246000D02*
X156210000Y-61468000D01*
X155956000Y-63500000D02*
X156210000Y-63246000D01*
X156210000Y-63754000D02*
X155956000Y-63500000D01*
X156210000Y-65786000D02*
X156210000Y-63754000D01*
X156210000Y-61468000D02*
X156210000Y-60960000D01*
X156210000Y-61214000D02*
X155956000Y-60960000D01*
X153924000Y-60960000D02*
X153670000Y-61214000D01*
X156210000Y-68326000D02*
X156210000Y-66294000D01*
X155956000Y-68580000D02*
X156210000Y-68326000D01*
X156210000Y-71374000D02*
X155956000Y-71120000D01*
X156210000Y-70866000D02*
X156210000Y-68834000D01*
X155956000Y-71120000D02*
X156210000Y-70866000D01*
X153670000Y-70866000D02*
X153924000Y-71120000D01*
X153670000Y-68834000D02*
X153670000Y-70866000D01*
X153924000Y-68580000D02*
X153670000Y-68834000D01*
X153670000Y-68326000D02*
X153924000Y-68580000D01*
X153670000Y-66294000D02*
X153670000Y-68326000D01*
X153924000Y-66040000D02*
X153670000Y-66294000D01*
X153670000Y-65786000D02*
X153924000Y-66040000D01*
X153670000Y-63754000D02*
X153670000Y-65786000D01*
X153924000Y-63500000D02*
X153670000Y-63754000D01*
X153670000Y-63246000D02*
X153924000Y-63500000D01*
X153670000Y-61214000D02*
X153670000Y-63246000D01*
X153670000Y-60960000D02*
X153670000Y-61214000D01*
X153924000Y-71120000D02*
X153670000Y-71374000D01*
X153670000Y-71374000D02*
X153670000Y-73406000D01*
X153670000Y-75946000D02*
X153924000Y-76200000D01*
X156210000Y-73406000D02*
X156210000Y-71374000D01*
X156210000Y-68834000D02*
X155956000Y-68580000D01*
X155956000Y-76200000D02*
X156210000Y-75946000D01*
X153670000Y-73914000D02*
X153670000Y-75946000D01*
X153924000Y-73660000D02*
X153670000Y-73914000D01*
X156210000Y-75946000D02*
X156210000Y-73914000D01*
X155956000Y-73660000D02*
X156210000Y-73406000D01*
X156210000Y-73914000D02*
X155956000Y-73660000D01*
X153670000Y-73406000D02*
X153924000Y-73660000D01*
X153670000Y-75946000D02*
X153924000Y-76200000D01*
X155956000Y-76200000D02*
X156210000Y-75946000D01*
X156210000Y-75946000D02*
X156210000Y-73914000D01*
X153670000Y-73914000D02*
X153670000Y-75946000D01*
X153924000Y-73660000D02*
X153670000Y-73914000D01*
X156210000Y-73914000D02*
X155956000Y-73660000D01*
X156210000Y-78994000D02*
X155956000Y-78740000D01*
X153924000Y-78740000D02*
X153670000Y-78994000D01*
X153670000Y-78994000D02*
X153670000Y-81026000D01*
X156210000Y-81026000D02*
X156210000Y-78994000D01*
X155956000Y-81280000D02*
X156210000Y-81026000D01*
X153670000Y-81026000D02*
X153924000Y-81280000D01*
X153670000Y-78486000D02*
X153924000Y-78740000D01*
X156210000Y-78994000D02*
X155956000Y-78740000D01*
X155956000Y-78740000D02*
X156210000Y-78486000D01*
X156210000Y-81026000D02*
X156210000Y-78994000D01*
X153924000Y-78740000D02*
X153670000Y-78994000D01*
X153670000Y-78994000D02*
X153670000Y-81026000D01*
X155956000Y-81280000D02*
X156210000Y-81026000D01*
X156210000Y-78486000D02*
X156210000Y-76454000D01*
X153670000Y-81026000D02*
X153924000Y-81280000D01*
X153670000Y-76454000D02*
X153670000Y-78486000D01*
X153924000Y-76200000D02*
X153670000Y-76454000D01*
X156210000Y-76454000D02*
X155956000Y-76200000D01*
X156210000Y-81534000D02*
X155956000Y-81280000D01*
X153924000Y-81280000D02*
X153670000Y-81534000D01*
X153670000Y-81534000D02*
X153670000Y-83566000D01*
X153670000Y-86106000D02*
X153924000Y-86360000D01*
X156210000Y-83566000D02*
X156210000Y-81534000D01*
X155956000Y-86360000D02*
X156210000Y-86106000D01*
X153924000Y-86360000D02*
X155956000Y-86360000D01*
X153670000Y-84074000D02*
X153670000Y-86106000D01*
X153924000Y-83820000D02*
X153670000Y-84074000D01*
X156210000Y-86106000D02*
X156210000Y-84074000D01*
X155956000Y-83820000D02*
X156210000Y-83566000D01*
X156210000Y-84074000D02*
X155956000Y-83820000D01*
X153670000Y-83566000D02*
X153924000Y-83820000D01*
X153670000Y-86106000D02*
X153924000Y-86360000D01*
X155956000Y-86360000D02*
X156210000Y-86106000D01*
X156210000Y-86106000D02*
X156210000Y-84074000D01*
X153670000Y-84074000D02*
X153670000Y-86106000D01*
X153924000Y-83820000D02*
X153670000Y-84074000D01*
X156210000Y-84074000D02*
X155956000Y-83820000D01*
X153670000Y-86360000D02*
X156210000Y-86360000D01*
X155956000Y-91440000D02*
X156210000Y-91694000D01*
X156210000Y-91186000D02*
X155956000Y-91440000D01*
X156210000Y-88646000D02*
X156210000Y-86868000D01*
X155956000Y-88900000D02*
X156210000Y-88646000D01*
X156210000Y-89154000D02*
X155956000Y-88900000D01*
X156210000Y-91186000D02*
X156210000Y-89154000D01*
X156210000Y-86868000D02*
X156210000Y-86360000D01*
X156210000Y-86614000D02*
X155956000Y-86360000D01*
X153924000Y-86360000D02*
X153670000Y-86614000D01*
X156210000Y-93726000D02*
X156210000Y-91694000D01*
X155956000Y-93980000D02*
X156210000Y-93726000D01*
X156210000Y-96774000D02*
X155956000Y-96520000D01*
X156210000Y-96266000D02*
X156210000Y-94234000D01*
X155956000Y-96520000D02*
X156210000Y-96266000D01*
X153670000Y-96266000D02*
X153924000Y-96520000D01*
X153670000Y-94234000D02*
X153670000Y-96266000D01*
X153924000Y-93980000D02*
X153670000Y-94234000D01*
X153670000Y-93726000D02*
X153924000Y-93980000D01*
X153670000Y-91694000D02*
X153670000Y-93726000D01*
X153924000Y-91440000D02*
X153670000Y-91694000D01*
X153670000Y-91186000D02*
X153924000Y-91440000D01*
X153670000Y-89154000D02*
X153670000Y-91186000D01*
X153924000Y-88900000D02*
X153670000Y-89154000D01*
X153670000Y-88646000D02*
X153924000Y-88900000D01*
X153670000Y-86614000D02*
X153670000Y-88646000D01*
X153670000Y-86360000D02*
X153670000Y-86614000D01*
X153924000Y-96520000D02*
X153670000Y-96774000D01*
X153670000Y-96774000D02*
X153670000Y-98806000D01*
X153670000Y-101346000D02*
X153924000Y-101600000D01*
X156210000Y-98806000D02*
X156210000Y-96774000D01*
X156210000Y-94234000D02*
X155956000Y-93980000D01*
X155956000Y-101600000D02*
X156210000Y-101346000D01*
X153924000Y-101600000D02*
X155956000Y-101600000D01*
X153670000Y-99314000D02*
X153670000Y-101346000D01*
X153924000Y-99060000D02*
X153670000Y-99314000D01*
X156210000Y-101346000D02*
X156210000Y-99314000D01*
X155956000Y-99060000D02*
X156210000Y-98806000D01*
X156210000Y-99314000D02*
X155956000Y-99060000D01*
X153670000Y-98806000D02*
X153924000Y-99060000D01*
X153670000Y-101346000D02*
X153924000Y-101600000D01*
X155956000Y-101600000D02*
X156210000Y-101346000D01*
X156210000Y-101346000D02*
X156210000Y-99314000D01*
X153670000Y-99314000D02*
X153670000Y-101346000D01*
X153924000Y-99060000D02*
X153670000Y-99314000D01*
X156210000Y-99314000D02*
X155956000Y-99060000D01*
X130810000Y-86360000D02*
X133350000Y-86360000D01*
X133096000Y-91440000D02*
X133350000Y-91694000D01*
X133350000Y-91186000D02*
X133096000Y-91440000D01*
X133350000Y-88646000D02*
X133350000Y-86868000D01*
X133096000Y-88900000D02*
X133350000Y-88646000D01*
X133350000Y-89154000D02*
X133096000Y-88900000D01*
X133350000Y-91186000D02*
X133350000Y-89154000D01*
X133350000Y-86868000D02*
X133350000Y-86360000D01*
X133350000Y-86614000D02*
X133096000Y-86360000D01*
X131064000Y-86360000D02*
X130810000Y-86614000D01*
X133350000Y-93726000D02*
X133350000Y-91694000D01*
X133096000Y-93980000D02*
X133350000Y-93726000D01*
X131064000Y-93980000D02*
X133096000Y-93980000D01*
X130810000Y-93726000D02*
X131064000Y-93980000D01*
X130810000Y-91694000D02*
X130810000Y-93726000D01*
X131064000Y-91440000D02*
X130810000Y-91694000D01*
X130810000Y-91186000D02*
X131064000Y-91440000D01*
X130810000Y-89154000D02*
X130810000Y-91186000D01*
X131064000Y-88900000D02*
X130810000Y-89154000D01*
X130810000Y-88646000D02*
X131064000Y-88900000D01*
X130810000Y-86614000D02*
X130810000Y-88646000D01*
X130810000Y-86360000D02*
X130810000Y-86614000D01*
X130810000Y-60960000D02*
X133350000Y-60960000D01*
X133096000Y-66040000D02*
X133350000Y-66294000D01*
X133350000Y-65786000D02*
X133096000Y-66040000D01*
X133350000Y-63246000D02*
X133350000Y-61468000D01*
X133096000Y-63500000D02*
X133350000Y-63246000D01*
X133350000Y-63754000D02*
X133096000Y-63500000D01*
X133350000Y-65786000D02*
X133350000Y-63754000D01*
X133350000Y-61468000D02*
X133350000Y-60960000D01*
X133350000Y-61214000D02*
X133096000Y-60960000D01*
X131064000Y-60960000D02*
X130810000Y-61214000D01*
X133350000Y-68326000D02*
X133350000Y-66294000D01*
X133096000Y-68580000D02*
X133350000Y-68326000D01*
X133350000Y-71374000D02*
X133096000Y-71120000D01*
X133350000Y-70866000D02*
X133350000Y-68834000D01*
X133096000Y-71120000D02*
X133350000Y-70866000D01*
X130810000Y-70866000D02*
X131064000Y-71120000D01*
X130810000Y-68834000D02*
X130810000Y-70866000D01*
X131064000Y-68580000D02*
X130810000Y-68834000D01*
X130810000Y-68326000D02*
X131064000Y-68580000D01*
X130810000Y-66294000D02*
X130810000Y-68326000D01*
X131064000Y-66040000D02*
X130810000Y-66294000D01*
X130810000Y-65786000D02*
X131064000Y-66040000D01*
X130810000Y-63754000D02*
X130810000Y-65786000D01*
X131064000Y-63500000D02*
X130810000Y-63754000D01*
X130810000Y-63246000D02*
X131064000Y-63500000D01*
X130810000Y-61214000D02*
X130810000Y-63246000D01*
X130810000Y-60960000D02*
X130810000Y-61214000D01*
X131064000Y-71120000D02*
X130810000Y-71374000D01*
X130810000Y-71374000D02*
X130810000Y-73406000D01*
X130810000Y-75946000D02*
X131064000Y-76200000D01*
X133350000Y-73406000D02*
X133350000Y-71374000D01*
X133350000Y-68834000D02*
X133096000Y-68580000D01*
X133096000Y-76200000D02*
X133350000Y-75946000D01*
X130810000Y-73914000D02*
X130810000Y-75946000D01*
X131064000Y-73660000D02*
X130810000Y-73914000D01*
X133350000Y-75946000D02*
X133350000Y-73914000D01*
X133096000Y-73660000D02*
X133350000Y-73406000D01*
X133350000Y-73914000D02*
X133096000Y-73660000D01*
X130810000Y-73406000D02*
X131064000Y-73660000D01*
X130810000Y-75946000D02*
X131064000Y-76200000D01*
X133096000Y-76200000D02*
X133350000Y-75946000D01*
X133350000Y-75946000D02*
X133350000Y-73914000D01*
X130810000Y-73914000D02*
X130810000Y-75946000D01*
X131064000Y-73660000D02*
X130810000Y-73914000D01*
X133350000Y-73914000D02*
X133096000Y-73660000D01*
X133350000Y-78994000D02*
X133096000Y-78740000D01*
X131064000Y-78740000D02*
X130810000Y-78994000D01*
X130810000Y-78994000D02*
X130810000Y-81026000D01*
X133350000Y-81026000D02*
X133350000Y-78994000D01*
X133096000Y-81280000D02*
X133350000Y-81026000D01*
X130810000Y-81026000D02*
X131064000Y-81280000D01*
X130810000Y-78486000D02*
X131064000Y-78740000D01*
X133350000Y-78994000D02*
X133096000Y-78740000D01*
X133096000Y-78740000D02*
X133350000Y-78486000D01*
X133350000Y-81026000D02*
X133350000Y-78994000D01*
X131064000Y-78740000D02*
X130810000Y-78994000D01*
X130810000Y-78994000D02*
X130810000Y-81026000D01*
X133096000Y-81280000D02*
X133350000Y-81026000D01*
X133350000Y-78486000D02*
X133350000Y-76454000D01*
X130810000Y-81026000D02*
X131064000Y-81280000D01*
X130810000Y-76454000D02*
X130810000Y-78486000D01*
X131064000Y-76200000D02*
X130810000Y-76454000D01*
X133350000Y-76454000D02*
X133096000Y-76200000D01*
X133350000Y-81534000D02*
X133096000Y-81280000D01*
X131064000Y-81280000D02*
X130810000Y-81534000D01*
X130810000Y-81534000D02*
X130810000Y-83566000D01*
X130810000Y-86106000D02*
X131064000Y-86360000D01*
X133350000Y-83566000D02*
X133350000Y-81534000D01*
X133096000Y-86360000D02*
X133350000Y-86106000D01*
X131064000Y-86360000D02*
X133096000Y-86360000D01*
X130810000Y-84074000D02*
X130810000Y-86106000D01*
X131064000Y-83820000D02*
X130810000Y-84074000D01*
X133350000Y-86106000D02*
X133350000Y-84074000D01*
X133096000Y-83820000D02*
X133350000Y-83566000D01*
X133350000Y-84074000D02*
X133096000Y-83820000D01*
X130810000Y-83566000D02*
X131064000Y-83820000D01*
X130810000Y-86106000D02*
X131064000Y-86360000D01*
X133096000Y-86360000D02*
X133350000Y-86106000D01*
X133350000Y-86106000D02*
X133350000Y-84074000D01*
X130810000Y-84074000D02*
X130810000Y-86106000D01*
X131064000Y-83820000D02*
X130810000Y-84074000D01*
X133350000Y-84074000D02*
X133096000Y-83820000D01*
X151602000Y-64391000D02*
X147102000Y-64391000D01*
X151602000Y-70991000D02*
X147102000Y-70991000D01*
X148452000Y-70191000D02*
G75*
G03*
X148452000Y-70191000I-400000J0D01*
G01*
X150840000Y-72265000D02*
X146340000Y-72265000D01*
X150840000Y-78865000D02*
X146340000Y-78865000D01*
X147690000Y-78065000D02*
G75*
G03*
X147690000Y-78065000I-400000J0D01*
G01*
D18*
G36*
X148832027Y-95842916D02*
G01*
X148839353Y-95896002D01*
X148860120Y-95947066D01*
X148878467Y-95974862D01*
X148898238Y-95997796D01*
X148919684Y-96018611D01*
X148927909Y-96025295D01*
X148952800Y-96043750D01*
X148953010Y-96457135D01*
X148953220Y-96870520D01*
X148998940Y-96870520D01*
X148998940Y-95838010D01*
X149002007Y-95803815D01*
X149012575Y-95781758D01*
X149032698Y-95769743D01*
X149064429Y-95765675D01*
X149069874Y-95765620D01*
X149095529Y-95767395D01*
X149116358Y-95771928D01*
X149123632Y-95775349D01*
X149136853Y-95793345D01*
X149143833Y-95819891D01*
X149144563Y-95849667D01*
X149139032Y-95877350D01*
X149127232Y-95897617D01*
X149123862Y-95900503D01*
X149103757Y-95908286D01*
X149076251Y-95910836D01*
X149047480Y-95908449D01*
X149023580Y-95901426D01*
X149014180Y-95895160D01*
X149004325Y-95880476D01*
X148999725Y-95859019D01*
X148998940Y-95838010D01*
X148998940Y-96870520D01*
X149071330Y-96870520D01*
X149189440Y-96870520D01*
X149189462Y-96457135D01*
X149189484Y-96043750D01*
X149212799Y-96028510D01*
X149235587Y-96008852D01*
X149260268Y-95980103D01*
X149282990Y-95947288D01*
X149299904Y-95915432D01*
X149300451Y-95914138D01*
X149310908Y-95872865D01*
X149312114Y-95825699D01*
X149304360Y-95778625D01*
X149292265Y-95745796D01*
X149261381Y-95697660D01*
X149219933Y-95654707D01*
X149172559Y-95621609D01*
X149165243Y-95617791D01*
X149115723Y-95601142D01*
X149062247Y-95596996D01*
X149009573Y-95605355D01*
X148977417Y-95617791D01*
X148925933Y-95650713D01*
X148885093Y-95691705D01*
X148855456Y-95738748D01*
X148837581Y-95789825D01*
X148832027Y-95842916D01*
G37*
X148832027Y-95842916D02*
X148839353Y-95896002D01*
X148860120Y-95947066D01*
X148878467Y-95974862D01*
X148898238Y-95997796D01*
X148919684Y-96018611D01*
X148927909Y-96025295D01*
X148952800Y-96043750D01*
X148953010Y-96457135D01*
X148953220Y-96870520D01*
X148998940Y-96870520D01*
X148998940Y-95838010D01*
X149002007Y-95803815D01*
X149012575Y-95781758D01*
X149032698Y-95769743D01*
X149064429Y-95765675D01*
X149069874Y-95765620D01*
X149095529Y-95767395D01*
X149116358Y-95771928D01*
X149123632Y-95775349D01*
X149136853Y-95793345D01*
X149143833Y-95819891D01*
X149144563Y-95849667D01*
X149139032Y-95877350D01*
X149127232Y-95897617D01*
X149123862Y-95900503D01*
X149103757Y-95908286D01*
X149076251Y-95910836D01*
X149047480Y-95908449D01*
X149023580Y-95901426D01*
X149014180Y-95895160D01*
X149004325Y-95880476D01*
X148999725Y-95859019D01*
X148998940Y-95838010D01*
X148998940Y-96870520D01*
X149071330Y-96870520D01*
X149189440Y-96870520D01*
X149189462Y-96457135D01*
X149189484Y-96043750D01*
X149212799Y-96028510D01*
X149235587Y-96008852D01*
X149260268Y-95980103D01*
X149282990Y-95947288D01*
X149299904Y-95915432D01*
X149300451Y-95914138D01*
X149310908Y-95872865D01*
X149312114Y-95825699D01*
X149304360Y-95778625D01*
X149292265Y-95745796D01*
X149261381Y-95697660D01*
X149219933Y-95654707D01*
X149172559Y-95621609D01*
X149165243Y-95617791D01*
X149115723Y-95601142D01*
X149062247Y-95596996D01*
X149009573Y-95605355D01*
X148977417Y-95617791D01*
X148925933Y-95650713D01*
X148885093Y-95691705D01*
X148855456Y-95738748D01*
X148837581Y-95789825D01*
X148832027Y-95842916D01*
G36*
X149980681Y-96530469D02*
G01*
X149980804Y-96611315D01*
X149981172Y-96690484D01*
X149981785Y-96766439D01*
X149982644Y-96837645D01*
X149983749Y-96902565D01*
X149985100Y-96959665D01*
X149986699Y-97007407D01*
X149988545Y-97044258D01*
X149990639Y-97068680D01*
X149992564Y-97078410D01*
X150001923Y-97092554D01*
X150020292Y-97114533D01*
X150045489Y-97142183D01*
X150075328Y-97173335D01*
X150107626Y-97205824D01*
X150140198Y-97237484D01*
X150170862Y-97266148D01*
X150197432Y-97289650D01*
X150217726Y-97305824D01*
X150218140Y-97306073D01*
X150218140Y-96989070D01*
X150218140Y-96524221D01*
X150218140Y-96059372D01*
X150269371Y-96007746D01*
X150320601Y-95956120D01*
X150499684Y-95956120D01*
X150678768Y-95956120D01*
X150730394Y-96007351D01*
X150754286Y-96031358D01*
X150769364Y-96048321D01*
X150777656Y-96061906D01*
X150781188Y-96075780D01*
X150781988Y-96093609D01*
X150781998Y-96100696D01*
X150781183Y-96125693D01*
X150777334Y-96140776D01*
X150768293Y-96151243D01*
X150758661Y-96158050D01*
X150733993Y-96179443D01*
X150708557Y-96210045D01*
X150686257Y-96244561D01*
X150671480Y-96276302D01*
X150660600Y-96329092D01*
X150663404Y-96383326D01*
X150678955Y-96436152D01*
X150706316Y-96484717D01*
X150744551Y-96526166D01*
X150756709Y-96535835D01*
X150781600Y-96554290D01*
X150781810Y-96767459D01*
X150782020Y-96980627D01*
X150730789Y-97032254D01*
X150679559Y-97083880D01*
X150496679Y-97083880D01*
X150313800Y-97083880D01*
X150265970Y-97036475D01*
X150218140Y-96989070D01*
X150218140Y-97306073D01*
X150228161Y-97312102D01*
X150243190Y-97314766D01*
X150271033Y-97316904D01*
X150309405Y-97318531D01*
X150356022Y-97319660D01*
X150408600Y-97320304D01*
X150464856Y-97320478D01*
X150522503Y-97320195D01*
X150579260Y-97319470D01*
X150632840Y-97318314D01*
X150680961Y-97316743D01*
X150721337Y-97314770D01*
X150751686Y-97312409D01*
X150769721Y-97309672D01*
X150772252Y-97308842D01*
X150787298Y-97299161D01*
X150810250Y-97280578D01*
X150827740Y-97265121D01*
X150827740Y-96348550D01*
X150830807Y-96314355D01*
X150841375Y-96292298D01*
X150861498Y-96280283D01*
X150893229Y-96276215D01*
X150898674Y-96276160D01*
X150924329Y-96277935D01*
X150945158Y-96282468D01*
X150952432Y-96285889D01*
X150965653Y-96303885D01*
X150972633Y-96330431D01*
X150973363Y-96360207D01*
X150967832Y-96387890D01*
X150956032Y-96408157D01*
X150952662Y-96411043D01*
X150932557Y-96418826D01*
X150905051Y-96421376D01*
X150876280Y-96418989D01*
X150852380Y-96411966D01*
X150842980Y-96405700D01*
X150833125Y-96391016D01*
X150828525Y-96369559D01*
X150827740Y-96348550D01*
X150827740Y-97265121D01*
X150838858Y-97255295D01*
X150870873Y-97225509D01*
X150904047Y-97193423D01*
X150936128Y-97161234D01*
X150964869Y-97131144D01*
X150988020Y-97105352D01*
X151003331Y-97086058D01*
X151007864Y-97078410D01*
X151010891Y-97067799D01*
X151013313Y-97050833D01*
X151015185Y-97026081D01*
X151016561Y-96992113D01*
X151017495Y-96947498D01*
X151018042Y-96890806D01*
X151018254Y-96820605D01*
X151018262Y-96804090D01*
X151018284Y-96554290D01*
X151041599Y-96539050D01*
X151064387Y-96519392D01*
X151089068Y-96490643D01*
X151111790Y-96457828D01*
X151128704Y-96425972D01*
X151129251Y-96424678D01*
X151137502Y-96392773D01*
X151140645Y-96353296D01*
X151138683Y-96313035D01*
X151131614Y-96278775D01*
X151129251Y-96272422D01*
X151112680Y-96240723D01*
X151090131Y-96207845D01*
X151065456Y-96178813D01*
X151042504Y-96158652D01*
X151041599Y-96158050D01*
X151018284Y-96142810D01*
X151018262Y-96069011D01*
X151017435Y-96034419D01*
X151015239Y-96003387D01*
X151012065Y-95980589D01*
X151010244Y-95973761D01*
X151001782Y-95960425D01*
X150984189Y-95938949D01*
X150959585Y-95911473D01*
X150930092Y-95880132D01*
X150897832Y-95847067D01*
X150864924Y-95814414D01*
X150833492Y-95784312D01*
X150805656Y-95758899D01*
X150783538Y-95740313D01*
X150769258Y-95730692D01*
X150768930Y-95730545D01*
X150753663Y-95727317D01*
X150725480Y-95724613D01*
X150686695Y-95722434D01*
X150639623Y-95720782D01*
X150586579Y-95719656D01*
X150529877Y-95719059D01*
X150471833Y-95718991D01*
X150414760Y-95719454D01*
X150360974Y-95720448D01*
X150312790Y-95721976D01*
X150272521Y-95724038D01*
X150242483Y-95726635D01*
X150224991Y-95729768D01*
X150223610Y-95730276D01*
X150208989Y-95739892D01*
X150186595Y-95758763D01*
X150158632Y-95784624D01*
X150127302Y-95815211D01*
X150094808Y-95848257D01*
X150063354Y-95881498D01*
X150035142Y-95912667D01*
X150012375Y-95939499D01*
X149997257Y-95959729D01*
X149992844Y-95967585D01*
X149990538Y-95980744D01*
X149988473Y-96007583D01*
X149986650Y-96046565D01*
X149985069Y-96096156D01*
X149983729Y-96154819D01*
X149982633Y-96221019D01*
X149981779Y-96293219D01*
X149981169Y-96369885D01*
X149980803Y-96449480D01*
X149980681Y-96530469D01*
G37*
X149980681Y-96530469D02*
X149980804Y-96611315D01*
X149981172Y-96690484D01*
X149981785Y-96766439D01*
X149982644Y-96837645D01*
X149983749Y-96902565D01*
X149985100Y-96959665D01*
X149986699Y-97007407D01*
X149988545Y-97044258D01*
X149990639Y-97068680D01*
X149992564Y-97078410D01*
X150001923Y-97092554D01*
X150020292Y-97114533D01*
X150045489Y-97142183D01*
X150075328Y-97173335D01*
X150107626Y-97205824D01*
X150140198Y-97237484D01*
X150170862Y-97266148D01*
X150197432Y-97289650D01*
X150217726Y-97305824D01*
X150218140Y-97306073D01*
X150218140Y-96989070D01*
X150218140Y-96524221D01*
X150218140Y-96059372D01*
X150269371Y-96007746D01*
X150320601Y-95956120D01*
X150499684Y-95956120D01*
X150678768Y-95956120D01*
X150730394Y-96007351D01*
X150754286Y-96031358D01*
X150769364Y-96048321D01*
X150777656Y-96061906D01*
X150781188Y-96075780D01*
X150781988Y-96093609D01*
X150781998Y-96100696D01*
X150781183Y-96125693D01*
X150777334Y-96140776D01*
X150768293Y-96151243D01*
X150758661Y-96158050D01*
X150733993Y-96179443D01*
X150708557Y-96210045D01*
X150686257Y-96244561D01*
X150671480Y-96276302D01*
X150660600Y-96329092D01*
X150663404Y-96383326D01*
X150678955Y-96436152D01*
X150706316Y-96484717D01*
X150744551Y-96526166D01*
X150756709Y-96535835D01*
X150781600Y-96554290D01*
X150781810Y-96767459D01*
X150782020Y-96980627D01*
X150730789Y-97032254D01*
X150679559Y-97083880D01*
X150496679Y-97083880D01*
X150313800Y-97083880D01*
X150265970Y-97036475D01*
X150218140Y-96989070D01*
X150218140Y-97306073D01*
X150228161Y-97312102D01*
X150243190Y-97314766D01*
X150271033Y-97316904D01*
X150309405Y-97318531D01*
X150356022Y-97319660D01*
X150408600Y-97320304D01*
X150464856Y-97320478D01*
X150522503Y-97320195D01*
X150579260Y-97319470D01*
X150632840Y-97318314D01*
X150680961Y-97316743D01*
X150721337Y-97314770D01*
X150751686Y-97312409D01*
X150769721Y-97309672D01*
X150772252Y-97308842D01*
X150787298Y-97299161D01*
X150810250Y-97280578D01*
X150827740Y-97265121D01*
X150827740Y-96348550D01*
X150830807Y-96314355D01*
X150841375Y-96292298D01*
X150861498Y-96280283D01*
X150893229Y-96276215D01*
X150898674Y-96276160D01*
X150924329Y-96277935D01*
X150945158Y-96282468D01*
X150952432Y-96285889D01*
X150965653Y-96303885D01*
X150972633Y-96330431D01*
X150973363Y-96360207D01*
X150967832Y-96387890D01*
X150956032Y-96408157D01*
X150952662Y-96411043D01*
X150932557Y-96418826D01*
X150905051Y-96421376D01*
X150876280Y-96418989D01*
X150852380Y-96411966D01*
X150842980Y-96405700D01*
X150833125Y-96391016D01*
X150828525Y-96369559D01*
X150827740Y-96348550D01*
X150827740Y-97265121D01*
X150838858Y-97255295D01*
X150870873Y-97225509D01*
X150904047Y-97193423D01*
X150936128Y-97161234D01*
X150964869Y-97131144D01*
X150988020Y-97105352D01*
X151003331Y-97086058D01*
X151007864Y-97078410D01*
X151010891Y-97067799D01*
X151013313Y-97050833D01*
X151015185Y-97026081D01*
X151016561Y-96992113D01*
X151017495Y-96947498D01*
X151018042Y-96890806D01*
X151018254Y-96820605D01*
X151018262Y-96804090D01*
X151018284Y-96554290D01*
X151041599Y-96539050D01*
X151064387Y-96519392D01*
X151089068Y-96490643D01*
X151111790Y-96457828D01*
X151128704Y-96425972D01*
X151129251Y-96424678D01*
X151137502Y-96392773D01*
X151140645Y-96353296D01*
X151138683Y-96313035D01*
X151131614Y-96278775D01*
X151129251Y-96272422D01*
X151112680Y-96240723D01*
X151090131Y-96207845D01*
X151065456Y-96178813D01*
X151042504Y-96158652D01*
X151041599Y-96158050D01*
X151018284Y-96142810D01*
X151018262Y-96069011D01*
X151017435Y-96034419D01*
X151015239Y-96003387D01*
X151012065Y-95980589D01*
X151010244Y-95973761D01*
X151001782Y-95960425D01*
X150984189Y-95938949D01*
X150959585Y-95911473D01*
X150930092Y-95880132D01*
X150897832Y-95847067D01*
X150864924Y-95814414D01*
X150833492Y-95784312D01*
X150805656Y-95758899D01*
X150783538Y-95740313D01*
X150769258Y-95730692D01*
X150768930Y-95730545D01*
X150753663Y-95727317D01*
X150725480Y-95724613D01*
X150686695Y-95722434D01*
X150639623Y-95720782D01*
X150586579Y-95719656D01*
X150529877Y-95719059D01*
X150471833Y-95718991D01*
X150414760Y-95719454D01*
X150360974Y-95720448D01*
X150312790Y-95721976D01*
X150272521Y-95724038D01*
X150242483Y-95726635D01*
X150224991Y-95729768D01*
X150223610Y-95730276D01*
X150208989Y-95739892D01*
X150186595Y-95758763D01*
X150158632Y-95784624D01*
X150127302Y-95815211D01*
X150094808Y-95848257D01*
X150063354Y-95881498D01*
X150035142Y-95912667D01*
X150012375Y-95939499D01*
X149997257Y-95959729D01*
X149992844Y-95967585D01*
X149990538Y-95980744D01*
X149988473Y-96007583D01*
X149986650Y-96046565D01*
X149985069Y-96096156D01*
X149983729Y-96154819D01*
X149982633Y-96221019D01*
X149981779Y-96293219D01*
X149981169Y-96369885D01*
X149980803Y-96449480D01*
X149980681Y-96530469D01*
G36*
X144772698Y-97192094D02*
G01*
X144774886Y-97240273D01*
X144784846Y-97283558D01*
X144790795Y-97297742D01*
X144814333Y-97334381D01*
X144847079Y-97370932D01*
X144883980Y-97402350D01*
X144914118Y-97420900D01*
X144937480Y-97428751D01*
X144937480Y-97201990D01*
X144940546Y-97167795D01*
X144951115Y-97145738D01*
X144971238Y-97133723D01*
X145002969Y-97129655D01*
X145008414Y-97129600D01*
X145034069Y-97131375D01*
X145054898Y-97135908D01*
X145062172Y-97139329D01*
X145075393Y-97157325D01*
X145082373Y-97183871D01*
X145083103Y-97213647D01*
X145077572Y-97241330D01*
X145065772Y-97261597D01*
X145062403Y-97264483D01*
X145042297Y-97272266D01*
X145014791Y-97274816D01*
X144986020Y-97272429D01*
X144962120Y-97265406D01*
X144952720Y-97259140D01*
X144942865Y-97244456D01*
X144938265Y-97222999D01*
X144937480Y-97201990D01*
X144937480Y-97428751D01*
X144949748Y-97432874D01*
X144992504Y-97439290D01*
X145036123Y-97439784D01*
X145074343Y-97433993D01*
X145084366Y-97430770D01*
X145134233Y-97404326D01*
X145179591Y-97366044D01*
X145217040Y-97319288D01*
X145239217Y-97277577D01*
X145247386Y-97245803D01*
X145250411Y-97206414D01*
X145248315Y-97166131D01*
X145241121Y-97131675D01*
X145238686Y-97125133D01*
X145226520Y-97096015D01*
X145339080Y-96983267D01*
X145451639Y-96870520D01*
X145493689Y-96870520D01*
X145535739Y-96870520D01*
X145779535Y-97115123D01*
X145830563Y-97166019D01*
X145879037Y-97213788D01*
X145923752Y-97257287D01*
X145963504Y-97295369D01*
X145997089Y-97326888D01*
X146023304Y-97350701D01*
X146040943Y-97365660D01*
X146047850Y-97370393D01*
X146063583Y-97373808D01*
X146092078Y-97376628D01*
X146130866Y-97378854D01*
X146177482Y-97380484D01*
X146229457Y-97381516D01*
X146284325Y-97381948D01*
X146339619Y-97381780D01*
X146392871Y-97381009D01*
X146441614Y-97379635D01*
X146483382Y-97377655D01*
X146515706Y-97375069D01*
X146536120Y-97371874D01*
X146539830Y-97370684D01*
X146554451Y-97361068D01*
X146576845Y-97342197D01*
X146604808Y-97316336D01*
X146636138Y-97285749D01*
X146668632Y-97252703D01*
X146700086Y-97219462D01*
X146728298Y-97188293D01*
X146751065Y-97161461D01*
X146766183Y-97141231D01*
X146770596Y-97133375D01*
X146772881Y-97120253D01*
X146774930Y-97093392D01*
X146776743Y-97054292D01*
X146778319Y-97004453D01*
X146779658Y-96945374D01*
X146780761Y-96878556D01*
X146781627Y-96805497D01*
X146782256Y-96727698D01*
X146782649Y-96646658D01*
X146782806Y-96563877D01*
X146782725Y-96480854D01*
X146782409Y-96399089D01*
X146781855Y-96320082D01*
X146781065Y-96245333D01*
X146780039Y-96176340D01*
X146778776Y-96114604D01*
X146777276Y-96061625D01*
X146775540Y-96018901D01*
X146773567Y-95987933D01*
X146771358Y-95970221D01*
X146770596Y-95967585D01*
X146760960Y-95952256D01*
X146742391Y-95929002D01*
X146717090Y-95900089D01*
X146687261Y-95867783D01*
X146655106Y-95834348D01*
X146622829Y-95802050D01*
X146592633Y-95773155D01*
X146566720Y-95749928D01*
X146547294Y-95734635D01*
X146539830Y-95730276D01*
X146523899Y-95726881D01*
X146495243Y-95724093D01*
X146456326Y-95721913D01*
X146409618Y-95720339D01*
X146357585Y-95719369D01*
X146302693Y-95719001D01*
X146247411Y-95719235D01*
X146194206Y-95720068D01*
X146145544Y-95721500D01*
X146103893Y-95723529D01*
X146071719Y-95726153D01*
X146051491Y-95729372D01*
X146047850Y-95730567D01*
X146037486Y-95738079D01*
X146017638Y-95755309D01*
X145989510Y-95781112D01*
X145954305Y-95814343D01*
X145913228Y-95853855D01*
X145867483Y-95898504D01*
X145818273Y-95947144D01*
X145779535Y-95985837D01*
X145535739Y-96230440D01*
X145493689Y-96230440D01*
X145451639Y-96230440D01*
X145339080Y-96117692D01*
X145226520Y-96004945D01*
X145238686Y-95975827D01*
X145249423Y-95933661D01*
X145250622Y-95885810D01*
X145242560Y-95838244D01*
X145230805Y-95806756D01*
X145199921Y-95758620D01*
X145158473Y-95715667D01*
X145111099Y-95682569D01*
X145103783Y-95678751D01*
X145054263Y-95662102D01*
X145000787Y-95657956D01*
X144948113Y-95666315D01*
X144915957Y-95678751D01*
X144871529Y-95707297D01*
X144831039Y-95745123D01*
X144799294Y-95787484D01*
X144791548Y-95801663D01*
X144781502Y-95825926D01*
X144775948Y-95851259D01*
X144773799Y-95883559D01*
X144773650Y-95898970D01*
X144777134Y-95948951D01*
X144788917Y-95990444D01*
X144810994Y-96028189D01*
X144843634Y-96065206D01*
X144890896Y-96103813D01*
X144937480Y-96126034D01*
X144937480Y-95898970D01*
X144940546Y-95864775D01*
X144951115Y-95842718D01*
X144971238Y-95830703D01*
X145002969Y-95826635D01*
X145008414Y-95826580D01*
X145034069Y-95828355D01*
X145054898Y-95832888D01*
X145062172Y-95836309D01*
X145075393Y-95854305D01*
X145082373Y-95880851D01*
X145083103Y-95910627D01*
X145077572Y-95938310D01*
X145065772Y-95958577D01*
X145062403Y-95961463D01*
X145042297Y-95969246D01*
X145014791Y-95971796D01*
X144986020Y-95969409D01*
X144962120Y-95962386D01*
X144952720Y-95956120D01*
X144942865Y-95941436D01*
X144938265Y-95919979D01*
X144937480Y-95898970D01*
X144937480Y-96126034D01*
X144941192Y-96127805D01*
X144990406Y-96137346D01*
X145032730Y-96140509D01*
X145188940Y-96295600D01*
X145229921Y-96335836D01*
X145268383Y-96372749D01*
X145302744Y-96404885D01*
X145331422Y-96430793D01*
X145352837Y-96449023D01*
X145365406Y-96458121D01*
X145366601Y-96458675D01*
X145385638Y-96462570D01*
X145415868Y-96465197D01*
X145453575Y-96466594D01*
X145495043Y-96466801D01*
X145536555Y-96465855D01*
X145574396Y-96463795D01*
X145604850Y-96460659D01*
X145624200Y-96456487D01*
X145625430Y-96455993D01*
X145635794Y-96448481D01*
X145655642Y-96431251D01*
X145683770Y-96405448D01*
X145718975Y-96372217D01*
X145760052Y-96332705D01*
X145805797Y-96288056D01*
X145855007Y-96239416D01*
X145893745Y-96200723D01*
X146137541Y-95956120D01*
X146290190Y-95956120D01*
X146442839Y-95956120D01*
X146494069Y-96007746D01*
X146545300Y-96059372D01*
X146545300Y-96232536D01*
X146545300Y-96405700D01*
X146394805Y-96405678D01*
X146244310Y-96405656D01*
X146229070Y-96382341D01*
X146209674Y-96359837D01*
X146181283Y-96335345D01*
X146148959Y-96312762D01*
X146117763Y-96295986D01*
X146115837Y-96295165D01*
X146076987Y-96285310D01*
X146031569Y-96283551D01*
X145985733Y-96289586D01*
X145945629Y-96303112D01*
X145944657Y-96303591D01*
X145900229Y-96332137D01*
X145859739Y-96369963D01*
X145827994Y-96412324D01*
X145820248Y-96426503D01*
X145806960Y-96466748D01*
X145801398Y-96513914D01*
X145803586Y-96562093D01*
X145813546Y-96605378D01*
X145819495Y-96619562D01*
X145842989Y-96656149D01*
X145875645Y-96692619D01*
X145912439Y-96723954D01*
X145942818Y-96742616D01*
X145966180Y-96750398D01*
X145966180Y-96523810D01*
X145969246Y-96489615D01*
X145979815Y-96467558D01*
X145999938Y-96455543D01*
X146031669Y-96451475D01*
X146037114Y-96451420D01*
X146062769Y-96453195D01*
X146083598Y-96457728D01*
X146090872Y-96461149D01*
X146104093Y-96479145D01*
X146111073Y-96505691D01*
X146111803Y-96535467D01*
X146106272Y-96563150D01*
X146094472Y-96583417D01*
X146091103Y-96586303D01*
X146070997Y-96594086D01*
X146043491Y-96596636D01*
X146014720Y-96594249D01*
X145990820Y-96587226D01*
X145981420Y-96580960D01*
X145971565Y-96566276D01*
X145966965Y-96544819D01*
X145966180Y-96523810D01*
X145966180Y-96750398D01*
X145985737Y-96756912D01*
X146034340Y-96762798D01*
X146081889Y-96759826D01*
X146107200Y-96753572D01*
X146142140Y-96737662D01*
X146177754Y-96714849D01*
X146208815Y-96688921D01*
X146229070Y-96665279D01*
X146244310Y-96641964D01*
X146394805Y-96641942D01*
X146545300Y-96641920D01*
X146545300Y-96842149D01*
X146545300Y-97042379D01*
X146493674Y-97093609D01*
X146442048Y-97144840D01*
X146289794Y-97144840D01*
X146137541Y-97144840D01*
X145893745Y-96900237D01*
X145842717Y-96849341D01*
X145794243Y-96801572D01*
X145749528Y-96758073D01*
X145709776Y-96719991D01*
X145676191Y-96688471D01*
X145649976Y-96664659D01*
X145632337Y-96649700D01*
X145625430Y-96644967D01*
X145605623Y-96640076D01*
X145574446Y-96636587D01*
X145535704Y-96634500D01*
X145493205Y-96633815D01*
X145450752Y-96634532D01*
X145412151Y-96636652D01*
X145381209Y-96640174D01*
X145362050Y-96644957D01*
X145350380Y-96653043D01*
X145329708Y-96670536D01*
X145301663Y-96695926D01*
X145267877Y-96727701D01*
X145229979Y-96764352D01*
X145189602Y-96804368D01*
X145185201Y-96808787D01*
X145032873Y-96961960D01*
X144994293Y-96961960D01*
X144949946Y-96968929D01*
X144904630Y-96988360D01*
X144861486Y-97018042D01*
X144823658Y-97055763D01*
X144794287Y-97099309D01*
X144791548Y-97104683D01*
X144778260Y-97144928D01*
X144772698Y-97192094D01*
G37*
X144772698Y-97192094D02*
X144774886Y-97240273D01*
X144784846Y-97283558D01*
X144790795Y-97297742D01*
X144814333Y-97334381D01*
X144847079Y-97370932D01*
X144883980Y-97402350D01*
X144914118Y-97420900D01*
X144937480Y-97428751D01*
X144937480Y-97201990D01*
X144940546Y-97167795D01*
X144951115Y-97145738D01*
X144971238Y-97133723D01*
X145002969Y-97129655D01*
X145008414Y-97129600D01*
X145034069Y-97131375D01*
X145054898Y-97135908D01*
X145062172Y-97139329D01*
X145075393Y-97157325D01*
X145082373Y-97183871D01*
X145083103Y-97213647D01*
X145077572Y-97241330D01*
X145065772Y-97261597D01*
X145062403Y-97264483D01*
X145042297Y-97272266D01*
X145014791Y-97274816D01*
X144986020Y-97272429D01*
X144962120Y-97265406D01*
X144952720Y-97259140D01*
X144942865Y-97244456D01*
X144938265Y-97222999D01*
X144937480Y-97201990D01*
X144937480Y-97428751D01*
X144949748Y-97432874D01*
X144992504Y-97439290D01*
X145036123Y-97439784D01*
X145074343Y-97433993D01*
X145084366Y-97430770D01*
X145134233Y-97404326D01*
X145179591Y-97366044D01*
X145217040Y-97319288D01*
X145239217Y-97277577D01*
X145247386Y-97245803D01*
X145250411Y-97206414D01*
X145248315Y-97166131D01*
X145241121Y-97131675D01*
X145238686Y-97125133D01*
X145226520Y-97096015D01*
X145339080Y-96983267D01*
X145451639Y-96870520D01*
X145493689Y-96870520D01*
X145535739Y-96870520D01*
X145779535Y-97115123D01*
X145830563Y-97166019D01*
X145879037Y-97213788D01*
X145923752Y-97257287D01*
X145963504Y-97295369D01*
X145997089Y-97326888D01*
X146023304Y-97350701D01*
X146040943Y-97365660D01*
X146047850Y-97370393D01*
X146063583Y-97373808D01*
X146092078Y-97376628D01*
X146130866Y-97378854D01*
X146177482Y-97380484D01*
X146229457Y-97381516D01*
X146284325Y-97381948D01*
X146339619Y-97381780D01*
X146392871Y-97381009D01*
X146441614Y-97379635D01*
X146483382Y-97377655D01*
X146515706Y-97375069D01*
X146536120Y-97371874D01*
X146539830Y-97370684D01*
X146554451Y-97361068D01*
X146576845Y-97342197D01*
X146604808Y-97316336D01*
X146636138Y-97285749D01*
X146668632Y-97252703D01*
X146700086Y-97219462D01*
X146728298Y-97188293D01*
X146751065Y-97161461D01*
X146766183Y-97141231D01*
X146770596Y-97133375D01*
X146772881Y-97120253D01*
X146774930Y-97093392D01*
X146776743Y-97054292D01*
X146778319Y-97004453D01*
X146779658Y-96945374D01*
X146780761Y-96878556D01*
X146781627Y-96805497D01*
X146782256Y-96727698D01*
X146782649Y-96646658D01*
X146782806Y-96563877D01*
X146782725Y-96480854D01*
X146782409Y-96399089D01*
X146781855Y-96320082D01*
X146781065Y-96245333D01*
X146780039Y-96176340D01*
X146778776Y-96114604D01*
X146777276Y-96061625D01*
X146775540Y-96018901D01*
X146773567Y-95987933D01*
X146771358Y-95970221D01*
X146770596Y-95967585D01*
X146760960Y-95952256D01*
X146742391Y-95929002D01*
X146717090Y-95900089D01*
X146687261Y-95867783D01*
X146655106Y-95834348D01*
X146622829Y-95802050D01*
X146592633Y-95773155D01*
X146566720Y-95749928D01*
X146547294Y-95734635D01*
X146539830Y-95730276D01*
X146523899Y-95726881D01*
X146495243Y-95724093D01*
X146456326Y-95721913D01*
X146409618Y-95720339D01*
X146357585Y-95719369D01*
X146302693Y-95719001D01*
X146247411Y-95719235D01*
X146194206Y-95720068D01*
X146145544Y-95721500D01*
X146103893Y-95723529D01*
X146071719Y-95726153D01*
X146051491Y-95729372D01*
X146047850Y-95730567D01*
X146037486Y-95738079D01*
X146017638Y-95755309D01*
X145989510Y-95781112D01*
X145954305Y-95814343D01*
X145913228Y-95853855D01*
X145867483Y-95898504D01*
X145818273Y-95947144D01*
X145779535Y-95985837D01*
X145535739Y-96230440D01*
X145493689Y-96230440D01*
X145451639Y-96230440D01*
X145339080Y-96117692D01*
X145226520Y-96004945D01*
X145238686Y-95975827D01*
X145249423Y-95933661D01*
X145250622Y-95885810D01*
X145242560Y-95838244D01*
X145230805Y-95806756D01*
X145199921Y-95758620D01*
X145158473Y-95715667D01*
X145111099Y-95682569D01*
X145103783Y-95678751D01*
X145054263Y-95662102D01*
X145000787Y-95657956D01*
X144948113Y-95666315D01*
X144915957Y-95678751D01*
X144871529Y-95707297D01*
X144831039Y-95745123D01*
X144799294Y-95787484D01*
X144791548Y-95801663D01*
X144781502Y-95825926D01*
X144775948Y-95851259D01*
X144773799Y-95883559D01*
X144773650Y-95898970D01*
X144777134Y-95948951D01*
X144788917Y-95990444D01*
X144810994Y-96028189D01*
X144843634Y-96065206D01*
X144890896Y-96103813D01*
X144937480Y-96126034D01*
X144937480Y-95898970D01*
X144940546Y-95864775D01*
X144951115Y-95842718D01*
X144971238Y-95830703D01*
X145002969Y-95826635D01*
X145008414Y-95826580D01*
X145034069Y-95828355D01*
X145054898Y-95832888D01*
X145062172Y-95836309D01*
X145075393Y-95854305D01*
X145082373Y-95880851D01*
X145083103Y-95910627D01*
X145077572Y-95938310D01*
X145065772Y-95958577D01*
X145062403Y-95961463D01*
X145042297Y-95969246D01*
X145014791Y-95971796D01*
X144986020Y-95969409D01*
X144962120Y-95962386D01*
X144952720Y-95956120D01*
X144942865Y-95941436D01*
X144938265Y-95919979D01*
X144937480Y-95898970D01*
X144937480Y-96126034D01*
X144941192Y-96127805D01*
X144990406Y-96137346D01*
X145032730Y-96140509D01*
X145188940Y-96295600D01*
X145229921Y-96335836D01*
X145268383Y-96372749D01*
X145302744Y-96404885D01*
X145331422Y-96430793D01*
X145352837Y-96449023D01*
X145365406Y-96458121D01*
X145366601Y-96458675D01*
X145385638Y-96462570D01*
X145415868Y-96465197D01*
X145453575Y-96466594D01*
X145495043Y-96466801D01*
X145536555Y-96465855D01*
X145574396Y-96463795D01*
X145604850Y-96460659D01*
X145624200Y-96456487D01*
X145625430Y-96455993D01*
X145635794Y-96448481D01*
X145655642Y-96431251D01*
X145683770Y-96405448D01*
X145718975Y-96372217D01*
X145760052Y-96332705D01*
X145805797Y-96288056D01*
X145855007Y-96239416D01*
X145893745Y-96200723D01*
X146137541Y-95956120D01*
X146290190Y-95956120D01*
X146442839Y-95956120D01*
X146494069Y-96007746D01*
X146545300Y-96059372D01*
X146545300Y-96232536D01*
X146545300Y-96405700D01*
X146394805Y-96405678D01*
X146244310Y-96405656D01*
X146229070Y-96382341D01*
X146209674Y-96359837D01*
X146181283Y-96335345D01*
X146148959Y-96312762D01*
X146117763Y-96295986D01*
X146115837Y-96295165D01*
X146076987Y-96285310D01*
X146031569Y-96283551D01*
X145985733Y-96289586D01*
X145945629Y-96303112D01*
X145944657Y-96303591D01*
X145900229Y-96332137D01*
X145859739Y-96369963D01*
X145827994Y-96412324D01*
X145820248Y-96426503D01*
X145806960Y-96466748D01*
X145801398Y-96513914D01*
X145803586Y-96562093D01*
X145813546Y-96605378D01*
X145819495Y-96619562D01*
X145842989Y-96656149D01*
X145875645Y-96692619D01*
X145912439Y-96723954D01*
X145942818Y-96742616D01*
X145966180Y-96750398D01*
X145966180Y-96523810D01*
X145969246Y-96489615D01*
X145979815Y-96467558D01*
X145999938Y-96455543D01*
X146031669Y-96451475D01*
X146037114Y-96451420D01*
X146062769Y-96453195D01*
X146083598Y-96457728D01*
X146090872Y-96461149D01*
X146104093Y-96479145D01*
X146111073Y-96505691D01*
X146111803Y-96535467D01*
X146106272Y-96563150D01*
X146094472Y-96583417D01*
X146091103Y-96586303D01*
X146070997Y-96594086D01*
X146043491Y-96596636D01*
X146014720Y-96594249D01*
X145990820Y-96587226D01*
X145981420Y-96580960D01*
X145971565Y-96566276D01*
X145966965Y-96544819D01*
X145966180Y-96523810D01*
X145966180Y-96750398D01*
X145985737Y-96756912D01*
X146034340Y-96762798D01*
X146081889Y-96759826D01*
X146107200Y-96753572D01*
X146142140Y-96737662D01*
X146177754Y-96714849D01*
X146208815Y-96688921D01*
X146229070Y-96665279D01*
X146244310Y-96641964D01*
X146394805Y-96641942D01*
X146545300Y-96641920D01*
X146545300Y-96842149D01*
X146545300Y-97042379D01*
X146493674Y-97093609D01*
X146442048Y-97144840D01*
X146289794Y-97144840D01*
X146137541Y-97144840D01*
X145893745Y-96900237D01*
X145842717Y-96849341D01*
X145794243Y-96801572D01*
X145749528Y-96758073D01*
X145709776Y-96719991D01*
X145676191Y-96688471D01*
X145649976Y-96664659D01*
X145632337Y-96649700D01*
X145625430Y-96644967D01*
X145605623Y-96640076D01*
X145574446Y-96636587D01*
X145535704Y-96634500D01*
X145493205Y-96633815D01*
X145450752Y-96634532D01*
X145412151Y-96636652D01*
X145381209Y-96640174D01*
X145362050Y-96644957D01*
X145350380Y-96653043D01*
X145329708Y-96670536D01*
X145301663Y-96695926D01*
X145267877Y-96727701D01*
X145229979Y-96764352D01*
X145189602Y-96804368D01*
X145185201Y-96808787D01*
X145032873Y-96961960D01*
X144994293Y-96961960D01*
X144949946Y-96968929D01*
X144904630Y-96988360D01*
X144861486Y-97018042D01*
X144823658Y-97055763D01*
X144794287Y-97099309D01*
X144791548Y-97104683D01*
X144778260Y-97144928D01*
X144772698Y-97192094D01*
G36*
X146889943Y-97177021D02*
G01*
X146890546Y-97225796D01*
X146899830Y-97272946D01*
X146909424Y-97297742D01*
X146932585Y-97334127D01*
X146965088Y-97370594D01*
X147001916Y-97402112D01*
X147032478Y-97421065D01*
X147055840Y-97428681D01*
X147055840Y-97201990D01*
X147058907Y-97167795D01*
X147069475Y-97145738D01*
X147089598Y-97133723D01*
X147121329Y-97129655D01*
X147126774Y-97129600D01*
X147152429Y-97131375D01*
X147173258Y-97135908D01*
X147180532Y-97139329D01*
X147193753Y-97157325D01*
X147200733Y-97183871D01*
X147201463Y-97213647D01*
X147195932Y-97241330D01*
X147184132Y-97261597D01*
X147180762Y-97264483D01*
X147160657Y-97272266D01*
X147133151Y-97274816D01*
X147104380Y-97272429D01*
X147080480Y-97265406D01*
X147071080Y-97259140D01*
X147061225Y-97244456D01*
X147056625Y-97222999D01*
X147055840Y-97201990D01*
X147055840Y-97428681D01*
X147072281Y-97434041D01*
X147119265Y-97439235D01*
X147167525Y-97436672D01*
X147211150Y-97426373D01*
X147225537Y-97420312D01*
X147268699Y-97392247D01*
X147308696Y-97353753D01*
X147340881Y-97309570D01*
X147349165Y-97294204D01*
X147363712Y-97251365D01*
X147369526Y-97203759D01*
X147366317Y-97157372D01*
X147357351Y-97125862D01*
X147340780Y-97094163D01*
X147318231Y-97061285D01*
X147293556Y-97032253D01*
X147270604Y-97012092D01*
X147269699Y-97011490D01*
X147246384Y-96996250D01*
X147246362Y-96476185D01*
X147246340Y-95956120D01*
X147278781Y-95956120D01*
X147287514Y-95956327D01*
X147295714Y-95957644D01*
X147304598Y-95961112D01*
X147315382Y-95967775D01*
X147329286Y-95978673D01*
X147347524Y-95994850D01*
X147371317Y-96017347D01*
X147401879Y-96047208D01*
X147440429Y-96085473D01*
X147488184Y-96133186D01*
X147503571Y-96148580D01*
X147695920Y-96341040D01*
X147695898Y-96413375D01*
X147695733Y-96446999D01*
X147694646Y-96468842D01*
X147691717Y-96482361D01*
X147686023Y-96491015D01*
X147676644Y-96498263D01*
X147672561Y-96500950D01*
X147647138Y-96523062D01*
X147621302Y-96554597D01*
X147598838Y-96590331D01*
X147584268Y-96622820D01*
X147575743Y-96666481D01*
X147576346Y-96715256D01*
X147585630Y-96762406D01*
X147595224Y-96787202D01*
X147618385Y-96823587D01*
X147650888Y-96860053D01*
X147687716Y-96891572D01*
X147718278Y-96910524D01*
X147741640Y-96918141D01*
X147741640Y-96691450D01*
X147744707Y-96657255D01*
X147755275Y-96635198D01*
X147775398Y-96623183D01*
X147807129Y-96619115D01*
X147812574Y-96619060D01*
X147838229Y-96620835D01*
X147859058Y-96625368D01*
X147866332Y-96628789D01*
X147879553Y-96646785D01*
X147886533Y-96673331D01*
X147887263Y-96703107D01*
X147881732Y-96730790D01*
X147869932Y-96751057D01*
X147866562Y-96753943D01*
X147846457Y-96761726D01*
X147818951Y-96764276D01*
X147790180Y-96761889D01*
X147766280Y-96754866D01*
X147756880Y-96748600D01*
X147747025Y-96733916D01*
X147742425Y-96712459D01*
X147741640Y-96691450D01*
X147741640Y-96918141D01*
X147758081Y-96923501D01*
X147805065Y-96928695D01*
X147853325Y-96926132D01*
X147896950Y-96915833D01*
X147911336Y-96909772D01*
X147954499Y-96881707D01*
X147994496Y-96843213D01*
X148026681Y-96799030D01*
X148034965Y-96783664D01*
X148049512Y-96740825D01*
X148055326Y-96693219D01*
X148052117Y-96646832D01*
X148043151Y-96615322D01*
X148026580Y-96583623D01*
X148004031Y-96550745D01*
X147979356Y-96521713D01*
X147956404Y-96501552D01*
X147955499Y-96500950D01*
X147944694Y-96493405D01*
X147937880Y-96485600D01*
X147934136Y-96474078D01*
X147932540Y-96455379D01*
X147932172Y-96426046D01*
X147932162Y-96413375D01*
X147932140Y-96341040D01*
X148124489Y-96148580D01*
X148175076Y-96097999D01*
X148216113Y-96057160D01*
X148248817Y-96025022D01*
X148274406Y-96000543D01*
X148294096Y-95982679D01*
X148309105Y-95970390D01*
X148320650Y-95962632D01*
X148329949Y-95958364D01*
X148338219Y-95956543D01*
X148346677Y-95956127D01*
X148349279Y-95956120D01*
X148381720Y-95956120D01*
X148381698Y-96476185D01*
X148381676Y-96996250D01*
X148358361Y-97011490D01*
X148332938Y-97033602D01*
X148307102Y-97065137D01*
X148284638Y-97100871D01*
X148270068Y-97133360D01*
X148261543Y-97177021D01*
X148262146Y-97225796D01*
X148271430Y-97272946D01*
X148281024Y-97297742D01*
X148304244Y-97334213D01*
X148336795Y-97370694D01*
X148373633Y-97402136D01*
X148404078Y-97420900D01*
X148427440Y-97428751D01*
X148427440Y-97201990D01*
X148430507Y-97167795D01*
X148441075Y-97145738D01*
X148461198Y-97133723D01*
X148492929Y-97129655D01*
X148498374Y-97129600D01*
X148524029Y-97131375D01*
X148544858Y-97135908D01*
X148552132Y-97139329D01*
X148565353Y-97157325D01*
X148572333Y-97183871D01*
X148573063Y-97213647D01*
X148567532Y-97241330D01*
X148555732Y-97261597D01*
X148552362Y-97264483D01*
X148532257Y-97272266D01*
X148504751Y-97274816D01*
X148475980Y-97272429D01*
X148452080Y-97265406D01*
X148442680Y-97259140D01*
X148432825Y-97244456D01*
X148428225Y-97222999D01*
X148427440Y-97201990D01*
X148427440Y-97428751D01*
X148439708Y-97432874D01*
X148482464Y-97439290D01*
X148526083Y-97439784D01*
X148564303Y-97433993D01*
X148574326Y-97430770D01*
X148624193Y-97404326D01*
X148669551Y-97366044D01*
X148707000Y-97319288D01*
X148729177Y-97277577D01*
X148737269Y-97246138D01*
X148740352Y-97207049D01*
X148738436Y-97167051D01*
X148731532Y-97132885D01*
X148728951Y-97125862D01*
X148712380Y-97094163D01*
X148689831Y-97061285D01*
X148665156Y-97032253D01*
X148642204Y-97012092D01*
X148641299Y-97011490D01*
X148617984Y-96996250D01*
X148617962Y-96358075D01*
X148617940Y-95719900D01*
X148435556Y-95719900D01*
X148376749Y-95720240D01*
X148325350Y-95721214D01*
X148283202Y-95722748D01*
X148252145Y-95724771D01*
X148234021Y-95727211D01*
X148231721Y-95727880D01*
X148221527Y-95734977D01*
X148201982Y-95751654D01*
X148174439Y-95776643D01*
X148140252Y-95808674D01*
X148100776Y-95846481D01*
X148057363Y-95888795D01*
X148012096Y-95933621D01*
X147813921Y-96131383D01*
X147619665Y-95936304D01*
X147574062Y-95890887D01*
X147530903Y-95848625D01*
X147491578Y-95810823D01*
X147457477Y-95778791D01*
X147429991Y-95753835D01*
X147410509Y-95737264D01*
X147400890Y-95730563D01*
X147388728Y-95726940D01*
X147369870Y-95724172D01*
X147342607Y-95722172D01*
X147305232Y-95720852D01*
X147256039Y-95720123D01*
X147193321Y-95719900D01*
X147193245Y-95719900D01*
X147010120Y-95719900D01*
X147010098Y-96358075D01*
X147010076Y-96996250D01*
X146986761Y-97011490D01*
X146961338Y-97033602D01*
X146935502Y-97065137D01*
X146913038Y-97100871D01*
X146898468Y-97133360D01*
X146889943Y-97177021D01*
G37*
X146889943Y-97177021D02*
X146890546Y-97225796D01*
X146899830Y-97272946D01*
X146909424Y-97297742D01*
X146932585Y-97334127D01*
X146965088Y-97370594D01*
X147001916Y-97402112D01*
X147032478Y-97421065D01*
X147055840Y-97428681D01*
X147055840Y-97201990D01*
X147058907Y-97167795D01*
X147069475Y-97145738D01*
X147089598Y-97133723D01*
X147121329Y-97129655D01*
X147126774Y-97129600D01*
X147152429Y-97131375D01*
X147173258Y-97135908D01*
X147180532Y-97139329D01*
X147193753Y-97157325D01*
X147200733Y-97183871D01*
X147201463Y-97213647D01*
X147195932Y-97241330D01*
X147184132Y-97261597D01*
X147180762Y-97264483D01*
X147160657Y-97272266D01*
X147133151Y-97274816D01*
X147104380Y-97272429D01*
X147080480Y-97265406D01*
X147071080Y-97259140D01*
X147061225Y-97244456D01*
X147056625Y-97222999D01*
X147055840Y-97201990D01*
X147055840Y-97428681D01*
X147072281Y-97434041D01*
X147119265Y-97439235D01*
X147167525Y-97436672D01*
X147211150Y-97426373D01*
X147225537Y-97420312D01*
X147268699Y-97392247D01*
X147308696Y-97353753D01*
X147340881Y-97309570D01*
X147349165Y-97294204D01*
X147363712Y-97251365D01*
X147369526Y-97203759D01*
X147366317Y-97157372D01*
X147357351Y-97125862D01*
X147340780Y-97094163D01*
X147318231Y-97061285D01*
X147293556Y-97032253D01*
X147270604Y-97012092D01*
X147269699Y-97011490D01*
X147246384Y-96996250D01*
X147246362Y-96476185D01*
X147246340Y-95956120D01*
X147278781Y-95956120D01*
X147287514Y-95956327D01*
X147295714Y-95957644D01*
X147304598Y-95961112D01*
X147315382Y-95967775D01*
X147329286Y-95978673D01*
X147347524Y-95994850D01*
X147371317Y-96017347D01*
X147401879Y-96047208D01*
X147440429Y-96085473D01*
X147488184Y-96133186D01*
X147503571Y-96148580D01*
X147695920Y-96341040D01*
X147695898Y-96413375D01*
X147695733Y-96446999D01*
X147694646Y-96468842D01*
X147691717Y-96482361D01*
X147686023Y-96491015D01*
X147676644Y-96498263D01*
X147672561Y-96500950D01*
X147647138Y-96523062D01*
X147621302Y-96554597D01*
X147598838Y-96590331D01*
X147584268Y-96622820D01*
X147575743Y-96666481D01*
X147576346Y-96715256D01*
X147585630Y-96762406D01*
X147595224Y-96787202D01*
X147618385Y-96823587D01*
X147650888Y-96860053D01*
X147687716Y-96891572D01*
X147718278Y-96910524D01*
X147741640Y-96918141D01*
X147741640Y-96691450D01*
X147744707Y-96657255D01*
X147755275Y-96635198D01*
X147775398Y-96623183D01*
X147807129Y-96619115D01*
X147812574Y-96619060D01*
X147838229Y-96620835D01*
X147859058Y-96625368D01*
X147866332Y-96628789D01*
X147879553Y-96646785D01*
X147886533Y-96673331D01*
X147887263Y-96703107D01*
X147881732Y-96730790D01*
X147869932Y-96751057D01*
X147866562Y-96753943D01*
X147846457Y-96761726D01*
X147818951Y-96764276D01*
X147790180Y-96761889D01*
X147766280Y-96754866D01*
X147756880Y-96748600D01*
X147747025Y-96733916D01*
X147742425Y-96712459D01*
X147741640Y-96691450D01*
X147741640Y-96918141D01*
X147758081Y-96923501D01*
X147805065Y-96928695D01*
X147853325Y-96926132D01*
X147896950Y-96915833D01*
X147911336Y-96909772D01*
X147954499Y-96881707D01*
X147994496Y-96843213D01*
X148026681Y-96799030D01*
X148034965Y-96783664D01*
X148049512Y-96740825D01*
X148055326Y-96693219D01*
X148052117Y-96646832D01*
X148043151Y-96615322D01*
X148026580Y-96583623D01*
X148004031Y-96550745D01*
X147979356Y-96521713D01*
X147956404Y-96501552D01*
X147955499Y-96500950D01*
X147944694Y-96493405D01*
X147937880Y-96485600D01*
X147934136Y-96474078D01*
X147932540Y-96455379D01*
X147932172Y-96426046D01*
X147932162Y-96413375D01*
X147932140Y-96341040D01*
X148124489Y-96148580D01*
X148175076Y-96097999D01*
X148216113Y-96057160D01*
X148248817Y-96025022D01*
X148274406Y-96000543D01*
X148294096Y-95982679D01*
X148309105Y-95970390D01*
X148320650Y-95962632D01*
X148329949Y-95958364D01*
X148338219Y-95956543D01*
X148346677Y-95956127D01*
X148349279Y-95956120D01*
X148381720Y-95956120D01*
X148381698Y-96476185D01*
X148381676Y-96996250D01*
X148358361Y-97011490D01*
X148332938Y-97033602D01*
X148307102Y-97065137D01*
X148284638Y-97100871D01*
X148270068Y-97133360D01*
X148261543Y-97177021D01*
X148262146Y-97225796D01*
X148271430Y-97272946D01*
X148281024Y-97297742D01*
X148304244Y-97334213D01*
X148336795Y-97370694D01*
X148373633Y-97402136D01*
X148404078Y-97420900D01*
X148427440Y-97428751D01*
X148427440Y-97201990D01*
X148430507Y-97167795D01*
X148441075Y-97145738D01*
X148461198Y-97133723D01*
X148492929Y-97129655D01*
X148498374Y-97129600D01*
X148524029Y-97131375D01*
X148544858Y-97135908D01*
X148552132Y-97139329D01*
X148565353Y-97157325D01*
X148572333Y-97183871D01*
X148573063Y-97213647D01*
X148567532Y-97241330D01*
X148555732Y-97261597D01*
X148552362Y-97264483D01*
X148532257Y-97272266D01*
X148504751Y-97274816D01*
X148475980Y-97272429D01*
X148452080Y-97265406D01*
X148442680Y-97259140D01*
X148432825Y-97244456D01*
X148428225Y-97222999D01*
X148427440Y-97201990D01*
X148427440Y-97428751D01*
X148439708Y-97432874D01*
X148482464Y-97439290D01*
X148526083Y-97439784D01*
X148564303Y-97433993D01*
X148574326Y-97430770D01*
X148624193Y-97404326D01*
X148669551Y-97366044D01*
X148707000Y-97319288D01*
X148729177Y-97277577D01*
X148737269Y-97246138D01*
X148740352Y-97207049D01*
X148738436Y-97167051D01*
X148731532Y-97132885D01*
X148728951Y-97125862D01*
X148712380Y-97094163D01*
X148689831Y-97061285D01*
X148665156Y-97032253D01*
X148642204Y-97012092D01*
X148641299Y-97011490D01*
X148617984Y-96996250D01*
X148617962Y-96358075D01*
X148617940Y-95719900D01*
X148435556Y-95719900D01*
X148376749Y-95720240D01*
X148325350Y-95721214D01*
X148283202Y-95722748D01*
X148252145Y-95724771D01*
X148234021Y-95727211D01*
X148231721Y-95727880D01*
X148221527Y-95734977D01*
X148201982Y-95751654D01*
X148174439Y-95776643D01*
X148140252Y-95808674D01*
X148100776Y-95846481D01*
X148057363Y-95888795D01*
X148012096Y-95933621D01*
X147813921Y-96131383D01*
X147619665Y-95936304D01*
X147574062Y-95890887D01*
X147530903Y-95848625D01*
X147491578Y-95810823D01*
X147457477Y-95778791D01*
X147429991Y-95753835D01*
X147410509Y-95737264D01*
X147400890Y-95730563D01*
X147388728Y-95726940D01*
X147369870Y-95724172D01*
X147342607Y-95722172D01*
X147305232Y-95720852D01*
X147256039Y-95720123D01*
X147193321Y-95719900D01*
X147193245Y-95719900D01*
X147010120Y-95719900D01*
X147010098Y-96358075D01*
X147010076Y-96996250D01*
X146986761Y-97011490D01*
X146961338Y-97033602D01*
X146935502Y-97065137D01*
X146913038Y-97100871D01*
X146898468Y-97133360D01*
X146889943Y-97177021D01*
G36*
X148834158Y-97192094D02*
G01*
X148836346Y-97240273D01*
X148846306Y-97283558D01*
X148852255Y-97297742D01*
X148875793Y-97334381D01*
X148908539Y-97370932D01*
X148945440Y-97402350D01*
X148975578Y-97420900D01*
X148998940Y-97428740D01*
X148998940Y-97201990D01*
X149002007Y-97167795D01*
X149012575Y-97145738D01*
X149032698Y-97133723D01*
X149064429Y-97129655D01*
X149069874Y-97129600D01*
X149095529Y-97131375D01*
X149116358Y-97135908D01*
X149123632Y-97139329D01*
X149136853Y-97157325D01*
X149143833Y-97183871D01*
X149144563Y-97213647D01*
X149139032Y-97241330D01*
X149127232Y-97261597D01*
X149123862Y-97264483D01*
X149103757Y-97272266D01*
X149076251Y-97274816D01*
X149047480Y-97272429D01*
X149023580Y-97265406D01*
X149014180Y-97259140D01*
X149004325Y-97244456D01*
X148999725Y-97222999D01*
X148998940Y-97201990D01*
X148998940Y-97428740D01*
X149011554Y-97432973D01*
X149054649Y-97439359D01*
X149098567Y-97439700D01*
X149137010Y-97433637D01*
X149146270Y-97430617D01*
X149177768Y-97415013D01*
X149210897Y-97392825D01*
X149240440Y-97367987D01*
X149261183Y-97344432D01*
X149261830Y-97343459D01*
X149277070Y-97320144D01*
X149439240Y-97320122D01*
X149498508Y-97319844D01*
X149544414Y-97318956D01*
X149578824Y-97317349D01*
X149603609Y-97314914D01*
X149620637Y-97311544D01*
X149627555Y-97309176D01*
X149642884Y-97299540D01*
X149666138Y-97280971D01*
X149695051Y-97255670D01*
X149727357Y-97225840D01*
X149760792Y-97193686D01*
X149793090Y-97161409D01*
X149821985Y-97131213D01*
X149845212Y-97105300D01*
X149860505Y-97085874D01*
X149864864Y-97078410D01*
X149866727Y-97071664D01*
X149868363Y-97060195D01*
X149869787Y-97043117D01*
X149871012Y-97019543D01*
X149872049Y-96988586D01*
X149872914Y-96949358D01*
X149873619Y-96900974D01*
X149874178Y-96842546D01*
X149874603Y-96773186D01*
X149874909Y-96692009D01*
X149875108Y-96598128D01*
X149875213Y-96490654D01*
X149875240Y-96386895D01*
X149875240Y-95719900D01*
X149757130Y-95719900D01*
X149639020Y-95719900D01*
X149639020Y-96350659D01*
X149639020Y-96981419D01*
X149587394Y-97032649D01*
X149535768Y-97083880D01*
X149406419Y-97083858D01*
X149277070Y-97083836D01*
X149261830Y-97060521D01*
X149242434Y-97038018D01*
X149214043Y-97013525D01*
X149181719Y-96990942D01*
X149150523Y-96974166D01*
X149148597Y-96973345D01*
X149109747Y-96963490D01*
X149064329Y-96961731D01*
X149018493Y-96967766D01*
X148978389Y-96981292D01*
X148977417Y-96981771D01*
X148932989Y-97010317D01*
X148892499Y-97048143D01*
X148860754Y-97090504D01*
X148853008Y-97104683D01*
X148839720Y-97144928D01*
X148834158Y-97192094D01*
G37*
X148834158Y-97192094D02*
X148836346Y-97240273D01*
X148846306Y-97283558D01*
X148852255Y-97297742D01*
X148875793Y-97334381D01*
X148908539Y-97370932D01*
X148945440Y-97402350D01*
X148975578Y-97420900D01*
X148998940Y-97428740D01*
X148998940Y-97201990D01*
X149002007Y-97167795D01*
X149012575Y-97145738D01*
X149032698Y-97133723D01*
X149064429Y-97129655D01*
X149069874Y-97129600D01*
X149095529Y-97131375D01*
X149116358Y-97135908D01*
X149123632Y-97139329D01*
X149136853Y-97157325D01*
X149143833Y-97183871D01*
X149144563Y-97213647D01*
X149139032Y-97241330D01*
X149127232Y-97261597D01*
X149123862Y-97264483D01*
X149103757Y-97272266D01*
X149076251Y-97274816D01*
X149047480Y-97272429D01*
X149023580Y-97265406D01*
X149014180Y-97259140D01*
X149004325Y-97244456D01*
X148999725Y-97222999D01*
X148998940Y-97201990D01*
X148998940Y-97428740D01*
X149011554Y-97432973D01*
X149054649Y-97439359D01*
X149098567Y-97439700D01*
X149137010Y-97433637D01*
X149146270Y-97430617D01*
X149177768Y-97415013D01*
X149210897Y-97392825D01*
X149240440Y-97367987D01*
X149261183Y-97344432D01*
X149261830Y-97343459D01*
X149277070Y-97320144D01*
X149439240Y-97320122D01*
X149498508Y-97319844D01*
X149544414Y-97318956D01*
X149578824Y-97317349D01*
X149603609Y-97314914D01*
X149620637Y-97311544D01*
X149627555Y-97309176D01*
X149642884Y-97299540D01*
X149666138Y-97280971D01*
X149695051Y-97255670D01*
X149727357Y-97225840D01*
X149760792Y-97193686D01*
X149793090Y-97161409D01*
X149821985Y-97131213D01*
X149845212Y-97105300D01*
X149860505Y-97085874D01*
X149864864Y-97078410D01*
X149866727Y-97071664D01*
X149868363Y-97060195D01*
X149869787Y-97043117D01*
X149871012Y-97019543D01*
X149872049Y-96988586D01*
X149872914Y-96949358D01*
X149873619Y-96900974D01*
X149874178Y-96842546D01*
X149874603Y-96773186D01*
X149874909Y-96692009D01*
X149875108Y-96598128D01*
X149875213Y-96490654D01*
X149875240Y-96386895D01*
X149875240Y-95719900D01*
X149757130Y-95719900D01*
X149639020Y-95719900D01*
X149639020Y-96350659D01*
X149639020Y-96981419D01*
X149587394Y-97032649D01*
X149535768Y-97083880D01*
X149406419Y-97083858D01*
X149277070Y-97083836D01*
X149261830Y-97060521D01*
X149242434Y-97038018D01*
X149214043Y-97013525D01*
X149181719Y-96990942D01*
X149150523Y-96974166D01*
X149148597Y-96973345D01*
X149109747Y-96963490D01*
X149064329Y-96961731D01*
X149018493Y-96967766D01*
X148978389Y-96981292D01*
X148977417Y-96981771D01*
X148932989Y-97010317D01*
X148892499Y-97048143D01*
X148860754Y-97090504D01*
X148853008Y-97104683D01*
X148839720Y-97144928D01*
X148834158Y-97192094D01*
D16*
X139904000Y-73454000D02*
X140666000Y-73454000D01*
X139904000Y-68882000D02*
X139904000Y-73454000D01*
X140666000Y-68882000D02*
X139904000Y-68882000D01*
X140666000Y-73454000D02*
X140666000Y-68882000D01*
X139954800Y-73403200D02*
X139954800Y-68983600D01*
X140056400Y-68932800D02*
X140056400Y-73403200D01*
X140208800Y-73403200D02*
X140208800Y-68983600D01*
X140361200Y-73403200D02*
X140361200Y-68983600D01*
X140107200Y-68932800D02*
X140107200Y-73352400D01*
X140259600Y-68932800D02*
X140259600Y-73403200D01*
X140462800Y-73352400D02*
X140462800Y-68983600D01*
X140564400Y-68932800D02*
X140564400Y-73352400D01*
D12*
X135128000Y-69088000D02*
X139319000Y-73279000D01*
X139192000Y-69215000D02*
X135255000Y-73279000D01*
X138811000Y-70231000D02*
X138811000Y-71628000D01*
X138811000Y-70231000D02*
X135763000Y-69977000D01*
X135636000Y-69723000D02*
X135636000Y-72644000D01*
X139192000Y-70739000D02*
X138938000Y-70739000D01*
X139192000Y-70231000D02*
X139192000Y-70739000D01*
X138811000Y-70231000D02*
X139192000Y-70231000D01*
X138303000Y-72136000D02*
X136271000Y-72263000D01*
X139212609Y-72136000D02*
G75*
G03*
X139212609Y-72136000I-401609J0D01*
G01*
X135001000Y-70358000D02*
X135509000Y-70358000D01*
X135001000Y-70231000D02*
X135001000Y-70358000D01*
X135509000Y-70231000D02*
X135001000Y-70231000D01*
X136144000Y-72644000D02*
X135636000Y-72644000D01*
X136144000Y-72263000D02*
X136144000Y-72644000D01*
X135636000Y-72263000D02*
X136144000Y-72263000D01*
X135763000Y-72390000D02*
X135890000Y-72390000D01*
X135636000Y-72390000D02*
X136017000Y-72517000D01*
X135763000Y-72390000D02*
X135890000Y-72390000D01*
X135763000Y-72517000D02*
X136144000Y-72517000D01*
X135763000Y-72390000D02*
X135763000Y-72517000D01*
X136144000Y-72390000D02*
X135763000Y-72390000D01*
X136525000Y-70993000D02*
X136144000Y-70993000D01*
X136525000Y-71882000D02*
X136525000Y-70993000D01*
X136144000Y-71882000D02*
X136525000Y-71882000D01*
X136144000Y-70993000D02*
X136144000Y-71882000D01*
X136271000Y-71120000D02*
X136271000Y-71755000D01*
X134747000Y-71374000D02*
X134747000Y-70993000D01*
X134874000Y-71374000D02*
X134747000Y-71374000D01*
X134874000Y-70993000D02*
X134874000Y-71374000D01*
X134747000Y-70993000D02*
X134874000Y-70993000D01*
D11*
X138938000Y-72136000D02*
G75*
G03*
X138938000Y-72136000I-127000J0D01*
G01*
D12*
X135509000Y-72263000D02*
G75*
G02*
X135509000Y-69977000I1143000J1143000D01*
G01*
X149366077Y-88798400D02*
G75*
G03*
X149366077Y-88798400I-1802237J0D01*
G01*
D19*
X146400520Y-87637620D02*
X148821140Y-90070940D01*
D12*
X142430500Y-65214500D02*
X142430500Y-65151000D01*
X142430500Y-65214500D02*
X141414500Y-65214500D01*
X142621000Y-65278000D02*
X142494000Y-65278000D01*
X141224000Y-64833500D02*
X142303500Y-64833500D01*
X142621000Y-65786000D02*
X142621000Y-65938400D01*
X141033500Y-68770500D02*
X141033500Y-68453000D01*
X140144500Y-67144900D02*
X140144500Y-68326000D01*
X140208000Y-64770000D02*
X143700500Y-70104000D01*
X140144500Y-68326000D02*
X136588500Y-66548000D01*
X141033500Y-68770500D02*
X140144500Y-68326000D01*
X143700500Y-70104000D02*
X141033500Y-68770500D01*
X143700500Y-62992000D02*
X143700500Y-70104000D01*
X136588500Y-66548000D02*
X143700500Y-62992000D01*
X142430500Y-65151000D02*
G75*
G02*
X142557500Y-65024000I127000J0D01*
G01*
X142494000Y-65278000D02*
G75*
G02*
X142430500Y-65214500I0J63500D01*
G01*
X142687045Y-65216929D02*
G75*
G02*
X142621000Y-65278000I-63505J2429D01*
G01*
X142303500Y-64833500D02*
G75*
G02*
X142684500Y-65214500I0J-381000D01*
G01*
X140908075Y-65022952D02*
G75*
G02*
X141224000Y-64833500I315925J-168688D01*
G01*
X140906642Y-65025451D02*
G75*
G02*
X140589000Y-65341500I-792622J478971D01*
G01*
X141416345Y-65216065D02*
G75*
G02*
X140970000Y-65913000I-1007685J153965D01*
G01*
X142177174Y-65659932D02*
G75*
G02*
X142494000Y-65659000I159346J-316568D01*
G01*
X142494100Y-65659033D02*
G75*
G02*
X142621000Y-65786000I-63600J-190467D01*
G01*
X141732993Y-66987725D02*
G75*
G02*
X141859000Y-66548000I3709947J-825195D01*
G01*
X141860465Y-66548085D02*
G75*
G02*
X142621000Y-65976500I808795J-284395D01*
G01*
X141415666Y-66610292D02*
G75*
G02*
X142176500Y-65659000I1332334J-285688D01*
G01*
X141670076Y-67122539D02*
G75*
G02*
X141224000Y-67945000I-1253796J147819D01*
G01*
X141033974Y-68453699D02*
G75*
G02*
X141224000Y-67945000I604046J64199D01*
G01*
X140082614Y-66929085D02*
G75*
G02*
X140144500Y-67144900I-230214J-182795D01*
G01*
X140081178Y-66928279D02*
G75*
G02*
X140589000Y-65341500I1274902J466639D01*
G01*
X151003000Y-86550500D02*
X151003000Y-92011500D01*
X143764000Y-86550500D02*
X151384000Y-86550500D01*
X151384000Y-92011500D02*
X143764000Y-92011500D01*
X143764000Y-86550500D02*
X143764000Y-92011500D01*
X151384000Y-92011500D02*
X151384000Y-86550500D01*
X144614900Y-99024440D02*
X143903700Y-99024440D01*
X144614900Y-98186240D02*
X144614900Y-99024440D01*
X141770100Y-98186240D02*
X141770100Y-99024440D01*
X142481300Y-99024440D02*
X141770100Y-99024440D01*
X135255000Y-92900500D02*
X135255000Y-89852500D01*
X133985000Y-93154500D02*
X135001000Y-93154500D01*
X133985000Y-89598500D02*
X135001000Y-89598500D01*
X133731000Y-89852500D02*
X133731000Y-92900500D01*
X133731000Y-89852500D02*
G75*
G02*
X133985000Y-89598500I254000J0D01*
G01*
X133985000Y-93154500D02*
G75*
G02*
X133731000Y-92900500I0J254000D01*
G01*
X135255000Y-92900500D02*
G75*
G02*
X135001000Y-93154500I-254000J0D01*
G01*
X135001000Y-89598500D02*
G75*
G02*
X135255000Y-89852500I0J-254000D01*
G01*
X136334500Y-78740000D02*
X136334500Y-78994000D01*
X136334500Y-78740000D02*
X136334500Y-78486000D01*
X137223500Y-78740000D02*
X137223500Y-78486000D01*
X137223500Y-78740000D02*
X137223500Y-78994000D01*
X137477500Y-97917000D02*
X137477500Y-96901000D01*
X135953500Y-97917000D02*
X135953500Y-96901000D01*
X151638000Y-84836000D02*
X152654000Y-84836000D01*
X151638000Y-83312000D02*
X152654000Y-83312000D01*
X149733000Y-94043500D02*
X149479000Y-94043500D01*
X149733000Y-94043500D02*
X149987000Y-94043500D01*
X149733000Y-94932500D02*
X149987000Y-94932500D01*
X149733000Y-94932500D02*
X149479000Y-94932500D01*
X142684500Y-91059000D02*
X142684500Y-91313000D01*
X142684500Y-91059000D02*
X142684500Y-90805000D01*
X143573500Y-91059000D02*
X143573500Y-90805000D01*
X143573500Y-91059000D02*
X143573500Y-91313000D01*
X143573500Y-93091000D02*
X143573500Y-92837000D01*
X143573500Y-93091000D02*
X143573500Y-93345000D01*
X142684500Y-93091000D02*
X142684500Y-93345000D01*
X142684500Y-93091000D02*
X142684500Y-92837000D01*
X143002000Y-84137500D02*
X142748000Y-84137500D01*
X143002000Y-84137500D02*
X143256000Y-84137500D01*
X143002000Y-85026500D02*
X143256000Y-85026500D01*
X143002000Y-85026500D02*
X142748000Y-85026500D01*
X145669000Y-79946500D02*
X145923000Y-79946500D01*
X145669000Y-79946500D02*
X145415000Y-79946500D01*
X145669000Y-79057500D02*
X145415000Y-79057500D01*
X145669000Y-79057500D02*
X145923000Y-79057500D01*
X152336500Y-79057500D02*
X152082500Y-79057500D01*
X152336500Y-79057500D02*
X152590500Y-79057500D01*
X152336500Y-79946500D02*
X152590500Y-79946500D01*
X152336500Y-79946500D02*
X152082500Y-79946500D01*
X152654000Y-81788000D02*
X151638000Y-81788000D01*
X152654000Y-83312000D02*
X151638000Y-83312000D01*
X147701000Y-72072500D02*
X147955000Y-72072500D01*
X147701000Y-72072500D02*
X147447000Y-72072500D01*
X147701000Y-71183500D02*
X147447000Y-71183500D01*
X147701000Y-71183500D02*
X147955000Y-71183500D01*
X151511000Y-71183500D02*
X151257000Y-71183500D01*
X151511000Y-71183500D02*
X151765000Y-71183500D01*
X151511000Y-72072500D02*
X151765000Y-72072500D01*
X151511000Y-72072500D02*
X151257000Y-72072500D01*
X140779500Y-76327000D02*
X140779500Y-76073000D01*
X140779500Y-76327000D02*
X140779500Y-76581000D01*
X139890500Y-76327000D02*
X139890500Y-76581000D01*
X139890500Y-76327000D02*
X139890500Y-76073000D01*
X138112500Y-76327000D02*
X138112500Y-76581000D01*
X138112500Y-76327000D02*
X138112500Y-76073000D01*
X139001500Y-76327000D02*
X139001500Y-76073000D01*
X139001500Y-76327000D02*
X139001500Y-76581000D01*
X137223500Y-76327000D02*
X137223500Y-76581000D01*
X137223500Y-76327000D02*
X137223500Y-76073000D01*
X138112500Y-76327000D02*
X138112500Y-76073000D01*
X138112500Y-76327000D02*
X138112500Y-76581000D01*
X134493000Y-75374500D02*
X134239000Y-75374500D01*
X134493000Y-75374500D02*
X134747000Y-75374500D01*
X134493000Y-76263500D02*
X134747000Y-76263500D01*
X134493000Y-76263500D02*
X134239000Y-76263500D01*
X131953000Y-99055000D02*
X132334000Y-99055000D01*
X131826000Y-98928000D02*
X132461000Y-98928000D01*
X131699000Y-98801000D02*
X132461000Y-98801000D01*
X131699000Y-98674000D02*
X132588000Y-98674000D01*
X132588000Y-98547000D02*
X131445000Y-98547000D01*
X131445000Y-98420000D02*
X132715000Y-98420000D01*
X132842000Y-98293000D02*
X131318000Y-98293000D01*
X131140200Y-99512200D02*
X131140200Y-99690000D01*
X133045200Y-99512200D02*
X133045200Y-99690000D01*
X131140200Y-99690000D02*
X133045200Y-99690000D01*
X131140200Y-98140600D02*
X133045200Y-98140600D01*
X131140200Y-99512200D02*
X133045200Y-99512200D01*
X132054600Y-99512200D02*
X133045200Y-98140600D01*
X131140200Y-98140600D02*
X132054600Y-99512200D01*
X132092700Y-97556400D02*
X132092700Y-100032900D01*
X141986000Y-95250000D02*
X141986000Y-94869000D01*
X141859000Y-95377000D02*
X141859000Y-94742000D01*
X141732000Y-95504000D02*
X141732000Y-94742000D01*
X141605000Y-95504000D02*
X141605000Y-94615000D01*
X141478000Y-94615000D02*
X141478000Y-95758000D01*
X141351000Y-95758000D02*
X141351000Y-94488000D01*
X141224000Y-94361000D02*
X141224000Y-95885000D01*
X142443200Y-96062800D02*
X142621000Y-96062800D01*
X142443200Y-94157800D02*
X142621000Y-94157800D01*
X142621000Y-96062800D02*
X142621000Y-94157800D01*
X141071600Y-96062800D02*
X141071600Y-94157800D01*
X142443200Y-96062800D02*
X142443200Y-94157800D01*
X142443200Y-95148400D02*
X141071600Y-94157800D01*
X141071600Y-96062800D02*
X142443200Y-95148400D01*
X140487400Y-95110300D02*
X142963900Y-95110300D01*
X138391900Y-91912440D02*
X137680700Y-91912440D01*
X138391900Y-91074240D02*
X138391900Y-91912440D01*
X135547100Y-91074240D02*
X135547100Y-91912440D01*
X136258300Y-91912440D02*
X135547100Y-91912440D01*
X136740900Y-95758000D02*
X136029700Y-95758000D01*
X136740900Y-94919800D02*
X136740900Y-95758000D01*
X133896100Y-94919800D02*
X133896100Y-95758000D01*
X134607300Y-95758000D02*
X133896100Y-95758000D01*
X136144000Y-78968600D02*
X136144000Y-79679800D01*
X135305800Y-78968600D02*
X136144000Y-78968600D01*
X135305800Y-81813400D02*
X136144000Y-81813400D01*
X136144000Y-81102200D02*
X136144000Y-81813400D01*
X139827000Y-92329000D02*
X139827000Y-91821000D01*
X142367000Y-92329000D02*
X142367000Y-91821000D01*
X138557000Y-88836500D02*
X138557000Y-89090500D01*
X138557000Y-88836500D02*
X138557000Y-88582500D01*
X139446000Y-88836500D02*
X139446000Y-88582500D01*
X139446000Y-88836500D02*
X139446000Y-89090500D01*
X131889500Y-94996000D02*
X131889500Y-94742000D01*
X131889500Y-94996000D02*
X131889500Y-95250000D01*
X131000500Y-94996000D02*
X131000500Y-95250000D01*
X131000500Y-94996000D02*
X131000500Y-94742000D01*
X137795000Y-95948500D02*
X138049000Y-95948500D01*
X137795000Y-95948500D02*
X137541000Y-95948500D01*
X137795000Y-95059500D02*
X137541000Y-95059500D01*
X137795000Y-95059500D02*
X138049000Y-95059500D01*
X137223500Y-81915000D02*
X137223500Y-81661000D01*
X137223500Y-81915000D02*
X137223500Y-82169000D01*
X136334500Y-81915000D02*
X136334500Y-82169000D01*
X136334500Y-81915000D02*
X136334500Y-81661000D01*
X135509000Y-89408000D02*
X135763000Y-89408000D01*
X135509000Y-89408000D02*
X135255000Y-89408000D01*
X135509000Y-88519000D02*
X135255000Y-88519000D01*
X135509000Y-88519000D02*
X135763000Y-88519000D01*
X151574500Y-89789000D02*
X151574500Y-90043000D01*
X151574500Y-89789000D02*
X151574500Y-89535000D01*
X152463500Y-89789000D02*
X152463500Y-89535000D01*
X152463500Y-89789000D02*
X152463500Y-90043000D01*
X137160000Y-88138000D02*
X137414000Y-88138000D01*
X137160000Y-88138000D02*
X136906000Y-88138000D01*
X137160000Y-87249000D02*
X136906000Y-87249000D01*
X137160000Y-87249000D02*
X137414000Y-87249000D01*
X141732000Y-83121500D02*
X141478000Y-83121500D01*
X141732000Y-83121500D02*
X141986000Y-83121500D01*
X141732000Y-84010500D02*
X141986000Y-84010500D01*
X141732000Y-84010500D02*
X141478000Y-84010500D01*
X141795500Y-80645000D02*
X141795500Y-80391000D01*
X141795500Y-80645000D02*
X141795500Y-80899000D01*
X140906500Y-80645000D02*
X140906500Y-80899000D01*
X140906500Y-80645000D02*
X140906500Y-80391000D01*
X149669500Y-83693000D02*
X149669500Y-83947000D01*
X149669500Y-83693000D02*
X149669500Y-83439000D01*
X150558500Y-83693000D02*
X150558500Y-83439000D01*
X150558500Y-83693000D02*
X150558500Y-83947000D01*
X142430500Y-76327000D02*
X142430500Y-76581000D01*
X142430500Y-76327000D02*
X142430500Y-76073000D01*
X143319500Y-76327000D02*
X143319500Y-76073000D01*
X143319500Y-76327000D02*
X143319500Y-76581000D01*
X143319500Y-76327000D02*
X143319500Y-76581000D01*
X143319500Y-76327000D02*
X143319500Y-76073000D01*
X144208500Y-76327000D02*
X144208500Y-76073000D01*
X144208500Y-76327000D02*
X144208500Y-76581000D01*
X153479500Y-87757000D02*
X153479500Y-87503000D01*
X153479500Y-87757000D02*
X153479500Y-88011000D01*
X152590500Y-87757000D02*
X152590500Y-88011000D01*
X152590500Y-87757000D02*
X152590500Y-87503000D01*
X152590500Y-89789000D02*
X152590500Y-90043000D01*
X152590500Y-89789000D02*
X152590500Y-89535000D01*
X153479500Y-89789000D02*
X153479500Y-89535000D01*
X153479500Y-89789000D02*
X153479500Y-90043000D01*
X143573500Y-83058000D02*
X143573500Y-82804000D01*
X143573500Y-83058000D02*
X143573500Y-83312000D01*
X142684500Y-83058000D02*
X142684500Y-83312000D01*
X142684500Y-83058000D02*
X142684500Y-82804000D01*
X134493000Y-76390500D02*
X134239000Y-76390500D01*
X134493000Y-76390500D02*
X134747000Y-76390500D01*
X134493000Y-77279500D02*
X134747000Y-77279500D01*
X134493000Y-77279500D02*
X134239000Y-77279500D01*
X139890500Y-76327000D02*
X139890500Y-76073000D01*
X139890500Y-76327000D02*
X139890500Y-76581000D01*
X139001500Y-76327000D02*
X139001500Y-76581000D01*
X139001500Y-76327000D02*
X139001500Y-76073000D01*
X137223500Y-76327000D02*
X137223500Y-76073000D01*
X137223500Y-76327000D02*
X137223500Y-76581000D01*
X136334500Y-76327000D02*
X136334500Y-76581000D01*
X136334500Y-76327000D02*
X136334500Y-76073000D01*
X136334500Y-76327000D02*
X136334500Y-76073000D01*
X136334500Y-76327000D02*
X136334500Y-76581000D01*
X135445500Y-76327000D02*
X135445500Y-76581000D01*
X135445500Y-76327000D02*
X135445500Y-76073000D01*
X140296900Y-86705440D02*
X139585700Y-86705440D01*
X140296900Y-85867240D02*
X140296900Y-86705440D01*
X137452100Y-85867240D02*
X137452100Y-86705440D01*
X138163300Y-86705440D02*
X137452100Y-86705440D01*
X136108440Y-82016600D02*
X136108440Y-82727800D01*
X135270240Y-82016600D02*
X136108440Y-82016600D01*
X135270240Y-84861400D02*
X136108440Y-84861400D01*
X136108440Y-84150200D02*
X136108440Y-84861400D01*
X136108440Y-85056980D02*
X136108440Y-85768180D01*
X135270240Y-85056980D02*
X136108440Y-85056980D01*
X135270240Y-87901780D02*
X136108440Y-87901780D01*
X136108440Y-87190580D02*
X136108440Y-87901780D01*
X140627100Y-86487000D02*
X141338300Y-86487000D01*
X140627100Y-87325200D02*
X140627100Y-86487000D01*
X143471900Y-87325200D02*
X143471900Y-86487000D01*
X142760700Y-86487000D02*
X143471900Y-86487000D01*
X147574000Y-61252100D02*
X147574000Y-61963300D01*
X146735800Y-61252100D02*
X147574000Y-61252100D01*
X146735800Y-64096900D02*
X147574000Y-64096900D01*
X147574000Y-63385700D02*
X147574000Y-64096900D01*
X139014200Y-99184500D02*
X140144500Y-99184500D01*
X139014200Y-96377800D02*
X140144500Y-96377800D01*
X153162000Y-92837000D02*
X153162000Y-91821000D01*
X151638000Y-92837000D02*
X151638000Y-91821000D01*
D11*
X141674547Y-77191809D02*
X141674547Y-77603047D01*
X141650357Y-77651428D01*
X141626166Y-77675619D01*
X141577785Y-77699809D01*
X141481023Y-77699809D01*
X141432642Y-77675619D01*
X141408452Y-77651428D01*
X141384261Y-77603047D01*
X141384261Y-77191809D01*
X140924642Y-77361142D02*
X140924642Y-77699809D01*
X141045595Y-77167619D02*
X141166547Y-77530476D01*
X140852071Y-77530476D01*
X143240880Y-80022841D02*
X143289261Y-79998651D01*
X143313452Y-79974460D01*
X143337642Y-79926079D01*
X143337642Y-79901889D01*
X143313452Y-79853508D01*
X143289261Y-79829318D01*
X143240880Y-79805127D01*
X143144119Y-79805127D01*
X143095738Y-79829318D01*
X143071547Y-79853508D01*
X143047357Y-79901889D01*
X143047357Y-79926079D01*
X143071547Y-79974460D01*
X143095738Y-79998651D01*
X143144119Y-80022841D01*
X143240880Y-80022841D01*
X143289261Y-80047032D01*
X143313452Y-80071222D01*
X143337642Y-80119603D01*
X143337642Y-80216365D01*
X143313452Y-80264746D01*
X143289261Y-80288937D01*
X143240880Y-80313127D01*
X143144119Y-80313127D01*
X143095738Y-80288937D01*
X143071547Y-80264746D01*
X143047357Y-80216365D01*
X143047357Y-80119603D01*
X143071547Y-80071222D01*
X143095738Y-80047032D01*
X143144119Y-80022841D01*
X144365738Y-78916127D02*
X144196404Y-79424127D01*
X144027071Y-78916127D01*
X143881928Y-79399937D02*
X143809357Y-79424127D01*
X143688404Y-79424127D01*
X143640023Y-79399937D01*
X143615833Y-79375746D01*
X143591642Y-79327365D01*
X143591642Y-79278984D01*
X143615833Y-79230603D01*
X143640023Y-79206413D01*
X143688404Y-79182222D01*
X143785166Y-79158032D01*
X143833547Y-79133841D01*
X143857738Y-79109651D01*
X143881928Y-79061270D01*
X143881928Y-79012889D01*
X143857738Y-78964508D01*
X143833547Y-78940318D01*
X143785166Y-78916127D01*
X143664214Y-78916127D01*
X143591642Y-78940318D01*
X143398119Y-79399937D02*
X143325547Y-79424127D01*
X143204595Y-79424127D01*
X143156214Y-79399937D01*
X143132023Y-79375746D01*
X143107833Y-79327365D01*
X143107833Y-79278984D01*
X143132023Y-79230603D01*
X143156214Y-79206413D01*
X143204595Y-79182222D01*
X143301357Y-79158032D01*
X143349738Y-79133841D01*
X143373928Y-79109651D01*
X143398119Y-79061270D01*
X143398119Y-79012889D01*
X143373928Y-78964508D01*
X143349738Y-78940318D01*
X143301357Y-78916127D01*
X143180404Y-78916127D01*
X143107833Y-78940318D01*
X142793357Y-78916127D02*
X142696595Y-78916127D01*
X142648214Y-78940318D01*
X142599833Y-78988698D01*
X142575642Y-79085460D01*
X142575642Y-79254794D01*
X142599833Y-79351556D01*
X142648214Y-79399937D01*
X142696595Y-79424127D01*
X142793357Y-79424127D01*
X142841738Y-79399937D01*
X142890119Y-79351556D01*
X142914309Y-79254794D01*
X142914309Y-79085460D01*
X142890119Y-78988698D01*
X142841738Y-78940318D01*
X142793357Y-78916127D01*
X142357928Y-79424127D02*
X142357928Y-78916127D01*
X142164404Y-78916127D01*
X142116023Y-78940318D01*
X142091833Y-78964508D01*
X142067642Y-79012889D01*
X142067642Y-79085460D01*
X142091833Y-79133841D01*
X142116023Y-79158032D01*
X142164404Y-79182222D01*
X142357928Y-79182222D01*
D14*
X142230928Y-77433714D02*
X142303500Y-77397428D01*
X142339785Y-77361142D01*
X142376071Y-77288571D01*
X142376071Y-77070857D01*
X142339785Y-76998285D01*
X142303500Y-76962000D01*
X142230928Y-76925714D01*
X142122071Y-76925714D01*
X142049500Y-76962000D01*
X142013214Y-76998285D01*
X141976928Y-77070857D01*
X141976928Y-77288571D01*
X142013214Y-77361142D01*
X142049500Y-77397428D01*
X142122071Y-77433714D01*
X142230928Y-77433714D01*
X136071428Y-62030428D02*
X135962571Y-62066714D01*
X135781142Y-62066714D01*
X135708571Y-62030428D01*
X135672285Y-61994142D01*
X135636000Y-61921571D01*
X135636000Y-61849000D01*
X135672285Y-61776428D01*
X135708571Y-61740142D01*
X135781142Y-61703857D01*
X135926285Y-61667571D01*
X135998857Y-61631285D01*
X136035142Y-61595000D01*
X136071428Y-61522428D01*
X136071428Y-61449857D01*
X136035142Y-61377285D01*
X135998857Y-61341000D01*
X135926285Y-61304714D01*
X135744857Y-61304714D01*
X135636000Y-61341000D01*
X135309428Y-62066714D02*
X135309428Y-61304714D01*
X134946571Y-62066714D02*
X134946571Y-61304714D01*
X134692571Y-61849000D01*
X134438571Y-61304714D01*
X134438571Y-62066714D01*
X133676571Y-62066714D02*
X134112000Y-62066714D01*
X133894285Y-62066714D02*
X133894285Y-61304714D01*
X133966857Y-61413571D01*
X134039428Y-61486142D01*
X134112000Y-61522428D01*
X137160000Y-72988714D02*
X136652000Y-72988714D01*
X136978571Y-73750714D01*
X142911285Y-62130214D02*
X143346714Y-62130214D01*
X143129000Y-62130214D02*
X143129000Y-61368214D01*
X143201571Y-61477071D01*
X143274142Y-61549642D01*
X143346714Y-61585928D01*
D11*
X139632266Y-82158114D02*
X139801600Y-82158114D01*
X139801600Y-82424209D02*
X139801600Y-81916209D01*
X139559695Y-81916209D01*
X139366171Y-82158114D02*
X139196838Y-82158114D01*
X139124266Y-82424209D02*
X139366171Y-82424209D01*
X139366171Y-81916209D01*
X139124266Y-81916209D01*
X138979123Y-81916209D02*
X138688838Y-81916209D01*
X138833980Y-82424209D02*
X138833980Y-81916209D01*
X138301790Y-82085542D02*
X138301790Y-82424209D01*
X138422742Y-81892019D02*
X138543695Y-82254876D01*
X138229219Y-82254876D01*
X138819466Y-79376209D02*
X138988800Y-79134304D01*
X139109752Y-79376209D02*
X139109752Y-78868209D01*
X138916228Y-78868209D01*
X138867847Y-78892400D01*
X138843657Y-78916590D01*
X138819466Y-78964971D01*
X138819466Y-79037542D01*
X138843657Y-79085923D01*
X138867847Y-79110114D01*
X138916228Y-79134304D01*
X139109752Y-79134304D01*
X138650133Y-78868209D02*
X138335657Y-78868209D01*
X138504990Y-79061733D01*
X138432419Y-79061733D01*
X138384038Y-79085923D01*
X138359847Y-79110114D01*
X138335657Y-79158495D01*
X138335657Y-79279447D01*
X138359847Y-79327828D01*
X138384038Y-79352019D01*
X138432419Y-79376209D01*
X138577561Y-79376209D01*
X138625942Y-79352019D01*
X138650133Y-79327828D01*
X139169986Y-93092209D02*
X139339320Y-92850304D01*
X139460272Y-93092209D02*
X139460272Y-92584209D01*
X139266748Y-92584209D01*
X139218367Y-92608400D01*
X139194177Y-92632590D01*
X139169986Y-92680971D01*
X139169986Y-92753542D01*
X139194177Y-92801923D01*
X139218367Y-92826114D01*
X139266748Y-92850304D01*
X139460272Y-92850304D01*
X138976462Y-92632590D02*
X138952272Y-92608400D01*
X138903891Y-92584209D01*
X138782939Y-92584209D01*
X138734558Y-92608400D01*
X138710367Y-92632590D01*
X138686177Y-92680971D01*
X138686177Y-92729352D01*
X138710367Y-92801923D01*
X139000653Y-93092209D01*
X138686177Y-93092209D01*
D13*
X145448261Y-65250785D02*
X145145880Y-65039119D01*
X145448261Y-64887928D02*
X144813261Y-64887928D01*
X144813261Y-65129833D01*
X144843500Y-65190309D01*
X144873738Y-65220547D01*
X144934214Y-65250785D01*
X145024928Y-65250785D01*
X145085404Y-65220547D01*
X145115642Y-65190309D01*
X145145880Y-65129833D01*
X145145880Y-64887928D01*
X144873738Y-65492690D02*
X144843500Y-65522928D01*
X144813261Y-65583404D01*
X144813261Y-65734595D01*
X144843500Y-65795071D01*
X144873738Y-65825309D01*
X144934214Y-65855547D01*
X144994690Y-65855547D01*
X145085404Y-65825309D01*
X145448261Y-65462452D01*
X145448261Y-65855547D01*
X144813261Y-66430071D02*
X144813261Y-66127690D01*
X145115642Y-66097452D01*
X145085404Y-66127690D01*
X145055166Y-66188166D01*
X145055166Y-66339357D01*
X145085404Y-66399833D01*
X145115642Y-66430071D01*
X145176119Y-66460309D01*
X145327309Y-66460309D01*
X145387785Y-66430071D01*
X145418023Y-66399833D01*
X145448261Y-66339357D01*
X145448261Y-66188166D01*
X145418023Y-66127690D01*
X145387785Y-66097452D01*
D11*
X134069666Y-78715809D02*
X134239000Y-78473904D01*
X134359952Y-78715809D02*
X134359952Y-78207809D01*
X134166428Y-78207809D01*
X134118047Y-78232000D01*
X134093857Y-78256190D01*
X134069666Y-78304571D01*
X134069666Y-78377142D01*
X134093857Y-78425523D01*
X134118047Y-78449714D01*
X134166428Y-78473904D01*
X134359952Y-78473904D01*
X133634238Y-78377142D02*
X133634238Y-78715809D01*
X133755190Y-78183619D02*
X133876142Y-78546476D01*
X133561666Y-78546476D01*
X139149666Y-93905009D02*
X139319000Y-93663104D01*
X139439952Y-93905009D02*
X139439952Y-93397009D01*
X139246428Y-93397009D01*
X139198047Y-93421200D01*
X139173857Y-93445390D01*
X139149666Y-93493771D01*
X139149666Y-93566342D01*
X139173857Y-93614723D01*
X139198047Y-93638914D01*
X139246428Y-93663104D01*
X139439952Y-93663104D01*
X138690047Y-93397009D02*
X138931952Y-93397009D01*
X138956142Y-93638914D01*
X138931952Y-93614723D01*
X138883571Y-93590533D01*
X138762619Y-93590533D01*
X138714238Y-93614723D01*
X138690047Y-93638914D01*
X138665857Y-93687295D01*
X138665857Y-93808247D01*
X138690047Y-93856628D01*
X138714238Y-93880819D01*
X138762619Y-93905009D01*
X138883571Y-93905009D01*
X138931952Y-93880819D01*
X138956142Y-93856628D01*
X150885071Y-64110809D02*
X151054404Y-63868904D01*
X151175357Y-64110809D02*
X151175357Y-63602809D01*
X150981833Y-63602809D01*
X150933452Y-63627000D01*
X150909261Y-63651190D01*
X150885071Y-63699571D01*
X150885071Y-63772142D01*
X150909261Y-63820523D01*
X150933452Y-63844714D01*
X150981833Y-63868904D01*
X151175357Y-63868904D01*
X150715738Y-63602809D02*
X150401261Y-63602809D01*
X150570595Y-63796333D01*
X150498023Y-63796333D01*
X150449642Y-63820523D01*
X150425452Y-63844714D01*
X150401261Y-63893095D01*
X150401261Y-64014047D01*
X150425452Y-64062428D01*
X150449642Y-64086619D01*
X150498023Y-64110809D01*
X150643166Y-64110809D01*
X150691547Y-64086619D01*
X150715738Y-64062428D01*
X150231928Y-63602809D02*
X149917452Y-63602809D01*
X150086785Y-63796333D01*
X150014214Y-63796333D01*
X149965833Y-63820523D01*
X149941642Y-63844714D01*
X149917452Y-63893095D01*
X149917452Y-64014047D01*
X149941642Y-64062428D01*
X149965833Y-64086619D01*
X150014214Y-64110809D01*
X150159357Y-64110809D01*
X150207738Y-64086619D01*
X150231928Y-64062428D01*
X141074256Y-85288723D02*
X140789024Y-85212338D01*
X140974972Y-85015944D02*
X140497608Y-85189690D01*
X140563797Y-85371543D01*
X140603076Y-85408733D01*
X140634082Y-85423191D01*
X140687818Y-85429375D01*
X140756013Y-85404554D01*
X140793203Y-85365275D01*
X140807661Y-85334270D01*
X140813845Y-85280533D01*
X140747656Y-85098680D01*
X140654807Y-85621591D02*
X140762365Y-85917102D01*
X140886302Y-85691791D01*
X140911123Y-85759986D01*
X140950402Y-85797176D01*
X140981407Y-85811634D01*
X141035144Y-85817818D01*
X141148802Y-85776450D01*
X141185992Y-85737171D01*
X141200450Y-85706166D01*
X141206634Y-85652429D01*
X141156992Y-85516039D01*
X141117713Y-85478850D01*
X141086708Y-85464392D01*
X140874017Y-86082407D02*
X140859559Y-86113413D01*
X140853374Y-86167149D01*
X140894743Y-86280808D01*
X140934022Y-86317997D01*
X140965027Y-86332455D01*
X141018764Y-86338639D01*
X141064227Y-86322092D01*
X141124148Y-86274540D01*
X141297644Y-85902477D01*
X141405201Y-86197988D01*
D13*
X149617490Y-80894161D02*
X149617490Y-80259161D01*
X149466300Y-80259161D01*
X149375585Y-80289400D01*
X149315109Y-80349876D01*
X149284871Y-80410352D01*
X149254633Y-80531304D01*
X149254633Y-80622019D01*
X149284871Y-80742971D01*
X149315109Y-80803447D01*
X149375585Y-80863923D01*
X149466300Y-80894161D01*
X149617490Y-80894161D01*
X149042966Y-80259161D02*
X148649871Y-80259161D01*
X148861538Y-80501066D01*
X148770823Y-80501066D01*
X148710347Y-80531304D01*
X148680109Y-80561542D01*
X148649871Y-80622019D01*
X148649871Y-80773209D01*
X148680109Y-80833685D01*
X148710347Y-80863923D01*
X148770823Y-80894161D01*
X148952252Y-80894161D01*
X149012728Y-80863923D01*
X149042966Y-80833685D01*
X149655590Y-79840061D02*
X149655590Y-79205061D01*
X149504400Y-79205061D01*
X149413685Y-79235300D01*
X149353209Y-79295776D01*
X149322971Y-79356252D01*
X149292733Y-79477204D01*
X149292733Y-79567919D01*
X149322971Y-79688871D01*
X149353209Y-79749347D01*
X149413685Y-79809823D01*
X149504400Y-79840061D01*
X149655590Y-79840061D01*
X148718209Y-79205061D02*
X149020590Y-79205061D01*
X149050828Y-79507442D01*
X149020590Y-79477204D01*
X148960114Y-79446966D01*
X148808923Y-79446966D01*
X148748447Y-79477204D01*
X148718209Y-79507442D01*
X148687971Y-79567919D01*
X148687971Y-79719109D01*
X148718209Y-79779585D01*
X148748447Y-79809823D01*
X148808923Y-79840061D01*
X148960114Y-79840061D01*
X149020590Y-79809823D01*
X149050828Y-79779585D01*
D11*
X141916452Y-78461809D02*
X141916452Y-77953809D01*
X141795500Y-77953809D01*
X141722928Y-77978000D01*
X141674547Y-78026380D01*
X141650357Y-78074761D01*
X141626166Y-78171523D01*
X141626166Y-78244095D01*
X141650357Y-78340857D01*
X141674547Y-78389238D01*
X141722928Y-78437619D01*
X141795500Y-78461809D01*
X141916452Y-78461809D01*
X141190738Y-78123142D02*
X141190738Y-78461809D01*
X141311690Y-77929619D02*
X141432642Y-78292476D01*
X141118166Y-78292476D01*
D13*
X148925642Y-100079023D02*
X148834928Y-100109261D01*
X148683738Y-100109261D01*
X148623261Y-100079023D01*
X148593023Y-100048785D01*
X148562785Y-99988309D01*
X148562785Y-99927833D01*
X148593023Y-99867357D01*
X148623261Y-99837119D01*
X148683738Y-99806880D01*
X148804690Y-99776642D01*
X148865166Y-99746404D01*
X148895404Y-99716166D01*
X148925642Y-99655690D01*
X148925642Y-99595214D01*
X148895404Y-99534738D01*
X148865166Y-99504500D01*
X148804690Y-99474261D01*
X148653500Y-99474261D01*
X148562785Y-99504500D01*
X148381357Y-99685928D02*
X148139452Y-99685928D01*
X148290642Y-99474261D02*
X148290642Y-100018547D01*
X148260404Y-100079023D01*
X148199928Y-100109261D01*
X148139452Y-100109261D01*
X147655642Y-100109261D02*
X147655642Y-99776642D01*
X147685880Y-99716166D01*
X147746357Y-99685928D01*
X147867309Y-99685928D01*
X147927785Y-99716166D01*
X147655642Y-100079023D02*
X147716119Y-100109261D01*
X147867309Y-100109261D01*
X147927785Y-100079023D01*
X147958023Y-100018547D01*
X147958023Y-99958071D01*
X147927785Y-99897595D01*
X147867309Y-99867357D01*
X147716119Y-99867357D01*
X147655642Y-99837119D01*
X147353261Y-100109261D02*
X147353261Y-99685928D01*
X147353261Y-99806880D02*
X147323023Y-99746404D01*
X147292785Y-99716166D01*
X147232309Y-99685928D01*
X147171833Y-99685928D01*
X147050880Y-99685928D02*
X146808976Y-99685928D01*
X146960166Y-99474261D02*
X146960166Y-100018547D01*
X146929928Y-100079023D01*
X146869452Y-100109261D01*
X146808976Y-100109261D01*
X146748500Y-100169738D02*
X146264690Y-100169738D01*
X146113500Y-99776642D02*
X145901833Y-99776642D01*
X145811119Y-100109261D02*
X146113500Y-100109261D01*
X146113500Y-99474261D01*
X145811119Y-99474261D01*
X145206357Y-100109261D02*
X145569214Y-100109261D01*
X145387785Y-100109261D02*
X145387785Y-99474261D01*
X145448261Y-99564976D01*
X145508738Y-99625452D01*
X145569214Y-99655690D01*
D11*
X146739428Y-98467333D02*
X146763619Y-98443142D01*
X146787809Y-98370571D01*
X146787809Y-98322190D01*
X146763619Y-98249619D01*
X146715238Y-98201238D01*
X146666857Y-98177047D01*
X146570095Y-98152857D01*
X146497523Y-98152857D01*
X146400761Y-98177047D01*
X146352380Y-98201238D01*
X146304000Y-98249619D01*
X146279809Y-98322190D01*
X146279809Y-98370571D01*
X146304000Y-98443142D01*
X146328190Y-98467333D01*
X146787809Y-98709238D02*
X146787809Y-98806000D01*
X146763619Y-98854380D01*
X146739428Y-98878571D01*
X146666857Y-98926952D01*
X146570095Y-98951142D01*
X146376571Y-98951142D01*
X146328190Y-98926952D01*
X146304000Y-98902761D01*
X146279809Y-98854380D01*
X146279809Y-98757619D01*
X146304000Y-98709238D01*
X146328190Y-98685047D01*
X146376571Y-98660857D01*
X146497523Y-98660857D01*
X146545904Y-98685047D01*
X146570095Y-98709238D01*
X146594285Y-98757619D01*
X146594285Y-98854380D01*
X146570095Y-98902761D01*
X146545904Y-98926952D01*
X146497523Y-98951142D01*
D20*
X138310257Y-84151167D02*
X138445723Y-83957643D01*
X138542485Y-84151167D02*
X138542485Y-83744767D01*
X138387666Y-83744767D01*
X138348961Y-83764120D01*
X138329609Y-83783472D01*
X138310257Y-83822177D01*
X138310257Y-83880234D01*
X138329609Y-83918939D01*
X138348961Y-83938291D01*
X138387666Y-83957643D01*
X138542485Y-83957643D01*
X138174790Y-83744767D02*
X137923209Y-83744767D01*
X138058676Y-83899586D01*
X138000619Y-83899586D01*
X137961914Y-83918939D01*
X137942561Y-83938291D01*
X137923209Y-83976996D01*
X137923209Y-84073758D01*
X137942561Y-84112462D01*
X137961914Y-84131815D01*
X138000619Y-84151167D01*
X138116733Y-84151167D01*
X138155438Y-84131815D01*
X138174790Y-84112462D01*
X137671628Y-83744767D02*
X137632923Y-83744767D01*
X137594219Y-83764120D01*
X137574866Y-83783472D01*
X137555514Y-83822177D01*
X137536161Y-83899586D01*
X137536161Y-83996348D01*
X137555514Y-84073758D01*
X137574866Y-84112462D01*
X137594219Y-84131815D01*
X137632923Y-84151167D01*
X137671628Y-84151167D01*
X137710333Y-84131815D01*
X137729685Y-84112462D01*
X137749038Y-84073758D01*
X137768390Y-83996348D01*
X137768390Y-83899586D01*
X137749038Y-83822177D01*
X137729685Y-83783472D01*
X137710333Y-83764120D01*
X137671628Y-83744767D01*
D11*
X147583071Y-80620809D02*
X147752404Y-80378904D01*
X147873357Y-80620809D02*
X147873357Y-80112809D01*
X147679833Y-80112809D01*
X147631452Y-80137000D01*
X147607261Y-80161190D01*
X147583071Y-80209571D01*
X147583071Y-80282142D01*
X147607261Y-80330523D01*
X147631452Y-80354714D01*
X147679833Y-80378904D01*
X147873357Y-80378904D01*
X147413738Y-80112809D02*
X147099261Y-80112809D01*
X147268595Y-80306333D01*
X147196023Y-80306333D01*
X147147642Y-80330523D01*
X147123452Y-80354714D01*
X147099261Y-80403095D01*
X147099261Y-80524047D01*
X147123452Y-80572428D01*
X147147642Y-80596619D01*
X147196023Y-80620809D01*
X147341166Y-80620809D01*
X147389547Y-80596619D01*
X147413738Y-80572428D01*
X146615452Y-80620809D02*
X146905738Y-80620809D01*
X146760595Y-80620809D02*
X146760595Y-80112809D01*
X146808976Y-80185380D01*
X146857357Y-80233761D01*
X146905738Y-80257952D01*
D14*
X152980571Y-74131714D02*
X152980571Y-74385714D01*
X153379714Y-74494571D02*
X153379714Y-74131714D01*
X152617714Y-74131714D01*
X152617714Y-74494571D01*
X152617714Y-74748571D02*
X153379714Y-75256571D01*
X152617714Y-75256571D02*
X153379714Y-74748571D01*
X152617714Y-75438000D02*
X152617714Y-75873428D01*
X153379714Y-75655714D02*
X152617714Y-75655714D01*
X152690285Y-76091142D02*
X152654000Y-76127428D01*
X152617714Y-76200000D01*
X152617714Y-76381428D01*
X152654000Y-76454000D01*
X152690285Y-76490285D01*
X152762857Y-76526571D01*
X152835428Y-76526571D01*
X152944285Y-76490285D01*
X153379714Y-76054857D01*
X153379714Y-76526571D01*
D13*
X153245476Y-97053446D02*
X153083329Y-96917389D01*
X152800035Y-97113880D02*
X153031672Y-97308247D01*
X153439842Y-96821809D01*
X153208205Y-96627442D01*
X153046059Y-96491385D02*
X152313597Y-96705710D01*
X152721767Y-96219272D02*
X152637889Y-96977823D01*
X152605948Y-96122088D02*
X152327984Y-95888848D01*
X152058796Y-96491906D02*
X152466966Y-96005468D01*
X152212165Y-95791665D02*
X151911036Y-95538988D01*
X151917689Y-95860355D01*
X151848198Y-95802045D01*
X151782434Y-95786335D01*
X151739833Y-95790062D01*
X151677796Y-95816953D01*
X151580613Y-95932771D01*
X151564903Y-95998536D01*
X151568630Y-96041136D01*
X151595521Y-96103173D01*
X151734504Y-96219793D01*
X151800268Y-96235503D01*
X151842868Y-96231776D01*
X133314802Y-94191061D02*
X133314802Y-94402728D01*
X133647421Y-94493442D02*
X133647421Y-94191061D01*
X133012421Y-94191061D01*
X133012421Y-94493442D01*
X133012421Y-94705109D02*
X133647421Y-95128442D01*
X133012421Y-95128442D02*
X133647421Y-94705109D01*
X133012421Y-95279633D02*
X133012421Y-95642490D01*
X133647421Y-95461061D02*
X133012421Y-95461061D01*
X133224088Y-96126300D02*
X133647421Y-96126300D01*
X132982183Y-95975109D02*
X133435755Y-95823919D01*
X133435755Y-96217014D01*
D11*
X133885214Y-72048309D02*
X133885214Y-72217642D01*
X134151309Y-72290214D02*
X134151309Y-72048309D01*
X133643309Y-72048309D01*
X133643309Y-72290214D01*
X133643309Y-72459547D02*
X134151309Y-72798214D01*
X133643309Y-72798214D02*
X134151309Y-72459547D01*
X133643309Y-72919166D02*
X133643309Y-73209452D01*
X134151309Y-73064309D02*
X133643309Y-73064309D01*
X134151309Y-73644880D02*
X134151309Y-73354595D01*
X134151309Y-73499738D02*
X133643309Y-73499738D01*
X133715880Y-73451357D01*
X133764261Y-73402976D01*
X133788452Y-73354595D01*
D14*
X153107571Y-63209714D02*
X153107571Y-63826571D01*
X153071285Y-63899142D01*
X153035000Y-63935428D01*
X152962428Y-63971714D01*
X152817285Y-63971714D01*
X152744714Y-63935428D01*
X152708428Y-63899142D01*
X152672142Y-63826571D01*
X152672142Y-63209714D01*
X152381857Y-63209714D02*
X151873857Y-63209714D01*
X152200428Y-63971714D01*
D11*
X146660809Y-71083714D02*
X146636619Y-71035333D01*
X146612428Y-71011142D01*
X146564047Y-70986952D01*
X146418904Y-70986952D01*
X146370523Y-71011142D01*
X146346333Y-71035333D01*
X146322142Y-71083714D01*
X146322142Y-71156285D01*
X146346333Y-71204666D01*
X146370523Y-71228857D01*
X146418904Y-71253047D01*
X146564047Y-71253047D01*
X146612428Y-71228857D01*
X146636619Y-71204666D01*
X146660809Y-71156285D01*
X146660809Y-71083714D01*
D21*
X149459142Y-64728142D02*
X149459142Y-65242428D01*
X150359142Y-64985285D02*
X149459142Y-64985285D01*
X150316285Y-65499571D02*
X150359142Y-65628142D01*
X150359142Y-65842428D01*
X150316285Y-65928142D01*
X150273428Y-65971000D01*
X150187714Y-66013857D01*
X150102000Y-66013857D01*
X150016285Y-65971000D01*
X149973428Y-65928142D01*
X149930571Y-65842428D01*
X149887714Y-65671000D01*
X149844857Y-65585285D01*
X149802000Y-65542428D01*
X149716285Y-65499571D01*
X149630571Y-65499571D01*
X149544857Y-65542428D01*
X149502000Y-65585285D01*
X149459142Y-65671000D01*
X149459142Y-65885285D01*
X149502000Y-66013857D01*
X150316285Y-66356714D02*
X150359142Y-66485285D01*
X150359142Y-66699571D01*
X150316285Y-66785285D01*
X150273428Y-66828142D01*
X150187714Y-66871000D01*
X150102000Y-66871000D01*
X150016285Y-66828142D01*
X149973428Y-66785285D01*
X149930571Y-66699571D01*
X149887714Y-66528142D01*
X149844857Y-66442428D01*
X149802000Y-66399571D01*
X149716285Y-66356714D01*
X149630571Y-66356714D01*
X149544857Y-66399571D01*
X149502000Y-66442428D01*
X149459142Y-66528142D01*
X149459142Y-66742428D01*
X149502000Y-66871000D01*
X149459142Y-67428142D02*
X149459142Y-67599571D01*
X149502000Y-67685285D01*
X149587714Y-67771000D01*
X149759142Y-67813857D01*
X150059142Y-67813857D01*
X150230571Y-67771000D01*
X150316285Y-67685285D01*
X150359142Y-67599571D01*
X150359142Y-67428142D01*
X150316285Y-67342428D01*
X150230571Y-67256714D01*
X150059142Y-67213857D01*
X149759142Y-67213857D01*
X149587714Y-67256714D01*
X149502000Y-67342428D01*
X149459142Y-67428142D01*
X150359142Y-68199571D02*
X149459142Y-68199571D01*
X149459142Y-68542428D01*
X149502000Y-68628142D01*
X149544857Y-68671000D01*
X149630571Y-68713857D01*
X149759142Y-68713857D01*
X149844857Y-68671000D01*
X149887714Y-68628142D01*
X149930571Y-68542428D01*
X149930571Y-68199571D01*
X149544857Y-69056714D02*
X149502000Y-69099571D01*
X149459142Y-69185285D01*
X149459142Y-69399571D01*
X149502000Y-69485285D01*
X149544857Y-69528142D01*
X149630571Y-69571000D01*
X149716285Y-69571000D01*
X149844857Y-69528142D01*
X150359142Y-69013857D01*
X150359142Y-69571000D01*
X149459142Y-70128142D02*
X149459142Y-70213857D01*
X149502000Y-70299571D01*
X149544857Y-70342428D01*
X149630571Y-70385285D01*
X149802000Y-70428142D01*
X150016285Y-70428142D01*
X150187714Y-70385285D01*
X150273428Y-70342428D01*
X150316285Y-70299571D01*
X150359142Y-70213857D01*
X150359142Y-70128142D01*
X150316285Y-70042428D01*
X150273428Y-69999571D01*
X150187714Y-69956714D01*
X150016285Y-69913857D01*
X149802000Y-69913857D01*
X149630571Y-69956714D01*
X149544857Y-69999571D01*
X149502000Y-70042428D01*
X149459142Y-70128142D01*
D13*
X151232809Y-79154261D02*
X151232809Y-79668309D01*
X151202571Y-79728785D01*
X151172333Y-79759023D01*
X151111857Y-79789261D01*
X150990904Y-79789261D01*
X150930428Y-79759023D01*
X150900190Y-79728785D01*
X150869952Y-79668309D01*
X150869952Y-79154261D01*
X150265190Y-79154261D02*
X150567571Y-79154261D01*
X150597809Y-79456642D01*
X150567571Y-79426404D01*
X150507095Y-79396166D01*
X150355904Y-79396166D01*
X150295428Y-79426404D01*
X150265190Y-79456642D01*
X150234952Y-79517119D01*
X150234952Y-79668309D01*
X150265190Y-79728785D01*
X150295428Y-79759023D01*
X150355904Y-79789261D01*
X150507095Y-79789261D01*
X150567571Y-79759023D01*
X150597809Y-79728785D01*
D11*
X145187609Y-78906914D02*
X145163419Y-78858533D01*
X145139228Y-78834342D01*
X145090847Y-78810152D01*
X144945704Y-78810152D01*
X144897323Y-78834342D01*
X144873133Y-78858533D01*
X144848942Y-78906914D01*
X144848942Y-78979485D01*
X144873133Y-79027866D01*
X144897323Y-79052057D01*
X144945704Y-79076247D01*
X145090847Y-79076247D01*
X145139228Y-79052057D01*
X145163419Y-79027866D01*
X145187609Y-78979485D01*
X145187609Y-78906914D01*
D21*
X148697142Y-72602142D02*
X148697142Y-73116428D01*
X149597142Y-72859285D02*
X148697142Y-72859285D01*
X149554285Y-73373571D02*
X149597142Y-73502142D01*
X149597142Y-73716428D01*
X149554285Y-73802142D01*
X149511428Y-73845000D01*
X149425714Y-73887857D01*
X149340000Y-73887857D01*
X149254285Y-73845000D01*
X149211428Y-73802142D01*
X149168571Y-73716428D01*
X149125714Y-73545000D01*
X149082857Y-73459285D01*
X149040000Y-73416428D01*
X148954285Y-73373571D01*
X148868571Y-73373571D01*
X148782857Y-73416428D01*
X148740000Y-73459285D01*
X148697142Y-73545000D01*
X148697142Y-73759285D01*
X148740000Y-73887857D01*
X149554285Y-74230714D02*
X149597142Y-74359285D01*
X149597142Y-74573571D01*
X149554285Y-74659285D01*
X149511428Y-74702142D01*
X149425714Y-74745000D01*
X149340000Y-74745000D01*
X149254285Y-74702142D01*
X149211428Y-74659285D01*
X149168571Y-74573571D01*
X149125714Y-74402142D01*
X149082857Y-74316428D01*
X149040000Y-74273571D01*
X148954285Y-74230714D01*
X148868571Y-74230714D01*
X148782857Y-74273571D01*
X148740000Y-74316428D01*
X148697142Y-74402142D01*
X148697142Y-74616428D01*
X148740000Y-74745000D01*
X148697142Y-75302142D02*
X148697142Y-75473571D01*
X148740000Y-75559285D01*
X148825714Y-75645000D01*
X148997142Y-75687857D01*
X149297142Y-75687857D01*
X149468571Y-75645000D01*
X149554285Y-75559285D01*
X149597142Y-75473571D01*
X149597142Y-75302142D01*
X149554285Y-75216428D01*
X149468571Y-75130714D01*
X149297142Y-75087857D01*
X148997142Y-75087857D01*
X148825714Y-75130714D01*
X148740000Y-75216428D01*
X148697142Y-75302142D01*
X149597142Y-76073571D02*
X148697142Y-76073571D01*
X148697142Y-76416428D01*
X148740000Y-76502142D01*
X148782857Y-76545000D01*
X148868571Y-76587857D01*
X148997142Y-76587857D01*
X149082857Y-76545000D01*
X149125714Y-76502142D01*
X149168571Y-76416428D01*
X149168571Y-76073571D01*
X148782857Y-76930714D02*
X148740000Y-76973571D01*
X148697142Y-77059285D01*
X148697142Y-77273571D01*
X148740000Y-77359285D01*
X148782857Y-77402142D01*
X148868571Y-77445000D01*
X148954285Y-77445000D01*
X149082857Y-77402142D01*
X149597142Y-76887857D01*
X149597142Y-77445000D01*
X148697142Y-78002142D02*
X148697142Y-78087857D01*
X148740000Y-78173571D01*
X148782857Y-78216428D01*
X148868571Y-78259285D01*
X149040000Y-78302142D01*
X149254285Y-78302142D01*
X149425714Y-78259285D01*
X149511428Y-78216428D01*
X149554285Y-78173571D01*
X149597142Y-78087857D01*
X149597142Y-78002142D01*
X149554285Y-77916428D01*
X149511428Y-77873571D01*
X149425714Y-77830714D01*
X149254285Y-77787857D01*
X149040000Y-77787857D01*
X148868571Y-77830714D01*
X148782857Y-77873571D01*
X148740000Y-77916428D01*
X148697142Y-78002142D01*
D12*
X148312567Y-87843811D02*
X146612567Y-87843811D01*
X146612567Y-88415240D01*
X146693520Y-88558097D01*
X146774472Y-88629525D01*
X146936377Y-88700954D01*
X147179234Y-88700954D01*
X147341139Y-88629525D01*
X147422091Y-88558097D01*
X147503043Y-88415240D01*
X147503043Y-87843811D01*
X148312567Y-89343811D02*
X146612567Y-89343811D01*
X147260186Y-89343811D02*
X147179234Y-89486668D01*
X147179234Y-89772382D01*
X147260186Y-89915240D01*
X147341139Y-89986668D01*
X147503043Y-90058097D01*
X147988758Y-90058097D01*
X148150662Y-89986668D01*
X148231615Y-89915240D01*
X148312567Y-89772382D01*
X148312567Y-89486668D01*
X148231615Y-89343811D01*
D13*
X147422809Y-93759261D02*
X147422809Y-94273309D01*
X147392571Y-94333785D01*
X147362333Y-94364023D01*
X147301857Y-94394261D01*
X147180904Y-94394261D01*
X147120428Y-94364023D01*
X147090190Y-94333785D01*
X147059952Y-94273309D01*
X147059952Y-93759261D01*
X146818047Y-93759261D02*
X146424952Y-93759261D01*
X146636619Y-94001166D01*
X146545904Y-94001166D01*
X146485428Y-94031404D01*
X146455190Y-94061642D01*
X146424952Y-94122119D01*
X146424952Y-94273309D01*
X146455190Y-94333785D01*
X146485428Y-94364023D01*
X146545904Y-94394261D01*
X146727333Y-94394261D01*
X146787809Y-94364023D01*
X146818047Y-94333785D01*
D12*
X151329571Y-93677619D02*
X151426333Y-93629238D01*
X151474714Y-93580857D01*
X151523095Y-93484095D01*
X151523095Y-93193809D01*
X151474714Y-93097047D01*
X151426333Y-93048666D01*
X151329571Y-93000285D01*
X151184428Y-93000285D01*
X151087666Y-93048666D01*
X151039285Y-93097047D01*
X150990904Y-93193809D01*
X150990904Y-93484095D01*
X151039285Y-93580857D01*
X151087666Y-93629238D01*
X151184428Y-93677619D01*
X151329571Y-93677619D01*
D11*
X144108714Y-99419833D02*
X144108714Y-99250500D01*
X144374809Y-99250500D02*
X143866809Y-99250500D01*
X143866809Y-99492404D01*
X144108714Y-99685928D02*
X144108714Y-99855261D01*
X144374809Y-99927833D02*
X144374809Y-99685928D01*
X143866809Y-99685928D01*
X143866809Y-99927833D01*
X143866809Y-100072976D02*
X143866809Y-100363261D01*
X144374809Y-100218119D02*
X143866809Y-100218119D01*
X143866809Y-100484214D02*
X143866809Y-100798690D01*
X144060333Y-100629357D01*
X144060333Y-100701928D01*
X144084523Y-100750309D01*
X144108714Y-100774500D01*
X144157095Y-100798690D01*
X144278047Y-100798690D01*
X144326428Y-100774500D01*
X144350619Y-100750309D01*
X144374809Y-100701928D01*
X144374809Y-100556785D01*
X144350619Y-100508404D01*
X144326428Y-100484214D01*
X137925628Y-80496833D02*
X137949819Y-80472642D01*
X137974009Y-80400071D01*
X137974009Y-80351690D01*
X137949819Y-80279119D01*
X137901438Y-80230738D01*
X137853057Y-80206547D01*
X137756295Y-80182357D01*
X137683723Y-80182357D01*
X137586961Y-80206547D01*
X137538580Y-80230738D01*
X137490200Y-80279119D01*
X137466009Y-80351690D01*
X137466009Y-80400071D01*
X137490200Y-80472642D01*
X137514390Y-80496833D01*
X137974009Y-80980642D02*
X137974009Y-80690357D01*
X137974009Y-80835500D02*
X137466009Y-80835500D01*
X137538580Y-80787119D01*
X137586961Y-80738738D01*
X137611152Y-80690357D01*
X136800166Y-99431928D02*
X136824357Y-99456119D01*
X136896928Y-99480309D01*
X136945309Y-99480309D01*
X137017880Y-99456119D01*
X137066261Y-99407738D01*
X137090452Y-99359357D01*
X137114642Y-99262595D01*
X137114642Y-99190023D01*
X137090452Y-99093261D01*
X137066261Y-99044880D01*
X137017880Y-98996500D01*
X136945309Y-98972309D01*
X136896928Y-98972309D01*
X136824357Y-98996500D01*
X136800166Y-99020690D01*
X136606642Y-99020690D02*
X136582452Y-98996500D01*
X136534071Y-98972309D01*
X136413119Y-98972309D01*
X136364738Y-98996500D01*
X136340547Y-99020690D01*
X136316357Y-99069071D01*
X136316357Y-99117452D01*
X136340547Y-99190023D01*
X136630833Y-99480309D01*
X136316357Y-99480309D01*
X152611666Y-81486828D02*
X152635857Y-81511019D01*
X152708428Y-81535209D01*
X152756809Y-81535209D01*
X152829380Y-81511019D01*
X152877761Y-81462638D01*
X152901952Y-81414257D01*
X152926142Y-81317495D01*
X152926142Y-81244923D01*
X152901952Y-81148161D01*
X152877761Y-81099780D01*
X152829380Y-81051400D01*
X152756809Y-81027209D01*
X152708428Y-81027209D01*
X152635857Y-81051400D01*
X152611666Y-81075590D01*
X152152047Y-81027209D02*
X152393952Y-81027209D01*
X152418142Y-81269114D01*
X152393952Y-81244923D01*
X152345571Y-81220733D01*
X152224619Y-81220733D01*
X152176238Y-81244923D01*
X152152047Y-81269114D01*
X152127857Y-81317495D01*
X152127857Y-81438447D01*
X152152047Y-81486828D01*
X152176238Y-81511019D01*
X152224619Y-81535209D01*
X152345571Y-81535209D01*
X152393952Y-81511019D01*
X152418142Y-81486828D01*
X148420666Y-94669428D02*
X148444857Y-94693619D01*
X148517428Y-94717809D01*
X148565809Y-94717809D01*
X148638380Y-94693619D01*
X148686761Y-94645238D01*
X148710952Y-94596857D01*
X148735142Y-94500095D01*
X148735142Y-94427523D01*
X148710952Y-94330761D01*
X148686761Y-94282380D01*
X148638380Y-94234000D01*
X148565809Y-94209809D01*
X148517428Y-94209809D01*
X148444857Y-94234000D01*
X148420666Y-94258190D01*
X147985238Y-94209809D02*
X148082000Y-94209809D01*
X148130380Y-94234000D01*
X148154571Y-94258190D01*
X148202952Y-94330761D01*
X148227142Y-94427523D01*
X148227142Y-94621047D01*
X148202952Y-94669428D01*
X148178761Y-94693619D01*
X148130380Y-94717809D01*
X148033619Y-94717809D01*
X147985238Y-94693619D01*
X147961047Y-94669428D01*
X147936857Y-94621047D01*
X147936857Y-94500095D01*
X147961047Y-94451714D01*
X147985238Y-94427523D01*
X148033619Y-94403333D01*
X148130380Y-94403333D01*
X148178761Y-94427523D01*
X148202952Y-94451714D01*
X148227142Y-94500095D01*
X143310428Y-89678933D02*
X143334619Y-89654742D01*
X143358809Y-89582171D01*
X143358809Y-89533790D01*
X143334619Y-89461219D01*
X143286238Y-89412838D01*
X143237857Y-89388647D01*
X143141095Y-89364457D01*
X143068523Y-89364457D01*
X142971761Y-89388647D01*
X142923380Y-89412838D01*
X142875000Y-89461219D01*
X142850809Y-89533790D01*
X142850809Y-89582171D01*
X142875000Y-89654742D01*
X142899190Y-89678933D01*
X143068523Y-89969219D02*
X143044333Y-89920838D01*
X143020142Y-89896647D01*
X142971761Y-89872457D01*
X142947571Y-89872457D01*
X142899190Y-89896647D01*
X142875000Y-89920838D01*
X142850809Y-89969219D01*
X142850809Y-90065980D01*
X142875000Y-90114361D01*
X142899190Y-90138552D01*
X142947571Y-90162742D01*
X142971761Y-90162742D01*
X143020142Y-90138552D01*
X143044333Y-90114361D01*
X143068523Y-90065980D01*
X143068523Y-89969219D01*
X143092714Y-89920838D01*
X143116904Y-89896647D01*
X143165285Y-89872457D01*
X143262047Y-89872457D01*
X143310428Y-89896647D01*
X143334619Y-89920838D01*
X143358809Y-89969219D01*
X143358809Y-90065980D01*
X143334619Y-90114361D01*
X143310428Y-90138552D01*
X143262047Y-90162742D01*
X143165285Y-90162742D01*
X143116904Y-90138552D01*
X143092714Y-90114361D01*
X143068523Y-90065980D01*
X144199428Y-92573928D02*
X144223619Y-92549738D01*
X144247809Y-92477166D01*
X144247809Y-92428785D01*
X144223619Y-92356214D01*
X144175238Y-92307833D01*
X144126857Y-92283642D01*
X144030095Y-92259452D01*
X143957523Y-92259452D01*
X143860761Y-92283642D01*
X143812380Y-92307833D01*
X143764000Y-92356214D01*
X143739809Y-92428785D01*
X143739809Y-92477166D01*
X143764000Y-92549738D01*
X143788190Y-92573928D01*
X144247809Y-93057738D02*
X144247809Y-92767452D01*
X144247809Y-92912595D02*
X143739809Y-92912595D01*
X143812380Y-92864214D01*
X143860761Y-92815833D01*
X143884952Y-92767452D01*
X144247809Y-93541547D02*
X144247809Y-93251261D01*
X144247809Y-93396404D02*
X143739809Y-93396404D01*
X143812380Y-93348023D01*
X143860761Y-93299642D01*
X143884952Y-93251261D01*
X144199428Y-85322228D02*
X144223619Y-85298038D01*
X144247809Y-85225466D01*
X144247809Y-85177085D01*
X144223619Y-85104514D01*
X144175238Y-85056133D01*
X144126857Y-85031942D01*
X144030095Y-85007752D01*
X143957523Y-85007752D01*
X143860761Y-85031942D01*
X143812380Y-85056133D01*
X143764000Y-85104514D01*
X143739809Y-85177085D01*
X143739809Y-85225466D01*
X143764000Y-85298038D01*
X143788190Y-85322228D01*
X144247809Y-85806038D02*
X144247809Y-85515752D01*
X144247809Y-85660895D02*
X143739809Y-85660895D01*
X143812380Y-85612514D01*
X143860761Y-85564133D01*
X143884952Y-85515752D01*
X143788190Y-85999561D02*
X143764000Y-86023752D01*
X143739809Y-86072133D01*
X143739809Y-86193085D01*
X143764000Y-86241466D01*
X143788190Y-86265657D01*
X143836571Y-86289847D01*
X143884952Y-86289847D01*
X143957523Y-86265657D01*
X144247809Y-85975371D01*
X144247809Y-86289847D01*
X147583071Y-79683428D02*
X147607261Y-79707619D01*
X147679833Y-79731809D01*
X147728214Y-79731809D01*
X147800785Y-79707619D01*
X147849166Y-79659238D01*
X147873357Y-79610857D01*
X147897547Y-79514095D01*
X147897547Y-79441523D01*
X147873357Y-79344761D01*
X147849166Y-79296380D01*
X147800785Y-79248000D01*
X147728214Y-79223809D01*
X147679833Y-79223809D01*
X147607261Y-79248000D01*
X147583071Y-79272190D01*
X147099261Y-79731809D02*
X147389547Y-79731809D01*
X147244404Y-79731809D02*
X147244404Y-79223809D01*
X147292785Y-79296380D01*
X147341166Y-79344761D01*
X147389547Y-79368952D01*
X146639642Y-79223809D02*
X146881547Y-79223809D01*
X146905738Y-79465714D01*
X146881547Y-79441523D01*
X146833166Y-79417333D01*
X146712214Y-79417333D01*
X146663833Y-79441523D01*
X146639642Y-79465714D01*
X146615452Y-79514095D01*
X146615452Y-79635047D01*
X146639642Y-79683428D01*
X146663833Y-79707619D01*
X146712214Y-79731809D01*
X146833166Y-79731809D01*
X146881547Y-79707619D01*
X146905738Y-79683428D01*
X150948571Y-81016928D02*
X150972761Y-81041119D01*
X151045333Y-81065309D01*
X151093714Y-81065309D01*
X151166285Y-81041119D01*
X151214666Y-80992738D01*
X151238857Y-80944357D01*
X151263047Y-80847595D01*
X151263047Y-80775023D01*
X151238857Y-80678261D01*
X151214666Y-80629880D01*
X151166285Y-80581500D01*
X151093714Y-80557309D01*
X151045333Y-80557309D01*
X150972761Y-80581500D01*
X150948571Y-80605690D01*
X150464761Y-81065309D02*
X150755047Y-81065309D01*
X150609904Y-81065309D02*
X150609904Y-80557309D01*
X150658285Y-80629880D01*
X150706666Y-80678261D01*
X150755047Y-80702452D01*
X150029333Y-80557309D02*
X150126095Y-80557309D01*
X150174476Y-80581500D01*
X150198666Y-80605690D01*
X150247047Y-80678261D01*
X150271238Y-80775023D01*
X150271238Y-80968547D01*
X150247047Y-81016928D01*
X150222857Y-81041119D01*
X150174476Y-81065309D01*
X150077714Y-81065309D01*
X150029333Y-81041119D01*
X150005142Y-81016928D01*
X149980952Y-80968547D01*
X149980952Y-80847595D01*
X150005142Y-80799214D01*
X150029333Y-80775023D01*
X150077714Y-80750833D01*
X150174476Y-80750833D01*
X150222857Y-80775023D01*
X150247047Y-80799214D01*
X150271238Y-80847595D01*
X152637671Y-80737528D02*
X152661861Y-80761719D01*
X152734433Y-80785909D01*
X152782814Y-80785909D01*
X152855385Y-80761719D01*
X152903766Y-80713338D01*
X152927957Y-80664957D01*
X152952147Y-80568195D01*
X152952147Y-80495623D01*
X152927957Y-80398861D01*
X152903766Y-80350480D01*
X152855385Y-80302100D01*
X152782814Y-80277909D01*
X152734433Y-80277909D01*
X152661861Y-80302100D01*
X152637671Y-80326290D01*
X152153861Y-80785909D02*
X152444147Y-80785909D01*
X152299004Y-80785909D02*
X152299004Y-80277909D01*
X152347385Y-80350480D01*
X152395766Y-80398861D01*
X152444147Y-80423052D01*
X151984528Y-80277909D02*
X151645861Y-80277909D01*
X151863576Y-80785909D01*
X149678571Y-71936428D02*
X149702761Y-71960619D01*
X149775333Y-71984809D01*
X149823714Y-71984809D01*
X149896285Y-71960619D01*
X149944666Y-71912238D01*
X149968857Y-71863857D01*
X149993047Y-71767095D01*
X149993047Y-71694523D01*
X149968857Y-71597761D01*
X149944666Y-71549380D01*
X149896285Y-71501000D01*
X149823714Y-71476809D01*
X149775333Y-71476809D01*
X149702761Y-71501000D01*
X149678571Y-71525190D01*
X149485047Y-71525190D02*
X149460857Y-71501000D01*
X149412476Y-71476809D01*
X149291523Y-71476809D01*
X149243142Y-71501000D01*
X149218952Y-71525190D01*
X149194761Y-71573571D01*
X149194761Y-71621952D01*
X149218952Y-71694523D01*
X149509238Y-71984809D01*
X149194761Y-71984809D01*
X149025428Y-71476809D02*
X148710952Y-71476809D01*
X148880285Y-71670333D01*
X148807714Y-71670333D01*
X148759333Y-71694523D01*
X148735142Y-71718714D01*
X148710952Y-71767095D01*
X148710952Y-71888047D01*
X148735142Y-71936428D01*
X148759333Y-71960619D01*
X148807714Y-71984809D01*
X148952857Y-71984809D01*
X149001238Y-71960619D01*
X149025428Y-71936428D01*
D13*
X153071285Y-72362785D02*
X153101523Y-72332547D01*
X153131761Y-72241833D01*
X153131761Y-72181357D01*
X153101523Y-72090642D01*
X153041047Y-72030166D01*
X152980571Y-71999928D01*
X152859619Y-71969690D01*
X152768904Y-71969690D01*
X152647952Y-71999928D01*
X152587476Y-72030166D01*
X152527000Y-72090642D01*
X152496761Y-72181357D01*
X152496761Y-72241833D01*
X152527000Y-72332547D01*
X152557238Y-72362785D01*
X152557238Y-72604690D02*
X152527000Y-72634928D01*
X152496761Y-72695404D01*
X152496761Y-72846595D01*
X152527000Y-72907071D01*
X152557238Y-72937309D01*
X152617714Y-72967547D01*
X152678190Y-72967547D01*
X152768904Y-72937309D01*
X153131761Y-72574452D01*
X153131761Y-72967547D01*
X152708428Y-73511833D02*
X153131761Y-73511833D01*
X152466523Y-73360642D02*
X152920095Y-73209452D01*
X152920095Y-73602547D01*
D11*
X141931571Y-76571928D02*
X141955761Y-76596119D01*
X142028333Y-76620309D01*
X142076714Y-76620309D01*
X142149285Y-76596119D01*
X142197666Y-76547738D01*
X142221857Y-76499357D01*
X142246047Y-76402595D01*
X142246047Y-76330023D01*
X142221857Y-76233261D01*
X142197666Y-76184880D01*
X142149285Y-76136500D01*
X142076714Y-76112309D01*
X142028333Y-76112309D01*
X141955761Y-76136500D01*
X141931571Y-76160690D01*
X141738047Y-76160690D02*
X141713857Y-76136500D01*
X141665476Y-76112309D01*
X141544523Y-76112309D01*
X141496142Y-76136500D01*
X141471952Y-76160690D01*
X141447761Y-76209071D01*
X141447761Y-76257452D01*
X141471952Y-76330023D01*
X141762238Y-76620309D01*
X141447761Y-76620309D01*
X140988142Y-76112309D02*
X141230047Y-76112309D01*
X141254238Y-76354214D01*
X141230047Y-76330023D01*
X141181666Y-76305833D01*
X141060714Y-76305833D01*
X141012333Y-76330023D01*
X140988142Y-76354214D01*
X140963952Y-76402595D01*
X140963952Y-76523547D01*
X140988142Y-76571928D01*
X141012333Y-76596119D01*
X141060714Y-76620309D01*
X141181666Y-76620309D01*
X141230047Y-76596119D01*
X141254238Y-76571928D01*
X138502571Y-75365428D02*
X138526761Y-75389619D01*
X138599333Y-75413809D01*
X138647714Y-75413809D01*
X138720285Y-75389619D01*
X138768666Y-75341238D01*
X138792857Y-75292857D01*
X138817047Y-75196095D01*
X138817047Y-75123523D01*
X138792857Y-75026761D01*
X138768666Y-74978380D01*
X138720285Y-74930000D01*
X138647714Y-74905809D01*
X138599333Y-74905809D01*
X138526761Y-74930000D01*
X138502571Y-74954190D01*
X138309047Y-74954190D02*
X138284857Y-74930000D01*
X138236476Y-74905809D01*
X138115523Y-74905809D01*
X138067142Y-74930000D01*
X138042952Y-74954190D01*
X138018761Y-75002571D01*
X138018761Y-75050952D01*
X138042952Y-75123523D01*
X138333238Y-75413809D01*
X138018761Y-75413809D01*
X137583333Y-74905809D02*
X137680095Y-74905809D01*
X137728476Y-74930000D01*
X137752666Y-74954190D01*
X137801047Y-75026761D01*
X137825238Y-75123523D01*
X137825238Y-75317047D01*
X137801047Y-75365428D01*
X137776857Y-75389619D01*
X137728476Y-75413809D01*
X137631714Y-75413809D01*
X137583333Y-75389619D01*
X137559142Y-75365428D01*
X137534952Y-75317047D01*
X137534952Y-75196095D01*
X137559142Y-75147714D01*
X137583333Y-75123523D01*
X137631714Y-75099333D01*
X137728476Y-75099333D01*
X137776857Y-75123523D01*
X137801047Y-75147714D01*
X137825238Y-75196095D01*
D20*
X137738757Y-77615142D02*
X137758109Y-77634495D01*
X137816166Y-77653847D01*
X137854871Y-77653847D01*
X137912928Y-77634495D01*
X137951633Y-77595790D01*
X137970985Y-77557085D01*
X137990338Y-77479676D01*
X137990338Y-77421619D01*
X137970985Y-77344209D01*
X137951633Y-77305504D01*
X137912928Y-77266800D01*
X137854871Y-77247447D01*
X137816166Y-77247447D01*
X137758109Y-77266800D01*
X137738757Y-77286152D01*
X137583938Y-77286152D02*
X137564585Y-77266800D01*
X137525880Y-77247447D01*
X137429119Y-77247447D01*
X137390414Y-77266800D01*
X137371061Y-77286152D01*
X137351709Y-77324857D01*
X137351709Y-77363561D01*
X137371061Y-77421619D01*
X137603290Y-77653847D01*
X137351709Y-77653847D01*
X137158185Y-77653847D02*
X137080776Y-77653847D01*
X137042071Y-77634495D01*
X137022719Y-77615142D01*
X136984014Y-77557085D01*
X136964661Y-77479676D01*
X136964661Y-77324857D01*
X136984014Y-77286152D01*
X137003366Y-77266800D01*
X137042071Y-77247447D01*
X137119480Y-77247447D01*
X137158185Y-77266800D01*
X137177538Y-77286152D01*
X137196890Y-77324857D01*
X137196890Y-77421619D01*
X137177538Y-77460323D01*
X137158185Y-77479676D01*
X137119480Y-77499028D01*
X137042071Y-77499028D01*
X137003366Y-77479676D01*
X136984014Y-77460323D01*
X136964661Y-77421619D01*
D11*
X134136368Y-74189789D02*
X134136368Y-74155579D01*
X134102158Y-74087158D01*
X134067947Y-74052947D01*
X133999526Y-74018737D01*
X133931105Y-74018737D01*
X133879789Y-74035842D01*
X133794263Y-74087158D01*
X133742947Y-74138474D01*
X133691632Y-74224000D01*
X133674526Y-74275316D01*
X133674526Y-74343737D01*
X133708737Y-74412158D01*
X133742947Y-74446368D01*
X133811368Y-74480579D01*
X133845579Y-74480579D01*
X133931105Y-74634526D02*
X134153473Y-74856894D01*
X134170579Y-74600315D01*
X134221894Y-74651631D01*
X134273210Y-74668736D01*
X134307420Y-74668736D01*
X134358736Y-74651631D01*
X134444262Y-74566105D01*
X134461368Y-74514789D01*
X134461368Y-74480579D01*
X134444262Y-74429263D01*
X134341631Y-74326631D01*
X134290315Y-74309526D01*
X134256105Y-74309526D01*
X134375841Y-75079262D02*
X134410052Y-75113473D01*
X134461368Y-75130578D01*
X134495578Y-75130578D01*
X134546894Y-75113473D01*
X134632420Y-75062157D01*
X134717946Y-74976631D01*
X134769262Y-74891104D01*
X134786367Y-74839789D01*
X134786367Y-74805578D01*
X134769262Y-74754262D01*
X134735052Y-74720052D01*
X134683736Y-74702947D01*
X134649525Y-74702947D01*
X134598210Y-74720052D01*
X134512683Y-74771368D01*
X134427157Y-74856894D01*
X134375841Y-74942420D01*
X134358736Y-74993736D01*
X134358736Y-75027946D01*
X134375841Y-75079262D01*
X132500309Y-95510047D02*
X131992309Y-95510047D01*
X131992309Y-95631000D01*
X132016500Y-95703571D01*
X132064880Y-95751952D01*
X132113261Y-95776142D01*
X132210023Y-95800333D01*
X132282595Y-95800333D01*
X132379357Y-95776142D01*
X132427738Y-95751952D01*
X132476119Y-95703571D01*
X132500309Y-95631000D01*
X132500309Y-95510047D01*
X132500309Y-96284142D02*
X132500309Y-95993857D01*
X132500309Y-96139000D02*
X131992309Y-96139000D01*
X132064880Y-96090619D01*
X132113261Y-96042238D01*
X132137452Y-95993857D01*
X144646952Y-94255529D02*
X144646952Y-93747529D01*
X144526000Y-93747529D01*
X144453428Y-93771720D01*
X144405047Y-93820100D01*
X144380857Y-93868481D01*
X144356666Y-93965243D01*
X144356666Y-94037815D01*
X144380857Y-94134577D01*
X144405047Y-94182958D01*
X144453428Y-94231339D01*
X144526000Y-94255529D01*
X144646952Y-94255529D01*
X144163142Y-93795910D02*
X144138952Y-93771720D01*
X144090571Y-93747529D01*
X143969619Y-93747529D01*
X143921238Y-93771720D01*
X143897047Y-93795910D01*
X143872857Y-93844291D01*
X143872857Y-93892672D01*
X143897047Y-93965243D01*
X144187333Y-94255529D01*
X143872857Y-94255529D01*
D13*
X139161882Y-90363886D02*
X139161882Y-90152220D01*
X139494501Y-90152220D02*
X138859501Y-90152220D01*
X138859501Y-90454600D01*
X139161882Y-90696505D02*
X139161882Y-90908172D01*
X139494501Y-90998886D02*
X139494501Y-90696505D01*
X138859501Y-90696505D01*
X138859501Y-90998886D01*
X138859501Y-91180315D02*
X138859501Y-91543172D01*
X139494501Y-91361743D02*
X138859501Y-91361743D01*
X139494501Y-92087458D02*
X139494501Y-91724600D01*
X139494501Y-91906029D02*
X138859501Y-91906029D01*
X138950216Y-91845553D01*
X139010692Y-91785077D01*
X139040930Y-91724600D01*
D11*
X134162520Y-96202263D02*
X134282257Y-96082526D01*
X134470415Y-96270684D02*
X134111204Y-95911474D01*
X133940152Y-96082526D01*
X133974362Y-96390421D02*
X133854626Y-96510158D01*
X133991468Y-96749631D02*
X134162520Y-96578579D01*
X133803310Y-96219368D01*
X133632258Y-96390421D01*
X133529626Y-96493052D02*
X133324363Y-96698315D01*
X133786205Y-96954894D02*
X133426995Y-96595684D01*
X133255942Y-96835157D02*
X133221732Y-96835157D01*
X133170416Y-96852262D01*
X133084890Y-96937789D01*
X133067784Y-96989104D01*
X133067784Y-97023315D01*
X133084890Y-97074631D01*
X133119100Y-97108841D01*
X133187521Y-97143052D01*
X133598047Y-97143052D01*
X133375679Y-97365420D01*
X135022166Y-80357254D02*
X135191500Y-80357254D01*
X135191500Y-80623349D02*
X135191500Y-80115349D01*
X134949595Y-80115349D01*
X134756071Y-80357254D02*
X134586738Y-80357254D01*
X134514166Y-80623349D02*
X134756071Y-80623349D01*
X134756071Y-80115349D01*
X134514166Y-80115349D01*
X134369023Y-80115349D02*
X134078738Y-80115349D01*
X134223880Y-80623349D02*
X134223880Y-80115349D01*
X133667500Y-80115349D02*
X133909404Y-80115349D01*
X133933595Y-80357254D01*
X133909404Y-80333063D01*
X133861023Y-80308873D01*
X133740071Y-80308873D01*
X133691690Y-80333063D01*
X133667500Y-80357254D01*
X133643309Y-80405635D01*
X133643309Y-80526587D01*
X133667500Y-80574968D01*
X133691690Y-80599159D01*
X133740071Y-80623349D01*
X133861023Y-80623349D01*
X133909404Y-80599159D01*
X133933595Y-80574968D01*
D14*
X141169571Y-90023405D02*
X141242142Y-89987120D01*
X141314714Y-89914548D01*
X141423571Y-89805691D01*
X141496142Y-89769405D01*
X141568714Y-89769405D01*
X141532428Y-89950834D02*
X141605000Y-89914548D01*
X141677571Y-89841977D01*
X141713857Y-89696834D01*
X141713857Y-89442834D01*
X141677571Y-89297691D01*
X141605000Y-89225120D01*
X141532428Y-89188834D01*
X141387285Y-89188834D01*
X141314714Y-89225120D01*
X141242142Y-89297691D01*
X141205857Y-89442834D01*
X141205857Y-89696834D01*
X141242142Y-89841977D01*
X141314714Y-89914548D01*
X141387285Y-89950834D01*
X141532428Y-89950834D01*
X140480142Y-89950834D02*
X140915571Y-89950834D01*
X140697857Y-89950834D02*
X140697857Y-89188834D01*
X140770428Y-89297691D01*
X140843000Y-89370262D01*
X140915571Y-89406548D01*
D19*
X142449542Y-90049304D02*
X142525733Y-90011209D01*
X142563828Y-89973114D01*
X142601923Y-89896923D01*
X142601923Y-89668352D01*
X142563828Y-89592161D01*
X142525733Y-89554066D01*
X142449542Y-89515971D01*
X142335257Y-89515971D01*
X142259066Y-89554066D01*
X142220971Y-89592161D01*
X142182876Y-89668352D01*
X142182876Y-89896923D01*
X142220971Y-89973114D01*
X142259066Y-90011209D01*
X142335257Y-90049304D01*
X142449542Y-90049304D01*
D11*
X140260009Y-88703573D02*
X140018104Y-88534240D01*
X140260009Y-88413287D02*
X139752009Y-88413287D01*
X139752009Y-88606811D01*
X139776200Y-88655192D01*
X139800390Y-88679382D01*
X139848771Y-88703573D01*
X139921342Y-88703573D01*
X139969723Y-88679382D01*
X139993914Y-88655192D01*
X140018104Y-88606811D01*
X140018104Y-88413287D01*
X140260009Y-89187382D02*
X140260009Y-88897097D01*
X140260009Y-89042240D02*
X139752009Y-89042240D01*
X139824580Y-88993859D01*
X139872961Y-88945478D01*
X139897152Y-88897097D01*
X132695889Y-94560813D02*
X132453984Y-94391480D01*
X132695889Y-94270527D02*
X132187889Y-94270527D01*
X132187889Y-94464051D01*
X132212080Y-94512432D01*
X132236270Y-94536622D01*
X132284651Y-94560813D01*
X132357222Y-94560813D01*
X132405603Y-94536622D01*
X132429794Y-94512432D01*
X132453984Y-94464051D01*
X132453984Y-94270527D01*
X132187889Y-94996241D02*
X132187889Y-94899480D01*
X132212080Y-94851099D01*
X132236270Y-94826908D01*
X132308841Y-94778527D01*
X132405603Y-94754337D01*
X132599127Y-94754337D01*
X132647508Y-94778527D01*
X132671699Y-94802718D01*
X132695889Y-94851099D01*
X132695889Y-94947860D01*
X132671699Y-94996241D01*
X132647508Y-95020432D01*
X132599127Y-95044622D01*
X132478175Y-95044622D01*
X132429794Y-95020432D01*
X132405603Y-94996241D01*
X132381413Y-94947860D01*
X132381413Y-94851099D01*
X132405603Y-94802718D01*
X132429794Y-94778527D01*
X132478175Y-94754337D01*
X139193209Y-95177428D02*
X138951304Y-95008095D01*
X139193209Y-94887142D02*
X138685209Y-94887142D01*
X138685209Y-95080666D01*
X138709400Y-95129047D01*
X138733590Y-95153238D01*
X138781971Y-95177428D01*
X138854542Y-95177428D01*
X138902923Y-95153238D01*
X138927114Y-95129047D01*
X138951304Y-95080666D01*
X138951304Y-94887142D01*
X139193209Y-95661238D02*
X139193209Y-95370952D01*
X139193209Y-95516095D02*
X138685209Y-95516095D01*
X138757780Y-95467714D01*
X138806161Y-95419333D01*
X138830352Y-95370952D01*
X138685209Y-95975714D02*
X138685209Y-96024095D01*
X138709400Y-96072476D01*
X138733590Y-96096666D01*
X138781971Y-96120857D01*
X138878733Y-96145047D01*
X138999685Y-96145047D01*
X139096447Y-96120857D01*
X139144828Y-96096666D01*
X139169019Y-96072476D01*
X139193209Y-96024095D01*
X139193209Y-95975714D01*
X139169019Y-95927333D01*
X139144828Y-95903142D01*
X139096447Y-95878952D01*
X138999685Y-95854761D01*
X138878733Y-95854761D01*
X138781971Y-95878952D01*
X138733590Y-95903142D01*
X138709400Y-95927333D01*
X138685209Y-95975714D01*
X137999409Y-81588428D02*
X137757504Y-81419095D01*
X137999409Y-81298142D02*
X137491409Y-81298142D01*
X137491409Y-81491666D01*
X137515600Y-81540047D01*
X137539790Y-81564238D01*
X137588171Y-81588428D01*
X137660742Y-81588428D01*
X137709123Y-81564238D01*
X137733314Y-81540047D01*
X137757504Y-81491666D01*
X137757504Y-81298142D01*
X137999409Y-82072238D02*
X137999409Y-81781952D01*
X137999409Y-81927095D02*
X137491409Y-81927095D01*
X137563980Y-81878714D01*
X137612361Y-81830333D01*
X137636552Y-81781952D01*
X137999409Y-82556047D02*
X137999409Y-82265761D01*
X137999409Y-82410904D02*
X137491409Y-82410904D01*
X137563980Y-82362523D01*
X137612361Y-82314142D01*
X137636552Y-82265761D01*
X136785763Y-88379904D02*
X136494959Y-88328669D01*
X136663083Y-88116815D02*
X136202678Y-88331505D01*
X136284465Y-88506898D01*
X136326836Y-88540522D01*
X136358983Y-88552223D01*
X136413054Y-88553700D01*
X136478826Y-88523030D01*
X136512451Y-88480660D01*
X136524152Y-88448512D01*
X136525629Y-88394441D01*
X136443842Y-88219049D01*
X136990229Y-88818384D02*
X136867549Y-88555296D01*
X136928889Y-88686840D02*
X136468485Y-88901530D01*
X136513810Y-88827012D01*
X136537212Y-88762717D01*
X136538689Y-88708646D01*
X136655460Y-89188019D02*
X136643759Y-89220167D01*
X136642282Y-89274238D01*
X136693398Y-89383858D01*
X136735769Y-89417483D01*
X136767916Y-89429184D01*
X136821988Y-89430661D01*
X136865836Y-89410214D01*
X136921385Y-89357620D01*
X137061793Y-88971852D01*
X137194696Y-89256864D01*
X152185309Y-87366928D02*
X151943404Y-87197595D01*
X152185309Y-87076642D02*
X151677309Y-87076642D01*
X151677309Y-87270166D01*
X151701500Y-87318547D01*
X151725690Y-87342738D01*
X151774071Y-87366928D01*
X151846642Y-87366928D01*
X151895023Y-87342738D01*
X151919214Y-87318547D01*
X151943404Y-87270166D01*
X151943404Y-87076642D01*
X152185309Y-87850738D02*
X152185309Y-87560452D01*
X152185309Y-87705595D02*
X151677309Y-87705595D01*
X151749880Y-87657214D01*
X151798261Y-87608833D01*
X151822452Y-87560452D01*
X151677309Y-88020071D02*
X151677309Y-88334547D01*
X151870833Y-88165214D01*
X151870833Y-88237785D01*
X151895023Y-88286166D01*
X151919214Y-88310357D01*
X151967595Y-88334547D01*
X152088547Y-88334547D01*
X152136928Y-88310357D01*
X152161119Y-88286166D01*
X152185309Y-88237785D01*
X152185309Y-88092642D01*
X152161119Y-88044261D01*
X152136928Y-88020071D01*
X138290020Y-88552179D02*
X138238704Y-88261389D01*
X138495283Y-88346916D02*
X138136073Y-87987705D01*
X137999231Y-88124547D01*
X137982126Y-88175863D01*
X137982126Y-88210074D01*
X137999231Y-88261389D01*
X138050547Y-88312705D01*
X138101862Y-88329810D01*
X138136073Y-88329810D01*
X138187389Y-88312705D01*
X138324231Y-88175863D01*
X137947915Y-88894283D02*
X138153178Y-88689020D01*
X138050547Y-88791652D02*
X137691337Y-88432442D01*
X137776863Y-88449547D01*
X137845284Y-88449547D01*
X137896600Y-88432442D01*
X137400547Y-88962704D02*
X137640021Y-89202178D01*
X137349232Y-88740336D02*
X137691337Y-88911389D01*
X137468968Y-89133757D01*
D20*
X140520057Y-84156247D02*
X140655523Y-83962723D01*
X140752285Y-84156247D02*
X140752285Y-83749847D01*
X140597466Y-83749847D01*
X140558761Y-83769200D01*
X140539409Y-83788552D01*
X140520057Y-83827257D01*
X140520057Y-83885314D01*
X140539409Y-83924019D01*
X140558761Y-83943371D01*
X140597466Y-83962723D01*
X140752285Y-83962723D01*
X140133009Y-84156247D02*
X140365238Y-84156247D01*
X140249123Y-84156247D02*
X140249123Y-83749847D01*
X140287828Y-83807904D01*
X140326533Y-83846609D01*
X140365238Y-83865961D01*
X139765314Y-83749847D02*
X139958838Y-83749847D01*
X139978190Y-83943371D01*
X139958838Y-83924019D01*
X139920133Y-83904666D01*
X139823371Y-83904666D01*
X139784666Y-83924019D01*
X139765314Y-83943371D01*
X139745961Y-83982076D01*
X139745961Y-84078838D01*
X139765314Y-84117542D01*
X139784666Y-84136895D01*
X139823371Y-84156247D01*
X139920133Y-84156247D01*
X139958838Y-84136895D01*
X139978190Y-84117542D01*
D11*
X142596809Y-82096428D02*
X142354904Y-81927095D01*
X142596809Y-81806142D02*
X142088809Y-81806142D01*
X142088809Y-81999666D01*
X142113000Y-82048047D01*
X142137190Y-82072238D01*
X142185571Y-82096428D01*
X142258142Y-82096428D01*
X142306523Y-82072238D01*
X142330714Y-82048047D01*
X142354904Y-81999666D01*
X142354904Y-81806142D01*
X142596809Y-82580238D02*
X142596809Y-82289952D01*
X142596809Y-82435095D02*
X142088809Y-82435095D01*
X142161380Y-82386714D01*
X142209761Y-82338333D01*
X142233952Y-82289952D01*
X142088809Y-82749571D02*
X142088809Y-83088238D01*
X142596809Y-82870523D01*
X150585109Y-81804328D02*
X150343204Y-81634995D01*
X150585109Y-81514042D02*
X150077109Y-81514042D01*
X150077109Y-81707566D01*
X150101300Y-81755947D01*
X150125490Y-81780138D01*
X150173871Y-81804328D01*
X150246442Y-81804328D01*
X150294823Y-81780138D01*
X150319014Y-81755947D01*
X150343204Y-81707566D01*
X150343204Y-81514042D01*
X150585109Y-82288138D02*
X150585109Y-81997852D01*
X150585109Y-82142995D02*
X150077109Y-82142995D01*
X150149680Y-82094614D01*
X150198061Y-82046233D01*
X150222252Y-81997852D01*
X150294823Y-82578423D02*
X150270633Y-82530042D01*
X150246442Y-82505852D01*
X150198061Y-82481661D01*
X150173871Y-82481661D01*
X150125490Y-82505852D01*
X150101300Y-82530042D01*
X150077109Y-82578423D01*
X150077109Y-82675185D01*
X150101300Y-82723566D01*
X150125490Y-82747757D01*
X150173871Y-82771947D01*
X150198061Y-82771947D01*
X150246442Y-82747757D01*
X150270633Y-82723566D01*
X150294823Y-82675185D01*
X150294823Y-82578423D01*
X150319014Y-82530042D01*
X150343204Y-82505852D01*
X150391585Y-82481661D01*
X150488347Y-82481661D01*
X150536728Y-82505852D01*
X150560919Y-82530042D01*
X150585109Y-82578423D01*
X150585109Y-82675185D01*
X150560919Y-82723566D01*
X150536728Y-82747757D01*
X150488347Y-82771947D01*
X150391585Y-82771947D01*
X150343204Y-82747757D01*
X150319014Y-82723566D01*
X150294823Y-82675185D01*
X143582571Y-75439209D02*
X143751904Y-75197304D01*
X143872857Y-75439209D02*
X143872857Y-74931209D01*
X143679333Y-74931209D01*
X143630952Y-74955400D01*
X143606761Y-74979590D01*
X143582571Y-75027971D01*
X143582571Y-75100542D01*
X143606761Y-75148923D01*
X143630952Y-75173114D01*
X143679333Y-75197304D01*
X143872857Y-75197304D01*
X143098761Y-75439209D02*
X143389047Y-75439209D01*
X143243904Y-75439209D02*
X143243904Y-74931209D01*
X143292285Y-75003780D01*
X143340666Y-75052161D01*
X143389047Y-75076352D01*
X142856857Y-75439209D02*
X142760095Y-75439209D01*
X142711714Y-75415019D01*
X142687523Y-75390828D01*
X142639142Y-75318257D01*
X142614952Y-75221495D01*
X142614952Y-75027971D01*
X142639142Y-74979590D01*
X142663333Y-74955400D01*
X142711714Y-74931209D01*
X142808476Y-74931209D01*
X142856857Y-74955400D01*
X142881047Y-74979590D01*
X142905238Y-75027971D01*
X142905238Y-75148923D01*
X142881047Y-75197304D01*
X142856857Y-75221495D01*
X142808476Y-75245685D01*
X142711714Y-75245685D01*
X142663333Y-75221495D01*
X142639142Y-75197304D01*
X142614952Y-75148923D01*
X144755809Y-77143428D02*
X144513904Y-76974095D01*
X144755809Y-76853142D02*
X144247809Y-76853142D01*
X144247809Y-77046666D01*
X144272000Y-77095047D01*
X144296190Y-77119238D01*
X144344571Y-77143428D01*
X144417142Y-77143428D01*
X144465523Y-77119238D01*
X144489714Y-77095047D01*
X144513904Y-77046666D01*
X144513904Y-76853142D01*
X144296190Y-77336952D02*
X144272000Y-77361142D01*
X144247809Y-77409523D01*
X144247809Y-77530476D01*
X144272000Y-77578857D01*
X144296190Y-77603047D01*
X144344571Y-77627238D01*
X144392952Y-77627238D01*
X144465523Y-77603047D01*
X144755809Y-77312761D01*
X144755809Y-77627238D01*
X144247809Y-77941714D02*
X144247809Y-77990095D01*
X144272000Y-78038476D01*
X144296190Y-78062666D01*
X144344571Y-78086857D01*
X144441333Y-78111047D01*
X144562285Y-78111047D01*
X144659047Y-78086857D01*
X144707428Y-78062666D01*
X144731619Y-78038476D01*
X144755809Y-77990095D01*
X144755809Y-77941714D01*
X144731619Y-77893333D01*
X144707428Y-77869142D01*
X144659047Y-77844952D01*
X144562285Y-77820761D01*
X144441333Y-77820761D01*
X144344571Y-77844952D01*
X144296190Y-77869142D01*
X144272000Y-77893333D01*
X144247809Y-77941714D01*
X153264809Y-85906428D02*
X153022904Y-85737095D01*
X153264809Y-85616142D02*
X152756809Y-85616142D01*
X152756809Y-85809666D01*
X152781000Y-85858047D01*
X152805190Y-85882238D01*
X152853571Y-85906428D01*
X152926142Y-85906428D01*
X152974523Y-85882238D01*
X152998714Y-85858047D01*
X153022904Y-85809666D01*
X153022904Y-85616142D01*
X152805190Y-86099952D02*
X152781000Y-86124142D01*
X152756809Y-86172523D01*
X152756809Y-86293476D01*
X152781000Y-86341857D01*
X152805190Y-86366047D01*
X152853571Y-86390238D01*
X152901952Y-86390238D01*
X152974523Y-86366047D01*
X153264809Y-86075761D01*
X153264809Y-86390238D01*
X153264809Y-86874047D02*
X153264809Y-86583761D01*
X153264809Y-86728904D02*
X152756809Y-86728904D01*
X152829380Y-86680523D01*
X152877761Y-86632142D01*
X152901952Y-86583761D01*
X152185309Y-85652428D02*
X151943404Y-85483095D01*
X152185309Y-85362142D02*
X151677309Y-85362142D01*
X151677309Y-85555666D01*
X151701500Y-85604047D01*
X151725690Y-85628238D01*
X151774071Y-85652428D01*
X151846642Y-85652428D01*
X151895023Y-85628238D01*
X151919214Y-85604047D01*
X151943404Y-85555666D01*
X151943404Y-85362142D01*
X151725690Y-85845952D02*
X151701500Y-85870142D01*
X151677309Y-85918523D01*
X151677309Y-86039476D01*
X151701500Y-86087857D01*
X151725690Y-86112047D01*
X151774071Y-86136238D01*
X151822452Y-86136238D01*
X151895023Y-86112047D01*
X152185309Y-85821761D01*
X152185309Y-86136238D01*
X151725690Y-86329761D02*
X151701500Y-86353952D01*
X151677309Y-86402333D01*
X151677309Y-86523285D01*
X151701500Y-86571666D01*
X151725690Y-86595857D01*
X151774071Y-86620047D01*
X151822452Y-86620047D01*
X151895023Y-86595857D01*
X152185309Y-86305571D01*
X152185309Y-86620047D01*
X144311309Y-82731428D02*
X144069404Y-82562095D01*
X144311309Y-82441142D02*
X143803309Y-82441142D01*
X143803309Y-82634666D01*
X143827500Y-82683047D01*
X143851690Y-82707238D01*
X143900071Y-82731428D01*
X143972642Y-82731428D01*
X144021023Y-82707238D01*
X144045214Y-82683047D01*
X144069404Y-82634666D01*
X144069404Y-82441142D01*
X143851690Y-82924952D02*
X143827500Y-82949142D01*
X143803309Y-82997523D01*
X143803309Y-83118476D01*
X143827500Y-83166857D01*
X143851690Y-83191047D01*
X143900071Y-83215238D01*
X143948452Y-83215238D01*
X144021023Y-83191047D01*
X144311309Y-82900761D01*
X144311309Y-83215238D01*
X143803309Y-83384571D02*
X143803309Y-83699047D01*
X143996833Y-83529714D01*
X143996833Y-83602285D01*
X144021023Y-83650666D01*
X144045214Y-83674857D01*
X144093595Y-83699047D01*
X144214547Y-83699047D01*
X144262928Y-83674857D01*
X144287119Y-83650666D01*
X144311309Y-83602285D01*
X144311309Y-83457142D01*
X144287119Y-83408761D01*
X144262928Y-83384571D01*
X134502071Y-77826809D02*
X134671404Y-77584904D01*
X134792357Y-77826809D02*
X134792357Y-77318809D01*
X134598833Y-77318809D01*
X134550452Y-77343000D01*
X134526261Y-77367190D01*
X134502071Y-77415571D01*
X134502071Y-77488142D01*
X134526261Y-77536523D01*
X134550452Y-77560714D01*
X134598833Y-77584904D01*
X134792357Y-77584904D01*
X134308547Y-77367190D02*
X134284357Y-77343000D01*
X134235976Y-77318809D01*
X134115023Y-77318809D01*
X134066642Y-77343000D01*
X134042452Y-77367190D01*
X134018261Y-77415571D01*
X134018261Y-77463952D01*
X134042452Y-77536523D01*
X134332738Y-77826809D01*
X134018261Y-77826809D01*
X133582833Y-77318809D02*
X133679595Y-77318809D01*
X133727976Y-77343000D01*
X133752166Y-77367190D01*
X133800547Y-77439761D01*
X133824738Y-77536523D01*
X133824738Y-77730047D01*
X133800547Y-77778428D01*
X133776357Y-77802619D01*
X133727976Y-77826809D01*
X133631214Y-77826809D01*
X133582833Y-77802619D01*
X133558642Y-77778428D01*
X133534452Y-77730047D01*
X133534452Y-77609095D01*
X133558642Y-77560714D01*
X133582833Y-77536523D01*
X133631214Y-77512333D01*
X133727976Y-77512333D01*
X133776357Y-77536523D01*
X133800547Y-77560714D01*
X133824738Y-77609095D01*
X141741071Y-75858309D02*
X141910404Y-75616404D01*
X142031357Y-75858309D02*
X142031357Y-75350309D01*
X141837833Y-75350309D01*
X141789452Y-75374500D01*
X141765261Y-75398690D01*
X141741071Y-75447071D01*
X141741071Y-75519642D01*
X141765261Y-75568023D01*
X141789452Y-75592214D01*
X141837833Y-75616404D01*
X142031357Y-75616404D01*
X141547547Y-75398690D02*
X141523357Y-75374500D01*
X141474976Y-75350309D01*
X141354023Y-75350309D01*
X141305642Y-75374500D01*
X141281452Y-75398690D01*
X141257261Y-75447071D01*
X141257261Y-75495452D01*
X141281452Y-75568023D01*
X141571738Y-75858309D01*
X141257261Y-75858309D01*
X141087928Y-75350309D02*
X140749261Y-75350309D01*
X140966976Y-75858309D01*
D20*
X136468757Y-77653847D02*
X136604223Y-77460323D01*
X136700985Y-77653847D02*
X136700985Y-77247447D01*
X136546166Y-77247447D01*
X136507461Y-77266800D01*
X136488109Y-77286152D01*
X136468757Y-77324857D01*
X136468757Y-77382914D01*
X136488109Y-77421619D01*
X136507461Y-77440971D01*
X136546166Y-77460323D01*
X136700985Y-77460323D01*
X136313938Y-77286152D02*
X136294585Y-77266800D01*
X136255880Y-77247447D01*
X136159119Y-77247447D01*
X136120414Y-77266800D01*
X136101061Y-77286152D01*
X136081709Y-77324857D01*
X136081709Y-77363561D01*
X136101061Y-77421619D01*
X136333290Y-77653847D01*
X136081709Y-77653847D01*
X135849480Y-77421619D02*
X135888185Y-77402266D01*
X135907538Y-77382914D01*
X135926890Y-77344209D01*
X135926890Y-77324857D01*
X135907538Y-77286152D01*
X135888185Y-77266800D01*
X135849480Y-77247447D01*
X135772071Y-77247447D01*
X135733366Y-77266800D01*
X135714014Y-77286152D01*
X135694661Y-77324857D01*
X135694661Y-77344209D01*
X135714014Y-77382914D01*
X135733366Y-77402266D01*
X135772071Y-77421619D01*
X135849480Y-77421619D01*
X135888185Y-77440971D01*
X135907538Y-77460323D01*
X135926890Y-77499028D01*
X135926890Y-77576438D01*
X135907538Y-77615142D01*
X135888185Y-77634495D01*
X135849480Y-77653847D01*
X135772071Y-77653847D01*
X135733366Y-77634495D01*
X135714014Y-77615142D01*
X135694661Y-77576438D01*
X135694661Y-77499028D01*
X135714014Y-77460323D01*
X135733366Y-77440971D01*
X135772071Y-77421619D01*
D11*
X136026071Y-75413809D02*
X136195404Y-75171904D01*
X136316357Y-75413809D02*
X136316357Y-74905809D01*
X136122833Y-74905809D01*
X136074452Y-74930000D01*
X136050261Y-74954190D01*
X136026071Y-75002571D01*
X136026071Y-75075142D01*
X136050261Y-75123523D01*
X136074452Y-75147714D01*
X136122833Y-75171904D01*
X136316357Y-75171904D01*
X135832547Y-74954190D02*
X135808357Y-74930000D01*
X135759976Y-74905809D01*
X135639023Y-74905809D01*
X135590642Y-74930000D01*
X135566452Y-74954190D01*
X135542261Y-75002571D01*
X135542261Y-75050952D01*
X135566452Y-75123523D01*
X135856738Y-75413809D01*
X135542261Y-75413809D01*
X135300357Y-75413809D02*
X135203595Y-75413809D01*
X135155214Y-75389619D01*
X135131023Y-75365428D01*
X135082642Y-75292857D01*
X135058452Y-75196095D01*
X135058452Y-75002571D01*
X135082642Y-74954190D01*
X135106833Y-74930000D01*
X135155214Y-74905809D01*
X135251976Y-74905809D01*
X135300357Y-74930000D01*
X135324547Y-74954190D01*
X135348738Y-75002571D01*
X135348738Y-75123523D01*
X135324547Y-75171904D01*
X135300357Y-75196095D01*
X135251976Y-75220285D01*
X135155214Y-75220285D01*
X135106833Y-75196095D01*
X135082642Y-75171904D01*
X135058452Y-75123523D01*
D13*
X139616421Y-87003950D02*
X139616421Y-87366807D01*
X140251421Y-87185379D02*
X139616421Y-87185379D01*
X140251421Y-87911093D02*
X140251421Y-87548236D01*
X140251421Y-87729664D02*
X139616421Y-87729664D01*
X139707136Y-87669188D01*
X139767612Y-87608712D01*
X139797850Y-87548236D01*
D11*
X135007047Y-83160809D02*
X134716761Y-83160809D01*
X134861904Y-83668809D02*
X134861904Y-83160809D01*
X134571619Y-83209190D02*
X134547428Y-83185000D01*
X134499047Y-83160809D01*
X134378095Y-83160809D01*
X134329714Y-83185000D01*
X134305523Y-83209190D01*
X134281333Y-83257571D01*
X134281333Y-83305952D01*
X134305523Y-83378523D01*
X134595809Y-83668809D01*
X134281333Y-83668809D01*
X134666687Y-88098569D02*
X134376401Y-88098569D01*
X134521544Y-88606569D02*
X134521544Y-88098569D01*
X134255449Y-88098569D02*
X133940973Y-88098569D01*
X134110306Y-88292093D01*
X134037735Y-88292093D01*
X133989354Y-88316283D01*
X133965163Y-88340474D01*
X133940973Y-88388855D01*
X133940973Y-88509807D01*
X133965163Y-88558188D01*
X133989354Y-88582379D01*
X134037735Y-88606569D01*
X134182878Y-88606569D01*
X134231259Y-88582379D01*
X134255449Y-88558188D01*
D13*
X142776181Y-85266590D02*
X142776181Y-85629447D01*
X143411181Y-85448019D02*
X142776181Y-85448019D01*
X142776181Y-86143495D02*
X142776181Y-85841114D01*
X143078562Y-85810876D01*
X143048324Y-85841114D01*
X143018086Y-85901590D01*
X143018086Y-86052780D01*
X143048324Y-86113257D01*
X143078562Y-86143495D01*
X143139039Y-86173733D01*
X143290229Y-86173733D01*
X143350705Y-86143495D01*
X143380943Y-86113257D01*
X143411181Y-86052780D01*
X143411181Y-85901590D01*
X143380943Y-85841114D01*
X143350705Y-85810876D01*
D11*
X146056047Y-62396309D02*
X145765761Y-62396309D01*
X145910904Y-62904309D02*
X145910904Y-62396309D01*
X145378714Y-62565642D02*
X145378714Y-62904309D01*
X145499666Y-62372119D02*
X145620619Y-62734976D01*
X145306142Y-62734976D01*
D13*
X138700449Y-99189781D02*
X138700449Y-99703829D01*
X138670211Y-99764305D01*
X138639973Y-99794543D01*
X138579497Y-99824781D01*
X138458544Y-99824781D01*
X138398068Y-99794543D01*
X138367830Y-99764305D01*
X138337592Y-99703829D01*
X138337592Y-99189781D01*
X138065449Y-99250258D02*
X138035211Y-99220020D01*
X137974735Y-99189781D01*
X137823544Y-99189781D01*
X137763068Y-99220020D01*
X137732830Y-99250258D01*
X137702592Y-99310734D01*
X137702592Y-99371210D01*
X137732830Y-99461924D01*
X138095687Y-99824781D01*
X137702592Y-99824781D01*
X151861761Y-94382166D02*
X151861761Y-94079785D01*
X151226761Y-94079785D01*
X151287238Y-94563595D02*
X151257000Y-94593833D01*
X151226761Y-94654309D01*
X151226761Y-94805500D01*
X151257000Y-94865976D01*
X151287238Y-94896214D01*
X151347714Y-94926452D01*
X151408190Y-94926452D01*
X151498904Y-94896214D01*
X151861761Y-94533357D01*
X151861761Y-94926452D01*
M02*
