G04 #@! TF.GenerationSoftware,KiCad,Pcbnew,5.1.6-c6e7f7d~87~ubuntu18.04.1*
G04 #@! TF.CreationDate,2021-11-02T16:25:14+02:00*
G04 #@! TF.ProjectId,NB-IoT-DevKit_Rev_D,4e422d49-6f54-42d4-9465-764b69745f52,D*
G04 #@! TF.SameCoordinates,Original*
G04 #@! TF.FileFunction,Paste,Bot*
G04 #@! TF.FilePolarity,Positive*
%FSLAX46Y46*%
G04 Gerber Fmt 4.6, Leading zero omitted, Abs format (unit mm)*
G04 Created by KiCad (PCBNEW 5.1.6-c6e7f7d~87~ubuntu18.04.1) date 2021-11-02 16:25:14*
%MOMM*%
%LPD*%
G01*
G04 APERTURE LIST*
%ADD10R,0.230000X0.980000*%
%ADD11R,1.254000X3.544000*%
%ADD12R,1.154000X1.354000*%
%ADD13R,1.400000X1.000000*%
%ADD14R,0.550000X0.500000*%
%ADD15R,0.500000X0.550000*%
%ADD16R,1.000000X1.400000*%
%ADD17R,1.016000X1.016000*%
%ADD18R,1.400000X0.350000*%
%ADD19R,0.325000X1.270000*%
%ADD20R,1.200000X1.400000*%
%ADD21R,1.200000X0.550000*%
%ADD22R,0.914400X0.914400*%
G04 APERTURE END LIST*
D10*
X142442500Y-81129000D03*
X142942500Y-81129000D03*
X143442500Y-81129000D03*
X143942500Y-81129000D03*
X143942500Y-78129000D03*
X143442500Y-78129000D03*
X142942500Y-78129000D03*
X142442500Y-78129000D03*
D11*
X134061000Y-68643500D03*
X144804000Y-68643500D03*
D12*
X139446000Y-74623500D03*
X136906000Y-74623500D03*
X141986000Y-74623500D03*
X136906000Y-62673500D03*
X139446000Y-62673500D03*
X141986000Y-62673500D03*
D13*
X138973560Y-83118960D03*
X138973560Y-81216500D03*
X141183360Y-82171540D03*
D14*
X137668000Y-79248000D03*
X137668000Y-78232000D03*
D15*
X138303000Y-93726000D03*
X137287000Y-93726000D03*
X146304000Y-71691500D03*
X145288000Y-71691500D03*
X134747000Y-78232000D03*
X135763000Y-78232000D03*
X137287000Y-94615000D03*
X138303000Y-94615000D03*
X149098000Y-63817500D03*
X148082000Y-63817500D03*
X140779500Y-84582000D03*
X141795500Y-84582000D03*
D16*
X148966000Y-83820000D03*
X145166000Y-83820000D03*
X148966000Y-81788000D03*
X145166000Y-81788000D03*
D13*
X141138000Y-79121000D03*
X138938000Y-78171000D03*
X138938000Y-80071000D03*
D17*
X147447000Y-98552000D03*
X149225000Y-98552000D03*
D14*
X136715500Y-84518500D03*
X136715500Y-85534500D03*
D15*
X145161000Y-80391000D03*
X146177000Y-80391000D03*
D18*
X152252000Y-64766000D03*
X152252000Y-65416000D03*
X152252000Y-66066000D03*
X152252000Y-66716000D03*
X152252000Y-67366000D03*
X152252000Y-68016000D03*
X152252000Y-68666000D03*
X152252000Y-69316000D03*
X152252000Y-69966000D03*
X152252000Y-70616000D03*
X146452000Y-70616000D03*
X146452000Y-69966000D03*
X146452000Y-69316000D03*
X146452000Y-68666000D03*
X146452000Y-68016000D03*
X146452000Y-67366000D03*
X146452000Y-66716000D03*
X146452000Y-66066000D03*
X146452000Y-65416000D03*
X146452000Y-64766000D03*
X151490000Y-72640000D03*
X151490000Y-73290000D03*
X151490000Y-73940000D03*
X151490000Y-74590000D03*
X151490000Y-75240000D03*
X151490000Y-75890000D03*
X151490000Y-76540000D03*
X151490000Y-77190000D03*
X151490000Y-77840000D03*
X151490000Y-78490000D03*
X145690000Y-78490000D03*
X145690000Y-77840000D03*
X145690000Y-77190000D03*
X145690000Y-76540000D03*
X145690000Y-75890000D03*
X145690000Y-75240000D03*
X145690000Y-74590000D03*
X145690000Y-73940000D03*
X145690000Y-73290000D03*
X145690000Y-72640000D03*
D19*
X150499000Y-92900500D03*
X149849000Y-92900500D03*
X149199000Y-92900500D03*
X148549000Y-92900500D03*
X147899000Y-92900500D03*
X147249000Y-92900500D03*
X146599000Y-92900500D03*
X145949000Y-92900500D03*
X145299000Y-92900500D03*
X144649000Y-92900500D03*
X144649000Y-85661500D03*
X145299000Y-85661500D03*
X145949000Y-85661500D03*
X146599000Y-85661500D03*
X147249000Y-85661500D03*
X147899000Y-85661500D03*
X148549000Y-85661500D03*
X149199000Y-85661500D03*
X149849000Y-85661500D03*
X150499000Y-85661500D03*
D16*
X142242540Y-97282000D03*
X144145000Y-97282000D03*
X143189960Y-99491800D03*
D14*
X136779000Y-78232000D03*
X136779000Y-79248000D03*
D17*
X136715500Y-96520000D03*
X136715500Y-98298000D03*
X153035000Y-84074000D03*
X151257000Y-84074000D03*
D15*
X150241000Y-94488000D03*
X149225000Y-94488000D03*
D14*
X143129000Y-90551000D03*
X143129000Y-91567000D03*
X143129000Y-93599000D03*
X143129000Y-92583000D03*
D15*
X143510000Y-84582000D03*
X142494000Y-84582000D03*
X145161000Y-79502000D03*
X146177000Y-79502000D03*
X152844500Y-79502000D03*
X151828500Y-79502000D03*
D17*
X151257000Y-82550000D03*
X153035000Y-82550000D03*
D15*
X147193000Y-71628000D03*
X148209000Y-71628000D03*
X152019000Y-71628000D03*
X151003000Y-71628000D03*
D14*
X140335000Y-76835000D03*
X140335000Y-75819000D03*
X138557000Y-75819000D03*
X138557000Y-76835000D03*
X137668000Y-75819000D03*
X137668000Y-76835000D03*
D15*
X135001000Y-75819000D03*
X133985000Y-75819000D03*
D13*
X132080000Y-96901000D03*
X132080000Y-100701000D03*
D16*
X139832000Y-95123000D03*
X143632000Y-95123000D03*
X136019540Y-90170000D03*
X137922000Y-90170000D03*
X136966960Y-92379800D03*
X134368540Y-94015560D03*
X136271000Y-94015560D03*
X135315960Y-96225360D03*
D13*
X134401560Y-81340960D03*
X134401560Y-79438500D03*
X136611360Y-80393540D03*
D20*
X140297000Y-90975000D03*
X141897000Y-93175000D03*
X140297000Y-93175000D03*
X141897000Y-90975000D03*
D14*
X139001500Y-88328500D03*
X139001500Y-89344500D03*
X131445000Y-95504000D03*
X131445000Y-94488000D03*
D15*
X137287000Y-95504000D03*
X138303000Y-95504000D03*
D14*
X136779000Y-82423000D03*
X136779000Y-81407000D03*
D15*
X135001000Y-88963500D03*
X136017000Y-88963500D03*
D14*
X152019000Y-89281000D03*
X152019000Y-90297000D03*
D15*
X136652000Y-87693500D03*
X137668000Y-87693500D03*
X142240000Y-83566000D03*
X141224000Y-83566000D03*
D14*
X141351000Y-81153000D03*
X141351000Y-80137000D03*
X150114000Y-83185000D03*
X150114000Y-84201000D03*
X142875000Y-75819000D03*
X142875000Y-76835000D03*
X143764000Y-75819000D03*
X143764000Y-76835000D03*
X153035000Y-88265000D03*
X153035000Y-87249000D03*
X153035000Y-89281000D03*
X153035000Y-90297000D03*
X143129000Y-83566000D03*
X143129000Y-82550000D03*
D15*
X135001000Y-76835000D03*
X133985000Y-76835000D03*
D14*
X139446000Y-76835000D03*
X139446000Y-75819000D03*
X136779000Y-76835000D03*
X136779000Y-75819000D03*
X135890000Y-76835000D03*
X135890000Y-75819000D03*
D16*
X137924540Y-84963000D03*
X139827000Y-84963000D03*
X138871960Y-87172800D03*
D13*
X134366000Y-84388960D03*
X134366000Y-82486500D03*
X136575800Y-83441540D03*
X134366000Y-87429340D03*
X134366000Y-85526880D03*
X136575800Y-86481920D03*
D16*
X142999460Y-88229440D03*
X141097000Y-88229440D03*
X142052040Y-86019640D03*
D13*
X145831560Y-63624460D03*
X145831560Y-61722000D03*
X148041360Y-62677040D03*
D21*
X140873000Y-96837500D03*
X140873000Y-97787500D03*
X140873000Y-98737500D03*
X138273000Y-96837500D03*
X138273000Y-98737500D03*
D22*
X152400000Y-91440000D03*
X152400000Y-93218000D03*
M02*
