G04 #@! TF.GenerationSoftware,KiCad,Pcbnew,5.1.6-c6e7f7d~87~ubuntu18.04.1*
G04 #@! TF.CreationDate,2021-11-02T16:25:14+02:00*
G04 #@! TF.ProjectId,NB-IoT-DevKit_Rev_D,4e422d49-6f54-42d4-9465-764b69745f52,D*
G04 #@! TF.SameCoordinates,Original*
G04 #@! TF.FileFunction,Soldermask,Top*
G04 #@! TF.FilePolarity,Negative*
%FSLAX46Y46*%
G04 Gerber Fmt 4.6, Leading zero omitted, Abs format (unit mm)*
G04 Created by KiCad (PCBNEW 5.1.6-c6e7f7d~87~ubuntu18.04.1) date 2021-11-02 16:25:14*
%MOMM*%
%LPD*%
G01*
G04 APERTURE LIST*
%ADD10R,1.151600X1.151600*%
%ADD11R,2.301600X1.151600*%
%ADD12C,1.501600*%
%ADD13R,1.501600X1.501600*%
%ADD14C,0.801600*%
%ADD15R,0.861600X2.501600*%
%ADD16C,0.901600*%
%ADD17C,1.101600*%
%ADD18R,0.601600X1.751600*%
%ADD19R,0.426600X1.751600*%
%ADD20C,0.701600*%
%ADD21R,1.201600X1.101600*%
%ADD22O,1.301600X1.901600*%
%ADD23R,1.001600X1.601600*%
%ADD24R,1.117600X0.863600*%
%ADD25R,0.863600X0.609600*%
%ADD26C,0.100000*%
%ADD27C,1.879600*%
%ADD28R,1.879600X1.879600*%
%ADD29R,1.701600X3.101600*%
%ADD30R,1.117600X1.117600*%
%ADD31R,0.651600X0.601600*%
%ADD32R,1.371600X1.625600*%
%ADD33R,0.601600X0.651600*%
%ADD34R,0.901600X0.901600*%
%ADD35C,1.254000*%
%ADD36R,1.301600X0.651600*%
G04 APERTURE END LIST*
D10*
X148439000Y-63373000D03*
D11*
X146939000Y-61873000D03*
X146939000Y-64873000D03*
D12*
X139715240Y-100058220D03*
D13*
X141744700Y-100055680D03*
D14*
X145669000Y-90170000D03*
X149479000Y-90170000D03*
D15*
X146304000Y-88219500D03*
X147574000Y-88219500D03*
X150114000Y-88219500D03*
X148844000Y-88219500D03*
X145034000Y-88219500D03*
X150114000Y-92120500D03*
X148844000Y-92120500D03*
X147574000Y-92120500D03*
X146304000Y-92120500D03*
X145034000Y-92120500D03*
D16*
X144106000Y-72793500D03*
D17*
X135106000Y-64493500D03*
D18*
X147710500Y-94894000D03*
D19*
X148448000Y-94894000D03*
X149098000Y-94894000D03*
X149748000Y-94894000D03*
D18*
X150485500Y-94894000D03*
D20*
X147098000Y-96144000D03*
X151098000Y-96144000D03*
D21*
X147598000Y-99444000D03*
X150598000Y-99444000D03*
D22*
X145498000Y-98294000D03*
X145498000Y-94824000D03*
X152698000Y-94824000D03*
X152698000Y-98294000D03*
D23*
X132062000Y-96266000D03*
X136416000Y-96266000D03*
D14*
X134239000Y-95366000D03*
X134239000Y-97166000D03*
D24*
X133858000Y-68453000D03*
X133858000Y-67310000D03*
X133858000Y-66167000D03*
D25*
X137922000Y-91948000D03*
X137922000Y-91186000D03*
D26*
G36*
X137150800Y-69199200D02*
G01*
X137150800Y-70000800D01*
X134799200Y-70000800D01*
X134799200Y-69199200D01*
X137150800Y-69199200D01*
G37*
G36*
X137150800Y-70299200D02*
G01*
X137150800Y-71100800D01*
X134799200Y-71100800D01*
X134799200Y-70299200D01*
X137150800Y-70299200D01*
G37*
G36*
X137150800Y-71399200D02*
G01*
X137150800Y-72200800D01*
X134799200Y-72200800D01*
X134799200Y-71399200D01*
X137150800Y-71399200D01*
G37*
G36*
X137150800Y-72499200D02*
G01*
X137150800Y-73300800D01*
X134799200Y-73300800D01*
X134799200Y-72499200D01*
X137150800Y-72499200D01*
G37*
G36*
X137150800Y-73599200D02*
G01*
X137150800Y-74400800D01*
X134799200Y-74400800D01*
X134799200Y-73599200D01*
X137150800Y-73599200D01*
G37*
G36*
X137150800Y-74699200D02*
G01*
X137150800Y-75500800D01*
X134799200Y-75500800D01*
X134799200Y-74699200D01*
X137150800Y-74699200D01*
G37*
G36*
X139510800Y-68900800D02*
G01*
X138709200Y-68900800D01*
X138709200Y-66549200D01*
X139510800Y-66549200D01*
X139510800Y-68900800D01*
G37*
G36*
X140610800Y-68900800D02*
G01*
X139809200Y-68900800D01*
X139809200Y-66549200D01*
X140610800Y-66549200D01*
X140610800Y-68900800D01*
G37*
G36*
X141710800Y-68900800D02*
G01*
X140909200Y-68900800D01*
X140909200Y-66549200D01*
X141710800Y-66549200D01*
X141710800Y-68900800D01*
G37*
G36*
X142810800Y-68900800D02*
G01*
X142009200Y-68900800D01*
X142009200Y-66549200D01*
X142810800Y-66549200D01*
X142810800Y-68900800D01*
G37*
G36*
X143910800Y-68900800D02*
G01*
X143109200Y-68900800D01*
X143109200Y-66549200D01*
X143910800Y-66549200D01*
X143910800Y-68900800D01*
G37*
G36*
X145010800Y-68900800D02*
G01*
X144209200Y-68900800D01*
X144209200Y-66549200D01*
X145010800Y-66549200D01*
X145010800Y-68900800D01*
G37*
G36*
X146110800Y-68900800D02*
G01*
X145309200Y-68900800D01*
X145309200Y-66549200D01*
X146110800Y-66549200D01*
X146110800Y-68900800D01*
G37*
G36*
X147210800Y-68900800D02*
G01*
X146409200Y-68900800D01*
X146409200Y-66549200D01*
X147210800Y-66549200D01*
X147210800Y-68900800D01*
G37*
G36*
X148310800Y-68900800D02*
G01*
X147509200Y-68900800D01*
X147509200Y-66549200D01*
X148310800Y-66549200D01*
X148310800Y-68900800D01*
G37*
G36*
X149869200Y-70000800D02*
G01*
X149869200Y-69199200D01*
X152220800Y-69199200D01*
X152220800Y-70000800D01*
X149869200Y-70000800D01*
G37*
G36*
X149869200Y-71100800D02*
G01*
X149869200Y-70299200D01*
X152220800Y-70299200D01*
X152220800Y-71100800D01*
X149869200Y-71100800D01*
G37*
G36*
X149869200Y-72200800D02*
G01*
X149869200Y-71399200D01*
X152220800Y-71399200D01*
X152220800Y-72200800D01*
X149869200Y-72200800D01*
G37*
G36*
X149869200Y-73300800D02*
G01*
X149869200Y-72499200D01*
X152220800Y-72499200D01*
X152220800Y-73300800D01*
X149869200Y-73300800D01*
G37*
G36*
X149869200Y-74400800D02*
G01*
X149869200Y-73599200D01*
X152220800Y-73599200D01*
X152220800Y-74400800D01*
X149869200Y-74400800D01*
G37*
G36*
X149869200Y-75500800D02*
G01*
X149869200Y-74699200D01*
X152220800Y-74699200D01*
X152220800Y-75500800D01*
X149869200Y-75500800D01*
G37*
G36*
X149869200Y-76600800D02*
G01*
X149869200Y-75799200D01*
X152220800Y-75799200D01*
X152220800Y-76600800D01*
X149869200Y-76600800D01*
G37*
G36*
X149869200Y-77700800D02*
G01*
X149869200Y-76899200D01*
X152220800Y-76899200D01*
X152220800Y-77700800D01*
X149869200Y-77700800D01*
G37*
G36*
X149869200Y-78800800D02*
G01*
X149869200Y-77999200D01*
X152220800Y-77999200D01*
X152220800Y-78800800D01*
X149869200Y-78800800D01*
G37*
G36*
X149869200Y-79900800D02*
G01*
X149869200Y-79099200D01*
X152220800Y-79099200D01*
X152220800Y-79900800D01*
X149869200Y-79900800D01*
G37*
G36*
X149869200Y-81000800D02*
G01*
X149869200Y-80199200D01*
X152220800Y-80199200D01*
X152220800Y-81000800D01*
X149869200Y-81000800D01*
G37*
G36*
X149869200Y-82100800D02*
G01*
X149869200Y-81299200D01*
X152220800Y-81299200D01*
X152220800Y-82100800D01*
X149869200Y-82100800D01*
G37*
G36*
X149869200Y-83200800D02*
G01*
X149869200Y-82399200D01*
X152220800Y-82399200D01*
X152220800Y-83200800D01*
X149869200Y-83200800D01*
G37*
G36*
X148310800Y-85850800D02*
G01*
X147509200Y-85850800D01*
X147509200Y-83499200D01*
X148310800Y-83499200D01*
X148310800Y-85850800D01*
G37*
G36*
X147210800Y-85850800D02*
G01*
X146409200Y-85850800D01*
X146409200Y-83499200D01*
X147210800Y-83499200D01*
X147210800Y-85850800D01*
G37*
G36*
X146110800Y-85850800D02*
G01*
X145309200Y-85850800D01*
X145309200Y-83499200D01*
X146110800Y-83499200D01*
X146110800Y-85850800D01*
G37*
G36*
X145010800Y-85850800D02*
G01*
X144209200Y-85850800D01*
X144209200Y-83499200D01*
X145010800Y-83499200D01*
X145010800Y-85850800D01*
G37*
G36*
X143910800Y-85850800D02*
G01*
X143109200Y-85850800D01*
X143109200Y-83499200D01*
X143910800Y-83499200D01*
X143910800Y-85850800D01*
G37*
G36*
X142810800Y-85850800D02*
G01*
X142009200Y-85850800D01*
X142009200Y-83499200D01*
X142810800Y-83499200D01*
X142810800Y-85850800D01*
G37*
G36*
X141710800Y-85850800D02*
G01*
X140909200Y-85850800D01*
X140909200Y-83499200D01*
X141710800Y-83499200D01*
X141710800Y-85850800D01*
G37*
G36*
X134799200Y-76600800D02*
G01*
X134799200Y-75799200D01*
X137150800Y-75799200D01*
X137150800Y-76600800D01*
X134799200Y-76600800D01*
G37*
G36*
X134799200Y-77700800D02*
G01*
X134799200Y-76899200D01*
X137150800Y-76899200D01*
X137150800Y-77700800D01*
X134799200Y-77700800D01*
G37*
G36*
X134799200Y-78800800D02*
G01*
X134799200Y-77999200D01*
X137150800Y-77999200D01*
X137150800Y-78800800D01*
X134799200Y-78800800D01*
G37*
G36*
X134799200Y-79900800D02*
G01*
X134799200Y-79099200D01*
X137150800Y-79099200D01*
X137150800Y-79900800D01*
X134799200Y-79900800D01*
G37*
G36*
X134799200Y-81000800D02*
G01*
X134799200Y-80199200D01*
X137150800Y-80199200D01*
X137150800Y-81000800D01*
X134799200Y-81000800D01*
G37*
G36*
X134799200Y-82100800D02*
G01*
X134799200Y-81299200D01*
X137150800Y-81299200D01*
X137150800Y-82100800D01*
X134799200Y-82100800D01*
G37*
G36*
X134799200Y-83200800D02*
G01*
X134799200Y-82399200D01*
X137150800Y-82399200D01*
X137150800Y-83200800D01*
X134799200Y-83200800D01*
G37*
G36*
X139510800Y-85850800D02*
G01*
X138709200Y-85850800D01*
X138709200Y-83499200D01*
X139510800Y-83499200D01*
X139510800Y-85850800D01*
G37*
G36*
X140610800Y-85850800D02*
G01*
X139809200Y-85850800D01*
X139809200Y-83499200D01*
X140610800Y-83499200D01*
X140610800Y-85850800D01*
G37*
G36*
X140460800Y-72949200D02*
G01*
X140460800Y-74050800D01*
X139359200Y-74050800D01*
X139359200Y-72949200D01*
X140460800Y-72949200D01*
G37*
G36*
X140460800Y-74749200D02*
G01*
X140460800Y-75850800D01*
X139359200Y-75850800D01*
X139359200Y-74749200D01*
X140460800Y-74749200D01*
G37*
G36*
X140460800Y-76549200D02*
G01*
X140460800Y-77650800D01*
X139359200Y-77650800D01*
X139359200Y-76549200D01*
X140460800Y-76549200D01*
G37*
G36*
X140460800Y-78349200D02*
G01*
X140460800Y-79450800D01*
X139359200Y-79450800D01*
X139359200Y-78349200D01*
X140460800Y-78349200D01*
G37*
G36*
X142260800Y-80149200D02*
G01*
X142260800Y-81250800D01*
X141159200Y-81250800D01*
X141159200Y-80149200D01*
X142260800Y-80149200D01*
G37*
G36*
X144060800Y-80149200D02*
G01*
X144060800Y-81250800D01*
X142959200Y-81250800D01*
X142959200Y-80149200D01*
X144060800Y-80149200D01*
G37*
G36*
X145860800Y-80149200D02*
G01*
X145860800Y-81250800D01*
X144759200Y-81250800D01*
X144759200Y-80149200D01*
X145860800Y-80149200D01*
G37*
G36*
X147660800Y-78349200D02*
G01*
X147660800Y-79450800D01*
X146559200Y-79450800D01*
X146559200Y-78349200D01*
X147660800Y-78349200D01*
G37*
G36*
X147660800Y-76549200D02*
G01*
X147660800Y-77650800D01*
X146559200Y-77650800D01*
X146559200Y-76549200D01*
X147660800Y-76549200D01*
G37*
G36*
X147660800Y-74749200D02*
G01*
X147660800Y-75850800D01*
X146559200Y-75850800D01*
X146559200Y-74749200D01*
X147660800Y-74749200D01*
G37*
G36*
X147660800Y-72949200D02*
G01*
X147660800Y-74050800D01*
X146559200Y-74050800D01*
X146559200Y-72949200D01*
X147660800Y-72949200D01*
G37*
G36*
X145860800Y-71149200D02*
G01*
X145860800Y-72250800D01*
X144759200Y-72250800D01*
X144759200Y-71149200D01*
X145860800Y-71149200D01*
G37*
G36*
X144060800Y-71149200D02*
G01*
X144060800Y-72250800D01*
X142959200Y-72250800D01*
X142959200Y-71149200D01*
X144060800Y-71149200D01*
G37*
G36*
X142260800Y-71149200D02*
G01*
X142260800Y-72250800D01*
X141159200Y-72250800D01*
X141159200Y-71149200D01*
X142260800Y-71149200D01*
G37*
D20*
X135560000Y-67350000D03*
X151460000Y-85050000D03*
D27*
X154940000Y-69850000D03*
X154940000Y-67310000D03*
X154940000Y-64770000D03*
D28*
X154940000Y-62230000D03*
D27*
X154940000Y-72390000D03*
X154940000Y-74930000D03*
X154940000Y-80010000D03*
X154940000Y-77470000D03*
X154940000Y-82550000D03*
X154940000Y-85090000D03*
X154940000Y-95250000D03*
X154940000Y-92710000D03*
X154940000Y-90170000D03*
D28*
X154940000Y-87630000D03*
D27*
X154940000Y-97790000D03*
X154940000Y-100330000D03*
X132080000Y-92710000D03*
X132080000Y-90170000D03*
D28*
X132080000Y-87630000D03*
D27*
X132080000Y-69850000D03*
X132080000Y-67310000D03*
X132080000Y-64770000D03*
D28*
X132080000Y-62230000D03*
D27*
X132080000Y-72390000D03*
X132080000Y-74930000D03*
X132080000Y-80010000D03*
X132080000Y-77470000D03*
X132080000Y-82550000D03*
X132080000Y-85090000D03*
D29*
X136391500Y-92329000D03*
X133991500Y-92329000D03*
D30*
X143383000Y-94107000D03*
X143383000Y-95885000D03*
X139700000Y-93218000D03*
X137922000Y-93218000D03*
D31*
X149606000Y-65405000D03*
X149606000Y-64389000D03*
X152146000Y-65405000D03*
X152146000Y-64389000D03*
D32*
X143763999Y-65024000D03*
X141731999Y-65024000D03*
X143764000Y-62992000D03*
X141732000Y-62992000D03*
D33*
X139192001Y-65532000D03*
X140208001Y-65532000D03*
X139192000Y-64643001D03*
X140208000Y-64643001D03*
X139192000Y-63754000D03*
X140208000Y-63754000D03*
D30*
X140335000Y-88265000D03*
X140335000Y-90043000D03*
X134747000Y-88011000D03*
X134747000Y-89789000D03*
D34*
X134620000Y-63373000D03*
X134620000Y-61849000D03*
D35*
X152400000Y-62230000D03*
X143256000Y-97917000D03*
D33*
X150368000Y-65405000D03*
X151384000Y-65405000D03*
D34*
X136779000Y-63373000D03*
X136779000Y-61849000D03*
D23*
X132062000Y-100139500D03*
X136416000Y-100139500D03*
D14*
X134239000Y-99239500D03*
X134239000Y-101039500D03*
D31*
X133540500Y-64706500D03*
X133540500Y-63690500D03*
D33*
X138938000Y-91376500D03*
X139954000Y-91376500D03*
X140716000Y-93472000D03*
X141732000Y-93472000D03*
X137287000Y-65024000D03*
X136271000Y-65024000D03*
X134874000Y-86741000D03*
X135890000Y-86741000D03*
D36*
X139035000Y-94554000D03*
X139035000Y-95504000D03*
X139035000Y-96454000D03*
X141635000Y-94554000D03*
X141635000Y-96454000D03*
X138714000Y-89850000D03*
X138714000Y-88900000D03*
X138714000Y-87950000D03*
X136114000Y-89850000D03*
X136114000Y-87950000D03*
M02*
