M48
; DRILL file {KiCad 6.0.0-unknown-d4e9ddc~100~ubuntu18.04.1} date  2.08.2019 (пт) 11:15:40 EEST
; FORMAT={-:-/ absolute / inch / decimal}
; #@! TF.CreationDate,2019-08-02T11:15:40+03:00
; #@! TF.GenerationSoftware,Kicad,Pcbnew,6.0.0-unknown-d4e9ddc~100~ubuntu18.04.1
; #@! TF.FileFunction,Plated,1,4,PTH
FMAT,2
INCH
T1C0.0157
T2C0.0236
T3C0.0354
T4C0.0394
%
G90
G05
T1
X5.175Y-3.6975
X5.2102Y-3.7008
X5.22Y-3.2
X5.22Y-3.86
X5.2225Y-3.3975
X5.2275Y-3.0939
X5.23Y-2.7
X5.235Y-3.755
X5.235Y-3.785
X5.235Y-3.815
X5.24Y-3.015
X5.25Y-3.2
X5.255Y-2.4275
X5.255Y-2.4575
X5.2632Y-3.235
X5.2718Y-3.5189
X5.2725Y-3.08
X5.2732Y-2.835
X5.2732Y-2.74
X5.2732Y-2.77
X5.2742Y-3.2855
X5.2749Y-3.3925
X5.295Y-3.79
X5.305Y-2.65
X5.3181Y-3.7436
X5.32Y-3.825
X5.3275Y-2.54
X5.3283Y-2.46
X5.3422Y-3.8425
X5.3488Y-3.7438
X5.355Y-2.6
X5.3558Y-2.6287
X5.3575Y-2.46
X5.374Y-3.8325
X5.3775Y-3.743
X5.379Y-2.71
X5.3928Y-3.519
X5.4025Y-3.559
X5.4025Y-3.8325
X5.405Y-2.535
X5.4132Y-2.804
X5.4142Y-2.7641
X5.415Y-2.715
X5.42Y-2.4275
X5.42Y-3.0275
X5.42Y-3.105
X5.42Y-3.2975
X5.4228Y-3.1399
X5.423Y-3.25
X5.431Y-3.7094
X5.4363Y-3.392
X5.4375Y-3.8475
X5.45Y-2.4275
X5.455Y-2.51
X5.455Y-2.545
X5.455Y-2.58
X5.4665Y-3.8485
X5.4665Y-3.565
X5.4675Y-3.6325
X5.4718Y-3.7077
X5.48Y-2.4275
X5.48Y-2.475
X5.5024Y-3.3957
X5.51Y-2.4275
X5.52Y-2.4825
X5.5201Y-2.5999
X5.532Y-3.397
X5.5357Y-3.1818
X5.54Y-2.4275
X5.5425Y-2.5
X5.5425Y-2.54
X5.5425Y-2.57
X5.55Y-2.6
X5.5518Y-3.0161
X5.5518Y-3.0447
X5.5575Y-3.765
X5.5625Y-2.52
X5.5675Y-2.73
X5.57Y-2.4275
X5.5705Y-3.1225
X5.58Y-2.7641
X5.5804Y-3.0459
X5.5825Y-3.2716
X5.5843Y-2.8594
X5.59Y-3.215
X5.5925Y-2.52
X5.595Y-3.1375
X5.6014Y-3.0964
X5.6026Y-2.9761
X5.6032Y-3.7562
X5.605Y-2.4275
X5.6057Y-2.7859
X5.625Y-2.8825
X5.6275Y-2.465
X5.6275Y-2.51
X5.6275Y-2.6
X5.63Y-3.4332
X5.63Y-3.4
X5.6346Y-2.7846
X5.635Y-3.5325
X5.6362Y-2.7538
X5.6468Y-3.095
X5.6575Y-2.52
X5.6575Y-2.6
X5.665Y-2.875
X5.6651Y-2.7518
X5.6675Y-2.4275
X5.6675Y-3.6675
X5.6696Y-3.2729
X5.6725Y-3.495
X5.6728Y-3.761
X5.6731Y-3.7905
X5.6765Y-3.0945
X5.6832Y-3.4625
X5.6874Y-3.5375
X5.6885Y-2.993
X5.69Y-3.0525
X5.6901Y-3.0225
X5.6908Y-2.964
X5.6915Y-2.89
X5.6915Y-2.7344
X5.6919Y-2.935
X5.6975Y-2.4275
X5.7025Y-3.5633
X5.76Y-3.225
X5.7604Y-3.2579
X5.769Y-3.733
X5.769Y-3.761
X5.7725Y-3.8725
X5.7806Y-3.5544
X5.785Y-2.8525
X5.7925Y-3.4225
X5.795Y-3.225
X5.795Y-3.75
X5.807Y-3.5654
X5.81Y-3.1578
X5.815Y-3.5375
X5.8225Y-2.8575
X5.825Y-2.605
X5.83Y-2.89
X5.835Y-2.4275
X5.8385Y-3.1532
X5.8425Y-2.7375
X5.8429Y-3.815
X5.8452Y-2.766
X5.8475Y-3.5375
X5.8496Y-3.0586
X5.8536Y-2.6614
X5.8546Y-2.6921
X5.86Y-2.605
X5.865Y-2.9818
X5.865Y-2.4275
X5.8715Y-3.815
X5.8779Y-3.4246
X5.8791Y-2.9566
X5.8809Y-3.0056
X5.89Y-2.46
X5.89Y-2.51
X5.89Y-2.605
X5.8933Y-3.0982
X5.8947Y-3.2889
X5.8975Y-2.4275
X5.9025Y-3.215
X5.9075Y-3.8125
X5.9075Y-3.8425
X5.91Y-2.49
X5.9149Y-3.5299
X5.915Y-2.535
X5.915Y-2.62
X5.915Y-2.705
X5.916Y-3.573
X5.9275Y-2.4275
X5.9275Y-2.46
X5.94Y-2.49
X5.9432Y-3.72
X5.9432Y-3.7525
X5.9484Y-3.373
X5.9484Y-3.6385
X5.95Y-3.82
X5.95Y-3.85
X5.963Y-3.612
X5.9676Y-2.53
X5.985Y-3.49
X5.9868Y-3.31
X6.015Y-2.535
X6.015Y-2.8275
X6.015Y-3.1025
X6.0171Y-3.3504
X6.0175Y-3.39
X6.0235Y-2.9926
X6.025Y-3.495
X6.0275Y-3.1625
X6.03Y-3.05
X6.03Y-3.585
X6.03Y-3.615
X6.0321Y-3.2171
X6.0475Y-3.3625
X6.0475Y-3.475
X6.0475Y-3.515
X6.05Y-3.8
X6.057Y-3.007
X6.06Y-3.585
X6.06Y-3.615
T3
X5.5006Y-3.9393
X5.5805Y-3.9392
T4
X5.2Y-2.45
X5.2Y-2.55
X5.2Y-2.65
X5.2Y-2.75
X5.2Y-2.85
X5.2Y-2.95
X5.2Y-3.05
X5.2Y-3.15
X5.2Y-3.25
X5.2Y-3.35
X6.1Y-2.45
X6.1Y-2.55
X6.1Y-2.65
X6.1Y-2.75
X6.1Y-2.85
X6.1Y-2.95
X6.1Y-3.05
X6.1Y-3.15
X6.1Y-3.25
X6.1Y-3.35
X6.1Y-3.45
X6.1Y-3.55
X6.1Y-3.65
X6.1Y-3.75
X6.1Y-3.85
X6.1Y-3.95
X5.2Y-3.45
X5.2Y-3.55
X5.2Y-3.65
T2
G00X5.7283Y-3.7214
M15
G01X5.7283Y-3.745
M16
G05
G00X5.7283Y-3.858
M15
G01X5.7283Y-3.8817
M16
G05
G00X6.0117Y-3.7214
M15
G01X6.0117Y-3.745
M16
G05
G00X6.0117Y-3.858
M15
G01X6.0117Y-3.8817
M16
G05
T0
M30
