G04 #@! TF.GenerationSoftware,KiCad,Pcbnew,6.0.0-unknown-d4e9ddc~100~ubuntu18.04.1*
G04 #@! TF.CreationDate,2019-08-02T11:15:37+03:00*
G04 #@! TF.ProjectId,NB-IoT-DevKit_Rev_B,4e422d49-6f54-42d4-9465-764b69745f52,B*
G04 #@! TF.SameCoordinates,Original*
G04 #@! TF.FileFunction,Copper,L3,Inr*
G04 #@! TF.FilePolarity,Positive*
%FSLAX46Y46*%
G04 Gerber Fmt 4.6, Leading zero omitted, Abs format (unit mm)*
G04 Created by KiCad (PCBNEW 6.0.0-unknown-d4e9ddc~100~ubuntu18.04.1) date 2019-08-02 11:15:37*
%MOMM*%
%LPD*%
G04 APERTURE LIST*
%ADD10C,1.778000*%
%ADD11R,1.778000X1.778000*%
%ADD12C,1.400000*%
%ADD13R,1.400000X1.400000*%
%ADD14O,1.200000X1.800000*%
%ADD15C,0.600000*%
%ADD16C,1.016000*%
%ADD17C,0.609600*%
%ADD18C,0.762000*%
%ADD19C,0.508000*%
%ADD20C,0.254000*%
G04 APERTURE END LIST*
D10*
X154940000Y-69850000D03*
X154940000Y-67310000D03*
X154940000Y-64770000D03*
D11*
X154940000Y-62230000D03*
D10*
X154940000Y-72390000D03*
X154940000Y-74930000D03*
X154940000Y-80010000D03*
X154940000Y-77470000D03*
X154940000Y-82550000D03*
X154940000Y-85090000D03*
X154940000Y-95250000D03*
X154940000Y-92710000D03*
X154940000Y-90170000D03*
D11*
X154940000Y-87630000D03*
D10*
X154940000Y-97790000D03*
X154940000Y-100330000D03*
X132080000Y-92710000D03*
X132080000Y-90170000D03*
D11*
X132080000Y-87630000D03*
D10*
X132080000Y-69850000D03*
X132080000Y-67310000D03*
X132080000Y-64770000D03*
D11*
X132080000Y-62230000D03*
D10*
X132080000Y-72390000D03*
X132080000Y-74930000D03*
X132080000Y-80010000D03*
X132080000Y-77470000D03*
X132080000Y-82550000D03*
X132080000Y-85090000D03*
D12*
X139715240Y-100058220D03*
D13*
X141744700Y-100055680D03*
D14*
X145498000Y-98294000D03*
X145498000Y-94824000D03*
X152698000Y-94824000D03*
X152698000Y-98294000D03*
D15*
X136080500Y-62484000D03*
X135338892Y-62484000D03*
X138112500Y-97726500D03*
X138848348Y-97752652D03*
X142320990Y-95408307D03*
X133477000Y-61658500D03*
X133477000Y-62420500D03*
X153162000Y-91059000D03*
X153924000Y-91059000D03*
X153924000Y-91821000D03*
X138557000Y-63754000D03*
X138557000Y-64643000D03*
X138557000Y-65532000D03*
X142938500Y-66040000D03*
X143700500Y-66040000D03*
X142938500Y-63754000D03*
X142938500Y-62611000D03*
X143700500Y-64008000D03*
X142367000Y-61658500D03*
X139192000Y-61658500D03*
X138430000Y-61658500D03*
X137668000Y-61658500D03*
X139954000Y-61658500D03*
X140716000Y-61658500D03*
X141478000Y-61658500D03*
X143954500Y-61658500D03*
X144716500Y-61658500D03*
X148844000Y-66167000D03*
X151578002Y-64262000D03*
X150558500Y-61658500D03*
X149796500Y-61658500D03*
X148971000Y-61658500D03*
X148209000Y-61658500D03*
X152781000Y-64389000D03*
X149606000Y-66167000D03*
X150241000Y-68707000D03*
X149688568Y-78695532D03*
X150241000Y-66548000D03*
X148681000Y-67600000D03*
X150956990Y-95313500D03*
X150956990Y-94488000D03*
X153162000Y-91821000D03*
X131445000Y-93916500D03*
X143954500Y-93154500D03*
X136499600Y-97345500D03*
X137223500Y-97345500D03*
X150241000Y-64389000D03*
X149606000Y-63754000D03*
X147955000Y-66167000D03*
X150558500Y-62484000D03*
X150876000Y-63246000D03*
X149606000Y-62484000D03*
X150114000Y-63246000D03*
X141016023Y-76609511D03*
X144526000Y-77533500D03*
X144352990Y-87947500D03*
X144081987Y-88773481D03*
X143129028Y-89726467D03*
X150050500Y-96837500D03*
X150050500Y-97599500D03*
X142274722Y-78649031D03*
X137541000Y-68961000D03*
X143891000Y-73025000D03*
X142875004Y-73215500D03*
X133921500Y-78232000D03*
X133938957Y-72009000D03*
X133938979Y-70358000D03*
X133938979Y-69596000D03*
X136627767Y-68833995D03*
X140210000Y-66038000D03*
X140779500Y-65278000D03*
X140779500Y-64516000D03*
X140779500Y-63500000D03*
X141287500Y-64008000D03*
X140208000Y-63055500D03*
X142049500Y-64008000D03*
X140970000Y-66040000D03*
X132842000Y-68580000D03*
X152019000Y-88646000D03*
X151130000Y-97790000D03*
X151130000Y-97028000D03*
X144843500Y-90507428D03*
X144460250Y-89852500D03*
X137521728Y-70208262D03*
X142306704Y-75593544D03*
X137744039Y-82550000D03*
X136977870Y-89382600D03*
X132969000Y-96901000D03*
X132969000Y-95377000D03*
X132969000Y-96139000D03*
X136017000Y-66040000D03*
X136036227Y-66769061D03*
X135079922Y-95086569D03*
X137668000Y-76898500D03*
X132588000Y-81280000D03*
X137668000Y-78867000D03*
X138983466Y-94176291D03*
X144089980Y-95530019D03*
X144096560Y-96278623D03*
X137738176Y-79753927D03*
X149923500Y-81661000D03*
X141742466Y-77365222D03*
X143001992Y-87202990D03*
X148297369Y-80090990D03*
X144562958Y-73406000D03*
X147574000Y-80208030D03*
X146827011Y-90281240D03*
X147700996Y-89852500D03*
X149375521Y-76341733D03*
X147497903Y-90561331D03*
X147129500Y-86931500D03*
X149330075Y-75098575D03*
X153670000Y-96520000D03*
X148526500Y-89852500D03*
X148970381Y-75738070D03*
X149299245Y-86984255D03*
X148466970Y-70256386D03*
X148399500Y-69532488D03*
X142385261Y-70762532D03*
X137946782Y-94219961D03*
X137494952Y-71221994D03*
X135318500Y-64516000D03*
X141160500Y-95631000D03*
X133964982Y-83450536D03*
X141986000Y-81661000D03*
X132650867Y-86296500D03*
X144007253Y-83132243D03*
X143002000Y-86360000D03*
X143429010Y-78613000D03*
X144181988Y-78601205D03*
X141016032Y-77336522D03*
X132777999Y-78585644D03*
X144562998Y-69453491D03*
X141414500Y-69342000D03*
X141491314Y-79311044D03*
X148409500Y-96901000D03*
X149136500Y-96901000D03*
X140606490Y-80817687D03*
X138082579Y-86156319D03*
X144528686Y-76771500D03*
X144487475Y-76022200D03*
X144546944Y-75285600D03*
X144573794Y-74549000D03*
X148082000Y-73406000D03*
X147891500Y-72580500D03*
X148705887Y-68379123D03*
X143159961Y-69946039D03*
X148580342Y-77688796D03*
X146939000Y-72453500D03*
X147193000Y-95250000D03*
X146532600Y-95529400D03*
X146532600Y-94818200D03*
X134493000Y-96266000D03*
X135128000Y-97155000D03*
X135691590Y-97599500D03*
X137287000Y-64389000D03*
X147193000Y-81915000D03*
X133684990Y-82169000D03*
X142113000Y-79692500D03*
X146621500Y-98361500D03*
X133350000Y-81280000D03*
X137668000Y-83756500D03*
X132588000Y-98044000D03*
X146304000Y-81915000D03*
X133982128Y-86169500D03*
X153035000Y-88773000D03*
X153606500Y-88265000D03*
X153606500Y-89281000D03*
X141795500Y-83098570D03*
X151088500Y-85674927D03*
X149725649Y-83539305D03*
X134747000Y-67310000D03*
X132338089Y-94000447D03*
X133904010Y-89379917D03*
X133096000Y-76581000D03*
X139192000Y-62865000D03*
X153098500Y-80327500D03*
X152781000Y-78803500D03*
X153162000Y-77470000D03*
X152998011Y-76012313D03*
X153847424Y-76377400D03*
X152781000Y-71818500D03*
X152833755Y-85100769D03*
X153606500Y-85407500D03*
X152844500Y-86106004D03*
X152065021Y-84074000D03*
X153214463Y-81713463D03*
X140512499Y-86283800D03*
X141841510Y-72628804D03*
X137223500Y-90398900D03*
X138874500Y-92265500D03*
X138849016Y-90552030D03*
X135858490Y-95091490D03*
X136588500Y-95072500D03*
X143119983Y-70728406D03*
X146314885Y-82749404D03*
X143892816Y-69896010D03*
X141732000Y-70208522D03*
X139761150Y-86251659D03*
X150266400Y-90754200D03*
X151088512Y-92418574D03*
X151460200Y-91744802D03*
X150238747Y-89659777D03*
D16*
X138239500Y-96901000D02*
X138239500Y-97409000D01*
D17*
X138112500Y-97726500D02*
X138112500Y-96774000D01*
X138112500Y-96774000D02*
X137890250Y-96551750D01*
D16*
X137890250Y-96551750D02*
X138239500Y-96901000D01*
X138112500Y-96774000D02*
X138112500Y-96850698D01*
X138158501Y-96896699D02*
X138158501Y-97535990D01*
X138112500Y-96850698D02*
X138158501Y-96896699D01*
D17*
X138112500Y-97726500D02*
X138822196Y-97726500D01*
X138822196Y-97726500D02*
X138848348Y-97752652D01*
D16*
X138811000Y-97549198D02*
X138811253Y-97549451D01*
X138239500Y-96901000D02*
X138811000Y-97472500D01*
X138811000Y-97472500D02*
X138811000Y-97549198D01*
X137731500Y-96393000D02*
X137890250Y-96551750D01*
D17*
X142049500Y-64008000D02*
X141287500Y-64008000D01*
D16*
X140970000Y-67818000D02*
X140970000Y-66040000D01*
X140210000Y-67816000D02*
X140208000Y-67818000D01*
X140210000Y-66038000D02*
X140210000Y-67816000D01*
X140208000Y-67818000D02*
X140970000Y-67818000D01*
X140968000Y-66038000D02*
X140970000Y-66040000D01*
X140210000Y-66038000D02*
X140968000Y-66038000D01*
X140094071Y-67704071D02*
X140208000Y-67818000D01*
D18*
X136130929Y-67704071D02*
X140094071Y-67704071D01*
X132842000Y-68580000D02*
X135255000Y-68580000D01*
X135255000Y-68580000D02*
X136130929Y-67704071D01*
D16*
X144526000Y-67818000D02*
X140970000Y-67818000D01*
X152019000Y-75311000D02*
X144526000Y-67818000D01*
D17*
X151130000Y-97028000D02*
X151130000Y-97790000D01*
D19*
X151554264Y-97028000D02*
X151701500Y-97028000D01*
X151130000Y-97028000D02*
X151554264Y-97028000D01*
X151701500Y-97218500D02*
X151701500Y-97028000D01*
X151130000Y-97790000D02*
X151701500Y-97218500D01*
D17*
X144460250Y-89852500D02*
X144460250Y-90124178D01*
X144460250Y-90124178D02*
X144843500Y-90507428D01*
X145666750Y-88646000D02*
X152019000Y-88646000D01*
X144460250Y-89852500D02*
X145666750Y-88646000D01*
X144843500Y-90507428D02*
X144843500Y-89471500D01*
X144843500Y-89471500D02*
X144907000Y-89408000D01*
X144907000Y-89408000D02*
X144904750Y-89408000D01*
X144904750Y-89408000D02*
X144460250Y-89852500D01*
X152019000Y-90043000D02*
X152146000Y-90170000D01*
X152019000Y-90043000D02*
X152336500Y-90360500D01*
X152336500Y-90360500D02*
X152336500Y-93027500D01*
D19*
X151701500Y-95514857D02*
X151701500Y-95059500D01*
X151779001Y-97140999D02*
X151779001Y-95592358D01*
X151701500Y-97218500D02*
X151779001Y-97140999D01*
X151779001Y-95592358D02*
X151701500Y-95514857D01*
X151701500Y-95059500D02*
X151701500Y-93662500D01*
X151701500Y-93662500D02*
X152336500Y-93027500D01*
D20*
X151701500Y-97028000D02*
X151701500Y-96583500D01*
X151701500Y-96583500D02*
X151701500Y-95059500D01*
D19*
X151130000Y-97028000D02*
X151221882Y-97028000D01*
X151666382Y-96583500D02*
X151701500Y-96583500D01*
X151221882Y-97028000D02*
X151666382Y-96583500D01*
D20*
X136334500Y-100203000D02*
X137223500Y-100203000D01*
X138112500Y-101092000D02*
X143192500Y-101092000D01*
X137223500Y-100203000D02*
X138112500Y-101092000D01*
D19*
X144462500Y-99822000D02*
X143192500Y-101092000D01*
X151130000Y-97790000D02*
X149098000Y-99822000D01*
X149098000Y-99822000D02*
X144462500Y-99822000D01*
D20*
X151130000Y-97028000D02*
X150304500Y-96202500D01*
X150304500Y-96202500D02*
X150304500Y-93980000D01*
X150622000Y-93662500D02*
X151701500Y-93662500D01*
X150304500Y-93980000D02*
X150622000Y-93662500D01*
D17*
X144090599Y-95529400D02*
X144089980Y-95530019D01*
X144089980Y-95530019D02*
X144089980Y-96272043D01*
X144089980Y-96272043D02*
X144096560Y-96278623D01*
X142736252Y-94176291D02*
X144089980Y-95530019D01*
X138983466Y-94176291D02*
X142736252Y-94176291D01*
X137482103Y-80010000D02*
X137738176Y-79753927D01*
D16*
X132080000Y-80010000D02*
X137414000Y-80010000D01*
D20*
X141513290Y-82133710D02*
X141986000Y-81661000D01*
X139350760Y-81915010D02*
X139569460Y-82133710D01*
X135381990Y-81915010D02*
X139350760Y-81915010D01*
X134937500Y-82359500D02*
X135381990Y-81915010D01*
X139569460Y-82133710D02*
X141513290Y-82133710D01*
X134937500Y-83883500D02*
X134937500Y-82359500D01*
X133241256Y-86296500D02*
X133685737Y-86740981D01*
X134620000Y-84201000D02*
X134937500Y-83883500D01*
X133685737Y-86740981D02*
X134302481Y-86740981D01*
X132650867Y-86296500D02*
X133241256Y-86296500D01*
X134302481Y-86740981D02*
X134620000Y-86423462D01*
X134620000Y-86423462D02*
X134620000Y-84201000D01*
D17*
X146649801Y-95412199D02*
X146532600Y-95529400D01*
X147193000Y-95250000D02*
X147193000Y-95412199D01*
X147193000Y-95412199D02*
X146649801Y-95412199D01*
X146532600Y-95529400D02*
X146532600Y-94818200D01*
X135128000Y-96901000D02*
X135128000Y-97155000D01*
X134493000Y-96266000D02*
X135128000Y-96901000D01*
D16*
X145669000Y-96583500D02*
X146177000Y-96583500D01*
D17*
X145669000Y-96520000D02*
X145669000Y-96583500D01*
X145669000Y-96489934D02*
X145669000Y-96520000D01*
X146532600Y-95529400D02*
X146532600Y-95626334D01*
X146746735Y-95412199D02*
X147193000Y-95412199D01*
X146257217Y-95901717D02*
X146746735Y-95412199D01*
X146532600Y-95626334D02*
X146257217Y-95901717D01*
X146257217Y-95901717D02*
X145669000Y-96489934D01*
X146862800Y-94818200D02*
X147675600Y-95631000D01*
X146532600Y-94818200D02*
X146862800Y-94818200D01*
D19*
X147764500Y-95643700D02*
X147764500Y-95758000D01*
X147779001Y-95658201D02*
X147764500Y-95643700D01*
X147424881Y-96825001D02*
X147779001Y-96470881D01*
X147779001Y-96470881D02*
X147779001Y-95658201D01*
X145669000Y-96489934D02*
X146004067Y-96825001D01*
X146366199Y-96531801D02*
X146659399Y-96825001D01*
X146004067Y-96825001D02*
X146659399Y-96825001D01*
X146659399Y-96825001D02*
X147424881Y-96825001D01*
D17*
X146366199Y-96495265D02*
X146366199Y-96531801D01*
X146532600Y-95626334D02*
X146366199Y-95792735D01*
X146366199Y-95792735D02*
X146366199Y-96495265D01*
X134493000Y-96266000D02*
X135691590Y-97464590D01*
X135691590Y-98163090D02*
X135691590Y-97896764D01*
X135691590Y-97896764D02*
X135691590Y-97472500D01*
X135445500Y-97472500D02*
X135691590Y-97472500D01*
X135128000Y-97155000D02*
X135445500Y-97472500D01*
X135763000Y-98234500D02*
X135691590Y-98163090D01*
X135691590Y-97464590D02*
X135691590Y-97472500D01*
D16*
X145173700Y-96583500D02*
X145669000Y-96583500D01*
X144998210Y-96758990D02*
X145173700Y-96583500D01*
X144986443Y-96758990D02*
X144998210Y-96758990D01*
X144262990Y-97482443D02*
X144986443Y-96758990D01*
X144262990Y-97494210D02*
X144262990Y-97482443D01*
X143064739Y-98692461D02*
X144262990Y-97494210D01*
X135318500Y-96647000D02*
X135318500Y-97790000D01*
X135318500Y-97790000D02*
X136220961Y-98692461D01*
X136220961Y-98692461D02*
X143064739Y-98692461D01*
D17*
X135691590Y-96702590D02*
X135691590Y-97599500D01*
X134493000Y-96266000D02*
X135255000Y-96266000D01*
X135255000Y-96266000D02*
X135691590Y-96702590D01*
D20*
X133649999Y-80980001D02*
X133350000Y-81280000D01*
X133858000Y-80772000D02*
X133649999Y-80980001D01*
X139780755Y-80772000D02*
X133858000Y-80772000D01*
X142113000Y-79692500D02*
X141795500Y-80010000D01*
X140542755Y-80010000D02*
X139780755Y-80772000D01*
X141795500Y-80010000D02*
X140542755Y-80010000D01*
X139573000Y-81534000D02*
X135191500Y-81534000D01*
X134541085Y-82184415D02*
X134541085Y-83741085D01*
X141859000Y-80962500D02*
X141068801Y-81752699D01*
X135191500Y-81534000D02*
X134541085Y-82184415D01*
X141068801Y-81752699D02*
X139791699Y-81752699D01*
X145351500Y-80962500D02*
X141859000Y-80962500D01*
X139791699Y-81752699D02*
X139573000Y-81534000D01*
X133982128Y-85745236D02*
X133982128Y-86169500D01*
X134541085Y-83741085D02*
X133982128Y-84300042D01*
X133982128Y-84300042D02*
X133982128Y-85745236D01*
X146304000Y-81915000D02*
X145351500Y-80962500D01*
X133684990Y-82151510D02*
X133684990Y-82169000D01*
X134683500Y-81153000D02*
X133684990Y-82151510D01*
X145859489Y-80581489D02*
X141665561Y-80581489D01*
X147193000Y-81915000D02*
X145859489Y-80581489D01*
X141665561Y-80581489D02*
X140875362Y-81371688D01*
X140875362Y-81371688D02*
X139982188Y-81371688D01*
X139763500Y-81153000D02*
X134683500Y-81153000D01*
X139982188Y-81371688D02*
X139763500Y-81153000D01*
D17*
X152019000Y-85329723D02*
X152019000Y-90043000D01*
X151985697Y-75344303D02*
X151985697Y-79281765D01*
X151985697Y-79281765D02*
X152019000Y-79315068D01*
X152019000Y-79315068D02*
X152019000Y-85329723D01*
X152019000Y-75311000D02*
X151985697Y-75344303D01*
D19*
X141121372Y-85674927D02*
X140812498Y-85983801D01*
X140812498Y-85983801D02*
X140512499Y-86283800D01*
D16*
X136779000Y-96393000D02*
X137731500Y-96393000D01*
X136017000Y-93091000D02*
X136017000Y-95631000D01*
X136017000Y-95631000D02*
X136779000Y-96393000D01*
X136017000Y-88773000D02*
X136017000Y-93091000D01*
X132080000Y-87630000D02*
X134874000Y-87630000D01*
X134874000Y-87630000D02*
X136017000Y-88773000D01*
X137731500Y-96393000D02*
X136017000Y-94678500D01*
X136017000Y-94678500D02*
X136017000Y-94488000D01*
D19*
X141795500Y-85000799D02*
X141795500Y-84772500D01*
X141795500Y-83098570D02*
X141795500Y-84772500D01*
X141121372Y-85674927D02*
X141795500Y-85000799D01*
X141833299Y-84963000D02*
X141121372Y-85674927D01*
X151088500Y-85674927D02*
X150376573Y-84963000D01*
X150376573Y-84963000D02*
X141833299Y-84963000D01*
X136569510Y-95091490D02*
X136588500Y-95072500D01*
X135858490Y-95091490D02*
X136569510Y-95091490D01*
X137521728Y-70208262D02*
X141731740Y-70208262D01*
X141731740Y-70208262D02*
X141732000Y-70208522D01*
D20*
G36*
X139235241Y-65655970D02*
G01*
X139237301Y-65419885D01*
X139163995Y-65205167D01*
X139072561Y-65087078D01*
X139158198Y-64980377D01*
X139235241Y-64766970D01*
X139237301Y-64530885D01*
X139163995Y-64316167D01*
X139072561Y-64198078D01*
X139158198Y-64091377D01*
X139235241Y-63877970D01*
X139237301Y-63641885D01*
X139205739Y-63549437D01*
X139240089Y-63552714D01*
X139460259Y-63500059D01*
X139651503Y-63378926D01*
X139793198Y-63202377D01*
X139870241Y-62988970D01*
X139872301Y-62752885D01*
X139798995Y-62538167D01*
X139660402Y-62359171D01*
X139511445Y-62261138D01*
X139565641Y-62226811D01*
X139570493Y-62231375D01*
X139776735Y-62324714D01*
X140002089Y-62346214D01*
X140222259Y-62293559D01*
X140327641Y-62226811D01*
X140332493Y-62231375D01*
X140538735Y-62324714D01*
X140764089Y-62346214D01*
X140984259Y-62293559D01*
X141089641Y-62226811D01*
X141094493Y-62231375D01*
X141300735Y-62324714D01*
X141526089Y-62346214D01*
X141746259Y-62293559D01*
X141927538Y-62178738D01*
X141983493Y-62231375D01*
X142189735Y-62324714D01*
X142313318Y-62336504D01*
X142288249Y-62382010D01*
X142249132Y-62604984D01*
X142284351Y-62828606D01*
X142390105Y-63028764D01*
X142554874Y-63183763D01*
X142397481Y-63326729D01*
X142288249Y-63525010D01*
X142249132Y-63747984D01*
X142284351Y-63971606D01*
X142390105Y-64171764D01*
X142554993Y-64326875D01*
X142761235Y-64420214D01*
X142986589Y-64441714D01*
X143141019Y-64404781D01*
X143152105Y-64425764D01*
X143316993Y-64580875D01*
X143523235Y-64674214D01*
X143748589Y-64695714D01*
X143968759Y-64643059D01*
X144160003Y-64521926D01*
X144301698Y-64345377D01*
X144378741Y-64131970D01*
X144380801Y-63895885D01*
X144307495Y-63681167D01*
X144168902Y-63502171D01*
X143979802Y-63377719D01*
X143760585Y-63321230D01*
X143534889Y-63338794D01*
X143491554Y-63357501D01*
X143406902Y-63248171D01*
X143307112Y-63182496D01*
X143398003Y-63124926D01*
X143539698Y-62948377D01*
X143616741Y-62734970D01*
X143618801Y-62498885D01*
X143545495Y-62284167D01*
X143406902Y-62105171D01*
X143217802Y-61980719D01*
X142998585Y-61924230D01*
X142993933Y-61924592D01*
X143045241Y-61782470D01*
X143047301Y-61546385D01*
X142976840Y-61340000D01*
X143353560Y-61340000D01*
X143304249Y-61429510D01*
X143265132Y-61652484D01*
X143300351Y-61876106D01*
X143406105Y-62076264D01*
X143570993Y-62231375D01*
X143777235Y-62324714D01*
X144002589Y-62346214D01*
X144222759Y-62293559D01*
X144328141Y-62226811D01*
X144332993Y-62231375D01*
X144539235Y-62324714D01*
X144764589Y-62346214D01*
X144984759Y-62293559D01*
X145176003Y-62172426D01*
X145317698Y-61995877D01*
X145394741Y-61782470D01*
X145396801Y-61546385D01*
X145326340Y-61340000D01*
X147608060Y-61340000D01*
X147558749Y-61429510D01*
X147519632Y-61652484D01*
X147554851Y-61876106D01*
X147660605Y-62076264D01*
X147825493Y-62231375D01*
X148031735Y-62324714D01*
X148257089Y-62346214D01*
X148477259Y-62293559D01*
X148582641Y-62226811D01*
X148587493Y-62231375D01*
X148793735Y-62324714D01*
X148941055Y-62338769D01*
X148916632Y-62477984D01*
X148951851Y-62701606D01*
X149057605Y-62901764D01*
X149222493Y-63056875D01*
X149360443Y-63119307D01*
X149232550Y-63174519D01*
X149064981Y-63326729D01*
X148955749Y-63525010D01*
X148916632Y-63747984D01*
X148951851Y-63971606D01*
X149057605Y-64171764D01*
X149222493Y-64326875D01*
X149428735Y-64420214D01*
X149559460Y-64432686D01*
X149586851Y-64606606D01*
X149692605Y-64806764D01*
X149857493Y-64961875D01*
X150063735Y-65055214D01*
X150289089Y-65076714D01*
X150509259Y-65024059D01*
X150700503Y-64902926D01*
X150842198Y-64726377D01*
X150919241Y-64512970D01*
X150919759Y-64453611D01*
X150923853Y-64479606D01*
X151029607Y-64679764D01*
X151194495Y-64834875D01*
X151400737Y-64928214D01*
X151626091Y-64949714D01*
X151846261Y-64897059D01*
X152037505Y-64775926D01*
X152145329Y-64641579D01*
X152232605Y-64806764D01*
X152397493Y-64961875D01*
X152603735Y-65055214D01*
X152829089Y-65076714D01*
X153049259Y-65024059D01*
X153240503Y-64902926D01*
X153382198Y-64726377D01*
X153459241Y-64512970D01*
X153461301Y-64276885D01*
X153387995Y-64062167D01*
X153249402Y-63883171D01*
X153060302Y-63758719D01*
X152841085Y-63702230D01*
X152615389Y-63719794D01*
X152407550Y-63809519D01*
X152239981Y-63961729D01*
X152211633Y-64013187D01*
X152184997Y-63935167D01*
X152046404Y-63756171D01*
X151857304Y-63631719D01*
X151638087Y-63575230D01*
X151473454Y-63588042D01*
X151477198Y-63583377D01*
X151554241Y-63369970D01*
X151556301Y-63133885D01*
X151482995Y-62919167D01*
X151344402Y-62740171D01*
X151218846Y-62657539D01*
X151236741Y-62607969D01*
X151238801Y-62371885D01*
X151165495Y-62157167D01*
X151099086Y-62071398D01*
X151159698Y-61995878D01*
X151236741Y-61782470D01*
X151238801Y-61546385D01*
X151168340Y-61340000D01*
X153666024Y-61340000D01*
X153666024Y-63131410D01*
X153693047Y-63267269D01*
X153777035Y-63392965D01*
X153902731Y-63476953D01*
X154038590Y-63503976D01*
X154851421Y-63503976D01*
X154725273Y-63513793D01*
X154499943Y-63573960D01*
X154289351Y-63674181D01*
X154100549Y-63811102D01*
X153939860Y-63980137D01*
X153812666Y-64175625D01*
X153723227Y-64391018D01*
X153674538Y-64619103D01*
X153668230Y-64852241D01*
X153704513Y-65082626D01*
X153782173Y-65302541D01*
X153898609Y-65504620D01*
X154049921Y-65682098D01*
X154231041Y-65829029D01*
X154435906Y-65940493D01*
X154657652Y-66012756D01*
X154877745Y-66041927D01*
X154725273Y-66053793D01*
X154499943Y-66113960D01*
X154289351Y-66214181D01*
X154100549Y-66351102D01*
X153939860Y-66520137D01*
X153812666Y-66715625D01*
X153723227Y-66931018D01*
X153674538Y-67159103D01*
X153668230Y-67392241D01*
X153704513Y-67622626D01*
X153782173Y-67842541D01*
X153898609Y-68044620D01*
X154049921Y-68222098D01*
X154231041Y-68369029D01*
X154435906Y-68480493D01*
X154657652Y-68552756D01*
X154877745Y-68581927D01*
X154725273Y-68593793D01*
X154499943Y-68653960D01*
X154289351Y-68754181D01*
X154100549Y-68891102D01*
X153939860Y-69060137D01*
X153812666Y-69255625D01*
X153723227Y-69471018D01*
X153674538Y-69699103D01*
X153668230Y-69932241D01*
X153704513Y-70162626D01*
X153782173Y-70382541D01*
X153898609Y-70584620D01*
X154049921Y-70762098D01*
X154231041Y-70909029D01*
X154435906Y-71020493D01*
X154657652Y-71092756D01*
X154877745Y-71121927D01*
X154725273Y-71133793D01*
X154499943Y-71193960D01*
X154289351Y-71294181D01*
X154100549Y-71431102D01*
X153939860Y-71600137D01*
X153812666Y-71795625D01*
X153723227Y-72011018D01*
X153674538Y-72239103D01*
X153668230Y-72472241D01*
X153704513Y-72702626D01*
X153782173Y-72922541D01*
X153898609Y-73124620D01*
X154049921Y-73302098D01*
X154231041Y-73449029D01*
X154435906Y-73560493D01*
X154657652Y-73632756D01*
X154877745Y-73661927D01*
X154725273Y-73673793D01*
X154499943Y-73733960D01*
X154289351Y-73834181D01*
X154100549Y-73971102D01*
X153939860Y-74140137D01*
X153812666Y-74335625D01*
X153723227Y-74551018D01*
X153674538Y-74779103D01*
X153668230Y-75012241D01*
X153704513Y-75242626D01*
X153782173Y-75462541D01*
X153898609Y-75664620D01*
X153924522Y-75695014D01*
X153907509Y-75690630D01*
X153681813Y-75708194D01*
X153621631Y-75734175D01*
X153605006Y-75685480D01*
X153466413Y-75506484D01*
X153277313Y-75382032D01*
X153058096Y-75325543D01*
X152832400Y-75343107D01*
X152624561Y-75432832D01*
X152456992Y-75585042D01*
X152347760Y-75783323D01*
X152308643Y-76006297D01*
X152343862Y-76229919D01*
X152449616Y-76430077D01*
X152614504Y-76585188D01*
X152820746Y-76678527D01*
X153046100Y-76700027D01*
X153226028Y-76656996D01*
X153299029Y-76795164D01*
X153310586Y-76806035D01*
X153222085Y-76783230D01*
X152996389Y-76800794D01*
X152788550Y-76890519D01*
X152620981Y-77042729D01*
X152511749Y-77241010D01*
X152472632Y-77463984D01*
X152507851Y-77687606D01*
X152613605Y-77887764D01*
X152778493Y-78042875D01*
X152984735Y-78136214D01*
X153210089Y-78157714D01*
X153430259Y-78105059D01*
X153621503Y-77983926D01*
X153728514Y-77850592D01*
X153782173Y-78002541D01*
X153898609Y-78204620D01*
X154049921Y-78382098D01*
X154231041Y-78529029D01*
X154435906Y-78640493D01*
X154657652Y-78712756D01*
X154877745Y-78741927D01*
X154725273Y-78753793D01*
X154499943Y-78813960D01*
X154289351Y-78914181D01*
X154100549Y-79051102D01*
X153939860Y-79220137D01*
X153812666Y-79415625D01*
X153723227Y-79631018D01*
X153674538Y-79859103D01*
X153671882Y-79957255D01*
X153566902Y-79821671D01*
X153377802Y-79697219D01*
X153158585Y-79640730D01*
X152932889Y-79658294D01*
X152725050Y-79748019D01*
X152557481Y-79900229D01*
X152448249Y-80098510D01*
X152409132Y-80321484D01*
X152444351Y-80545106D01*
X152550105Y-80745264D01*
X152714993Y-80900375D01*
X152921235Y-80993714D01*
X153146589Y-81015214D01*
X153366759Y-80962559D01*
X153558003Y-80841426D01*
X153699698Y-80664877D01*
X153763229Y-80488897D01*
X153782173Y-80542541D01*
X153898609Y-80744620D01*
X154049921Y-80922098D01*
X154231041Y-81069029D01*
X154435906Y-81180493D01*
X154657652Y-81252756D01*
X154877745Y-81281927D01*
X154725273Y-81293793D01*
X154499943Y-81353960D01*
X154289351Y-81454181D01*
X154100549Y-81591102D01*
X153939860Y-81760137D01*
X153892747Y-81832547D01*
X153894764Y-81601348D01*
X153821458Y-81386630D01*
X153682865Y-81207634D01*
X153493765Y-81083182D01*
X153274548Y-81026693D01*
X153048852Y-81044257D01*
X152841013Y-81133982D01*
X152673444Y-81286192D01*
X152564212Y-81484473D01*
X152525095Y-81707447D01*
X152560314Y-81931069D01*
X152666068Y-82131227D01*
X152830956Y-82286338D01*
X153037198Y-82379677D01*
X153262552Y-82401177D01*
X153482722Y-82348522D01*
X153673966Y-82227389D01*
X153727535Y-82160643D01*
X153723227Y-82171018D01*
X153674538Y-82399103D01*
X153668230Y-82632241D01*
X153704513Y-82862626D01*
X153782173Y-83082541D01*
X153898609Y-83284620D01*
X154049921Y-83462098D01*
X154231041Y-83609029D01*
X154435906Y-83720493D01*
X154657652Y-83792756D01*
X154877745Y-83821927D01*
X154725273Y-83833793D01*
X154499943Y-83893960D01*
X154289351Y-83994181D01*
X154100549Y-84131102D01*
X153939860Y-84300137D01*
X153812666Y-84495625D01*
X153723227Y-84711018D01*
X153718309Y-84734058D01*
X153666585Y-84720730D01*
X153440889Y-84738294D01*
X153420101Y-84747268D01*
X153302157Y-84594940D01*
X153113057Y-84470488D01*
X152893840Y-84413999D01*
X152668144Y-84431563D01*
X152460305Y-84521288D01*
X152292736Y-84673498D01*
X152183504Y-84871779D01*
X152144387Y-85094753D01*
X152179606Y-85318375D01*
X152285360Y-85518533D01*
X152380901Y-85608409D01*
X152303481Y-85678733D01*
X152194249Y-85877014D01*
X152155132Y-86099988D01*
X152190351Y-86323610D01*
X152296105Y-86523768D01*
X152460993Y-86678879D01*
X152667235Y-86772218D01*
X152892589Y-86793718D01*
X153112759Y-86741063D01*
X153304003Y-86619930D01*
X153445698Y-86443381D01*
X153522741Y-86229974D01*
X153524026Y-86082758D01*
X153654589Y-86095214D01*
X153874759Y-86042559D01*
X154010899Y-85956329D01*
X154049921Y-86002098D01*
X154231041Y-86149029D01*
X154435906Y-86260493D01*
X154657652Y-86332756D01*
X154833205Y-86356024D01*
X154038590Y-86356024D01*
X153902731Y-86383047D01*
X153777035Y-86467035D01*
X153693047Y-86592731D01*
X153666024Y-86728590D01*
X153666024Y-87578274D01*
X153440889Y-87595794D01*
X153233050Y-87685519D01*
X153065481Y-87837729D01*
X152956249Y-88036010D01*
X152945395Y-88097879D01*
X152869389Y-88103794D01*
X152661550Y-88193519D01*
X152493981Y-88345729D01*
X152384749Y-88544010D01*
X152345632Y-88766984D01*
X152380851Y-88990606D01*
X152486605Y-89190764D01*
X152651493Y-89345875D01*
X152857734Y-89439213D01*
X152944298Y-89447472D01*
X152952351Y-89498606D01*
X153058105Y-89698764D01*
X153222993Y-89853875D01*
X153429235Y-89947214D01*
X153654589Y-89968714D01*
X153686946Y-89960976D01*
X153674538Y-90019103D01*
X153668230Y-90252241D01*
X153694253Y-90417482D01*
X153550550Y-90479519D01*
X153537081Y-90491754D01*
X153441302Y-90428719D01*
X153222085Y-90372230D01*
X152996389Y-90389794D01*
X152788550Y-90479519D01*
X152620981Y-90631729D01*
X152511749Y-90830010D01*
X152472632Y-91052984D01*
X152507851Y-91276606D01*
X152594822Y-91441213D01*
X152511749Y-91592010D01*
X152472632Y-91814984D01*
X152507851Y-92038606D01*
X152613605Y-92238764D01*
X152778493Y-92393875D01*
X152984735Y-92487214D01*
X153210089Y-92508714D01*
X153430259Y-92456059D01*
X153535641Y-92389311D01*
X153540493Y-92393875D01*
X153694892Y-92463752D01*
X153674538Y-92559103D01*
X153668230Y-92792241D01*
X153704513Y-93022626D01*
X153782173Y-93242541D01*
X153898609Y-93444620D01*
X154049921Y-93622098D01*
X154231041Y-93769029D01*
X154435906Y-93880493D01*
X154657652Y-93952756D01*
X154877745Y-93981927D01*
X154725273Y-93993793D01*
X154499943Y-94053960D01*
X154289351Y-94154181D01*
X154100549Y-94291102D01*
X153939860Y-94460137D01*
X153812666Y-94655625D01*
X153723227Y-94871018D01*
X153678000Y-95082885D01*
X153678000Y-94470827D01*
X153660781Y-94312319D01*
X153592866Y-94110514D01*
X153483200Y-93928000D01*
X153336902Y-93773294D01*
X153160793Y-93653611D01*
X152963094Y-93574538D01*
X152753027Y-93539760D01*
X152540392Y-93550904D01*
X152335111Y-93607448D01*
X152146761Y-93706755D01*
X151984128Y-93844190D01*
X151854802Y-94013343D01*
X151763306Y-94209556D01*
X151718000Y-94483228D01*
X151718000Y-95177173D01*
X151735219Y-95335681D01*
X151803135Y-95537486D01*
X151912801Y-95720000D01*
X152059099Y-95874706D01*
X152235207Y-95994389D01*
X152432906Y-96073462D01*
X152642973Y-96108240D01*
X152855608Y-96097096D01*
X153060889Y-96040552D01*
X153249239Y-95941245D01*
X153411871Y-95803810D01*
X153541198Y-95634659D01*
X153632694Y-95438445D01*
X153671738Y-95202601D01*
X153668230Y-95332241D01*
X153704513Y-95562626D01*
X153782173Y-95782541D01*
X153825554Y-95857831D01*
X153730085Y-95833230D01*
X153504389Y-95850794D01*
X153296550Y-95940519D01*
X153128981Y-96092729D01*
X153019749Y-96291010D01*
X152980632Y-96513984D01*
X153015851Y-96737606D01*
X153121605Y-96937764D01*
X153286493Y-97092875D01*
X153492735Y-97186214D01*
X153718089Y-97207714D01*
X153820780Y-97183155D01*
X153812666Y-97195625D01*
X153723227Y-97411018D01*
X153674538Y-97639103D01*
X153668692Y-97855148D01*
X153660781Y-97782319D01*
X153592866Y-97580514D01*
X153483200Y-97398000D01*
X153336902Y-97243294D01*
X153160793Y-97123611D01*
X152963094Y-97044538D01*
X152753027Y-97009760D01*
X152540392Y-97020904D01*
X152335111Y-97077448D01*
X152146761Y-97176755D01*
X151984128Y-97314190D01*
X151854802Y-97483343D01*
X151763306Y-97679556D01*
X151718000Y-97953228D01*
X151718000Y-98647173D01*
X151735219Y-98805681D01*
X151803135Y-99007486D01*
X151912801Y-99190000D01*
X152059099Y-99344706D01*
X152235207Y-99464389D01*
X152432906Y-99543462D01*
X152642973Y-99578240D01*
X152855608Y-99567096D01*
X153060889Y-99510552D01*
X153249239Y-99411245D01*
X153411871Y-99273810D01*
X153541198Y-99104659D01*
X153632694Y-98908445D01*
X153678000Y-98634773D01*
X153678000Y-97940827D01*
X153675706Y-97919714D01*
X153704513Y-98102626D01*
X153782173Y-98322541D01*
X153898609Y-98524620D01*
X154049921Y-98702098D01*
X154231041Y-98849029D01*
X154435906Y-98960493D01*
X154657652Y-99032756D01*
X154877745Y-99061927D01*
X154725273Y-99073793D01*
X154499943Y-99133960D01*
X154289351Y-99234181D01*
X154100549Y-99371102D01*
X153939860Y-99540137D01*
X153812666Y-99735625D01*
X153723227Y-99951018D01*
X153674538Y-100179103D01*
X153668230Y-100412241D01*
X153670770Y-100428370D01*
X153457168Y-100214768D01*
X153435965Y-100183035D01*
X153310269Y-100099047D01*
X153199427Y-100077000D01*
X153199425Y-100077000D01*
X153162000Y-100069556D01*
X153124575Y-100077000D01*
X145071425Y-100077000D01*
X145033999Y-100069555D01*
X144996573Y-100077000D01*
X144885731Y-100099047D01*
X144760035Y-100183035D01*
X144738832Y-100214768D01*
X143733601Y-101220000D01*
X134946386Y-101220000D01*
X134968999Y-101135606D01*
X134968999Y-100943394D01*
X134919251Y-100757731D01*
X134823145Y-100591270D01*
X134687230Y-100455355D01*
X134520769Y-100359249D01*
X134335106Y-100309501D01*
X134142894Y-100309501D01*
X133957231Y-100359249D01*
X133790770Y-100455355D01*
X133654855Y-100591270D01*
X133558749Y-100757731D01*
X133509001Y-100943394D01*
X133509001Y-101135606D01*
X133531614Y-101220000D01*
X131190000Y-101220000D01*
X131190000Y-99143394D01*
X133509001Y-99143394D01*
X133509001Y-99335606D01*
X133558749Y-99521269D01*
X133654855Y-99687730D01*
X133790770Y-99823645D01*
X133957231Y-99919751D01*
X134142894Y-99969499D01*
X134335106Y-99969499D01*
X134520769Y-99919751D01*
X134687230Y-99823645D01*
X134823145Y-99687730D01*
X134919251Y-99521269D01*
X134968999Y-99335606D01*
X134968999Y-99143394D01*
X134919251Y-98957731D01*
X134823145Y-98791270D01*
X134687230Y-98655355D01*
X134520769Y-98559249D01*
X134335106Y-98509501D01*
X134142894Y-98509501D01*
X133957231Y-98559249D01*
X133790770Y-98655355D01*
X133654855Y-98791270D01*
X133558749Y-98957731D01*
X133509001Y-99143394D01*
X131190000Y-99143394D01*
X131190000Y-94547533D01*
X131267735Y-94582714D01*
X131493089Y-94604214D01*
X131713259Y-94551559D01*
X131843652Y-94468969D01*
X131954582Y-94573322D01*
X132160824Y-94666661D01*
X132386178Y-94688161D01*
X132606348Y-94635506D01*
X132797592Y-94514373D01*
X132939287Y-94337824D01*
X133016330Y-94124417D01*
X133018390Y-93888332D01*
X132945084Y-93673614D01*
X132930235Y-93654436D01*
X133059122Y-93525773D01*
X133191389Y-93333682D01*
X133286435Y-93120705D01*
X133341469Y-92892353D01*
X133349484Y-92596133D01*
X133306880Y-92365140D01*
X133223490Y-92147333D01*
X133101804Y-91948370D01*
X132945898Y-91774915D01*
X132760993Y-91632775D01*
X132553282Y-91526713D01*
X132329719Y-91460278D01*
X132124135Y-91438490D01*
X132261770Y-91431397D01*
X132488597Y-91377150D01*
X132701741Y-91282476D01*
X132894063Y-91150544D01*
X133059122Y-90985773D01*
X133191389Y-90793682D01*
X133286435Y-90580705D01*
X133341469Y-90352353D01*
X133349484Y-90056133D01*
X133306880Y-89825140D01*
X133223490Y-89607333D01*
X133101804Y-89408370D01*
X133070823Y-89373901D01*
X133214642Y-89373901D01*
X133249861Y-89597523D01*
X133355615Y-89797681D01*
X133520503Y-89952792D01*
X133726745Y-90046131D01*
X133952099Y-90067631D01*
X134172269Y-90014976D01*
X134363513Y-89893843D01*
X134505208Y-89717294D01*
X134582251Y-89503887D01*
X134584311Y-89267802D01*
X134511005Y-89053084D01*
X134372412Y-88874088D01*
X134183312Y-88749636D01*
X133964095Y-88693147D01*
X133738399Y-88710711D01*
X133530560Y-88800436D01*
X133362991Y-88952646D01*
X133253759Y-89150927D01*
X133214642Y-89373901D01*
X133070823Y-89373901D01*
X132945898Y-89234915D01*
X132760993Y-89092775D01*
X132553282Y-88986713D01*
X132329719Y-88920278D01*
X132175901Y-88903976D01*
X132981410Y-88903976D01*
X133117269Y-88876953D01*
X133242965Y-88792965D01*
X133326953Y-88667269D01*
X133353976Y-88531410D01*
X133353976Y-88518000D01*
X134506179Y-88518000D01*
X135129000Y-89140822D01*
X135129001Y-93029615D01*
X135129000Y-93029622D01*
X135129001Y-94400656D01*
X134914311Y-94417363D01*
X134706472Y-94507088D01*
X134538903Y-94659298D01*
X134523472Y-94687309D01*
X134520769Y-94685749D01*
X134335106Y-94636001D01*
X134142894Y-94636001D01*
X133957231Y-94685749D01*
X133790770Y-94781855D01*
X133654855Y-94917770D01*
X133576895Y-95052802D01*
X133575995Y-95050167D01*
X133437402Y-94871171D01*
X133248302Y-94746719D01*
X133029085Y-94690230D01*
X132803389Y-94707794D01*
X132595550Y-94797519D01*
X132427981Y-94949729D01*
X132318749Y-95148010D01*
X132279632Y-95370984D01*
X132314851Y-95594606D01*
X132401822Y-95759213D01*
X132318749Y-95910010D01*
X132279632Y-96132984D01*
X132314851Y-96356606D01*
X132401822Y-96521213D01*
X132318749Y-96672010D01*
X132279632Y-96894984D01*
X132314851Y-97118606D01*
X132420605Y-97318764D01*
X132475752Y-97370641D01*
X132422389Y-97374794D01*
X132214550Y-97464519D01*
X132046981Y-97616729D01*
X131937749Y-97815010D01*
X131898632Y-98037984D01*
X131933851Y-98261606D01*
X132039605Y-98461764D01*
X132204493Y-98616875D01*
X132410735Y-98710214D01*
X132636089Y-98731714D01*
X132856259Y-98679059D01*
X133047503Y-98557926D01*
X133189198Y-98381377D01*
X133266241Y-98167970D01*
X133268301Y-97931885D01*
X133194995Y-97717167D01*
X133083280Y-97572884D01*
X133237259Y-97536059D01*
X133428503Y-97414926D01*
X133519552Y-97301481D01*
X133558749Y-97447769D01*
X133654855Y-97614230D01*
X133790770Y-97750145D01*
X133957231Y-97846251D01*
X134142894Y-97895999D01*
X134335106Y-97895999D01*
X134432811Y-97869819D01*
X134434353Y-97880586D01*
X134440019Y-97971925D01*
X134452309Y-98005966D01*
X134457439Y-98041791D01*
X134495312Y-98125086D01*
X134526523Y-98211541D01*
X134547526Y-98239927D01*
X134562721Y-98273344D01*
X134630225Y-98351686D01*
X134646899Y-98374219D01*
X134666720Y-98394040D01*
X134728757Y-98466037D01*
X134757062Y-98484383D01*
X135522705Y-99250027D01*
X135537769Y-99273903D01*
X135613198Y-99340519D01*
X135638083Y-99365405D01*
X135659832Y-99381705D01*
X135728421Y-99442281D01*
X135761181Y-99457662D01*
X135790143Y-99479367D01*
X135875830Y-99511489D01*
X135959025Y-99550549D01*
X135993944Y-99555767D01*
X136028318Y-99568653D01*
X136131442Y-99576317D01*
X136159172Y-99580461D01*
X136187211Y-99580461D01*
X136281978Y-99587503D01*
X136314967Y-99580461D01*
X138745016Y-99580461D01*
X138718956Y-99627089D01*
X138652613Y-99836226D01*
X138629679Y-100054431D01*
X138651089Y-100272790D01*
X138715970Y-100482386D01*
X138821670Y-100674653D01*
X138963872Y-100841740D01*
X139136767Y-100976820D01*
X139333292Y-101074375D01*
X139545420Y-101130422D01*
X139764484Y-101142670D01*
X139981538Y-101110619D01*
X140187713Y-101035577D01*
X140374587Y-100920610D01*
X140534528Y-100770416D01*
X140659724Y-100592939D01*
X140659724Y-100768090D01*
X140686747Y-100903949D01*
X140770735Y-101029645D01*
X140896431Y-101113633D01*
X141032290Y-101140656D01*
X142457110Y-101140656D01*
X142592969Y-101113633D01*
X142718665Y-101029645D01*
X142802653Y-100903949D01*
X142829676Y-100768090D01*
X142829676Y-99580461D01*
X142965255Y-99580461D01*
X142992791Y-99586692D01*
X143093220Y-99580461D01*
X143128426Y-99580461D01*
X143155329Y-99576608D01*
X143246663Y-99570942D01*
X143280705Y-99558652D01*
X143316531Y-99553522D01*
X143399835Y-99515645D01*
X143486280Y-99484438D01*
X143514661Y-99463438D01*
X143548082Y-99448242D01*
X143626433Y-99380731D01*
X143648959Y-99364061D01*
X143668772Y-99344248D01*
X143740776Y-99282205D01*
X143759126Y-99253894D01*
X144518000Y-98495021D01*
X144518000Y-98647173D01*
X144535219Y-98805681D01*
X144603135Y-99007486D01*
X144712801Y-99190000D01*
X144859099Y-99344706D01*
X145035207Y-99464389D01*
X145232906Y-99543462D01*
X145442973Y-99578240D01*
X145655608Y-99567096D01*
X145860889Y-99510552D01*
X146049239Y-99411245D01*
X146211871Y-99273810D01*
X146341198Y-99104659D01*
X146388781Y-99002617D01*
X146444235Y-99027714D01*
X146669589Y-99049214D01*
X146889759Y-98996559D01*
X147081003Y-98875426D01*
X147222698Y-98698877D01*
X147299741Y-98485470D01*
X147301801Y-98249385D01*
X147228495Y-98034667D01*
X147089902Y-97855671D01*
X146900802Y-97731219D01*
X146681585Y-97674730D01*
X146455889Y-97692294D01*
X146433707Y-97701870D01*
X146392866Y-97580514D01*
X146320496Y-97460070D01*
X146327960Y-97459001D01*
X146575936Y-97459001D01*
X146603289Y-97466330D01*
X146687063Y-97459001D01*
X147397212Y-97459001D01*
X147480989Y-97466330D01*
X147562226Y-97444563D01*
X147645066Y-97429956D01*
X147669597Y-97415793D01*
X147696953Y-97408462D01*
X147765840Y-97360227D01*
X147838694Y-97318165D01*
X147852252Y-97302007D01*
X147861106Y-97318764D01*
X148025993Y-97473875D01*
X148232235Y-97567214D01*
X148457589Y-97588714D01*
X148677759Y-97536059D01*
X148766374Y-97479931D01*
X148959235Y-97567214D01*
X149184589Y-97588714D01*
X149369737Y-97544435D01*
X149361132Y-97593484D01*
X149396351Y-97817106D01*
X149502105Y-98017264D01*
X149666993Y-98172375D01*
X149873235Y-98265714D01*
X150098589Y-98287214D01*
X150318759Y-98234559D01*
X150510003Y-98113426D01*
X150651698Y-97936877D01*
X150728741Y-97723470D01*
X150730801Y-97487385D01*
X150657495Y-97272667D01*
X150616111Y-97219218D01*
X150651698Y-97174877D01*
X150728741Y-96961470D01*
X150730801Y-96725385D01*
X150727349Y-96715274D01*
X150773649Y-96748913D01*
X150948270Y-96813854D01*
X151133923Y-96829444D01*
X151316929Y-96794534D01*
X151483806Y-96711695D01*
X151622258Y-96587032D01*
X151722086Y-96429729D01*
X151776128Y-96250730D01*
X151778215Y-96051495D01*
X151727933Y-95871404D01*
X151631421Y-95712044D01*
X151560238Y-95645199D01*
X151635231Y-95437470D01*
X151637291Y-95201385D01*
X151563985Y-94986667D01*
X151497576Y-94900898D01*
X151558188Y-94825378D01*
X151635231Y-94611970D01*
X151637291Y-94375885D01*
X151563985Y-94161167D01*
X151425392Y-93982171D01*
X151236292Y-93857719D01*
X151017075Y-93801230D01*
X150791379Y-93818794D01*
X150583540Y-93908519D01*
X150415971Y-94060729D01*
X150306739Y-94259010D01*
X150267622Y-94481984D01*
X150302841Y-94705606D01*
X150406937Y-94902627D01*
X150306739Y-95084510D01*
X150267622Y-95307484D01*
X150302841Y-95531106D01*
X150408595Y-95731264D01*
X150499358Y-95816645D01*
X150438869Y-95952505D01*
X150411653Y-96136812D01*
X150428777Y-96272357D01*
X150329802Y-96207219D01*
X150110585Y-96150730D01*
X149884889Y-96168294D01*
X149677050Y-96258019D01*
X149559183Y-96365082D01*
X149415802Y-96270719D01*
X149196585Y-96214230D01*
X148970889Y-96231794D01*
X148764826Y-96320752D01*
X148688802Y-96270719D01*
X148469585Y-96214230D01*
X148413001Y-96218634D01*
X148413001Y-95685878D01*
X148420331Y-95602093D01*
X148398561Y-95520845D01*
X148383956Y-95438016D01*
X148369794Y-95413486D01*
X148362463Y-95386128D01*
X148314219Y-95317228D01*
X148272164Y-95244387D01*
X148260277Y-95234413D01*
X148257664Y-95229887D01*
X148193233Y-95175823D01*
X148173586Y-95156175D01*
X148159049Y-95145996D01*
X147398690Y-94385638D01*
X147376296Y-94350955D01*
X147318233Y-94305181D01*
X147306840Y-94293788D01*
X147274125Y-94270409D01*
X147192834Y-94206324D01*
X147179745Y-94202964D01*
X147168232Y-94194736D01*
X146949813Y-94129416D01*
X146848399Y-94133400D01*
X146600329Y-94133400D01*
X146592683Y-94131430D01*
X146567369Y-94133400D01*
X146562643Y-94133400D01*
X146478130Y-94126080D01*
X146404278Y-94144425D01*
X146392866Y-94110514D01*
X146283200Y-93928000D01*
X146136902Y-93773294D01*
X145960793Y-93653611D01*
X145763094Y-93574538D01*
X145553027Y-93539760D01*
X145340392Y-93550904D01*
X145135111Y-93607448D01*
X144946761Y-93706755D01*
X144784128Y-93844190D01*
X144654802Y-94013343D01*
X144563306Y-94209556D01*
X144518000Y-94483228D01*
X144518000Y-94987343D01*
X144512366Y-94983951D01*
X143272142Y-93743729D01*
X143249748Y-93709046D01*
X143191685Y-93663272D01*
X143180292Y-93651879D01*
X143147577Y-93628500D01*
X143066286Y-93564415D01*
X143053197Y-93561055D01*
X143041684Y-93552827D01*
X142823265Y-93487507D01*
X142721851Y-93491491D01*
X139051195Y-93491491D01*
X139043549Y-93489521D01*
X139018235Y-93491491D01*
X138926633Y-93491491D01*
X138846195Y-93504880D01*
X138817859Y-93507084D01*
X138808388Y-93511172D01*
X138758582Y-93519462D01*
X138636116Y-93585542D01*
X138610017Y-93596808D01*
X138602380Y-93603745D01*
X138557949Y-93627719D01*
X138463480Y-93729915D01*
X138442443Y-93749024D01*
X138442342Y-93749207D01*
X138415184Y-93714132D01*
X138226084Y-93589680D01*
X138006867Y-93533191D01*
X137781171Y-93550755D01*
X137573332Y-93640480D01*
X137405763Y-93792690D01*
X137296531Y-93990971D01*
X137257414Y-94213945D01*
X137292633Y-94437567D01*
X137398387Y-94637725D01*
X137563275Y-94792836D01*
X137769517Y-94886175D01*
X137994871Y-94907675D01*
X138215041Y-94855020D01*
X138406285Y-94733887D01*
X138475378Y-94647799D01*
X138579255Y-94729690D01*
X138599957Y-94749165D01*
X138609353Y-94753417D01*
X138653431Y-94788166D01*
X138729008Y-94807570D01*
X138806201Y-94842505D01*
X138899876Y-94851441D01*
X138937457Y-94861091D01*
X139001014Y-94861091D01*
X139031554Y-94864005D01*
X139043740Y-94861091D01*
X141912019Y-94861091D01*
X141779971Y-94981036D01*
X141670775Y-95179251D01*
X141628902Y-95125171D01*
X141439802Y-95000719D01*
X141220585Y-94944230D01*
X140994889Y-94961794D01*
X140787050Y-95051519D01*
X140619481Y-95203729D01*
X140510249Y-95402010D01*
X140471132Y-95624984D01*
X140506351Y-95848606D01*
X140612105Y-96048764D01*
X140776993Y-96203875D01*
X140983235Y-96297214D01*
X141208589Y-96318714D01*
X141428759Y-96266059D01*
X141620003Y-96144926D01*
X141761698Y-95968377D01*
X141802811Y-95854495D01*
X141937483Y-95981182D01*
X142143725Y-96074521D01*
X142369079Y-96096021D01*
X142589249Y-96043366D01*
X142780493Y-95922233D01*
X142922188Y-95745684D01*
X142999231Y-95532277D01*
X143000308Y-95408801D01*
X143405180Y-95813673D01*
X143405180Y-96198986D01*
X143396492Y-96239340D01*
X143405180Y-96312744D01*
X143405180Y-96328875D01*
X143411787Y-96368569D01*
X143423950Y-96471334D01*
X143430827Y-96482963D01*
X143433151Y-96496926D01*
X143541409Y-96697560D01*
X143615965Y-96766480D01*
X143652522Y-96803037D01*
X143665700Y-96812454D01*
X143668006Y-96814586D01*
X143614931Y-96874682D01*
X143590046Y-96899566D01*
X143573750Y-96921310D01*
X143525982Y-96975396D01*
X142696918Y-97804461D01*
X139670085Y-97804461D01*
X139681804Y-97726047D01*
X139705484Y-97621399D01*
X139701682Y-97560129D01*
X139705231Y-97544448D01*
X139699000Y-97444019D01*
X139699000Y-97408813D01*
X139695147Y-97381909D01*
X139689481Y-97290575D01*
X139677192Y-97256533D01*
X139672061Y-97220708D01*
X139634183Y-97137398D01*
X139602977Y-97050957D01*
X139581975Y-97022575D01*
X139566781Y-96989157D01*
X139499280Y-96910819D01*
X139482601Y-96888279D01*
X139462776Y-96868455D01*
X139400743Y-96796463D01*
X139372439Y-96778117D01*
X138891276Y-96296955D01*
X138829243Y-96224963D01*
X138800935Y-96206615D01*
X138764283Y-96169963D01*
X138702243Y-96097963D01*
X138673935Y-96079615D01*
X138429759Y-95835439D01*
X138414692Y-95811559D01*
X138339263Y-95744942D01*
X136905000Y-94310680D01*
X136905000Y-93148484D01*
X143265132Y-93148484D01*
X143300351Y-93372106D01*
X143406105Y-93572264D01*
X143570993Y-93727375D01*
X143777235Y-93820714D01*
X144002589Y-93842214D01*
X144222759Y-93789559D01*
X144414003Y-93668426D01*
X144555698Y-93491877D01*
X144632741Y-93278470D01*
X144634801Y-93042385D01*
X144561495Y-92827667D01*
X144422902Y-92648671D01*
X144233802Y-92524219D01*
X144014585Y-92467730D01*
X143788889Y-92485294D01*
X143581050Y-92575019D01*
X143413481Y-92727229D01*
X143304249Y-92925510D01*
X143265132Y-93148484D01*
X136905000Y-93148484D01*
X136905000Y-92259484D01*
X138185132Y-92259484D01*
X138220351Y-92483106D01*
X138326105Y-92683264D01*
X138490993Y-92838375D01*
X138697235Y-92931714D01*
X138922589Y-92953214D01*
X139142759Y-92900559D01*
X139334003Y-92779426D01*
X139475698Y-92602877D01*
X139544405Y-92412558D01*
X150399144Y-92412558D01*
X150434363Y-92636180D01*
X150540117Y-92836338D01*
X150705005Y-92991449D01*
X150911247Y-93084788D01*
X151136601Y-93106288D01*
X151356771Y-93053633D01*
X151548015Y-92932500D01*
X151689710Y-92755951D01*
X151766753Y-92542544D01*
X151768393Y-92354567D01*
X151919703Y-92258728D01*
X152061398Y-92082179D01*
X152138441Y-91868772D01*
X152140501Y-91632687D01*
X152067195Y-91417969D01*
X151928602Y-91238973D01*
X151739502Y-91114521D01*
X151520285Y-91058032D01*
X151294589Y-91075596D01*
X151086750Y-91165321D01*
X150919181Y-91317531D01*
X150809949Y-91515812D01*
X150770832Y-91738786D01*
X150782074Y-91810164D01*
X150715062Y-91839093D01*
X150547493Y-91991303D01*
X150438261Y-92189584D01*
X150399144Y-92412558D01*
X139544405Y-92412558D01*
X139552741Y-92389470D01*
X139554801Y-92153385D01*
X139481495Y-91938667D01*
X139342902Y-91759671D01*
X139153802Y-91635219D01*
X138934585Y-91578730D01*
X138708889Y-91596294D01*
X138501050Y-91686019D01*
X138333481Y-91838229D01*
X138224249Y-92036510D01*
X138185132Y-92259484D01*
X136905000Y-92259484D01*
X136905000Y-91001195D01*
X137046235Y-91065114D01*
X137271589Y-91086614D01*
X137491759Y-91033959D01*
X137683003Y-90912826D01*
X137824698Y-90736277D01*
X137893385Y-90546014D01*
X138159648Y-90546014D01*
X138194867Y-90769636D01*
X138300621Y-90969794D01*
X138465509Y-91124905D01*
X138671751Y-91218244D01*
X138897105Y-91239744D01*
X139117275Y-91187089D01*
X139308519Y-91065956D01*
X139450214Y-90889407D01*
X139527257Y-90676000D01*
X139529317Y-90439915D01*
X139456011Y-90225197D01*
X139317418Y-90046201D01*
X139128318Y-89921749D01*
X138909101Y-89865260D01*
X138683405Y-89882824D01*
X138475566Y-89972549D01*
X138307997Y-90124759D01*
X138198765Y-90323040D01*
X138159648Y-90546014D01*
X137893385Y-90546014D01*
X137901741Y-90522870D01*
X137903801Y-90286785D01*
X137830495Y-90072067D01*
X137691902Y-89893071D01*
X137527162Y-89784651D01*
X137578687Y-89720451D01*
X142439660Y-89720451D01*
X142474879Y-89944073D01*
X142580633Y-90144231D01*
X142745521Y-90299342D01*
X142951763Y-90392681D01*
X143177117Y-90414181D01*
X143397287Y-90361526D01*
X143588531Y-90240393D01*
X143722160Y-90073894D01*
X144939001Y-90073894D01*
X144939001Y-90266106D01*
X144988749Y-90451769D01*
X145084855Y-90618230D01*
X145220770Y-90754145D01*
X145387231Y-90850251D01*
X145572894Y-90899999D01*
X145765106Y-90899999D01*
X145950769Y-90850251D01*
X146117230Y-90754145D01*
X146241887Y-90629488D01*
X146278616Y-90699004D01*
X146443504Y-90854115D01*
X146649746Y-90947454D01*
X146875100Y-90968954D01*
X146936404Y-90954293D01*
X146949508Y-90979095D01*
X147114396Y-91134206D01*
X147320638Y-91227545D01*
X147545992Y-91249045D01*
X147766162Y-91196390D01*
X147957406Y-91075257D01*
X148099101Y-90898708D01*
X148176144Y-90685301D01*
X148178204Y-90449216D01*
X148175012Y-90439867D01*
X148349235Y-90518714D01*
X148574589Y-90540214D01*
X148794759Y-90487559D01*
X148812811Y-90476125D01*
X148894855Y-90618230D01*
X149030770Y-90754145D01*
X149197231Y-90850251D01*
X149382894Y-90899999D01*
X149575106Y-90899999D01*
X149599896Y-90893357D01*
X149612251Y-90971806D01*
X149718005Y-91171964D01*
X149882893Y-91327075D01*
X150089135Y-91420414D01*
X150314489Y-91441914D01*
X150534659Y-91389259D01*
X150725903Y-91268126D01*
X150867598Y-91091577D01*
X150944641Y-90878170D01*
X150946701Y-90642085D01*
X150873395Y-90427367D01*
X150734802Y-90248371D01*
X150659062Y-90198524D01*
X150698250Y-90173703D01*
X150839945Y-89997154D01*
X150916988Y-89783747D01*
X150919048Y-89547662D01*
X150845742Y-89332944D01*
X150707149Y-89153948D01*
X150518049Y-89029496D01*
X150298832Y-88973007D01*
X150073136Y-88990571D01*
X149865297Y-89080296D01*
X149697728Y-89232506D01*
X149588496Y-89430786D01*
X149586351Y-89443014D01*
X149575106Y-89440001D01*
X149382894Y-89440001D01*
X149197231Y-89489749D01*
X149133746Y-89526402D01*
X149133495Y-89525667D01*
X148994902Y-89346671D01*
X148805802Y-89222219D01*
X148586585Y-89165730D01*
X148360889Y-89183294D01*
X148153049Y-89273019D01*
X148112900Y-89309488D01*
X147980298Y-89222219D01*
X147761081Y-89165730D01*
X147535385Y-89183294D01*
X147327546Y-89273019D01*
X147159977Y-89425229D01*
X147050745Y-89623510D01*
X147048541Y-89636072D01*
X146887096Y-89594470D01*
X146661400Y-89612034D01*
X146453561Y-89701759D01*
X146314513Y-89828062D01*
X146253145Y-89721770D01*
X146117230Y-89585855D01*
X145950769Y-89489749D01*
X145765106Y-89440001D01*
X145572894Y-89440001D01*
X145387231Y-89489749D01*
X145220770Y-89585855D01*
X145084855Y-89721770D01*
X144988749Y-89888231D01*
X144939001Y-90073894D01*
X143722160Y-90073894D01*
X143730226Y-90063844D01*
X143807269Y-89850437D01*
X143809329Y-89614352D01*
X143736023Y-89399634D01*
X143684825Y-89333511D01*
X143698480Y-89346356D01*
X143904722Y-89439695D01*
X144130076Y-89461195D01*
X144350246Y-89408540D01*
X144541490Y-89287407D01*
X144683185Y-89110858D01*
X144760228Y-88897451D01*
X144762288Y-88661366D01*
X144715090Y-88523121D01*
X144812493Y-88461426D01*
X144954188Y-88284877D01*
X145031231Y-88071470D01*
X145033291Y-87835385D01*
X144959985Y-87620667D01*
X144821392Y-87441671D01*
X144632292Y-87317219D01*
X144413075Y-87260730D01*
X144187379Y-87278294D01*
X143979540Y-87368019D01*
X143811971Y-87520229D01*
X143702739Y-87718510D01*
X143663622Y-87941484D01*
X143698841Y-88165106D01*
X143713073Y-88192042D01*
X143708537Y-88194000D01*
X143540968Y-88346210D01*
X143431736Y-88544491D01*
X143392619Y-88767465D01*
X143427838Y-88991087D01*
X143523369Y-89171896D01*
X143408330Y-89096186D01*
X143189113Y-89039697D01*
X142963417Y-89057261D01*
X142755578Y-89146986D01*
X142588009Y-89299196D01*
X142478777Y-89497477D01*
X142439660Y-89720451D01*
X137578687Y-89720451D01*
X137579068Y-89719977D01*
X137656111Y-89506570D01*
X137658171Y-89270485D01*
X137584865Y-89055767D01*
X137446272Y-88876771D01*
X137257172Y-88752319D01*
X137037955Y-88695830D01*
X136904556Y-88706211D01*
X136901147Y-88682409D01*
X136895481Y-88591075D01*
X136883192Y-88557033D01*
X136878061Y-88521208D01*
X136840178Y-88437889D01*
X136808976Y-88351457D01*
X136787976Y-88323077D01*
X136772781Y-88289658D01*
X136705275Y-88211313D01*
X136688601Y-88188779D01*
X136668776Y-88168955D01*
X136606743Y-88096963D01*
X136578436Y-88078615D01*
X135696795Y-87196974D01*
X142312624Y-87196974D01*
X142347843Y-87420596D01*
X142453597Y-87620754D01*
X142618485Y-87775865D01*
X142824727Y-87869204D01*
X143050081Y-87890704D01*
X143270251Y-87838049D01*
X143461495Y-87716916D01*
X143603190Y-87540367D01*
X143680233Y-87326960D01*
X143682293Y-87090875D01*
X143625828Y-86925484D01*
X146440132Y-86925484D01*
X146475351Y-87149106D01*
X146581105Y-87349264D01*
X146745993Y-87504375D01*
X146952235Y-87597714D01*
X147177589Y-87619214D01*
X147397759Y-87566559D01*
X147589003Y-87445426D01*
X147730698Y-87268877D01*
X147807741Y-87055470D01*
X147808414Y-86978239D01*
X148609877Y-86978239D01*
X148645096Y-87201861D01*
X148750850Y-87402019D01*
X148915738Y-87557130D01*
X149121980Y-87650469D01*
X149347334Y-87671969D01*
X149567504Y-87619314D01*
X149758748Y-87498181D01*
X149900443Y-87321632D01*
X149977486Y-87108225D01*
X149979546Y-86872140D01*
X149906240Y-86657422D01*
X149767647Y-86478426D01*
X149578547Y-86353974D01*
X149359330Y-86297485D01*
X149133634Y-86315049D01*
X148925795Y-86404774D01*
X148758226Y-86556984D01*
X148648994Y-86755265D01*
X148609877Y-86978239D01*
X147808414Y-86978239D01*
X147809801Y-86819385D01*
X147736495Y-86604667D01*
X147597902Y-86425671D01*
X147408802Y-86301219D01*
X147189585Y-86244730D01*
X146963889Y-86262294D01*
X146756050Y-86352019D01*
X146588481Y-86504229D01*
X146479249Y-86702510D01*
X146440132Y-86925484D01*
X143625828Y-86925484D01*
X143608987Y-86876157D01*
X143535689Y-86781491D01*
X143603198Y-86697377D01*
X143680241Y-86483970D01*
X143682301Y-86247885D01*
X143608995Y-86033167D01*
X143470402Y-85854171D01*
X143281302Y-85729719D01*
X143062085Y-85673230D01*
X142836389Y-85690794D01*
X142628550Y-85780519D01*
X142460981Y-85932729D01*
X142351749Y-86131010D01*
X142312632Y-86353984D01*
X142347851Y-86577606D01*
X142453605Y-86777764D01*
X142457716Y-86781631D01*
X142351741Y-86974000D01*
X142312624Y-87196974D01*
X135696795Y-87196974D01*
X135572259Y-87072439D01*
X135557192Y-87048559D01*
X135481756Y-86981936D01*
X135456877Y-86957056D01*
X135435137Y-86940763D01*
X135366539Y-86880179D01*
X135333774Y-86864796D01*
X135304820Y-86843095D01*
X135219134Y-86810973D01*
X135135937Y-86771913D01*
X135101015Y-86766693D01*
X135066642Y-86753808D01*
X135011759Y-86749729D01*
X135097584Y-86621283D01*
X135112961Y-86543974D01*
X135136932Y-86423462D01*
X135127000Y-86373529D01*
X135127000Y-86150303D01*
X137393211Y-86150303D01*
X137428430Y-86373925D01*
X137534184Y-86574083D01*
X137699072Y-86729194D01*
X137905314Y-86822533D01*
X138130668Y-86844033D01*
X138350838Y-86791378D01*
X138542082Y-86670245D01*
X138683777Y-86493696D01*
X138760820Y-86280289D01*
X138762880Y-86044204D01*
X138689574Y-85829486D01*
X138550981Y-85650490D01*
X138361881Y-85526038D01*
X138142664Y-85469549D01*
X137916968Y-85487113D01*
X137709129Y-85576838D01*
X137541560Y-85729048D01*
X137432328Y-85927329D01*
X137393211Y-86150303D01*
X135127000Y-86150303D01*
X135127000Y-84411006D01*
X135260694Y-84277312D01*
X135303027Y-84249027D01*
X135415083Y-84081322D01*
X135442079Y-83945605D01*
X135454433Y-83883500D01*
X135444500Y-83833566D01*
X135444500Y-82569506D01*
X135591997Y-82422010D01*
X137076069Y-82422010D01*
X137054671Y-82543984D01*
X137089890Y-82767606D01*
X137195644Y-82967764D01*
X137360532Y-83122875D01*
X137389549Y-83136007D01*
X137294550Y-83177019D01*
X137126981Y-83329229D01*
X137017749Y-83527510D01*
X136978632Y-83750484D01*
X137013851Y-83974106D01*
X137119605Y-84174264D01*
X137284493Y-84329375D01*
X137490735Y-84422714D01*
X137716089Y-84444214D01*
X137936259Y-84391559D01*
X138127503Y-84270426D01*
X138269198Y-84093877D01*
X138346241Y-83880470D01*
X138348301Y-83644385D01*
X138274995Y-83429667D01*
X138136402Y-83250671D01*
X138024736Y-83177181D01*
X138203542Y-83063926D01*
X138345237Y-82887377D01*
X138422280Y-82673970D01*
X138424340Y-82437885D01*
X138418920Y-82422010D01*
X139140755Y-82422010D01*
X139175645Y-82456901D01*
X139203934Y-82499238D01*
X139336617Y-82587893D01*
X139371638Y-82611293D01*
X139569460Y-82650644D01*
X139619399Y-82640710D01*
X141288157Y-82640710D01*
X141254481Y-82671299D01*
X141145249Y-82869580D01*
X141106132Y-83092554D01*
X141141351Y-83316176D01*
X141161500Y-83354311D01*
X141161501Y-84715579D01*
X141161500Y-84715584D01*
X141161500Y-84738187D01*
X140704490Y-85195198D01*
X140238153Y-85661535D01*
X140155612Y-85697168D01*
X140040452Y-85621378D01*
X139821235Y-85564889D01*
X139595539Y-85582453D01*
X139387700Y-85672178D01*
X139220131Y-85824388D01*
X139110899Y-86022669D01*
X139071782Y-86245643D01*
X139107001Y-86469265D01*
X139212755Y-86669423D01*
X139377643Y-86824534D01*
X139583885Y-86917873D01*
X139809239Y-86939373D01*
X140029409Y-86886718D01*
X140108007Y-86836934D01*
X140128992Y-86856675D01*
X140335234Y-86950014D01*
X140560588Y-86971514D01*
X140780758Y-86918859D01*
X140972002Y-86797726D01*
X141113697Y-86621178D01*
X141137407Y-86555502D01*
X141906427Y-85786482D01*
X142095910Y-85597000D01*
X150113962Y-85597000D01*
X150462196Y-85945235D01*
X150540105Y-86092691D01*
X150704993Y-86247802D01*
X150911235Y-86341141D01*
X151136589Y-86362641D01*
X151356759Y-86309986D01*
X151548003Y-86188853D01*
X151689698Y-86012304D01*
X151766741Y-85798897D01*
X151768801Y-85562812D01*
X151695495Y-85348094D01*
X151556902Y-85169098D01*
X151367802Y-85044646D01*
X151350328Y-85040143D01*
X150844448Y-84534264D01*
X150790386Y-84469836D01*
X150717532Y-84427774D01*
X150648645Y-84379539D01*
X150621289Y-84372208D01*
X150596758Y-84358045D01*
X150513918Y-84343438D01*
X150432681Y-84321671D01*
X150348904Y-84329000D01*
X142429500Y-84329000D01*
X142429500Y-83345089D01*
X142473741Y-83222540D01*
X142474581Y-83126227D01*
X143317885Y-83126227D01*
X143353104Y-83349849D01*
X143458858Y-83550007D01*
X143623746Y-83705118D01*
X143829988Y-83798457D01*
X144055342Y-83819957D01*
X144275512Y-83767302D01*
X144466756Y-83646169D01*
X144557351Y-83533289D01*
X149036281Y-83533289D01*
X149071500Y-83756911D01*
X149177254Y-83957069D01*
X149342142Y-84112180D01*
X149548384Y-84205519D01*
X149773738Y-84227019D01*
X149993908Y-84174364D01*
X150185152Y-84053231D01*
X150326847Y-83876682D01*
X150403890Y-83663275D01*
X150405950Y-83427190D01*
X150332644Y-83212472D01*
X150194051Y-83033476D01*
X150004951Y-82909024D01*
X149785734Y-82852535D01*
X149560038Y-82870099D01*
X149352199Y-82959824D01*
X149184630Y-83112034D01*
X149075398Y-83310315D01*
X149036281Y-83533289D01*
X144557351Y-83533289D01*
X144608451Y-83469620D01*
X144685494Y-83256213D01*
X144687554Y-83020128D01*
X144614248Y-82805410D01*
X144475655Y-82626414D01*
X144286555Y-82501962D01*
X144067338Y-82445473D01*
X143841642Y-82463037D01*
X143633803Y-82552762D01*
X143466234Y-82704972D01*
X143357002Y-82903253D01*
X143317885Y-83126227D01*
X142474581Y-83126227D01*
X142475801Y-82986455D01*
X142402495Y-82771737D01*
X142263902Y-82592741D01*
X142074802Y-82468289D01*
X141932409Y-82431596D01*
X142016928Y-82347077D01*
X142034089Y-82348714D01*
X142254259Y-82296059D01*
X142445503Y-82174926D01*
X142587198Y-81998377D01*
X142664241Y-81784970D01*
X142666301Y-81548885D01*
X142639198Y-81469500D01*
X145141495Y-81469500D01*
X145620923Y-81948928D01*
X145649851Y-82132606D01*
X145755605Y-82332764D01*
X145763775Y-82340450D01*
X145664634Y-82520414D01*
X145625517Y-82743388D01*
X145660736Y-82967010D01*
X145766490Y-83167168D01*
X145931378Y-83322279D01*
X146137620Y-83415618D01*
X146362974Y-83437118D01*
X146583144Y-83384463D01*
X146774388Y-83263330D01*
X146916083Y-83086781D01*
X146993126Y-82873374D01*
X146995186Y-82637289D01*
X146968788Y-82559967D01*
X147015735Y-82581214D01*
X147241089Y-82602714D01*
X147461259Y-82550059D01*
X147652503Y-82428926D01*
X147794198Y-82252377D01*
X147871241Y-82038970D01*
X147873301Y-81802885D01*
X147822807Y-81654984D01*
X149234132Y-81654984D01*
X149269351Y-81878606D01*
X149375105Y-82078764D01*
X149539993Y-82233875D01*
X149746235Y-82327214D01*
X149971589Y-82348714D01*
X150191759Y-82296059D01*
X150383003Y-82174926D01*
X150524698Y-81998377D01*
X150601741Y-81784970D01*
X150603801Y-81548885D01*
X150530495Y-81334167D01*
X150391902Y-81155171D01*
X150202802Y-81030719D01*
X149983585Y-80974230D01*
X149757889Y-80991794D01*
X149550050Y-81081519D01*
X149382481Y-81233729D01*
X149273249Y-81432010D01*
X149234132Y-81654984D01*
X147822807Y-81654984D01*
X147799995Y-81588167D01*
X147661402Y-81409171D01*
X147472302Y-81284719D01*
X147253085Y-81228230D01*
X147225390Y-81230385D01*
X146253305Y-80258300D01*
X146225016Y-80215962D01*
X146204142Y-80202014D01*
X146884632Y-80202014D01*
X146919851Y-80425636D01*
X147025605Y-80625794D01*
X147190493Y-80780905D01*
X147396735Y-80874244D01*
X147622089Y-80895744D01*
X147842259Y-80843089D01*
X148033504Y-80721956D01*
X148035826Y-80719062D01*
X148120104Y-80757204D01*
X148345458Y-80778704D01*
X148565628Y-80726049D01*
X148756872Y-80604916D01*
X148898567Y-80428367D01*
X148975610Y-80214960D01*
X148977670Y-79978875D01*
X148904364Y-79764157D01*
X148765771Y-79585161D01*
X148576671Y-79460709D01*
X148357454Y-79404220D01*
X148131758Y-79421784D01*
X147923919Y-79511509D01*
X147851504Y-79577286D01*
X147634085Y-79521260D01*
X147408389Y-79538824D01*
X147200550Y-79628549D01*
X147032981Y-79780759D01*
X146923749Y-79979040D01*
X146884632Y-80202014D01*
X146204142Y-80202014D01*
X146057311Y-80103906D01*
X145921594Y-80076910D01*
X145859489Y-80064557D01*
X145809556Y-80074489D01*
X142678393Y-80074489D01*
X142714198Y-80029877D01*
X142791241Y-79816470D01*
X142793301Y-79580385D01*
X142719995Y-79365667D01*
X142619369Y-79235706D01*
X142734225Y-79162957D01*
X142864619Y-79000489D01*
X142880615Y-79030764D01*
X143045503Y-79185875D01*
X143251745Y-79279214D01*
X143477099Y-79300714D01*
X143697269Y-79248059D01*
X143807571Y-79178194D01*
X144004723Y-79267419D01*
X144230077Y-79288919D01*
X144450247Y-79236264D01*
X144641491Y-79115131D01*
X144783186Y-78938582D01*
X144860229Y-78725175D01*
X144860540Y-78689516D01*
X148999200Y-78689516D01*
X149034419Y-78913138D01*
X149140173Y-79113296D01*
X149305061Y-79268407D01*
X149511303Y-79361746D01*
X149736657Y-79383246D01*
X149956827Y-79330591D01*
X150148071Y-79209458D01*
X150289766Y-79032909D01*
X150366809Y-78819502D01*
X150367001Y-78797484D01*
X152091632Y-78797484D01*
X152126851Y-79021106D01*
X152232605Y-79221264D01*
X152397493Y-79376375D01*
X152603735Y-79469714D01*
X152829089Y-79491214D01*
X153049259Y-79438559D01*
X153240503Y-79317426D01*
X153382198Y-79140877D01*
X153459241Y-78927470D01*
X153461301Y-78691385D01*
X153387995Y-78476667D01*
X153249402Y-78297671D01*
X153060302Y-78173219D01*
X152841085Y-78116730D01*
X152615389Y-78134294D01*
X152407550Y-78224019D01*
X152239981Y-78376229D01*
X152130749Y-78574510D01*
X152091632Y-78797484D01*
X150367001Y-78797484D01*
X150368869Y-78583417D01*
X150295563Y-78368699D01*
X150156970Y-78189703D01*
X149967870Y-78065251D01*
X149748653Y-78008762D01*
X149522957Y-78026326D01*
X149315118Y-78116051D01*
X149147549Y-78268261D01*
X149038317Y-78466542D01*
X148999200Y-78689516D01*
X144860540Y-78689516D01*
X144862289Y-78489090D01*
X144788983Y-78274372D01*
X144720679Y-78186156D01*
X144794259Y-78168559D01*
X144985503Y-78047426D01*
X145127198Y-77870877D01*
X145195103Y-77682780D01*
X147890974Y-77682780D01*
X147926193Y-77906402D01*
X148031947Y-78106560D01*
X148196835Y-78261671D01*
X148403077Y-78355010D01*
X148628431Y-78376510D01*
X148848601Y-78323855D01*
X149039845Y-78202722D01*
X149181540Y-78026173D01*
X149258583Y-77812766D01*
X149260643Y-77576681D01*
X149187337Y-77361963D01*
X149048744Y-77182967D01*
X148859644Y-77058515D01*
X148640427Y-77002026D01*
X148414731Y-77019590D01*
X148206892Y-77109315D01*
X148039323Y-77261525D01*
X147930091Y-77459806D01*
X147890974Y-77682780D01*
X145195103Y-77682780D01*
X145204241Y-77657470D01*
X145206301Y-77421385D01*
X145132995Y-77206667D01*
X145092930Y-77154922D01*
X145129884Y-77108877D01*
X145206927Y-76895470D01*
X145208987Y-76659385D01*
X145135681Y-76444667D01*
X145079066Y-76371548D01*
X145088673Y-76359578D01*
X145165716Y-76146170D01*
X145167776Y-75910085D01*
X145106996Y-75732054D01*
X148281013Y-75732054D01*
X148316232Y-75955676D01*
X148421986Y-76155834D01*
X148586874Y-76310946D01*
X148689572Y-76357423D01*
X148721372Y-76559339D01*
X148827126Y-76759497D01*
X148992014Y-76914608D01*
X149198256Y-77007947D01*
X149423610Y-77029447D01*
X149643780Y-76976792D01*
X149835024Y-76855659D01*
X149976719Y-76679110D01*
X150053762Y-76465703D01*
X150055822Y-76229618D01*
X149982516Y-76014900D01*
X149843923Y-75835904D01*
X149654823Y-75711452D01*
X149649947Y-75710195D01*
X149650028Y-75700891D01*
X149789578Y-75612501D01*
X149931273Y-75435952D01*
X150008316Y-75222545D01*
X150010376Y-74986460D01*
X149937070Y-74771742D01*
X149798477Y-74592746D01*
X149609377Y-74468294D01*
X149390160Y-74411805D01*
X149164464Y-74429369D01*
X148956625Y-74519094D01*
X148789056Y-74671304D01*
X148679824Y-74869585D01*
X148640707Y-75092559D01*
X148647657Y-75136690D01*
X148596931Y-75158589D01*
X148429362Y-75310799D01*
X148320130Y-75509080D01*
X148281013Y-75732054D01*
X145106996Y-75732054D01*
X145094470Y-75695367D01*
X145092297Y-75692560D01*
X145148142Y-75622978D01*
X145225185Y-75409570D01*
X145227245Y-75173485D01*
X145153939Y-74958767D01*
X145135749Y-74935274D01*
X145174992Y-74886377D01*
X145252035Y-74672970D01*
X145254095Y-74436885D01*
X145180789Y-74222167D01*
X145042196Y-74043171D01*
X144937091Y-73973999D01*
X145022461Y-73919926D01*
X145164156Y-73743377D01*
X145241199Y-73529970D01*
X145243259Y-73293885D01*
X145169953Y-73079167D01*
X145031360Y-72900171D01*
X144842260Y-72775719D01*
X144623043Y-72719230D01*
X144508236Y-72728165D01*
X144497995Y-72698167D01*
X144359402Y-72519171D01*
X144250477Y-72447484D01*
X146249632Y-72447484D01*
X146284851Y-72671106D01*
X146390605Y-72871264D01*
X146555493Y-73026375D01*
X146761735Y-73119714D01*
X146987089Y-73141214D01*
X147207259Y-73088559D01*
X147345806Y-73000805D01*
X147466350Y-73114201D01*
X147431749Y-73177010D01*
X147392632Y-73399984D01*
X147427851Y-73623606D01*
X147533605Y-73823764D01*
X147698493Y-73978875D01*
X147904735Y-74072214D01*
X148130089Y-74093714D01*
X148350259Y-74041059D01*
X148541503Y-73919926D01*
X148683198Y-73743377D01*
X148760241Y-73529970D01*
X148762301Y-73293885D01*
X148688995Y-73079167D01*
X148550402Y-72900171D01*
X148508941Y-72872884D01*
X148569741Y-72704470D01*
X148571801Y-72468385D01*
X148498495Y-72253667D01*
X148359902Y-72074671D01*
X148170802Y-71950219D01*
X147951585Y-71893730D01*
X147725889Y-71911294D01*
X147518050Y-72001019D01*
X147477340Y-72037997D01*
X147407402Y-71947671D01*
X147218302Y-71823219D01*
X147176643Y-71812484D01*
X152091632Y-71812484D01*
X152126851Y-72036106D01*
X152232605Y-72236264D01*
X152397493Y-72391375D01*
X152603735Y-72484714D01*
X152829089Y-72506214D01*
X153049259Y-72453559D01*
X153240503Y-72332426D01*
X153382198Y-72155877D01*
X153459241Y-71942470D01*
X153461301Y-71706385D01*
X153387995Y-71491667D01*
X153249402Y-71312671D01*
X153060302Y-71188219D01*
X152841085Y-71131730D01*
X152615389Y-71149294D01*
X152407550Y-71239019D01*
X152239981Y-71391229D01*
X152130749Y-71589510D01*
X152091632Y-71812484D01*
X147176643Y-71812484D01*
X146999085Y-71766730D01*
X146773389Y-71784294D01*
X146565550Y-71874019D01*
X146397981Y-72026229D01*
X146288749Y-72224510D01*
X146249632Y-72447484D01*
X144250477Y-72447484D01*
X144170302Y-72394719D01*
X143951085Y-72338230D01*
X143725389Y-72355794D01*
X143517550Y-72445519D01*
X143349981Y-72597729D01*
X143302972Y-72683060D01*
X143154306Y-72585219D01*
X142935089Y-72528730D01*
X142709393Y-72546294D01*
X142520842Y-72627692D01*
X142521811Y-72516689D01*
X142448505Y-72301971D01*
X142309912Y-72122975D01*
X142120812Y-71998523D01*
X141901595Y-71942034D01*
X141675899Y-71959598D01*
X141468060Y-72049323D01*
X141300491Y-72201533D01*
X141191259Y-72399814D01*
X141152142Y-72622788D01*
X141187361Y-72846410D01*
X141293115Y-73046568D01*
X141458003Y-73201679D01*
X141664245Y-73295018D01*
X141889599Y-73316518D01*
X142109769Y-73263863D01*
X142186542Y-73215235D01*
X142220855Y-73433106D01*
X142326609Y-73633264D01*
X142491497Y-73788375D01*
X142697739Y-73881714D01*
X142923093Y-73903214D01*
X143143263Y-73850559D01*
X143334507Y-73729426D01*
X143469086Y-73561745D01*
X143507493Y-73597875D01*
X143713735Y-73691214D01*
X143939089Y-73712714D01*
X143954004Y-73709147D01*
X144014563Y-73823764D01*
X144179451Y-73978875D01*
X144186521Y-73982075D01*
X144032775Y-74121729D01*
X143923543Y-74320010D01*
X143884426Y-74542984D01*
X143919645Y-74766606D01*
X143986621Y-74893370D01*
X143896693Y-75056610D01*
X143857576Y-75279584D01*
X143892795Y-75503206D01*
X143943802Y-75599746D01*
X143837224Y-75793210D01*
X143798107Y-76016184D01*
X143833326Y-76239806D01*
X143937047Y-76436116D01*
X143878435Y-76542510D01*
X143839318Y-76765484D01*
X143874537Y-76989106D01*
X143960193Y-77151225D01*
X143875749Y-77304510D01*
X143836632Y-77527484D01*
X143871851Y-77751106D01*
X143976518Y-77949206D01*
X143808537Y-78021724D01*
X143791329Y-78037355D01*
X143708312Y-77982719D01*
X143489095Y-77926230D01*
X143263399Y-77943794D01*
X143055560Y-78033519D01*
X142887991Y-78185729D01*
X142841456Y-78270200D01*
X142743124Y-78143202D01*
X142554024Y-78018750D01*
X142334807Y-77962261D01*
X142109111Y-77979825D01*
X141901272Y-78069550D01*
X141733703Y-78221760D01*
X141624471Y-78420041D01*
X141587031Y-78633456D01*
X141551399Y-78624274D01*
X141325703Y-78641838D01*
X141117864Y-78731563D01*
X140950295Y-78883773D01*
X140841063Y-79082054D01*
X140801946Y-79305028D01*
X140833125Y-79503000D01*
X140592688Y-79503000D01*
X140542755Y-79493068D01*
X140480650Y-79505421D01*
X140344933Y-79532417D01*
X140177228Y-79644473D01*
X140148943Y-79686805D01*
X139570749Y-80265000D01*
X138264662Y-80265000D01*
X138300630Y-80144733D01*
X138361640Y-80059359D01*
X138426960Y-79840941D01*
X138418011Y-79613140D01*
X138335754Y-79400520D01*
X138221175Y-79264213D01*
X138269198Y-79204378D01*
X138346241Y-78990970D01*
X138348301Y-78754885D01*
X138274995Y-78540167D01*
X138136402Y-78361171D01*
X137947302Y-78236719D01*
X137728085Y-78180230D01*
X137502389Y-78197794D01*
X137294550Y-78287519D01*
X137126981Y-78439729D01*
X137017749Y-78638010D01*
X136978632Y-78860984D01*
X137013851Y-79084606D01*
X137033608Y-79122000D01*
X133202090Y-79122000D01*
X133237502Y-79099570D01*
X133379197Y-78923021D01*
X133451293Y-78723316D01*
X133537993Y-78804875D01*
X133744235Y-78898214D01*
X133969589Y-78919714D01*
X134189759Y-78867059D01*
X134381003Y-78745926D01*
X134522698Y-78569377D01*
X134599741Y-78355970D01*
X134601801Y-78119885D01*
X134528495Y-77905167D01*
X134389902Y-77726171D01*
X134200802Y-77601719D01*
X133981585Y-77545230D01*
X133755889Y-77562794D01*
X133548050Y-77652519D01*
X133380481Y-77804729D01*
X133271249Y-78003010D01*
X133255674Y-78091791D01*
X133246401Y-78079815D01*
X133208662Y-78054978D01*
X133286435Y-77880705D01*
X133341469Y-77652353D01*
X133349484Y-77356133D01*
X133325365Y-77225361D01*
X133364259Y-77216059D01*
X133555503Y-77094926D01*
X133697198Y-76918377D01*
X133706545Y-76892484D01*
X136978632Y-76892484D01*
X137013851Y-77116106D01*
X137119605Y-77316264D01*
X137284493Y-77471375D01*
X137490735Y-77564714D01*
X137716089Y-77586214D01*
X137936259Y-77533559D01*
X138127503Y-77412426D01*
X138269198Y-77235877D01*
X138346241Y-77022470D01*
X138348301Y-76786385D01*
X138285862Y-76603495D01*
X140326655Y-76603495D01*
X140361874Y-76827117D01*
X140439413Y-76973873D01*
X140365781Y-77107532D01*
X140326664Y-77330506D01*
X140361883Y-77554128D01*
X140467637Y-77754286D01*
X140632525Y-77909397D01*
X140838767Y-78002736D01*
X141064121Y-78024236D01*
X141284291Y-77971581D01*
X141350186Y-77929844D01*
X141358960Y-77938098D01*
X141565201Y-78031436D01*
X141790555Y-78052936D01*
X142010725Y-78000281D01*
X142201969Y-77879148D01*
X142343664Y-77702599D01*
X142420707Y-77489192D01*
X142422767Y-77253107D01*
X142349461Y-77038389D01*
X142210868Y-76859393D01*
X142021768Y-76734941D01*
X141802551Y-76678452D01*
X141694671Y-76686847D01*
X141696324Y-76497396D01*
X141623018Y-76282678D01*
X141484425Y-76103682D01*
X141295325Y-75979230D01*
X141076108Y-75922741D01*
X140850412Y-75940305D01*
X140642573Y-76030030D01*
X140475004Y-76182240D01*
X140365772Y-76380521D01*
X140326655Y-76603495D01*
X138285862Y-76603495D01*
X138274995Y-76571667D01*
X138136402Y-76392671D01*
X137947302Y-76268219D01*
X137728085Y-76211730D01*
X137502389Y-76229294D01*
X137294550Y-76319019D01*
X137126981Y-76471229D01*
X137017749Y-76669510D01*
X136978632Y-76892484D01*
X133706545Y-76892484D01*
X133774241Y-76704970D01*
X133776301Y-76468885D01*
X133702995Y-76254167D01*
X133564402Y-76075171D01*
X133375302Y-75950719D01*
X133156085Y-75894230D01*
X132930389Y-75911794D01*
X132827478Y-75956221D01*
X132894063Y-75910544D01*
X133059122Y-75745773D01*
X133168083Y-75587528D01*
X141617336Y-75587528D01*
X141652555Y-75811150D01*
X141758309Y-76011308D01*
X141923197Y-76166419D01*
X142129439Y-76259758D01*
X142354793Y-76281258D01*
X142574963Y-76228603D01*
X142766207Y-76107470D01*
X142907902Y-75930921D01*
X142984945Y-75717514D01*
X142987005Y-75481429D01*
X142913699Y-75266711D01*
X142775106Y-75087715D01*
X142586006Y-74963263D01*
X142366789Y-74906774D01*
X142141093Y-74924338D01*
X141933254Y-75014063D01*
X141765685Y-75166273D01*
X141656453Y-75364554D01*
X141617336Y-75587528D01*
X133168083Y-75587528D01*
X133191389Y-75553682D01*
X133286435Y-75340705D01*
X133341469Y-75112353D01*
X133349484Y-74816133D01*
X133306880Y-74585140D01*
X133223490Y-74367333D01*
X133101804Y-74168370D01*
X132945898Y-73994915D01*
X132760993Y-73852775D01*
X132553282Y-73746713D01*
X132329719Y-73680278D01*
X132124135Y-73658490D01*
X132261770Y-73651397D01*
X132488597Y-73597150D01*
X132701741Y-73502476D01*
X132894063Y-73370544D01*
X133059122Y-73205773D01*
X133191389Y-73013682D01*
X133286435Y-72800705D01*
X133341469Y-72572353D01*
X133347608Y-72345466D01*
X133390562Y-72426764D01*
X133555450Y-72581875D01*
X133761692Y-72675214D01*
X133987046Y-72696714D01*
X134207216Y-72644059D01*
X134398460Y-72522926D01*
X134540155Y-72346377D01*
X134617198Y-72132970D01*
X134619258Y-71896885D01*
X134545952Y-71682167D01*
X134407359Y-71503171D01*
X134218259Y-71378719D01*
X133999042Y-71322230D01*
X133773346Y-71339794D01*
X133565507Y-71429519D01*
X133397938Y-71581729D01*
X133288706Y-71780010D01*
X133262520Y-71929276D01*
X133223490Y-71827333D01*
X133101804Y-71628370D01*
X132945898Y-71454915D01*
X132760993Y-71312775D01*
X132553282Y-71206713D01*
X132329719Y-71140278D01*
X132124135Y-71118490D01*
X132261770Y-71111397D01*
X132488597Y-71057150D01*
X132701741Y-70962476D01*
X132894063Y-70830544D01*
X133059122Y-70665773D01*
X133191389Y-70473682D01*
X133252145Y-70337542D01*
X133249611Y-70351984D01*
X133284830Y-70575606D01*
X133390584Y-70775764D01*
X133555472Y-70930875D01*
X133761714Y-71024214D01*
X133987068Y-71045714D01*
X134207238Y-70993059D01*
X134398482Y-70871926D01*
X134540177Y-70695377D01*
X134617220Y-70481970D01*
X134619280Y-70245885D01*
X134545974Y-70031167D01*
X134504590Y-69977718D01*
X134540177Y-69933377D01*
X134617220Y-69719970D01*
X134619280Y-69483885D01*
X134545974Y-69269167D01*
X134407381Y-69090171D01*
X134218281Y-68965719D01*
X133999064Y-68909230D01*
X133773368Y-68926794D01*
X133565529Y-69016519D01*
X133397960Y-69168729D01*
X133288728Y-69367010D01*
X133277814Y-69429222D01*
X133223490Y-69287333D01*
X133101804Y-69088370D01*
X132945898Y-68914915D01*
X132832806Y-68827979D01*
X135938399Y-68827979D01*
X135973618Y-69051601D01*
X136079372Y-69251759D01*
X136244260Y-69406870D01*
X136450502Y-69500209D01*
X136675856Y-69521709D01*
X136896026Y-69469054D01*
X137011103Y-69396165D01*
X137157493Y-69533875D01*
X137260321Y-69580412D01*
X137148278Y-69628781D01*
X136980709Y-69780991D01*
X136871477Y-69979272D01*
X136832360Y-70202246D01*
X136867579Y-70425868D01*
X136973333Y-70626026D01*
X137055037Y-70702885D01*
X136953933Y-70794723D01*
X136844701Y-70993004D01*
X136805584Y-71215978D01*
X136840803Y-71439600D01*
X136946557Y-71639758D01*
X137111445Y-71794869D01*
X137317687Y-71888208D01*
X137543041Y-71909708D01*
X137763211Y-71857053D01*
X137954455Y-71735920D01*
X138096150Y-71559371D01*
X138173193Y-71345964D01*
X138175253Y-71109879D01*
X138101947Y-70895161D01*
X138060989Y-70842262D01*
X141482980Y-70842262D01*
X141554735Y-70874736D01*
X141716949Y-70890212D01*
X141731112Y-70980138D01*
X141836866Y-71180296D01*
X142001754Y-71335407D01*
X142207996Y-71428746D01*
X142433350Y-71450246D01*
X142653520Y-71397591D01*
X142776778Y-71319520D01*
X142942718Y-71394620D01*
X143168072Y-71416120D01*
X143388242Y-71363465D01*
X143579486Y-71242332D01*
X143721181Y-71065783D01*
X143798224Y-70852376D01*
X143800284Y-70616291D01*
X143784057Y-70568760D01*
X143940905Y-70583724D01*
X144161075Y-70531069D01*
X144352319Y-70409936D01*
X144494014Y-70233388D01*
X144530084Y-70133477D01*
X144611087Y-70141205D01*
X144831257Y-70088550D01*
X145022501Y-69967417D01*
X145164196Y-69790868D01*
X145241239Y-69577461D01*
X145241683Y-69526472D01*
X147710132Y-69526472D01*
X147745351Y-69750094D01*
X147851105Y-69950252D01*
X147856448Y-69955278D01*
X147816719Y-70027396D01*
X147777602Y-70250370D01*
X147812821Y-70473992D01*
X147918575Y-70674150D01*
X148083463Y-70829261D01*
X148289705Y-70922600D01*
X148515059Y-70944100D01*
X148735229Y-70891445D01*
X148926473Y-70770312D01*
X149068168Y-70593763D01*
X149145211Y-70380356D01*
X149147271Y-70144271D01*
X149073965Y-69929553D01*
X149009301Y-69846038D01*
X149077741Y-69656458D01*
X149079801Y-69420373D01*
X149006495Y-69205655D01*
X148876350Y-69037570D01*
X148974146Y-69014182D01*
X149165390Y-68893049D01*
X149307085Y-68716500D01*
X149312686Y-68700984D01*
X149551632Y-68700984D01*
X149586851Y-68924606D01*
X149692605Y-69124764D01*
X149857493Y-69279875D01*
X150063735Y-69373214D01*
X150289089Y-69394714D01*
X150509259Y-69342059D01*
X150700503Y-69220926D01*
X150842198Y-69044377D01*
X150919241Y-68830970D01*
X150921301Y-68594885D01*
X150847995Y-68380167D01*
X150709402Y-68201171D01*
X150520302Y-68076719D01*
X150301085Y-68020230D01*
X150075389Y-68037794D01*
X149867550Y-68127519D01*
X149699981Y-68279729D01*
X149590749Y-68478010D01*
X149551632Y-68700984D01*
X149312686Y-68700984D01*
X149384128Y-68503093D01*
X149386188Y-68267008D01*
X149312882Y-68052290D01*
X149252530Y-67974344D01*
X149282198Y-67937377D01*
X149359241Y-67723970D01*
X149361301Y-67487885D01*
X149287995Y-67273167D01*
X149149402Y-67094171D01*
X148960302Y-66969719D01*
X148741085Y-66913230D01*
X148515389Y-66930794D01*
X148307550Y-67020519D01*
X148139981Y-67172729D01*
X148030749Y-67371010D01*
X147991632Y-67593984D01*
X148026851Y-67817606D01*
X148130623Y-68014013D01*
X148055636Y-68150133D01*
X148016519Y-68373107D01*
X148051738Y-68596729D01*
X148157492Y-68796887D01*
X148229902Y-68865003D01*
X148026050Y-68953007D01*
X147858481Y-69105217D01*
X147749249Y-69303498D01*
X147710132Y-69526472D01*
X145241683Y-69526472D01*
X145243299Y-69341376D01*
X145169993Y-69126658D01*
X145031400Y-68947662D01*
X144842300Y-68823210D01*
X144623083Y-68766721D01*
X144397387Y-68784285D01*
X144189548Y-68874010D01*
X144021979Y-69026220D01*
X143919732Y-69211821D01*
X143727205Y-69226804D01*
X143519365Y-69316529D01*
X143486204Y-69346651D01*
X143439263Y-69315758D01*
X143220046Y-69259269D01*
X142994350Y-69276833D01*
X142786511Y-69366558D01*
X142618942Y-69518768D01*
X142509710Y-69717049D01*
X142470593Y-69940023D01*
X142493943Y-70088285D01*
X142445346Y-70075762D01*
X142406290Y-70078801D01*
X142338995Y-69881689D01*
X142200402Y-69702693D01*
X142044356Y-69599995D01*
X142092741Y-69465970D01*
X142094801Y-69229885D01*
X142021495Y-69015167D01*
X141882902Y-68836171D01*
X141693802Y-68711719D01*
X141474585Y-68655230D01*
X141248889Y-68672794D01*
X141041050Y-68762519D01*
X140873481Y-68914729D01*
X140764249Y-69113010D01*
X140725132Y-69335984D01*
X140760351Y-69559606D01*
X140768095Y-69574262D01*
X137843672Y-69574262D01*
X138000503Y-69474926D01*
X138142198Y-69298377D01*
X138219241Y-69084970D01*
X138221301Y-68848885D01*
X138147995Y-68634167D01*
X138009402Y-68455171D01*
X137820302Y-68330719D01*
X137601085Y-68274230D01*
X137375389Y-68291794D01*
X137167549Y-68381519D01*
X137149895Y-68397555D01*
X137096169Y-68328166D01*
X136907069Y-68203714D01*
X136687852Y-68147225D01*
X136462156Y-68164789D01*
X136254317Y-68254514D01*
X136086748Y-68406724D01*
X135977516Y-68605005D01*
X135938399Y-68827979D01*
X132832806Y-68827979D01*
X132760993Y-68772775D01*
X132553282Y-68666713D01*
X132329719Y-68600278D01*
X132124135Y-68578490D01*
X132261770Y-68571397D01*
X132488597Y-68517150D01*
X132701741Y-68422476D01*
X132894063Y-68290544D01*
X133059122Y-68125773D01*
X133191389Y-67933682D01*
X133286435Y-67720705D01*
X133341469Y-67492353D01*
X133346565Y-67303984D01*
X134057632Y-67303984D01*
X134092851Y-67527606D01*
X134198605Y-67727764D01*
X134363493Y-67882875D01*
X134569735Y-67976214D01*
X134795089Y-67997714D01*
X135015259Y-67945059D01*
X135206503Y-67823926D01*
X135348198Y-67647377D01*
X135425241Y-67433970D01*
X135427301Y-67197885D01*
X135353995Y-66983167D01*
X135215402Y-66804171D01*
X135026302Y-66679719D01*
X134807085Y-66623230D01*
X134581389Y-66640794D01*
X134373550Y-66730519D01*
X134205981Y-66882729D01*
X134096749Y-67081010D01*
X134057632Y-67303984D01*
X133346565Y-67303984D01*
X133349484Y-67196133D01*
X133306880Y-66965140D01*
X133223490Y-66747333D01*
X133101804Y-66548370D01*
X132945898Y-66374915D01*
X132760993Y-66232775D01*
X132553282Y-66126713D01*
X132329719Y-66060278D01*
X132124135Y-66038490D01*
X132211570Y-66033984D01*
X135327632Y-66033984D01*
X135362851Y-66257606D01*
X135450351Y-66423215D01*
X135385976Y-66540071D01*
X135346859Y-66763045D01*
X135382078Y-66986667D01*
X135487832Y-67186825D01*
X135652720Y-67341936D01*
X135858962Y-67435275D01*
X136084316Y-67456775D01*
X136304486Y-67404120D01*
X136495730Y-67282987D01*
X136637425Y-67106438D01*
X136714468Y-66893031D01*
X136716528Y-66656946D01*
X136643222Y-66442228D01*
X136605378Y-66393351D01*
X136618198Y-66377377D01*
X136695241Y-66163970D01*
X136697301Y-65927885D01*
X136623995Y-65713167D01*
X136485402Y-65534171D01*
X136296302Y-65409719D01*
X136077085Y-65353230D01*
X135851389Y-65370794D01*
X135643550Y-65460519D01*
X135475981Y-65612729D01*
X135366749Y-65811010D01*
X135327632Y-66033984D01*
X132211570Y-66033984D01*
X132261770Y-66031397D01*
X132488597Y-65977150D01*
X132701741Y-65882476D01*
X132894063Y-65750544D01*
X133059122Y-65585773D01*
X133191389Y-65393682D01*
X133286435Y-65180705D01*
X133341469Y-64952353D01*
X133349484Y-64656133D01*
X133322529Y-64509984D01*
X134629132Y-64509984D01*
X134664351Y-64733606D01*
X134770105Y-64933764D01*
X134934993Y-65088875D01*
X135141235Y-65182214D01*
X135366589Y-65203714D01*
X135586759Y-65151059D01*
X135778003Y-65029926D01*
X135919698Y-64853377D01*
X135996741Y-64639970D01*
X135998801Y-64403885D01*
X135925495Y-64189167D01*
X135786902Y-64010171D01*
X135597802Y-63885719D01*
X135378585Y-63829230D01*
X135152889Y-63846794D01*
X134945050Y-63936519D01*
X134777481Y-64088729D01*
X134668249Y-64287010D01*
X134629132Y-64509984D01*
X133322529Y-64509984D01*
X133306880Y-64425140D01*
X133223490Y-64207333D01*
X133101804Y-64008370D01*
X132945898Y-63834915D01*
X132760993Y-63692775D01*
X132553282Y-63586713D01*
X132329719Y-63520278D01*
X132175901Y-63503976D01*
X132981410Y-63503976D01*
X133117269Y-63476953D01*
X133242965Y-63392965D01*
X133326953Y-63267269D01*
X133353976Y-63131410D01*
X133353976Y-63091889D01*
X133525089Y-63108214D01*
X133745259Y-63055559D01*
X133936503Y-62934426D01*
X134078198Y-62757877D01*
X134155241Y-62544470D01*
X134155821Y-62477984D01*
X134649524Y-62477984D01*
X134684743Y-62701606D01*
X134790497Y-62901764D01*
X134955385Y-63056875D01*
X135161627Y-63150214D01*
X135386981Y-63171714D01*
X135607151Y-63119059D01*
X135701854Y-63059075D01*
X135903235Y-63150214D01*
X136128589Y-63171714D01*
X136348759Y-63119059D01*
X136540003Y-62997926D01*
X136681698Y-62821377D01*
X136758741Y-62607970D01*
X136760801Y-62371885D01*
X136687495Y-62157167D01*
X136548902Y-61978171D01*
X136359802Y-61853719D01*
X136140585Y-61797230D01*
X135914889Y-61814794D01*
X135707049Y-61904519D01*
X135702148Y-61908971D01*
X135618194Y-61853719D01*
X135398977Y-61797230D01*
X135173281Y-61814794D01*
X134965442Y-61904519D01*
X134797873Y-62056729D01*
X134688641Y-62255010D01*
X134649524Y-62477984D01*
X134155821Y-62477984D01*
X134157301Y-62308385D01*
X134083995Y-62093667D01*
X134042611Y-62040218D01*
X134078198Y-61995877D01*
X134155241Y-61782470D01*
X134157301Y-61546385D01*
X134086840Y-61340000D01*
X137067060Y-61340000D01*
X137017749Y-61429510D01*
X136978632Y-61652484D01*
X137013851Y-61876106D01*
X137119605Y-62076264D01*
X137284493Y-62231375D01*
X137490735Y-62324714D01*
X137716089Y-62346214D01*
X137936259Y-62293559D01*
X138041641Y-62226811D01*
X138046493Y-62231375D01*
X138252735Y-62324714D01*
X138478089Y-62346214D01*
X138698259Y-62293559D01*
X138803641Y-62226811D01*
X138808493Y-62231375D01*
X138874633Y-62261308D01*
X138818550Y-62285519D01*
X138650981Y-62437729D01*
X138541749Y-62636010D01*
X138502632Y-62858984D01*
X138536418Y-63073508D01*
X138391389Y-63084794D01*
X138183550Y-63174519D01*
X138015981Y-63326729D01*
X137906749Y-63525010D01*
X137867632Y-63747984D01*
X137902851Y-63971606D01*
X138008605Y-64171764D01*
X138036006Y-64197540D01*
X138015981Y-64215729D01*
X137967060Y-64304532D01*
X137967301Y-64276885D01*
X137893995Y-64062167D01*
X137755402Y-63883171D01*
X137566302Y-63758719D01*
X137347085Y-63702230D01*
X137121389Y-63719794D01*
X136913550Y-63809519D01*
X136745981Y-63961729D01*
X136636749Y-64160010D01*
X136597632Y-64382984D01*
X136632851Y-64606606D01*
X136738605Y-64806764D01*
X136903493Y-64961875D01*
X137109735Y-65055214D01*
X137335089Y-65076714D01*
X137555259Y-65024059D01*
X137746503Y-64902926D01*
X137882775Y-64733134D01*
X137902851Y-64860606D01*
X138008605Y-65060764D01*
X138036006Y-65086540D01*
X138015981Y-65104729D01*
X137906749Y-65303010D01*
X137867632Y-65525984D01*
X137902851Y-65749606D01*
X138008605Y-65949764D01*
X138173493Y-66104875D01*
X138379735Y-66198214D01*
X138605089Y-66219714D01*
X138825259Y-66167059D01*
X139016503Y-66045926D01*
X139026087Y-66033984D01*
X142249132Y-66033984D01*
X142284351Y-66257606D01*
X142390105Y-66457764D01*
X142554993Y-66612875D01*
X142761235Y-66706214D01*
X142986589Y-66727714D01*
X143206759Y-66675059D01*
X143312141Y-66608311D01*
X143316993Y-66612875D01*
X143523235Y-66706214D01*
X143748589Y-66727714D01*
X143968759Y-66675059D01*
X144160003Y-66553926D01*
X144301698Y-66377377D01*
X144378741Y-66163970D01*
X144378767Y-66160984D01*
X147265632Y-66160984D01*
X147300851Y-66384606D01*
X147406605Y-66584764D01*
X147571493Y-66739875D01*
X147777735Y-66833214D01*
X148003089Y-66854714D01*
X148223259Y-66802059D01*
X148404538Y-66687238D01*
X148460493Y-66739875D01*
X148666735Y-66833214D01*
X148892089Y-66854714D01*
X149112259Y-66802059D01*
X149217641Y-66735311D01*
X149222493Y-66739875D01*
X149428735Y-66833214D01*
X149632861Y-66852689D01*
X149692605Y-66965764D01*
X149857493Y-67120875D01*
X150063735Y-67214214D01*
X150289089Y-67235714D01*
X150509259Y-67183059D01*
X150700503Y-67061926D01*
X150842198Y-66885377D01*
X150919241Y-66671970D01*
X150921301Y-66435885D01*
X150847995Y-66221167D01*
X150709402Y-66042171D01*
X150520302Y-65917719D01*
X150301085Y-65861230D01*
X150222280Y-65867363D01*
X150212996Y-65840167D01*
X150074402Y-65661171D01*
X149885302Y-65536719D01*
X149666085Y-65480230D01*
X149440389Y-65497794D01*
X149232550Y-65587519D01*
X149219081Y-65599754D01*
X149123302Y-65536719D01*
X148904085Y-65480230D01*
X148678389Y-65497794D01*
X148470550Y-65587519D01*
X148403723Y-65648220D01*
X148234302Y-65536719D01*
X148015085Y-65480230D01*
X147789389Y-65497794D01*
X147581550Y-65587519D01*
X147413981Y-65739729D01*
X147304749Y-65938010D01*
X147265632Y-66160984D01*
X144378767Y-66160984D01*
X144380801Y-65927885D01*
X144307495Y-65713167D01*
X144168902Y-65534171D01*
X143979802Y-65409719D01*
X143760585Y-65353230D01*
X143534889Y-65370794D01*
X143327050Y-65460519D01*
X143313581Y-65472754D01*
X143217802Y-65409719D01*
X142998585Y-65353230D01*
X142772889Y-65370794D01*
X142565050Y-65460519D01*
X142397481Y-65612729D01*
X142288249Y-65811010D01*
X142249132Y-66033984D01*
X139026087Y-66033984D01*
X139158198Y-65869377D01*
X139235241Y-65655970D01*
X139235241Y-65655970D01*
G37*
X139235241Y-65655970D02*
X139237301Y-65419885D01*
X139163995Y-65205167D01*
X139072561Y-65087078D01*
X139158198Y-64980377D01*
X139235241Y-64766970D01*
X139237301Y-64530885D01*
X139163995Y-64316167D01*
X139072561Y-64198078D01*
X139158198Y-64091377D01*
X139235241Y-63877970D01*
X139237301Y-63641885D01*
X139205739Y-63549437D01*
X139240089Y-63552714D01*
X139460259Y-63500059D01*
X139651503Y-63378926D01*
X139793198Y-63202377D01*
X139870241Y-62988970D01*
X139872301Y-62752885D01*
X139798995Y-62538167D01*
X139660402Y-62359171D01*
X139511445Y-62261138D01*
X139565641Y-62226811D01*
X139570493Y-62231375D01*
X139776735Y-62324714D01*
X140002089Y-62346214D01*
X140222259Y-62293559D01*
X140327641Y-62226811D01*
X140332493Y-62231375D01*
X140538735Y-62324714D01*
X140764089Y-62346214D01*
X140984259Y-62293559D01*
X141089641Y-62226811D01*
X141094493Y-62231375D01*
X141300735Y-62324714D01*
X141526089Y-62346214D01*
X141746259Y-62293559D01*
X141927538Y-62178738D01*
X141983493Y-62231375D01*
X142189735Y-62324714D01*
X142313318Y-62336504D01*
X142288249Y-62382010D01*
X142249132Y-62604984D01*
X142284351Y-62828606D01*
X142390105Y-63028764D01*
X142554874Y-63183763D01*
X142397481Y-63326729D01*
X142288249Y-63525010D01*
X142249132Y-63747984D01*
X142284351Y-63971606D01*
X142390105Y-64171764D01*
X142554993Y-64326875D01*
X142761235Y-64420214D01*
X142986589Y-64441714D01*
X143141019Y-64404781D01*
X143152105Y-64425764D01*
X143316993Y-64580875D01*
X143523235Y-64674214D01*
X143748589Y-64695714D01*
X143968759Y-64643059D01*
X144160003Y-64521926D01*
X144301698Y-64345377D01*
X144378741Y-64131970D01*
X144380801Y-63895885D01*
X144307495Y-63681167D01*
X144168902Y-63502171D01*
X143979802Y-63377719D01*
X143760585Y-63321230D01*
X143534889Y-63338794D01*
X143491554Y-63357501D01*
X143406902Y-63248171D01*
X143307112Y-63182496D01*
X143398003Y-63124926D01*
X143539698Y-62948377D01*
X143616741Y-62734970D01*
X143618801Y-62498885D01*
X143545495Y-62284167D01*
X143406902Y-62105171D01*
X143217802Y-61980719D01*
X142998585Y-61924230D01*
X142993933Y-61924592D01*
X143045241Y-61782470D01*
X143047301Y-61546385D01*
X142976840Y-61340000D01*
X143353560Y-61340000D01*
X143304249Y-61429510D01*
X143265132Y-61652484D01*
X143300351Y-61876106D01*
X143406105Y-62076264D01*
X143570993Y-62231375D01*
X143777235Y-62324714D01*
X144002589Y-62346214D01*
X144222759Y-62293559D01*
X144328141Y-62226811D01*
X144332993Y-62231375D01*
X144539235Y-62324714D01*
X144764589Y-62346214D01*
X144984759Y-62293559D01*
X145176003Y-62172426D01*
X145317698Y-61995877D01*
X145394741Y-61782470D01*
X145396801Y-61546385D01*
X145326340Y-61340000D01*
X147608060Y-61340000D01*
X147558749Y-61429510D01*
X147519632Y-61652484D01*
X147554851Y-61876106D01*
X147660605Y-62076264D01*
X147825493Y-62231375D01*
X148031735Y-62324714D01*
X148257089Y-62346214D01*
X148477259Y-62293559D01*
X148582641Y-62226811D01*
X148587493Y-62231375D01*
X148793735Y-62324714D01*
X148941055Y-62338769D01*
X148916632Y-62477984D01*
X148951851Y-62701606D01*
X149057605Y-62901764D01*
X149222493Y-63056875D01*
X149360443Y-63119307D01*
X149232550Y-63174519D01*
X149064981Y-63326729D01*
X148955749Y-63525010D01*
X148916632Y-63747984D01*
X148951851Y-63971606D01*
X149057605Y-64171764D01*
X149222493Y-64326875D01*
X149428735Y-64420214D01*
X149559460Y-64432686D01*
X149586851Y-64606606D01*
X149692605Y-64806764D01*
X149857493Y-64961875D01*
X150063735Y-65055214D01*
X150289089Y-65076714D01*
X150509259Y-65024059D01*
X150700503Y-64902926D01*
X150842198Y-64726377D01*
X150919241Y-64512970D01*
X150919759Y-64453611D01*
X150923853Y-64479606D01*
X151029607Y-64679764D01*
X151194495Y-64834875D01*
X151400737Y-64928214D01*
X151626091Y-64949714D01*
X151846261Y-64897059D01*
X152037505Y-64775926D01*
X152145329Y-64641579D01*
X152232605Y-64806764D01*
X152397493Y-64961875D01*
X152603735Y-65055214D01*
X152829089Y-65076714D01*
X153049259Y-65024059D01*
X153240503Y-64902926D01*
X153382198Y-64726377D01*
X153459241Y-64512970D01*
X153461301Y-64276885D01*
X153387995Y-64062167D01*
X153249402Y-63883171D01*
X153060302Y-63758719D01*
X152841085Y-63702230D01*
X152615389Y-63719794D01*
X152407550Y-63809519D01*
X152239981Y-63961729D01*
X152211633Y-64013187D01*
X152184997Y-63935167D01*
X152046404Y-63756171D01*
X151857304Y-63631719D01*
X151638087Y-63575230D01*
X151473454Y-63588042D01*
X151477198Y-63583377D01*
X151554241Y-63369970D01*
X151556301Y-63133885D01*
X151482995Y-62919167D01*
X151344402Y-62740171D01*
X151218846Y-62657539D01*
X151236741Y-62607969D01*
X151238801Y-62371885D01*
X151165495Y-62157167D01*
X151099086Y-62071398D01*
X151159698Y-61995878D01*
X151236741Y-61782470D01*
X151238801Y-61546385D01*
X151168340Y-61340000D01*
X153666024Y-61340000D01*
X153666024Y-63131410D01*
X153693047Y-63267269D01*
X153777035Y-63392965D01*
X153902731Y-63476953D01*
X154038590Y-63503976D01*
X154851421Y-63503976D01*
X154725273Y-63513793D01*
X154499943Y-63573960D01*
X154289351Y-63674181D01*
X154100549Y-63811102D01*
X153939860Y-63980137D01*
X153812666Y-64175625D01*
X153723227Y-64391018D01*
X153674538Y-64619103D01*
X153668230Y-64852241D01*
X153704513Y-65082626D01*
X153782173Y-65302541D01*
X153898609Y-65504620D01*
X154049921Y-65682098D01*
X154231041Y-65829029D01*
X154435906Y-65940493D01*
X154657652Y-66012756D01*
X154877745Y-66041927D01*
X154725273Y-66053793D01*
X154499943Y-66113960D01*
X154289351Y-66214181D01*
X154100549Y-66351102D01*
X153939860Y-66520137D01*
X153812666Y-66715625D01*
X153723227Y-66931018D01*
X153674538Y-67159103D01*
X153668230Y-67392241D01*
X153704513Y-67622626D01*
X153782173Y-67842541D01*
X153898609Y-68044620D01*
X154049921Y-68222098D01*
X154231041Y-68369029D01*
X154435906Y-68480493D01*
X154657652Y-68552756D01*
X154877745Y-68581927D01*
X154725273Y-68593793D01*
X154499943Y-68653960D01*
X154289351Y-68754181D01*
X154100549Y-68891102D01*
X153939860Y-69060137D01*
X153812666Y-69255625D01*
X153723227Y-69471018D01*
X153674538Y-69699103D01*
X153668230Y-69932241D01*
X153704513Y-70162626D01*
X153782173Y-70382541D01*
X153898609Y-70584620D01*
X154049921Y-70762098D01*
X154231041Y-70909029D01*
X154435906Y-71020493D01*
X154657652Y-71092756D01*
X154877745Y-71121927D01*
X154725273Y-71133793D01*
X154499943Y-71193960D01*
X154289351Y-71294181D01*
X154100549Y-71431102D01*
X153939860Y-71600137D01*
X153812666Y-71795625D01*
X153723227Y-72011018D01*
X153674538Y-72239103D01*
X153668230Y-72472241D01*
X153704513Y-72702626D01*
X153782173Y-72922541D01*
X153898609Y-73124620D01*
X154049921Y-73302098D01*
X154231041Y-73449029D01*
X154435906Y-73560493D01*
X154657652Y-73632756D01*
X154877745Y-73661927D01*
X154725273Y-73673793D01*
X154499943Y-73733960D01*
X154289351Y-73834181D01*
X154100549Y-73971102D01*
X153939860Y-74140137D01*
X153812666Y-74335625D01*
X153723227Y-74551018D01*
X153674538Y-74779103D01*
X153668230Y-75012241D01*
X153704513Y-75242626D01*
X153782173Y-75462541D01*
X153898609Y-75664620D01*
X153924522Y-75695014D01*
X153907509Y-75690630D01*
X153681813Y-75708194D01*
X153621631Y-75734175D01*
X153605006Y-75685480D01*
X153466413Y-75506484D01*
X153277313Y-75382032D01*
X153058096Y-75325543D01*
X152832400Y-75343107D01*
X152624561Y-75432832D01*
X152456992Y-75585042D01*
X152347760Y-75783323D01*
X152308643Y-76006297D01*
X152343862Y-76229919D01*
X152449616Y-76430077D01*
X152614504Y-76585188D01*
X152820746Y-76678527D01*
X153046100Y-76700027D01*
X153226028Y-76656996D01*
X153299029Y-76795164D01*
X153310586Y-76806035D01*
X153222085Y-76783230D01*
X152996389Y-76800794D01*
X152788550Y-76890519D01*
X152620981Y-77042729D01*
X152511749Y-77241010D01*
X152472632Y-77463984D01*
X152507851Y-77687606D01*
X152613605Y-77887764D01*
X152778493Y-78042875D01*
X152984735Y-78136214D01*
X153210089Y-78157714D01*
X153430259Y-78105059D01*
X153621503Y-77983926D01*
X153728514Y-77850592D01*
X153782173Y-78002541D01*
X153898609Y-78204620D01*
X154049921Y-78382098D01*
X154231041Y-78529029D01*
X154435906Y-78640493D01*
X154657652Y-78712756D01*
X154877745Y-78741927D01*
X154725273Y-78753793D01*
X154499943Y-78813960D01*
X154289351Y-78914181D01*
X154100549Y-79051102D01*
X153939860Y-79220137D01*
X153812666Y-79415625D01*
X153723227Y-79631018D01*
X153674538Y-79859103D01*
X153671882Y-79957255D01*
X153566902Y-79821671D01*
X153377802Y-79697219D01*
X153158585Y-79640730D01*
X152932889Y-79658294D01*
X152725050Y-79748019D01*
X152557481Y-79900229D01*
X152448249Y-80098510D01*
X152409132Y-80321484D01*
X152444351Y-80545106D01*
X152550105Y-80745264D01*
X152714993Y-80900375D01*
X152921235Y-80993714D01*
X153146589Y-81015214D01*
X153366759Y-80962559D01*
X153558003Y-80841426D01*
X153699698Y-80664877D01*
X153763229Y-80488897D01*
X153782173Y-80542541D01*
X153898609Y-80744620D01*
X154049921Y-80922098D01*
X154231041Y-81069029D01*
X154435906Y-81180493D01*
X154657652Y-81252756D01*
X154877745Y-81281927D01*
X154725273Y-81293793D01*
X154499943Y-81353960D01*
X154289351Y-81454181D01*
X154100549Y-81591102D01*
X153939860Y-81760137D01*
X153892747Y-81832547D01*
X153894764Y-81601348D01*
X153821458Y-81386630D01*
X153682865Y-81207634D01*
X153493765Y-81083182D01*
X153274548Y-81026693D01*
X153048852Y-81044257D01*
X152841013Y-81133982D01*
X152673444Y-81286192D01*
X152564212Y-81484473D01*
X152525095Y-81707447D01*
X152560314Y-81931069D01*
X152666068Y-82131227D01*
X152830956Y-82286338D01*
X153037198Y-82379677D01*
X153262552Y-82401177D01*
X153482722Y-82348522D01*
X153673966Y-82227389D01*
X153727535Y-82160643D01*
X153723227Y-82171018D01*
X153674538Y-82399103D01*
X153668230Y-82632241D01*
X153704513Y-82862626D01*
X153782173Y-83082541D01*
X153898609Y-83284620D01*
X154049921Y-83462098D01*
X154231041Y-83609029D01*
X154435906Y-83720493D01*
X154657652Y-83792756D01*
X154877745Y-83821927D01*
X154725273Y-83833793D01*
X154499943Y-83893960D01*
X154289351Y-83994181D01*
X154100549Y-84131102D01*
X153939860Y-84300137D01*
X153812666Y-84495625D01*
X153723227Y-84711018D01*
X153718309Y-84734058D01*
X153666585Y-84720730D01*
X153440889Y-84738294D01*
X153420101Y-84747268D01*
X153302157Y-84594940D01*
X153113057Y-84470488D01*
X152893840Y-84413999D01*
X152668144Y-84431563D01*
X152460305Y-84521288D01*
X152292736Y-84673498D01*
X152183504Y-84871779D01*
X152144387Y-85094753D01*
X152179606Y-85318375D01*
X152285360Y-85518533D01*
X152380901Y-85608409D01*
X152303481Y-85678733D01*
X152194249Y-85877014D01*
X152155132Y-86099988D01*
X152190351Y-86323610D01*
X152296105Y-86523768D01*
X152460993Y-86678879D01*
X152667235Y-86772218D01*
X152892589Y-86793718D01*
X153112759Y-86741063D01*
X153304003Y-86619930D01*
X153445698Y-86443381D01*
X153522741Y-86229974D01*
X153524026Y-86082758D01*
X153654589Y-86095214D01*
X153874759Y-86042559D01*
X154010899Y-85956329D01*
X154049921Y-86002098D01*
X154231041Y-86149029D01*
X154435906Y-86260493D01*
X154657652Y-86332756D01*
X154833205Y-86356024D01*
X154038590Y-86356024D01*
X153902731Y-86383047D01*
X153777035Y-86467035D01*
X153693047Y-86592731D01*
X153666024Y-86728590D01*
X153666024Y-87578274D01*
X153440889Y-87595794D01*
X153233050Y-87685519D01*
X153065481Y-87837729D01*
X152956249Y-88036010D01*
X152945395Y-88097879D01*
X152869389Y-88103794D01*
X152661550Y-88193519D01*
X152493981Y-88345729D01*
X152384749Y-88544010D01*
X152345632Y-88766984D01*
X152380851Y-88990606D01*
X152486605Y-89190764D01*
X152651493Y-89345875D01*
X152857734Y-89439213D01*
X152944298Y-89447472D01*
X152952351Y-89498606D01*
X153058105Y-89698764D01*
X153222993Y-89853875D01*
X153429235Y-89947214D01*
X153654589Y-89968714D01*
X153686946Y-89960976D01*
X153674538Y-90019103D01*
X153668230Y-90252241D01*
X153694253Y-90417482D01*
X153550550Y-90479519D01*
X153537081Y-90491754D01*
X153441302Y-90428719D01*
X153222085Y-90372230D01*
X152996389Y-90389794D01*
X152788550Y-90479519D01*
X152620981Y-90631729D01*
X152511749Y-90830010D01*
X152472632Y-91052984D01*
X152507851Y-91276606D01*
X152594822Y-91441213D01*
X152511749Y-91592010D01*
X152472632Y-91814984D01*
X152507851Y-92038606D01*
X152613605Y-92238764D01*
X152778493Y-92393875D01*
X152984735Y-92487214D01*
X153210089Y-92508714D01*
X153430259Y-92456059D01*
X153535641Y-92389311D01*
X153540493Y-92393875D01*
X153694892Y-92463752D01*
X153674538Y-92559103D01*
X153668230Y-92792241D01*
X153704513Y-93022626D01*
X153782173Y-93242541D01*
X153898609Y-93444620D01*
X154049921Y-93622098D01*
X154231041Y-93769029D01*
X154435906Y-93880493D01*
X154657652Y-93952756D01*
X154877745Y-93981927D01*
X154725273Y-93993793D01*
X154499943Y-94053960D01*
X154289351Y-94154181D01*
X154100549Y-94291102D01*
X153939860Y-94460137D01*
X153812666Y-94655625D01*
X153723227Y-94871018D01*
X153678000Y-95082885D01*
X153678000Y-94470827D01*
X153660781Y-94312319D01*
X153592866Y-94110514D01*
X153483200Y-93928000D01*
X153336902Y-93773294D01*
X153160793Y-93653611D01*
X152963094Y-93574538D01*
X152753027Y-93539760D01*
X152540392Y-93550904D01*
X152335111Y-93607448D01*
X152146761Y-93706755D01*
X151984128Y-93844190D01*
X151854802Y-94013343D01*
X151763306Y-94209556D01*
X151718000Y-94483228D01*
X151718000Y-95177173D01*
X151735219Y-95335681D01*
X151803135Y-95537486D01*
X151912801Y-95720000D01*
X152059099Y-95874706D01*
X152235207Y-95994389D01*
X152432906Y-96073462D01*
X152642973Y-96108240D01*
X152855608Y-96097096D01*
X153060889Y-96040552D01*
X153249239Y-95941245D01*
X153411871Y-95803810D01*
X153541198Y-95634659D01*
X153632694Y-95438445D01*
X153671738Y-95202601D01*
X153668230Y-95332241D01*
X153704513Y-95562626D01*
X153782173Y-95782541D01*
X153825554Y-95857831D01*
X153730085Y-95833230D01*
X153504389Y-95850794D01*
X153296550Y-95940519D01*
X153128981Y-96092729D01*
X153019749Y-96291010D01*
X152980632Y-96513984D01*
X153015851Y-96737606D01*
X153121605Y-96937764D01*
X153286493Y-97092875D01*
X153492735Y-97186214D01*
X153718089Y-97207714D01*
X153820780Y-97183155D01*
X153812666Y-97195625D01*
X153723227Y-97411018D01*
X153674538Y-97639103D01*
X153668692Y-97855148D01*
X153660781Y-97782319D01*
X153592866Y-97580514D01*
X153483200Y-97398000D01*
X153336902Y-97243294D01*
X153160793Y-97123611D01*
X152963094Y-97044538D01*
X152753027Y-97009760D01*
X152540392Y-97020904D01*
X152335111Y-97077448D01*
X152146761Y-97176755D01*
X151984128Y-97314190D01*
X151854802Y-97483343D01*
X151763306Y-97679556D01*
X151718000Y-97953228D01*
X151718000Y-98647173D01*
X151735219Y-98805681D01*
X151803135Y-99007486D01*
X151912801Y-99190000D01*
X152059099Y-99344706D01*
X152235207Y-99464389D01*
X152432906Y-99543462D01*
X152642973Y-99578240D01*
X152855608Y-99567096D01*
X153060889Y-99510552D01*
X153249239Y-99411245D01*
X153411871Y-99273810D01*
X153541198Y-99104659D01*
X153632694Y-98908445D01*
X153678000Y-98634773D01*
X153678000Y-97940827D01*
X153675706Y-97919714D01*
X153704513Y-98102626D01*
X153782173Y-98322541D01*
X153898609Y-98524620D01*
X154049921Y-98702098D01*
X154231041Y-98849029D01*
X154435906Y-98960493D01*
X154657652Y-99032756D01*
X154877745Y-99061927D01*
X154725273Y-99073793D01*
X154499943Y-99133960D01*
X154289351Y-99234181D01*
X154100549Y-99371102D01*
X153939860Y-99540137D01*
X153812666Y-99735625D01*
X153723227Y-99951018D01*
X153674538Y-100179103D01*
X153668230Y-100412241D01*
X153670770Y-100428370D01*
X153457168Y-100214768D01*
X153435965Y-100183035D01*
X153310269Y-100099047D01*
X153199427Y-100077000D01*
X153199425Y-100077000D01*
X153162000Y-100069556D01*
X153124575Y-100077000D01*
X145071425Y-100077000D01*
X145033999Y-100069555D01*
X144996573Y-100077000D01*
X144885731Y-100099047D01*
X144760035Y-100183035D01*
X144738832Y-100214768D01*
X143733601Y-101220000D01*
X134946386Y-101220000D01*
X134968999Y-101135606D01*
X134968999Y-100943394D01*
X134919251Y-100757731D01*
X134823145Y-100591270D01*
X134687230Y-100455355D01*
X134520769Y-100359249D01*
X134335106Y-100309501D01*
X134142894Y-100309501D01*
X133957231Y-100359249D01*
X133790770Y-100455355D01*
X133654855Y-100591270D01*
X133558749Y-100757731D01*
X133509001Y-100943394D01*
X133509001Y-101135606D01*
X133531614Y-101220000D01*
X131190000Y-101220000D01*
X131190000Y-99143394D01*
X133509001Y-99143394D01*
X133509001Y-99335606D01*
X133558749Y-99521269D01*
X133654855Y-99687730D01*
X133790770Y-99823645D01*
X133957231Y-99919751D01*
X134142894Y-99969499D01*
X134335106Y-99969499D01*
X134520769Y-99919751D01*
X134687230Y-99823645D01*
X134823145Y-99687730D01*
X134919251Y-99521269D01*
X134968999Y-99335606D01*
X134968999Y-99143394D01*
X134919251Y-98957731D01*
X134823145Y-98791270D01*
X134687230Y-98655355D01*
X134520769Y-98559249D01*
X134335106Y-98509501D01*
X134142894Y-98509501D01*
X133957231Y-98559249D01*
X133790770Y-98655355D01*
X133654855Y-98791270D01*
X133558749Y-98957731D01*
X133509001Y-99143394D01*
X131190000Y-99143394D01*
X131190000Y-94547533D01*
X131267735Y-94582714D01*
X131493089Y-94604214D01*
X131713259Y-94551559D01*
X131843652Y-94468969D01*
X131954582Y-94573322D01*
X132160824Y-94666661D01*
X132386178Y-94688161D01*
X132606348Y-94635506D01*
X132797592Y-94514373D01*
X132939287Y-94337824D01*
X133016330Y-94124417D01*
X133018390Y-93888332D01*
X132945084Y-93673614D01*
X132930235Y-93654436D01*
X133059122Y-93525773D01*
X133191389Y-93333682D01*
X133286435Y-93120705D01*
X133341469Y-92892353D01*
X133349484Y-92596133D01*
X133306880Y-92365140D01*
X133223490Y-92147333D01*
X133101804Y-91948370D01*
X132945898Y-91774915D01*
X132760993Y-91632775D01*
X132553282Y-91526713D01*
X132329719Y-91460278D01*
X132124135Y-91438490D01*
X132261770Y-91431397D01*
X132488597Y-91377150D01*
X132701741Y-91282476D01*
X132894063Y-91150544D01*
X133059122Y-90985773D01*
X133191389Y-90793682D01*
X133286435Y-90580705D01*
X133341469Y-90352353D01*
X133349484Y-90056133D01*
X133306880Y-89825140D01*
X133223490Y-89607333D01*
X133101804Y-89408370D01*
X133070823Y-89373901D01*
X133214642Y-89373901D01*
X133249861Y-89597523D01*
X133355615Y-89797681D01*
X133520503Y-89952792D01*
X133726745Y-90046131D01*
X133952099Y-90067631D01*
X134172269Y-90014976D01*
X134363513Y-89893843D01*
X134505208Y-89717294D01*
X134582251Y-89503887D01*
X134584311Y-89267802D01*
X134511005Y-89053084D01*
X134372412Y-88874088D01*
X134183312Y-88749636D01*
X133964095Y-88693147D01*
X133738399Y-88710711D01*
X133530560Y-88800436D01*
X133362991Y-88952646D01*
X133253759Y-89150927D01*
X133214642Y-89373901D01*
X133070823Y-89373901D01*
X132945898Y-89234915D01*
X132760993Y-89092775D01*
X132553282Y-88986713D01*
X132329719Y-88920278D01*
X132175901Y-88903976D01*
X132981410Y-88903976D01*
X133117269Y-88876953D01*
X133242965Y-88792965D01*
X133326953Y-88667269D01*
X133353976Y-88531410D01*
X133353976Y-88518000D01*
X134506179Y-88518000D01*
X135129000Y-89140822D01*
X135129001Y-93029615D01*
X135129000Y-93029622D01*
X135129001Y-94400656D01*
X134914311Y-94417363D01*
X134706472Y-94507088D01*
X134538903Y-94659298D01*
X134523472Y-94687309D01*
X134520769Y-94685749D01*
X134335106Y-94636001D01*
X134142894Y-94636001D01*
X133957231Y-94685749D01*
X133790770Y-94781855D01*
X133654855Y-94917770D01*
X133576895Y-95052802D01*
X133575995Y-95050167D01*
X133437402Y-94871171D01*
X133248302Y-94746719D01*
X133029085Y-94690230D01*
X132803389Y-94707794D01*
X132595550Y-94797519D01*
X132427981Y-94949729D01*
X132318749Y-95148010D01*
X132279632Y-95370984D01*
X132314851Y-95594606D01*
X132401822Y-95759213D01*
X132318749Y-95910010D01*
X132279632Y-96132984D01*
X132314851Y-96356606D01*
X132401822Y-96521213D01*
X132318749Y-96672010D01*
X132279632Y-96894984D01*
X132314851Y-97118606D01*
X132420605Y-97318764D01*
X132475752Y-97370641D01*
X132422389Y-97374794D01*
X132214550Y-97464519D01*
X132046981Y-97616729D01*
X131937749Y-97815010D01*
X131898632Y-98037984D01*
X131933851Y-98261606D01*
X132039605Y-98461764D01*
X132204493Y-98616875D01*
X132410735Y-98710214D01*
X132636089Y-98731714D01*
X132856259Y-98679059D01*
X133047503Y-98557926D01*
X133189198Y-98381377D01*
X133266241Y-98167970D01*
X133268301Y-97931885D01*
X133194995Y-97717167D01*
X133083280Y-97572884D01*
X133237259Y-97536059D01*
X133428503Y-97414926D01*
X133519552Y-97301481D01*
X133558749Y-97447769D01*
X133654855Y-97614230D01*
X133790770Y-97750145D01*
X133957231Y-97846251D01*
X134142894Y-97895999D01*
X134335106Y-97895999D01*
X134432811Y-97869819D01*
X134434353Y-97880586D01*
X134440019Y-97971925D01*
X134452309Y-98005966D01*
X134457439Y-98041791D01*
X134495312Y-98125086D01*
X134526523Y-98211541D01*
X134547526Y-98239927D01*
X134562721Y-98273344D01*
X134630225Y-98351686D01*
X134646899Y-98374219D01*
X134666720Y-98394040D01*
X134728757Y-98466037D01*
X134757062Y-98484383D01*
X135522705Y-99250027D01*
X135537769Y-99273903D01*
X135613198Y-99340519D01*
X135638083Y-99365405D01*
X135659832Y-99381705D01*
X135728421Y-99442281D01*
X135761181Y-99457662D01*
X135790143Y-99479367D01*
X135875830Y-99511489D01*
X135959025Y-99550549D01*
X135993944Y-99555767D01*
X136028318Y-99568653D01*
X136131442Y-99576317D01*
X136159172Y-99580461D01*
X136187211Y-99580461D01*
X136281978Y-99587503D01*
X136314967Y-99580461D01*
X138745016Y-99580461D01*
X138718956Y-99627089D01*
X138652613Y-99836226D01*
X138629679Y-100054431D01*
X138651089Y-100272790D01*
X138715970Y-100482386D01*
X138821670Y-100674653D01*
X138963872Y-100841740D01*
X139136767Y-100976820D01*
X139333292Y-101074375D01*
X139545420Y-101130422D01*
X139764484Y-101142670D01*
X139981538Y-101110619D01*
X140187713Y-101035577D01*
X140374587Y-100920610D01*
X140534528Y-100770416D01*
X140659724Y-100592939D01*
X140659724Y-100768090D01*
X140686747Y-100903949D01*
X140770735Y-101029645D01*
X140896431Y-101113633D01*
X141032290Y-101140656D01*
X142457110Y-101140656D01*
X142592969Y-101113633D01*
X142718665Y-101029645D01*
X142802653Y-100903949D01*
X142829676Y-100768090D01*
X142829676Y-99580461D01*
X142965255Y-99580461D01*
X142992791Y-99586692D01*
X143093220Y-99580461D01*
X143128426Y-99580461D01*
X143155329Y-99576608D01*
X143246663Y-99570942D01*
X143280705Y-99558652D01*
X143316531Y-99553522D01*
X143399835Y-99515645D01*
X143486280Y-99484438D01*
X143514661Y-99463438D01*
X143548082Y-99448242D01*
X143626433Y-99380731D01*
X143648959Y-99364061D01*
X143668772Y-99344248D01*
X143740776Y-99282205D01*
X143759126Y-99253894D01*
X144518000Y-98495021D01*
X144518000Y-98647173D01*
X144535219Y-98805681D01*
X144603135Y-99007486D01*
X144712801Y-99190000D01*
X144859099Y-99344706D01*
X145035207Y-99464389D01*
X145232906Y-99543462D01*
X145442973Y-99578240D01*
X145655608Y-99567096D01*
X145860889Y-99510552D01*
X146049239Y-99411245D01*
X146211871Y-99273810D01*
X146341198Y-99104659D01*
X146388781Y-99002617D01*
X146444235Y-99027714D01*
X146669589Y-99049214D01*
X146889759Y-98996559D01*
X147081003Y-98875426D01*
X147222698Y-98698877D01*
X147299741Y-98485470D01*
X147301801Y-98249385D01*
X147228495Y-98034667D01*
X147089902Y-97855671D01*
X146900802Y-97731219D01*
X146681585Y-97674730D01*
X146455889Y-97692294D01*
X146433707Y-97701870D01*
X146392866Y-97580514D01*
X146320496Y-97460070D01*
X146327960Y-97459001D01*
X146575936Y-97459001D01*
X146603289Y-97466330D01*
X146687063Y-97459001D01*
X147397212Y-97459001D01*
X147480989Y-97466330D01*
X147562226Y-97444563D01*
X147645066Y-97429956D01*
X147669597Y-97415793D01*
X147696953Y-97408462D01*
X147765840Y-97360227D01*
X147838694Y-97318165D01*
X147852252Y-97302007D01*
X147861106Y-97318764D01*
X148025993Y-97473875D01*
X148232235Y-97567214D01*
X148457589Y-97588714D01*
X148677759Y-97536059D01*
X148766374Y-97479931D01*
X148959235Y-97567214D01*
X149184589Y-97588714D01*
X149369737Y-97544435D01*
X149361132Y-97593484D01*
X149396351Y-97817106D01*
X149502105Y-98017264D01*
X149666993Y-98172375D01*
X149873235Y-98265714D01*
X150098589Y-98287214D01*
X150318759Y-98234559D01*
X150510003Y-98113426D01*
X150651698Y-97936877D01*
X150728741Y-97723470D01*
X150730801Y-97487385D01*
X150657495Y-97272667D01*
X150616111Y-97219218D01*
X150651698Y-97174877D01*
X150728741Y-96961470D01*
X150730801Y-96725385D01*
X150727349Y-96715274D01*
X150773649Y-96748913D01*
X150948270Y-96813854D01*
X151133923Y-96829444D01*
X151316929Y-96794534D01*
X151483806Y-96711695D01*
X151622258Y-96587032D01*
X151722086Y-96429729D01*
X151776128Y-96250730D01*
X151778215Y-96051495D01*
X151727933Y-95871404D01*
X151631421Y-95712044D01*
X151560238Y-95645199D01*
X151635231Y-95437470D01*
X151637291Y-95201385D01*
X151563985Y-94986667D01*
X151497576Y-94900898D01*
X151558188Y-94825378D01*
X151635231Y-94611970D01*
X151637291Y-94375885D01*
X151563985Y-94161167D01*
X151425392Y-93982171D01*
X151236292Y-93857719D01*
X151017075Y-93801230D01*
X150791379Y-93818794D01*
X150583540Y-93908519D01*
X150415971Y-94060729D01*
X150306739Y-94259010D01*
X150267622Y-94481984D01*
X150302841Y-94705606D01*
X150406937Y-94902627D01*
X150306739Y-95084510D01*
X150267622Y-95307484D01*
X150302841Y-95531106D01*
X150408595Y-95731264D01*
X150499358Y-95816645D01*
X150438869Y-95952505D01*
X150411653Y-96136812D01*
X150428777Y-96272357D01*
X150329802Y-96207219D01*
X150110585Y-96150730D01*
X149884889Y-96168294D01*
X149677050Y-96258019D01*
X149559183Y-96365082D01*
X149415802Y-96270719D01*
X149196585Y-96214230D01*
X148970889Y-96231794D01*
X148764826Y-96320752D01*
X148688802Y-96270719D01*
X148469585Y-96214230D01*
X148413001Y-96218634D01*
X148413001Y-95685878D01*
X148420331Y-95602093D01*
X148398561Y-95520845D01*
X148383956Y-95438016D01*
X148369794Y-95413486D01*
X148362463Y-95386128D01*
X148314219Y-95317228D01*
X148272164Y-95244387D01*
X148260277Y-95234413D01*
X148257664Y-95229887D01*
X148193233Y-95175823D01*
X148173586Y-95156175D01*
X148159049Y-95145996D01*
X147398690Y-94385638D01*
X147376296Y-94350955D01*
X147318233Y-94305181D01*
X147306840Y-94293788D01*
X147274125Y-94270409D01*
X147192834Y-94206324D01*
X147179745Y-94202964D01*
X147168232Y-94194736D01*
X146949813Y-94129416D01*
X146848399Y-94133400D01*
X146600329Y-94133400D01*
X146592683Y-94131430D01*
X146567369Y-94133400D01*
X146562643Y-94133400D01*
X146478130Y-94126080D01*
X146404278Y-94144425D01*
X146392866Y-94110514D01*
X146283200Y-93928000D01*
X146136902Y-93773294D01*
X145960793Y-93653611D01*
X145763094Y-93574538D01*
X145553027Y-93539760D01*
X145340392Y-93550904D01*
X145135111Y-93607448D01*
X144946761Y-93706755D01*
X144784128Y-93844190D01*
X144654802Y-94013343D01*
X144563306Y-94209556D01*
X144518000Y-94483228D01*
X144518000Y-94987343D01*
X144512366Y-94983951D01*
X143272142Y-93743729D01*
X143249748Y-93709046D01*
X143191685Y-93663272D01*
X143180292Y-93651879D01*
X143147577Y-93628500D01*
X143066286Y-93564415D01*
X143053197Y-93561055D01*
X143041684Y-93552827D01*
X142823265Y-93487507D01*
X142721851Y-93491491D01*
X139051195Y-93491491D01*
X139043549Y-93489521D01*
X139018235Y-93491491D01*
X138926633Y-93491491D01*
X138846195Y-93504880D01*
X138817859Y-93507084D01*
X138808388Y-93511172D01*
X138758582Y-93519462D01*
X138636116Y-93585542D01*
X138610017Y-93596808D01*
X138602380Y-93603745D01*
X138557949Y-93627719D01*
X138463480Y-93729915D01*
X138442443Y-93749024D01*
X138442342Y-93749207D01*
X138415184Y-93714132D01*
X138226084Y-93589680D01*
X138006867Y-93533191D01*
X137781171Y-93550755D01*
X137573332Y-93640480D01*
X137405763Y-93792690D01*
X137296531Y-93990971D01*
X137257414Y-94213945D01*
X137292633Y-94437567D01*
X137398387Y-94637725D01*
X137563275Y-94792836D01*
X137769517Y-94886175D01*
X137994871Y-94907675D01*
X138215041Y-94855020D01*
X138406285Y-94733887D01*
X138475378Y-94647799D01*
X138579255Y-94729690D01*
X138599957Y-94749165D01*
X138609353Y-94753417D01*
X138653431Y-94788166D01*
X138729008Y-94807570D01*
X138806201Y-94842505D01*
X138899876Y-94851441D01*
X138937457Y-94861091D01*
X139001014Y-94861091D01*
X139031554Y-94864005D01*
X139043740Y-94861091D01*
X141912019Y-94861091D01*
X141779971Y-94981036D01*
X141670775Y-95179251D01*
X141628902Y-95125171D01*
X141439802Y-95000719D01*
X141220585Y-94944230D01*
X140994889Y-94961794D01*
X140787050Y-95051519D01*
X140619481Y-95203729D01*
X140510249Y-95402010D01*
X140471132Y-95624984D01*
X140506351Y-95848606D01*
X140612105Y-96048764D01*
X140776993Y-96203875D01*
X140983235Y-96297214D01*
X141208589Y-96318714D01*
X141428759Y-96266059D01*
X141620003Y-96144926D01*
X141761698Y-95968377D01*
X141802811Y-95854495D01*
X141937483Y-95981182D01*
X142143725Y-96074521D01*
X142369079Y-96096021D01*
X142589249Y-96043366D01*
X142780493Y-95922233D01*
X142922188Y-95745684D01*
X142999231Y-95532277D01*
X143000308Y-95408801D01*
X143405180Y-95813673D01*
X143405180Y-96198986D01*
X143396492Y-96239340D01*
X143405180Y-96312744D01*
X143405180Y-96328875D01*
X143411787Y-96368569D01*
X143423950Y-96471334D01*
X143430827Y-96482963D01*
X143433151Y-96496926D01*
X143541409Y-96697560D01*
X143615965Y-96766480D01*
X143652522Y-96803037D01*
X143665700Y-96812454D01*
X143668006Y-96814586D01*
X143614931Y-96874682D01*
X143590046Y-96899566D01*
X143573750Y-96921310D01*
X143525982Y-96975396D01*
X142696918Y-97804461D01*
X139670085Y-97804461D01*
X139681804Y-97726047D01*
X139705484Y-97621399D01*
X139701682Y-97560129D01*
X139705231Y-97544448D01*
X139699000Y-97444019D01*
X139699000Y-97408813D01*
X139695147Y-97381909D01*
X139689481Y-97290575D01*
X139677192Y-97256533D01*
X139672061Y-97220708D01*
X139634183Y-97137398D01*
X139602977Y-97050957D01*
X139581975Y-97022575D01*
X139566781Y-96989157D01*
X139499280Y-96910819D01*
X139482601Y-96888279D01*
X139462776Y-96868455D01*
X139400743Y-96796463D01*
X139372439Y-96778117D01*
X138891276Y-96296955D01*
X138829243Y-96224963D01*
X138800935Y-96206615D01*
X138764283Y-96169963D01*
X138702243Y-96097963D01*
X138673935Y-96079615D01*
X138429759Y-95835439D01*
X138414692Y-95811559D01*
X138339263Y-95744942D01*
X136905000Y-94310680D01*
X136905000Y-93148484D01*
X143265132Y-93148484D01*
X143300351Y-93372106D01*
X143406105Y-93572264D01*
X143570993Y-93727375D01*
X143777235Y-93820714D01*
X144002589Y-93842214D01*
X144222759Y-93789559D01*
X144414003Y-93668426D01*
X144555698Y-93491877D01*
X144632741Y-93278470D01*
X144634801Y-93042385D01*
X144561495Y-92827667D01*
X144422902Y-92648671D01*
X144233802Y-92524219D01*
X144014585Y-92467730D01*
X143788889Y-92485294D01*
X143581050Y-92575019D01*
X143413481Y-92727229D01*
X143304249Y-92925510D01*
X143265132Y-93148484D01*
X136905000Y-93148484D01*
X136905000Y-92259484D01*
X138185132Y-92259484D01*
X138220351Y-92483106D01*
X138326105Y-92683264D01*
X138490993Y-92838375D01*
X138697235Y-92931714D01*
X138922589Y-92953214D01*
X139142759Y-92900559D01*
X139334003Y-92779426D01*
X139475698Y-92602877D01*
X139544405Y-92412558D01*
X150399144Y-92412558D01*
X150434363Y-92636180D01*
X150540117Y-92836338D01*
X150705005Y-92991449D01*
X150911247Y-93084788D01*
X151136601Y-93106288D01*
X151356771Y-93053633D01*
X151548015Y-92932500D01*
X151689710Y-92755951D01*
X151766753Y-92542544D01*
X151768393Y-92354567D01*
X151919703Y-92258728D01*
X152061398Y-92082179D01*
X152138441Y-91868772D01*
X152140501Y-91632687D01*
X152067195Y-91417969D01*
X151928602Y-91238973D01*
X151739502Y-91114521D01*
X151520285Y-91058032D01*
X151294589Y-91075596D01*
X151086750Y-91165321D01*
X150919181Y-91317531D01*
X150809949Y-91515812D01*
X150770832Y-91738786D01*
X150782074Y-91810164D01*
X150715062Y-91839093D01*
X150547493Y-91991303D01*
X150438261Y-92189584D01*
X150399144Y-92412558D01*
X139544405Y-92412558D01*
X139552741Y-92389470D01*
X139554801Y-92153385D01*
X139481495Y-91938667D01*
X139342902Y-91759671D01*
X139153802Y-91635219D01*
X138934585Y-91578730D01*
X138708889Y-91596294D01*
X138501050Y-91686019D01*
X138333481Y-91838229D01*
X138224249Y-92036510D01*
X138185132Y-92259484D01*
X136905000Y-92259484D01*
X136905000Y-91001195D01*
X137046235Y-91065114D01*
X137271589Y-91086614D01*
X137491759Y-91033959D01*
X137683003Y-90912826D01*
X137824698Y-90736277D01*
X137893385Y-90546014D01*
X138159648Y-90546014D01*
X138194867Y-90769636D01*
X138300621Y-90969794D01*
X138465509Y-91124905D01*
X138671751Y-91218244D01*
X138897105Y-91239744D01*
X139117275Y-91187089D01*
X139308519Y-91065956D01*
X139450214Y-90889407D01*
X139527257Y-90676000D01*
X139529317Y-90439915D01*
X139456011Y-90225197D01*
X139317418Y-90046201D01*
X139128318Y-89921749D01*
X138909101Y-89865260D01*
X138683405Y-89882824D01*
X138475566Y-89972549D01*
X138307997Y-90124759D01*
X138198765Y-90323040D01*
X138159648Y-90546014D01*
X137893385Y-90546014D01*
X137901741Y-90522870D01*
X137903801Y-90286785D01*
X137830495Y-90072067D01*
X137691902Y-89893071D01*
X137527162Y-89784651D01*
X137578687Y-89720451D01*
X142439660Y-89720451D01*
X142474879Y-89944073D01*
X142580633Y-90144231D01*
X142745521Y-90299342D01*
X142951763Y-90392681D01*
X143177117Y-90414181D01*
X143397287Y-90361526D01*
X143588531Y-90240393D01*
X143722160Y-90073894D01*
X144939001Y-90073894D01*
X144939001Y-90266106D01*
X144988749Y-90451769D01*
X145084855Y-90618230D01*
X145220770Y-90754145D01*
X145387231Y-90850251D01*
X145572894Y-90899999D01*
X145765106Y-90899999D01*
X145950769Y-90850251D01*
X146117230Y-90754145D01*
X146241887Y-90629488D01*
X146278616Y-90699004D01*
X146443504Y-90854115D01*
X146649746Y-90947454D01*
X146875100Y-90968954D01*
X146936404Y-90954293D01*
X146949508Y-90979095D01*
X147114396Y-91134206D01*
X147320638Y-91227545D01*
X147545992Y-91249045D01*
X147766162Y-91196390D01*
X147957406Y-91075257D01*
X148099101Y-90898708D01*
X148176144Y-90685301D01*
X148178204Y-90449216D01*
X148175012Y-90439867D01*
X148349235Y-90518714D01*
X148574589Y-90540214D01*
X148794759Y-90487559D01*
X148812811Y-90476125D01*
X148894855Y-90618230D01*
X149030770Y-90754145D01*
X149197231Y-90850251D01*
X149382894Y-90899999D01*
X149575106Y-90899999D01*
X149599896Y-90893357D01*
X149612251Y-90971806D01*
X149718005Y-91171964D01*
X149882893Y-91327075D01*
X150089135Y-91420414D01*
X150314489Y-91441914D01*
X150534659Y-91389259D01*
X150725903Y-91268126D01*
X150867598Y-91091577D01*
X150944641Y-90878170D01*
X150946701Y-90642085D01*
X150873395Y-90427367D01*
X150734802Y-90248371D01*
X150659062Y-90198524D01*
X150698250Y-90173703D01*
X150839945Y-89997154D01*
X150916988Y-89783747D01*
X150919048Y-89547662D01*
X150845742Y-89332944D01*
X150707149Y-89153948D01*
X150518049Y-89029496D01*
X150298832Y-88973007D01*
X150073136Y-88990571D01*
X149865297Y-89080296D01*
X149697728Y-89232506D01*
X149588496Y-89430786D01*
X149586351Y-89443014D01*
X149575106Y-89440001D01*
X149382894Y-89440001D01*
X149197231Y-89489749D01*
X149133746Y-89526402D01*
X149133495Y-89525667D01*
X148994902Y-89346671D01*
X148805802Y-89222219D01*
X148586585Y-89165730D01*
X148360889Y-89183294D01*
X148153049Y-89273019D01*
X148112900Y-89309488D01*
X147980298Y-89222219D01*
X147761081Y-89165730D01*
X147535385Y-89183294D01*
X147327546Y-89273019D01*
X147159977Y-89425229D01*
X147050745Y-89623510D01*
X147048541Y-89636072D01*
X146887096Y-89594470D01*
X146661400Y-89612034D01*
X146453561Y-89701759D01*
X146314513Y-89828062D01*
X146253145Y-89721770D01*
X146117230Y-89585855D01*
X145950769Y-89489749D01*
X145765106Y-89440001D01*
X145572894Y-89440001D01*
X145387231Y-89489749D01*
X145220770Y-89585855D01*
X145084855Y-89721770D01*
X144988749Y-89888231D01*
X144939001Y-90073894D01*
X143722160Y-90073894D01*
X143730226Y-90063844D01*
X143807269Y-89850437D01*
X143809329Y-89614352D01*
X143736023Y-89399634D01*
X143684825Y-89333511D01*
X143698480Y-89346356D01*
X143904722Y-89439695D01*
X144130076Y-89461195D01*
X144350246Y-89408540D01*
X144541490Y-89287407D01*
X144683185Y-89110858D01*
X144760228Y-88897451D01*
X144762288Y-88661366D01*
X144715090Y-88523121D01*
X144812493Y-88461426D01*
X144954188Y-88284877D01*
X145031231Y-88071470D01*
X145033291Y-87835385D01*
X144959985Y-87620667D01*
X144821392Y-87441671D01*
X144632292Y-87317219D01*
X144413075Y-87260730D01*
X144187379Y-87278294D01*
X143979540Y-87368019D01*
X143811971Y-87520229D01*
X143702739Y-87718510D01*
X143663622Y-87941484D01*
X143698841Y-88165106D01*
X143713073Y-88192042D01*
X143708537Y-88194000D01*
X143540968Y-88346210D01*
X143431736Y-88544491D01*
X143392619Y-88767465D01*
X143427838Y-88991087D01*
X143523369Y-89171896D01*
X143408330Y-89096186D01*
X143189113Y-89039697D01*
X142963417Y-89057261D01*
X142755578Y-89146986D01*
X142588009Y-89299196D01*
X142478777Y-89497477D01*
X142439660Y-89720451D01*
X137578687Y-89720451D01*
X137579068Y-89719977D01*
X137656111Y-89506570D01*
X137658171Y-89270485D01*
X137584865Y-89055767D01*
X137446272Y-88876771D01*
X137257172Y-88752319D01*
X137037955Y-88695830D01*
X136904556Y-88706211D01*
X136901147Y-88682409D01*
X136895481Y-88591075D01*
X136883192Y-88557033D01*
X136878061Y-88521208D01*
X136840178Y-88437889D01*
X136808976Y-88351457D01*
X136787976Y-88323077D01*
X136772781Y-88289658D01*
X136705275Y-88211313D01*
X136688601Y-88188779D01*
X136668776Y-88168955D01*
X136606743Y-88096963D01*
X136578436Y-88078615D01*
X135696795Y-87196974D01*
X142312624Y-87196974D01*
X142347843Y-87420596D01*
X142453597Y-87620754D01*
X142618485Y-87775865D01*
X142824727Y-87869204D01*
X143050081Y-87890704D01*
X143270251Y-87838049D01*
X143461495Y-87716916D01*
X143603190Y-87540367D01*
X143680233Y-87326960D01*
X143682293Y-87090875D01*
X143625828Y-86925484D01*
X146440132Y-86925484D01*
X146475351Y-87149106D01*
X146581105Y-87349264D01*
X146745993Y-87504375D01*
X146952235Y-87597714D01*
X147177589Y-87619214D01*
X147397759Y-87566559D01*
X147589003Y-87445426D01*
X147730698Y-87268877D01*
X147807741Y-87055470D01*
X147808414Y-86978239D01*
X148609877Y-86978239D01*
X148645096Y-87201861D01*
X148750850Y-87402019D01*
X148915738Y-87557130D01*
X149121980Y-87650469D01*
X149347334Y-87671969D01*
X149567504Y-87619314D01*
X149758748Y-87498181D01*
X149900443Y-87321632D01*
X149977486Y-87108225D01*
X149979546Y-86872140D01*
X149906240Y-86657422D01*
X149767647Y-86478426D01*
X149578547Y-86353974D01*
X149359330Y-86297485D01*
X149133634Y-86315049D01*
X148925795Y-86404774D01*
X148758226Y-86556984D01*
X148648994Y-86755265D01*
X148609877Y-86978239D01*
X147808414Y-86978239D01*
X147809801Y-86819385D01*
X147736495Y-86604667D01*
X147597902Y-86425671D01*
X147408802Y-86301219D01*
X147189585Y-86244730D01*
X146963889Y-86262294D01*
X146756050Y-86352019D01*
X146588481Y-86504229D01*
X146479249Y-86702510D01*
X146440132Y-86925484D01*
X143625828Y-86925484D01*
X143608987Y-86876157D01*
X143535689Y-86781491D01*
X143603198Y-86697377D01*
X143680241Y-86483970D01*
X143682301Y-86247885D01*
X143608995Y-86033167D01*
X143470402Y-85854171D01*
X143281302Y-85729719D01*
X143062085Y-85673230D01*
X142836389Y-85690794D01*
X142628550Y-85780519D01*
X142460981Y-85932729D01*
X142351749Y-86131010D01*
X142312632Y-86353984D01*
X142347851Y-86577606D01*
X142453605Y-86777764D01*
X142457716Y-86781631D01*
X142351741Y-86974000D01*
X142312624Y-87196974D01*
X135696795Y-87196974D01*
X135572259Y-87072439D01*
X135557192Y-87048559D01*
X135481756Y-86981936D01*
X135456877Y-86957056D01*
X135435137Y-86940763D01*
X135366539Y-86880179D01*
X135333774Y-86864796D01*
X135304820Y-86843095D01*
X135219134Y-86810973D01*
X135135937Y-86771913D01*
X135101015Y-86766693D01*
X135066642Y-86753808D01*
X135011759Y-86749729D01*
X135097584Y-86621283D01*
X135112961Y-86543974D01*
X135136932Y-86423462D01*
X135127000Y-86373529D01*
X135127000Y-86150303D01*
X137393211Y-86150303D01*
X137428430Y-86373925D01*
X137534184Y-86574083D01*
X137699072Y-86729194D01*
X137905314Y-86822533D01*
X138130668Y-86844033D01*
X138350838Y-86791378D01*
X138542082Y-86670245D01*
X138683777Y-86493696D01*
X138760820Y-86280289D01*
X138762880Y-86044204D01*
X138689574Y-85829486D01*
X138550981Y-85650490D01*
X138361881Y-85526038D01*
X138142664Y-85469549D01*
X137916968Y-85487113D01*
X137709129Y-85576838D01*
X137541560Y-85729048D01*
X137432328Y-85927329D01*
X137393211Y-86150303D01*
X135127000Y-86150303D01*
X135127000Y-84411006D01*
X135260694Y-84277312D01*
X135303027Y-84249027D01*
X135415083Y-84081322D01*
X135442079Y-83945605D01*
X135454433Y-83883500D01*
X135444500Y-83833566D01*
X135444500Y-82569506D01*
X135591997Y-82422010D01*
X137076069Y-82422010D01*
X137054671Y-82543984D01*
X137089890Y-82767606D01*
X137195644Y-82967764D01*
X137360532Y-83122875D01*
X137389549Y-83136007D01*
X137294550Y-83177019D01*
X137126981Y-83329229D01*
X137017749Y-83527510D01*
X136978632Y-83750484D01*
X137013851Y-83974106D01*
X137119605Y-84174264D01*
X137284493Y-84329375D01*
X137490735Y-84422714D01*
X137716089Y-84444214D01*
X137936259Y-84391559D01*
X138127503Y-84270426D01*
X138269198Y-84093877D01*
X138346241Y-83880470D01*
X138348301Y-83644385D01*
X138274995Y-83429667D01*
X138136402Y-83250671D01*
X138024736Y-83177181D01*
X138203542Y-83063926D01*
X138345237Y-82887377D01*
X138422280Y-82673970D01*
X138424340Y-82437885D01*
X138418920Y-82422010D01*
X139140755Y-82422010D01*
X139175645Y-82456901D01*
X139203934Y-82499238D01*
X139336617Y-82587893D01*
X139371638Y-82611293D01*
X139569460Y-82650644D01*
X139619399Y-82640710D01*
X141288157Y-82640710D01*
X141254481Y-82671299D01*
X141145249Y-82869580D01*
X141106132Y-83092554D01*
X141141351Y-83316176D01*
X141161500Y-83354311D01*
X141161501Y-84715579D01*
X141161500Y-84715584D01*
X141161500Y-84738187D01*
X140704490Y-85195198D01*
X140238153Y-85661535D01*
X140155612Y-85697168D01*
X140040452Y-85621378D01*
X139821235Y-85564889D01*
X139595539Y-85582453D01*
X139387700Y-85672178D01*
X139220131Y-85824388D01*
X139110899Y-86022669D01*
X139071782Y-86245643D01*
X139107001Y-86469265D01*
X139212755Y-86669423D01*
X139377643Y-86824534D01*
X139583885Y-86917873D01*
X139809239Y-86939373D01*
X140029409Y-86886718D01*
X140108007Y-86836934D01*
X140128992Y-86856675D01*
X140335234Y-86950014D01*
X140560588Y-86971514D01*
X140780758Y-86918859D01*
X140972002Y-86797726D01*
X141113697Y-86621178D01*
X141137407Y-86555502D01*
X141906427Y-85786482D01*
X142095910Y-85597000D01*
X150113962Y-85597000D01*
X150462196Y-85945235D01*
X150540105Y-86092691D01*
X150704993Y-86247802D01*
X150911235Y-86341141D01*
X151136589Y-86362641D01*
X151356759Y-86309986D01*
X151548003Y-86188853D01*
X151689698Y-86012304D01*
X151766741Y-85798897D01*
X151768801Y-85562812D01*
X151695495Y-85348094D01*
X151556902Y-85169098D01*
X151367802Y-85044646D01*
X151350328Y-85040143D01*
X150844448Y-84534264D01*
X150790386Y-84469836D01*
X150717532Y-84427774D01*
X150648645Y-84379539D01*
X150621289Y-84372208D01*
X150596758Y-84358045D01*
X150513918Y-84343438D01*
X150432681Y-84321671D01*
X150348904Y-84329000D01*
X142429500Y-84329000D01*
X142429500Y-83345089D01*
X142473741Y-83222540D01*
X142474581Y-83126227D01*
X143317885Y-83126227D01*
X143353104Y-83349849D01*
X143458858Y-83550007D01*
X143623746Y-83705118D01*
X143829988Y-83798457D01*
X144055342Y-83819957D01*
X144275512Y-83767302D01*
X144466756Y-83646169D01*
X144557351Y-83533289D01*
X149036281Y-83533289D01*
X149071500Y-83756911D01*
X149177254Y-83957069D01*
X149342142Y-84112180D01*
X149548384Y-84205519D01*
X149773738Y-84227019D01*
X149993908Y-84174364D01*
X150185152Y-84053231D01*
X150326847Y-83876682D01*
X150403890Y-83663275D01*
X150405950Y-83427190D01*
X150332644Y-83212472D01*
X150194051Y-83033476D01*
X150004951Y-82909024D01*
X149785734Y-82852535D01*
X149560038Y-82870099D01*
X149352199Y-82959824D01*
X149184630Y-83112034D01*
X149075398Y-83310315D01*
X149036281Y-83533289D01*
X144557351Y-83533289D01*
X144608451Y-83469620D01*
X144685494Y-83256213D01*
X144687554Y-83020128D01*
X144614248Y-82805410D01*
X144475655Y-82626414D01*
X144286555Y-82501962D01*
X144067338Y-82445473D01*
X143841642Y-82463037D01*
X143633803Y-82552762D01*
X143466234Y-82704972D01*
X143357002Y-82903253D01*
X143317885Y-83126227D01*
X142474581Y-83126227D01*
X142475801Y-82986455D01*
X142402495Y-82771737D01*
X142263902Y-82592741D01*
X142074802Y-82468289D01*
X141932409Y-82431596D01*
X142016928Y-82347077D01*
X142034089Y-82348714D01*
X142254259Y-82296059D01*
X142445503Y-82174926D01*
X142587198Y-81998377D01*
X142664241Y-81784970D01*
X142666301Y-81548885D01*
X142639198Y-81469500D01*
X145141495Y-81469500D01*
X145620923Y-81948928D01*
X145649851Y-82132606D01*
X145755605Y-82332764D01*
X145763775Y-82340450D01*
X145664634Y-82520414D01*
X145625517Y-82743388D01*
X145660736Y-82967010D01*
X145766490Y-83167168D01*
X145931378Y-83322279D01*
X146137620Y-83415618D01*
X146362974Y-83437118D01*
X146583144Y-83384463D01*
X146774388Y-83263330D01*
X146916083Y-83086781D01*
X146993126Y-82873374D01*
X146995186Y-82637289D01*
X146968788Y-82559967D01*
X147015735Y-82581214D01*
X147241089Y-82602714D01*
X147461259Y-82550059D01*
X147652503Y-82428926D01*
X147794198Y-82252377D01*
X147871241Y-82038970D01*
X147873301Y-81802885D01*
X147822807Y-81654984D01*
X149234132Y-81654984D01*
X149269351Y-81878606D01*
X149375105Y-82078764D01*
X149539993Y-82233875D01*
X149746235Y-82327214D01*
X149971589Y-82348714D01*
X150191759Y-82296059D01*
X150383003Y-82174926D01*
X150524698Y-81998377D01*
X150601741Y-81784970D01*
X150603801Y-81548885D01*
X150530495Y-81334167D01*
X150391902Y-81155171D01*
X150202802Y-81030719D01*
X149983585Y-80974230D01*
X149757889Y-80991794D01*
X149550050Y-81081519D01*
X149382481Y-81233729D01*
X149273249Y-81432010D01*
X149234132Y-81654984D01*
X147822807Y-81654984D01*
X147799995Y-81588167D01*
X147661402Y-81409171D01*
X147472302Y-81284719D01*
X147253085Y-81228230D01*
X147225390Y-81230385D01*
X146253305Y-80258300D01*
X146225016Y-80215962D01*
X146204142Y-80202014D01*
X146884632Y-80202014D01*
X146919851Y-80425636D01*
X147025605Y-80625794D01*
X147190493Y-80780905D01*
X147396735Y-80874244D01*
X147622089Y-80895744D01*
X147842259Y-80843089D01*
X148033504Y-80721956D01*
X148035826Y-80719062D01*
X148120104Y-80757204D01*
X148345458Y-80778704D01*
X148565628Y-80726049D01*
X148756872Y-80604916D01*
X148898567Y-80428367D01*
X148975610Y-80214960D01*
X148977670Y-79978875D01*
X148904364Y-79764157D01*
X148765771Y-79585161D01*
X148576671Y-79460709D01*
X148357454Y-79404220D01*
X148131758Y-79421784D01*
X147923919Y-79511509D01*
X147851504Y-79577286D01*
X147634085Y-79521260D01*
X147408389Y-79538824D01*
X147200550Y-79628549D01*
X147032981Y-79780759D01*
X146923749Y-79979040D01*
X146884632Y-80202014D01*
X146204142Y-80202014D01*
X146057311Y-80103906D01*
X145921594Y-80076910D01*
X145859489Y-80064557D01*
X145809556Y-80074489D01*
X142678393Y-80074489D01*
X142714198Y-80029877D01*
X142791241Y-79816470D01*
X142793301Y-79580385D01*
X142719995Y-79365667D01*
X142619369Y-79235706D01*
X142734225Y-79162957D01*
X142864619Y-79000489D01*
X142880615Y-79030764D01*
X143045503Y-79185875D01*
X143251745Y-79279214D01*
X143477099Y-79300714D01*
X143697269Y-79248059D01*
X143807571Y-79178194D01*
X144004723Y-79267419D01*
X144230077Y-79288919D01*
X144450247Y-79236264D01*
X144641491Y-79115131D01*
X144783186Y-78938582D01*
X144860229Y-78725175D01*
X144860540Y-78689516D01*
X148999200Y-78689516D01*
X149034419Y-78913138D01*
X149140173Y-79113296D01*
X149305061Y-79268407D01*
X149511303Y-79361746D01*
X149736657Y-79383246D01*
X149956827Y-79330591D01*
X150148071Y-79209458D01*
X150289766Y-79032909D01*
X150366809Y-78819502D01*
X150367001Y-78797484D01*
X152091632Y-78797484D01*
X152126851Y-79021106D01*
X152232605Y-79221264D01*
X152397493Y-79376375D01*
X152603735Y-79469714D01*
X152829089Y-79491214D01*
X153049259Y-79438559D01*
X153240503Y-79317426D01*
X153382198Y-79140877D01*
X153459241Y-78927470D01*
X153461301Y-78691385D01*
X153387995Y-78476667D01*
X153249402Y-78297671D01*
X153060302Y-78173219D01*
X152841085Y-78116730D01*
X152615389Y-78134294D01*
X152407550Y-78224019D01*
X152239981Y-78376229D01*
X152130749Y-78574510D01*
X152091632Y-78797484D01*
X150367001Y-78797484D01*
X150368869Y-78583417D01*
X150295563Y-78368699D01*
X150156970Y-78189703D01*
X149967870Y-78065251D01*
X149748653Y-78008762D01*
X149522957Y-78026326D01*
X149315118Y-78116051D01*
X149147549Y-78268261D01*
X149038317Y-78466542D01*
X148999200Y-78689516D01*
X144860540Y-78689516D01*
X144862289Y-78489090D01*
X144788983Y-78274372D01*
X144720679Y-78186156D01*
X144794259Y-78168559D01*
X144985503Y-78047426D01*
X145127198Y-77870877D01*
X145195103Y-77682780D01*
X147890974Y-77682780D01*
X147926193Y-77906402D01*
X148031947Y-78106560D01*
X148196835Y-78261671D01*
X148403077Y-78355010D01*
X148628431Y-78376510D01*
X148848601Y-78323855D01*
X149039845Y-78202722D01*
X149181540Y-78026173D01*
X149258583Y-77812766D01*
X149260643Y-77576681D01*
X149187337Y-77361963D01*
X149048744Y-77182967D01*
X148859644Y-77058515D01*
X148640427Y-77002026D01*
X148414731Y-77019590D01*
X148206892Y-77109315D01*
X148039323Y-77261525D01*
X147930091Y-77459806D01*
X147890974Y-77682780D01*
X145195103Y-77682780D01*
X145204241Y-77657470D01*
X145206301Y-77421385D01*
X145132995Y-77206667D01*
X145092930Y-77154922D01*
X145129884Y-77108877D01*
X145206927Y-76895470D01*
X145208987Y-76659385D01*
X145135681Y-76444667D01*
X145079066Y-76371548D01*
X145088673Y-76359578D01*
X145165716Y-76146170D01*
X145167776Y-75910085D01*
X145106996Y-75732054D01*
X148281013Y-75732054D01*
X148316232Y-75955676D01*
X148421986Y-76155834D01*
X148586874Y-76310946D01*
X148689572Y-76357423D01*
X148721372Y-76559339D01*
X148827126Y-76759497D01*
X148992014Y-76914608D01*
X149198256Y-77007947D01*
X149423610Y-77029447D01*
X149643780Y-76976792D01*
X149835024Y-76855659D01*
X149976719Y-76679110D01*
X150053762Y-76465703D01*
X150055822Y-76229618D01*
X149982516Y-76014900D01*
X149843923Y-75835904D01*
X149654823Y-75711452D01*
X149649947Y-75710195D01*
X149650028Y-75700891D01*
X149789578Y-75612501D01*
X149931273Y-75435952D01*
X150008316Y-75222545D01*
X150010376Y-74986460D01*
X149937070Y-74771742D01*
X149798477Y-74592746D01*
X149609377Y-74468294D01*
X149390160Y-74411805D01*
X149164464Y-74429369D01*
X148956625Y-74519094D01*
X148789056Y-74671304D01*
X148679824Y-74869585D01*
X148640707Y-75092559D01*
X148647657Y-75136690D01*
X148596931Y-75158589D01*
X148429362Y-75310799D01*
X148320130Y-75509080D01*
X148281013Y-75732054D01*
X145106996Y-75732054D01*
X145094470Y-75695367D01*
X145092297Y-75692560D01*
X145148142Y-75622978D01*
X145225185Y-75409570D01*
X145227245Y-75173485D01*
X145153939Y-74958767D01*
X145135749Y-74935274D01*
X145174992Y-74886377D01*
X145252035Y-74672970D01*
X145254095Y-74436885D01*
X145180789Y-74222167D01*
X145042196Y-74043171D01*
X144937091Y-73973999D01*
X145022461Y-73919926D01*
X145164156Y-73743377D01*
X145241199Y-73529970D01*
X145243259Y-73293885D01*
X145169953Y-73079167D01*
X145031360Y-72900171D01*
X144842260Y-72775719D01*
X144623043Y-72719230D01*
X144508236Y-72728165D01*
X144497995Y-72698167D01*
X144359402Y-72519171D01*
X144250477Y-72447484D01*
X146249632Y-72447484D01*
X146284851Y-72671106D01*
X146390605Y-72871264D01*
X146555493Y-73026375D01*
X146761735Y-73119714D01*
X146987089Y-73141214D01*
X147207259Y-73088559D01*
X147345806Y-73000805D01*
X147466350Y-73114201D01*
X147431749Y-73177010D01*
X147392632Y-73399984D01*
X147427851Y-73623606D01*
X147533605Y-73823764D01*
X147698493Y-73978875D01*
X147904735Y-74072214D01*
X148130089Y-74093714D01*
X148350259Y-74041059D01*
X148541503Y-73919926D01*
X148683198Y-73743377D01*
X148760241Y-73529970D01*
X148762301Y-73293885D01*
X148688995Y-73079167D01*
X148550402Y-72900171D01*
X148508941Y-72872884D01*
X148569741Y-72704470D01*
X148571801Y-72468385D01*
X148498495Y-72253667D01*
X148359902Y-72074671D01*
X148170802Y-71950219D01*
X147951585Y-71893730D01*
X147725889Y-71911294D01*
X147518050Y-72001019D01*
X147477340Y-72037997D01*
X147407402Y-71947671D01*
X147218302Y-71823219D01*
X147176643Y-71812484D01*
X152091632Y-71812484D01*
X152126851Y-72036106D01*
X152232605Y-72236264D01*
X152397493Y-72391375D01*
X152603735Y-72484714D01*
X152829089Y-72506214D01*
X153049259Y-72453559D01*
X153240503Y-72332426D01*
X153382198Y-72155877D01*
X153459241Y-71942470D01*
X153461301Y-71706385D01*
X153387995Y-71491667D01*
X153249402Y-71312671D01*
X153060302Y-71188219D01*
X152841085Y-71131730D01*
X152615389Y-71149294D01*
X152407550Y-71239019D01*
X152239981Y-71391229D01*
X152130749Y-71589510D01*
X152091632Y-71812484D01*
X147176643Y-71812484D01*
X146999085Y-71766730D01*
X146773389Y-71784294D01*
X146565550Y-71874019D01*
X146397981Y-72026229D01*
X146288749Y-72224510D01*
X146249632Y-72447484D01*
X144250477Y-72447484D01*
X144170302Y-72394719D01*
X143951085Y-72338230D01*
X143725389Y-72355794D01*
X143517550Y-72445519D01*
X143349981Y-72597729D01*
X143302972Y-72683060D01*
X143154306Y-72585219D01*
X142935089Y-72528730D01*
X142709393Y-72546294D01*
X142520842Y-72627692D01*
X142521811Y-72516689D01*
X142448505Y-72301971D01*
X142309912Y-72122975D01*
X142120812Y-71998523D01*
X141901595Y-71942034D01*
X141675899Y-71959598D01*
X141468060Y-72049323D01*
X141300491Y-72201533D01*
X141191259Y-72399814D01*
X141152142Y-72622788D01*
X141187361Y-72846410D01*
X141293115Y-73046568D01*
X141458003Y-73201679D01*
X141664245Y-73295018D01*
X141889599Y-73316518D01*
X142109769Y-73263863D01*
X142186542Y-73215235D01*
X142220855Y-73433106D01*
X142326609Y-73633264D01*
X142491497Y-73788375D01*
X142697739Y-73881714D01*
X142923093Y-73903214D01*
X143143263Y-73850559D01*
X143334507Y-73729426D01*
X143469086Y-73561745D01*
X143507493Y-73597875D01*
X143713735Y-73691214D01*
X143939089Y-73712714D01*
X143954004Y-73709147D01*
X144014563Y-73823764D01*
X144179451Y-73978875D01*
X144186521Y-73982075D01*
X144032775Y-74121729D01*
X143923543Y-74320010D01*
X143884426Y-74542984D01*
X143919645Y-74766606D01*
X143986621Y-74893370D01*
X143896693Y-75056610D01*
X143857576Y-75279584D01*
X143892795Y-75503206D01*
X143943802Y-75599746D01*
X143837224Y-75793210D01*
X143798107Y-76016184D01*
X143833326Y-76239806D01*
X143937047Y-76436116D01*
X143878435Y-76542510D01*
X143839318Y-76765484D01*
X143874537Y-76989106D01*
X143960193Y-77151225D01*
X143875749Y-77304510D01*
X143836632Y-77527484D01*
X143871851Y-77751106D01*
X143976518Y-77949206D01*
X143808537Y-78021724D01*
X143791329Y-78037355D01*
X143708312Y-77982719D01*
X143489095Y-77926230D01*
X143263399Y-77943794D01*
X143055560Y-78033519D01*
X142887991Y-78185729D01*
X142841456Y-78270200D01*
X142743124Y-78143202D01*
X142554024Y-78018750D01*
X142334807Y-77962261D01*
X142109111Y-77979825D01*
X141901272Y-78069550D01*
X141733703Y-78221760D01*
X141624471Y-78420041D01*
X141587031Y-78633456D01*
X141551399Y-78624274D01*
X141325703Y-78641838D01*
X141117864Y-78731563D01*
X140950295Y-78883773D01*
X140841063Y-79082054D01*
X140801946Y-79305028D01*
X140833125Y-79503000D01*
X140592688Y-79503000D01*
X140542755Y-79493068D01*
X140480650Y-79505421D01*
X140344933Y-79532417D01*
X140177228Y-79644473D01*
X140148943Y-79686805D01*
X139570749Y-80265000D01*
X138264662Y-80265000D01*
X138300630Y-80144733D01*
X138361640Y-80059359D01*
X138426960Y-79840941D01*
X138418011Y-79613140D01*
X138335754Y-79400520D01*
X138221175Y-79264213D01*
X138269198Y-79204378D01*
X138346241Y-78990970D01*
X138348301Y-78754885D01*
X138274995Y-78540167D01*
X138136402Y-78361171D01*
X137947302Y-78236719D01*
X137728085Y-78180230D01*
X137502389Y-78197794D01*
X137294550Y-78287519D01*
X137126981Y-78439729D01*
X137017749Y-78638010D01*
X136978632Y-78860984D01*
X137013851Y-79084606D01*
X137033608Y-79122000D01*
X133202090Y-79122000D01*
X133237502Y-79099570D01*
X133379197Y-78923021D01*
X133451293Y-78723316D01*
X133537993Y-78804875D01*
X133744235Y-78898214D01*
X133969589Y-78919714D01*
X134189759Y-78867059D01*
X134381003Y-78745926D01*
X134522698Y-78569377D01*
X134599741Y-78355970D01*
X134601801Y-78119885D01*
X134528495Y-77905167D01*
X134389902Y-77726171D01*
X134200802Y-77601719D01*
X133981585Y-77545230D01*
X133755889Y-77562794D01*
X133548050Y-77652519D01*
X133380481Y-77804729D01*
X133271249Y-78003010D01*
X133255674Y-78091791D01*
X133246401Y-78079815D01*
X133208662Y-78054978D01*
X133286435Y-77880705D01*
X133341469Y-77652353D01*
X133349484Y-77356133D01*
X133325365Y-77225361D01*
X133364259Y-77216059D01*
X133555503Y-77094926D01*
X133697198Y-76918377D01*
X133706545Y-76892484D01*
X136978632Y-76892484D01*
X137013851Y-77116106D01*
X137119605Y-77316264D01*
X137284493Y-77471375D01*
X137490735Y-77564714D01*
X137716089Y-77586214D01*
X137936259Y-77533559D01*
X138127503Y-77412426D01*
X138269198Y-77235877D01*
X138346241Y-77022470D01*
X138348301Y-76786385D01*
X138285862Y-76603495D01*
X140326655Y-76603495D01*
X140361874Y-76827117D01*
X140439413Y-76973873D01*
X140365781Y-77107532D01*
X140326664Y-77330506D01*
X140361883Y-77554128D01*
X140467637Y-77754286D01*
X140632525Y-77909397D01*
X140838767Y-78002736D01*
X141064121Y-78024236D01*
X141284291Y-77971581D01*
X141350186Y-77929844D01*
X141358960Y-77938098D01*
X141565201Y-78031436D01*
X141790555Y-78052936D01*
X142010725Y-78000281D01*
X142201969Y-77879148D01*
X142343664Y-77702599D01*
X142420707Y-77489192D01*
X142422767Y-77253107D01*
X142349461Y-77038389D01*
X142210868Y-76859393D01*
X142021768Y-76734941D01*
X141802551Y-76678452D01*
X141694671Y-76686847D01*
X141696324Y-76497396D01*
X141623018Y-76282678D01*
X141484425Y-76103682D01*
X141295325Y-75979230D01*
X141076108Y-75922741D01*
X140850412Y-75940305D01*
X140642573Y-76030030D01*
X140475004Y-76182240D01*
X140365772Y-76380521D01*
X140326655Y-76603495D01*
X138285862Y-76603495D01*
X138274995Y-76571667D01*
X138136402Y-76392671D01*
X137947302Y-76268219D01*
X137728085Y-76211730D01*
X137502389Y-76229294D01*
X137294550Y-76319019D01*
X137126981Y-76471229D01*
X137017749Y-76669510D01*
X136978632Y-76892484D01*
X133706545Y-76892484D01*
X133774241Y-76704970D01*
X133776301Y-76468885D01*
X133702995Y-76254167D01*
X133564402Y-76075171D01*
X133375302Y-75950719D01*
X133156085Y-75894230D01*
X132930389Y-75911794D01*
X132827478Y-75956221D01*
X132894063Y-75910544D01*
X133059122Y-75745773D01*
X133168083Y-75587528D01*
X141617336Y-75587528D01*
X141652555Y-75811150D01*
X141758309Y-76011308D01*
X141923197Y-76166419D01*
X142129439Y-76259758D01*
X142354793Y-76281258D01*
X142574963Y-76228603D01*
X142766207Y-76107470D01*
X142907902Y-75930921D01*
X142984945Y-75717514D01*
X142987005Y-75481429D01*
X142913699Y-75266711D01*
X142775106Y-75087715D01*
X142586006Y-74963263D01*
X142366789Y-74906774D01*
X142141093Y-74924338D01*
X141933254Y-75014063D01*
X141765685Y-75166273D01*
X141656453Y-75364554D01*
X141617336Y-75587528D01*
X133168083Y-75587528D01*
X133191389Y-75553682D01*
X133286435Y-75340705D01*
X133341469Y-75112353D01*
X133349484Y-74816133D01*
X133306880Y-74585140D01*
X133223490Y-74367333D01*
X133101804Y-74168370D01*
X132945898Y-73994915D01*
X132760993Y-73852775D01*
X132553282Y-73746713D01*
X132329719Y-73680278D01*
X132124135Y-73658490D01*
X132261770Y-73651397D01*
X132488597Y-73597150D01*
X132701741Y-73502476D01*
X132894063Y-73370544D01*
X133059122Y-73205773D01*
X133191389Y-73013682D01*
X133286435Y-72800705D01*
X133341469Y-72572353D01*
X133347608Y-72345466D01*
X133390562Y-72426764D01*
X133555450Y-72581875D01*
X133761692Y-72675214D01*
X133987046Y-72696714D01*
X134207216Y-72644059D01*
X134398460Y-72522926D01*
X134540155Y-72346377D01*
X134617198Y-72132970D01*
X134619258Y-71896885D01*
X134545952Y-71682167D01*
X134407359Y-71503171D01*
X134218259Y-71378719D01*
X133999042Y-71322230D01*
X133773346Y-71339794D01*
X133565507Y-71429519D01*
X133397938Y-71581729D01*
X133288706Y-71780010D01*
X133262520Y-71929276D01*
X133223490Y-71827333D01*
X133101804Y-71628370D01*
X132945898Y-71454915D01*
X132760993Y-71312775D01*
X132553282Y-71206713D01*
X132329719Y-71140278D01*
X132124135Y-71118490D01*
X132261770Y-71111397D01*
X132488597Y-71057150D01*
X132701741Y-70962476D01*
X132894063Y-70830544D01*
X133059122Y-70665773D01*
X133191389Y-70473682D01*
X133252145Y-70337542D01*
X133249611Y-70351984D01*
X133284830Y-70575606D01*
X133390584Y-70775764D01*
X133555472Y-70930875D01*
X133761714Y-71024214D01*
X133987068Y-71045714D01*
X134207238Y-70993059D01*
X134398482Y-70871926D01*
X134540177Y-70695377D01*
X134617220Y-70481970D01*
X134619280Y-70245885D01*
X134545974Y-70031167D01*
X134504590Y-69977718D01*
X134540177Y-69933377D01*
X134617220Y-69719970D01*
X134619280Y-69483885D01*
X134545974Y-69269167D01*
X134407381Y-69090171D01*
X134218281Y-68965719D01*
X133999064Y-68909230D01*
X133773368Y-68926794D01*
X133565529Y-69016519D01*
X133397960Y-69168729D01*
X133288728Y-69367010D01*
X133277814Y-69429222D01*
X133223490Y-69287333D01*
X133101804Y-69088370D01*
X132945898Y-68914915D01*
X132832806Y-68827979D01*
X135938399Y-68827979D01*
X135973618Y-69051601D01*
X136079372Y-69251759D01*
X136244260Y-69406870D01*
X136450502Y-69500209D01*
X136675856Y-69521709D01*
X136896026Y-69469054D01*
X137011103Y-69396165D01*
X137157493Y-69533875D01*
X137260321Y-69580412D01*
X137148278Y-69628781D01*
X136980709Y-69780991D01*
X136871477Y-69979272D01*
X136832360Y-70202246D01*
X136867579Y-70425868D01*
X136973333Y-70626026D01*
X137055037Y-70702885D01*
X136953933Y-70794723D01*
X136844701Y-70993004D01*
X136805584Y-71215978D01*
X136840803Y-71439600D01*
X136946557Y-71639758D01*
X137111445Y-71794869D01*
X137317687Y-71888208D01*
X137543041Y-71909708D01*
X137763211Y-71857053D01*
X137954455Y-71735920D01*
X138096150Y-71559371D01*
X138173193Y-71345964D01*
X138175253Y-71109879D01*
X138101947Y-70895161D01*
X138060989Y-70842262D01*
X141482980Y-70842262D01*
X141554735Y-70874736D01*
X141716949Y-70890212D01*
X141731112Y-70980138D01*
X141836866Y-71180296D01*
X142001754Y-71335407D01*
X142207996Y-71428746D01*
X142433350Y-71450246D01*
X142653520Y-71397591D01*
X142776778Y-71319520D01*
X142942718Y-71394620D01*
X143168072Y-71416120D01*
X143388242Y-71363465D01*
X143579486Y-71242332D01*
X143721181Y-71065783D01*
X143798224Y-70852376D01*
X143800284Y-70616291D01*
X143784057Y-70568760D01*
X143940905Y-70583724D01*
X144161075Y-70531069D01*
X144352319Y-70409936D01*
X144494014Y-70233388D01*
X144530084Y-70133477D01*
X144611087Y-70141205D01*
X144831257Y-70088550D01*
X145022501Y-69967417D01*
X145164196Y-69790868D01*
X145241239Y-69577461D01*
X145241683Y-69526472D01*
X147710132Y-69526472D01*
X147745351Y-69750094D01*
X147851105Y-69950252D01*
X147856448Y-69955278D01*
X147816719Y-70027396D01*
X147777602Y-70250370D01*
X147812821Y-70473992D01*
X147918575Y-70674150D01*
X148083463Y-70829261D01*
X148289705Y-70922600D01*
X148515059Y-70944100D01*
X148735229Y-70891445D01*
X148926473Y-70770312D01*
X149068168Y-70593763D01*
X149145211Y-70380356D01*
X149147271Y-70144271D01*
X149073965Y-69929553D01*
X149009301Y-69846038D01*
X149077741Y-69656458D01*
X149079801Y-69420373D01*
X149006495Y-69205655D01*
X148876350Y-69037570D01*
X148974146Y-69014182D01*
X149165390Y-68893049D01*
X149307085Y-68716500D01*
X149312686Y-68700984D01*
X149551632Y-68700984D01*
X149586851Y-68924606D01*
X149692605Y-69124764D01*
X149857493Y-69279875D01*
X150063735Y-69373214D01*
X150289089Y-69394714D01*
X150509259Y-69342059D01*
X150700503Y-69220926D01*
X150842198Y-69044377D01*
X150919241Y-68830970D01*
X150921301Y-68594885D01*
X150847995Y-68380167D01*
X150709402Y-68201171D01*
X150520302Y-68076719D01*
X150301085Y-68020230D01*
X150075389Y-68037794D01*
X149867550Y-68127519D01*
X149699981Y-68279729D01*
X149590749Y-68478010D01*
X149551632Y-68700984D01*
X149312686Y-68700984D01*
X149384128Y-68503093D01*
X149386188Y-68267008D01*
X149312882Y-68052290D01*
X149252530Y-67974344D01*
X149282198Y-67937377D01*
X149359241Y-67723970D01*
X149361301Y-67487885D01*
X149287995Y-67273167D01*
X149149402Y-67094171D01*
X148960302Y-66969719D01*
X148741085Y-66913230D01*
X148515389Y-66930794D01*
X148307550Y-67020519D01*
X148139981Y-67172729D01*
X148030749Y-67371010D01*
X147991632Y-67593984D01*
X148026851Y-67817606D01*
X148130623Y-68014013D01*
X148055636Y-68150133D01*
X148016519Y-68373107D01*
X148051738Y-68596729D01*
X148157492Y-68796887D01*
X148229902Y-68865003D01*
X148026050Y-68953007D01*
X147858481Y-69105217D01*
X147749249Y-69303498D01*
X147710132Y-69526472D01*
X145241683Y-69526472D01*
X145243299Y-69341376D01*
X145169993Y-69126658D01*
X145031400Y-68947662D01*
X144842300Y-68823210D01*
X144623083Y-68766721D01*
X144397387Y-68784285D01*
X144189548Y-68874010D01*
X144021979Y-69026220D01*
X143919732Y-69211821D01*
X143727205Y-69226804D01*
X143519365Y-69316529D01*
X143486204Y-69346651D01*
X143439263Y-69315758D01*
X143220046Y-69259269D01*
X142994350Y-69276833D01*
X142786511Y-69366558D01*
X142618942Y-69518768D01*
X142509710Y-69717049D01*
X142470593Y-69940023D01*
X142493943Y-70088285D01*
X142445346Y-70075762D01*
X142406290Y-70078801D01*
X142338995Y-69881689D01*
X142200402Y-69702693D01*
X142044356Y-69599995D01*
X142092741Y-69465970D01*
X142094801Y-69229885D01*
X142021495Y-69015167D01*
X141882902Y-68836171D01*
X141693802Y-68711719D01*
X141474585Y-68655230D01*
X141248889Y-68672794D01*
X141041050Y-68762519D01*
X140873481Y-68914729D01*
X140764249Y-69113010D01*
X140725132Y-69335984D01*
X140760351Y-69559606D01*
X140768095Y-69574262D01*
X137843672Y-69574262D01*
X138000503Y-69474926D01*
X138142198Y-69298377D01*
X138219241Y-69084970D01*
X138221301Y-68848885D01*
X138147995Y-68634167D01*
X138009402Y-68455171D01*
X137820302Y-68330719D01*
X137601085Y-68274230D01*
X137375389Y-68291794D01*
X137167549Y-68381519D01*
X137149895Y-68397555D01*
X137096169Y-68328166D01*
X136907069Y-68203714D01*
X136687852Y-68147225D01*
X136462156Y-68164789D01*
X136254317Y-68254514D01*
X136086748Y-68406724D01*
X135977516Y-68605005D01*
X135938399Y-68827979D01*
X132832806Y-68827979D01*
X132760993Y-68772775D01*
X132553282Y-68666713D01*
X132329719Y-68600278D01*
X132124135Y-68578490D01*
X132261770Y-68571397D01*
X132488597Y-68517150D01*
X132701741Y-68422476D01*
X132894063Y-68290544D01*
X133059122Y-68125773D01*
X133191389Y-67933682D01*
X133286435Y-67720705D01*
X133341469Y-67492353D01*
X133346565Y-67303984D01*
X134057632Y-67303984D01*
X134092851Y-67527606D01*
X134198605Y-67727764D01*
X134363493Y-67882875D01*
X134569735Y-67976214D01*
X134795089Y-67997714D01*
X135015259Y-67945059D01*
X135206503Y-67823926D01*
X135348198Y-67647377D01*
X135425241Y-67433970D01*
X135427301Y-67197885D01*
X135353995Y-66983167D01*
X135215402Y-66804171D01*
X135026302Y-66679719D01*
X134807085Y-66623230D01*
X134581389Y-66640794D01*
X134373550Y-66730519D01*
X134205981Y-66882729D01*
X134096749Y-67081010D01*
X134057632Y-67303984D01*
X133346565Y-67303984D01*
X133349484Y-67196133D01*
X133306880Y-66965140D01*
X133223490Y-66747333D01*
X133101804Y-66548370D01*
X132945898Y-66374915D01*
X132760993Y-66232775D01*
X132553282Y-66126713D01*
X132329719Y-66060278D01*
X132124135Y-66038490D01*
X132211570Y-66033984D01*
X135327632Y-66033984D01*
X135362851Y-66257606D01*
X135450351Y-66423215D01*
X135385976Y-66540071D01*
X135346859Y-66763045D01*
X135382078Y-66986667D01*
X135487832Y-67186825D01*
X135652720Y-67341936D01*
X135858962Y-67435275D01*
X136084316Y-67456775D01*
X136304486Y-67404120D01*
X136495730Y-67282987D01*
X136637425Y-67106438D01*
X136714468Y-66893031D01*
X136716528Y-66656946D01*
X136643222Y-66442228D01*
X136605378Y-66393351D01*
X136618198Y-66377377D01*
X136695241Y-66163970D01*
X136697301Y-65927885D01*
X136623995Y-65713167D01*
X136485402Y-65534171D01*
X136296302Y-65409719D01*
X136077085Y-65353230D01*
X135851389Y-65370794D01*
X135643550Y-65460519D01*
X135475981Y-65612729D01*
X135366749Y-65811010D01*
X135327632Y-66033984D01*
X132211570Y-66033984D01*
X132261770Y-66031397D01*
X132488597Y-65977150D01*
X132701741Y-65882476D01*
X132894063Y-65750544D01*
X133059122Y-65585773D01*
X133191389Y-65393682D01*
X133286435Y-65180705D01*
X133341469Y-64952353D01*
X133349484Y-64656133D01*
X133322529Y-64509984D01*
X134629132Y-64509984D01*
X134664351Y-64733606D01*
X134770105Y-64933764D01*
X134934993Y-65088875D01*
X135141235Y-65182214D01*
X135366589Y-65203714D01*
X135586759Y-65151059D01*
X135778003Y-65029926D01*
X135919698Y-64853377D01*
X135996741Y-64639970D01*
X135998801Y-64403885D01*
X135925495Y-64189167D01*
X135786902Y-64010171D01*
X135597802Y-63885719D01*
X135378585Y-63829230D01*
X135152889Y-63846794D01*
X134945050Y-63936519D01*
X134777481Y-64088729D01*
X134668249Y-64287010D01*
X134629132Y-64509984D01*
X133322529Y-64509984D01*
X133306880Y-64425140D01*
X133223490Y-64207333D01*
X133101804Y-64008370D01*
X132945898Y-63834915D01*
X132760993Y-63692775D01*
X132553282Y-63586713D01*
X132329719Y-63520278D01*
X132175901Y-63503976D01*
X132981410Y-63503976D01*
X133117269Y-63476953D01*
X133242965Y-63392965D01*
X133326953Y-63267269D01*
X133353976Y-63131410D01*
X133353976Y-63091889D01*
X133525089Y-63108214D01*
X133745259Y-63055559D01*
X133936503Y-62934426D01*
X134078198Y-62757877D01*
X134155241Y-62544470D01*
X134155821Y-62477984D01*
X134649524Y-62477984D01*
X134684743Y-62701606D01*
X134790497Y-62901764D01*
X134955385Y-63056875D01*
X135161627Y-63150214D01*
X135386981Y-63171714D01*
X135607151Y-63119059D01*
X135701854Y-63059075D01*
X135903235Y-63150214D01*
X136128589Y-63171714D01*
X136348759Y-63119059D01*
X136540003Y-62997926D01*
X136681698Y-62821377D01*
X136758741Y-62607970D01*
X136760801Y-62371885D01*
X136687495Y-62157167D01*
X136548902Y-61978171D01*
X136359802Y-61853719D01*
X136140585Y-61797230D01*
X135914889Y-61814794D01*
X135707049Y-61904519D01*
X135702148Y-61908971D01*
X135618194Y-61853719D01*
X135398977Y-61797230D01*
X135173281Y-61814794D01*
X134965442Y-61904519D01*
X134797873Y-62056729D01*
X134688641Y-62255010D01*
X134649524Y-62477984D01*
X134155821Y-62477984D01*
X134157301Y-62308385D01*
X134083995Y-62093667D01*
X134042611Y-62040218D01*
X134078198Y-61995877D01*
X134155241Y-61782470D01*
X134157301Y-61546385D01*
X134086840Y-61340000D01*
X137067060Y-61340000D01*
X137017749Y-61429510D01*
X136978632Y-61652484D01*
X137013851Y-61876106D01*
X137119605Y-62076264D01*
X137284493Y-62231375D01*
X137490735Y-62324714D01*
X137716089Y-62346214D01*
X137936259Y-62293559D01*
X138041641Y-62226811D01*
X138046493Y-62231375D01*
X138252735Y-62324714D01*
X138478089Y-62346214D01*
X138698259Y-62293559D01*
X138803641Y-62226811D01*
X138808493Y-62231375D01*
X138874633Y-62261308D01*
X138818550Y-62285519D01*
X138650981Y-62437729D01*
X138541749Y-62636010D01*
X138502632Y-62858984D01*
X138536418Y-63073508D01*
X138391389Y-63084794D01*
X138183550Y-63174519D01*
X138015981Y-63326729D01*
X137906749Y-63525010D01*
X137867632Y-63747984D01*
X137902851Y-63971606D01*
X138008605Y-64171764D01*
X138036006Y-64197540D01*
X138015981Y-64215729D01*
X137967060Y-64304532D01*
X137967301Y-64276885D01*
X137893995Y-64062167D01*
X137755402Y-63883171D01*
X137566302Y-63758719D01*
X137347085Y-63702230D01*
X137121389Y-63719794D01*
X136913550Y-63809519D01*
X136745981Y-63961729D01*
X136636749Y-64160010D01*
X136597632Y-64382984D01*
X136632851Y-64606606D01*
X136738605Y-64806764D01*
X136903493Y-64961875D01*
X137109735Y-65055214D01*
X137335089Y-65076714D01*
X137555259Y-65024059D01*
X137746503Y-64902926D01*
X137882775Y-64733134D01*
X137902851Y-64860606D01*
X138008605Y-65060764D01*
X138036006Y-65086540D01*
X138015981Y-65104729D01*
X137906749Y-65303010D01*
X137867632Y-65525984D01*
X137902851Y-65749606D01*
X138008605Y-65949764D01*
X138173493Y-66104875D01*
X138379735Y-66198214D01*
X138605089Y-66219714D01*
X138825259Y-66167059D01*
X139016503Y-66045926D01*
X139026087Y-66033984D01*
X142249132Y-66033984D01*
X142284351Y-66257606D01*
X142390105Y-66457764D01*
X142554993Y-66612875D01*
X142761235Y-66706214D01*
X142986589Y-66727714D01*
X143206759Y-66675059D01*
X143312141Y-66608311D01*
X143316993Y-66612875D01*
X143523235Y-66706214D01*
X143748589Y-66727714D01*
X143968759Y-66675059D01*
X144160003Y-66553926D01*
X144301698Y-66377377D01*
X144378741Y-66163970D01*
X144378767Y-66160984D01*
X147265632Y-66160984D01*
X147300851Y-66384606D01*
X147406605Y-66584764D01*
X147571493Y-66739875D01*
X147777735Y-66833214D01*
X148003089Y-66854714D01*
X148223259Y-66802059D01*
X148404538Y-66687238D01*
X148460493Y-66739875D01*
X148666735Y-66833214D01*
X148892089Y-66854714D01*
X149112259Y-66802059D01*
X149217641Y-66735311D01*
X149222493Y-66739875D01*
X149428735Y-66833214D01*
X149632861Y-66852689D01*
X149692605Y-66965764D01*
X149857493Y-67120875D01*
X150063735Y-67214214D01*
X150289089Y-67235714D01*
X150509259Y-67183059D01*
X150700503Y-67061926D01*
X150842198Y-66885377D01*
X150919241Y-66671970D01*
X150921301Y-66435885D01*
X150847995Y-66221167D01*
X150709402Y-66042171D01*
X150520302Y-65917719D01*
X150301085Y-65861230D01*
X150222280Y-65867363D01*
X150212996Y-65840167D01*
X150074402Y-65661171D01*
X149885302Y-65536719D01*
X149666085Y-65480230D01*
X149440389Y-65497794D01*
X149232550Y-65587519D01*
X149219081Y-65599754D01*
X149123302Y-65536719D01*
X148904085Y-65480230D01*
X148678389Y-65497794D01*
X148470550Y-65587519D01*
X148403723Y-65648220D01*
X148234302Y-65536719D01*
X148015085Y-65480230D01*
X147789389Y-65497794D01*
X147581550Y-65587519D01*
X147413981Y-65739729D01*
X147304749Y-65938010D01*
X147265632Y-66160984D01*
X144378767Y-66160984D01*
X144380801Y-65927885D01*
X144307495Y-65713167D01*
X144168902Y-65534171D01*
X143979802Y-65409719D01*
X143760585Y-65353230D01*
X143534889Y-65370794D01*
X143327050Y-65460519D01*
X143313581Y-65472754D01*
X143217802Y-65409719D01*
X142998585Y-65353230D01*
X142772889Y-65370794D01*
X142565050Y-65460519D01*
X142397481Y-65612729D01*
X142288249Y-65811010D01*
X142249132Y-66033984D01*
X139026087Y-66033984D01*
X139158198Y-65869377D01*
X139235241Y-65655970D01*
M02*
