G04 #@! TF.GenerationSoftware,KiCad,Pcbnew,6.0.0-unknown-d4e9ddc~100~ubuntu18.04.1*
G04 #@! TF.CreationDate,2019-08-02T11:15:37+03:00*
G04 #@! TF.ProjectId,NB-IoT-DevKit_Rev_B,4e422d49-6f54-42d4-9465-764b69745f52,B*
G04 #@! TF.SameCoordinates,Original*
G04 #@! TF.FileFunction,Paste,Top*
G04 #@! TF.FilePolarity,Positive*
%FSLAX46Y46*%
G04 Gerber Fmt 4.6, Leading zero omitted, Abs format (unit mm)*
G04 Created by KiCad (PCBNEW 6.0.0-unknown-d4e9ddc~100~ubuntu18.04.1) date 2019-08-02 11:15:37*
%MOMM*%
%LPD*%
G04 APERTURE LIST*
%ADD10R,1.327000X1.754000*%
%ADD11C,0.852400*%
%ADD12C,0.100000*%
%ADD13C,1.152400*%
%ADD14R,1.014000X2.654000*%
%ADD15R,1.202400X1.202400*%
%ADD16R,2.352400X1.202400*%
%ADD17R,0.500000X1.650000*%
%ADD18R,0.325000X1.650000*%
%ADD19R,1.100000X1.000000*%
%ADD20R,1.600000X3.000000*%
%ADD21R,1.016000X1.016000*%
%ADD22R,0.550000X0.500000*%
%ADD23R,1.270000X1.524000*%
%ADD24R,0.500000X0.550000*%
%ADD25R,0.800000X0.800000*%
%ADD26R,1.200000X0.550000*%
G04 APERTURE END LIST*
D10*
X136629000Y-96266000D03*
X131849000Y-96266000D03*
D11*
X135975000Y-69600000D03*
D12*
G36*
X137176200Y-69173800D02*
G01*
X137176200Y-70026200D01*
X134773800Y-70026200D01*
X134773800Y-69173800D01*
X137176200Y-69173800D01*
X137176200Y-69173800D01*
G37*
D11*
X135975000Y-70700000D03*
D12*
G36*
X137176200Y-70273800D02*
G01*
X137176200Y-71126200D01*
X134773800Y-71126200D01*
X134773800Y-70273800D01*
X137176200Y-70273800D01*
X137176200Y-70273800D01*
G37*
D11*
X135975000Y-71800000D03*
D12*
G36*
X137176200Y-71373800D02*
G01*
X137176200Y-72226200D01*
X134773800Y-72226200D01*
X134773800Y-71373800D01*
X137176200Y-71373800D01*
X137176200Y-71373800D01*
G37*
D11*
X135975000Y-72900000D03*
D12*
G36*
X137176200Y-72473800D02*
G01*
X137176200Y-73326200D01*
X134773800Y-73326200D01*
X134773800Y-72473800D01*
X137176200Y-72473800D01*
X137176200Y-72473800D01*
G37*
D11*
X135975000Y-74000000D03*
D12*
G36*
X137176200Y-73573800D02*
G01*
X137176200Y-74426200D01*
X134773800Y-74426200D01*
X134773800Y-73573800D01*
X137176200Y-73573800D01*
X137176200Y-73573800D01*
G37*
D11*
X135975000Y-75100000D03*
D12*
G36*
X137176200Y-74673800D02*
G01*
X137176200Y-75526200D01*
X134773800Y-75526200D01*
X134773800Y-74673800D01*
X137176200Y-74673800D01*
X137176200Y-74673800D01*
G37*
D11*
X139110000Y-67725000D03*
D12*
G36*
X139536200Y-68926200D02*
G01*
X138683800Y-68926200D01*
X138683800Y-66523800D01*
X139536200Y-66523800D01*
X139536200Y-68926200D01*
X139536200Y-68926200D01*
G37*
D11*
X140210000Y-67725000D03*
D12*
G36*
X140636200Y-68926200D02*
G01*
X139783800Y-68926200D01*
X139783800Y-66523800D01*
X140636200Y-66523800D01*
X140636200Y-68926200D01*
X140636200Y-68926200D01*
G37*
D11*
X141310000Y-67725000D03*
D12*
G36*
X141736200Y-68926200D02*
G01*
X140883800Y-68926200D01*
X140883800Y-66523800D01*
X141736200Y-66523800D01*
X141736200Y-68926200D01*
X141736200Y-68926200D01*
G37*
D11*
X142410000Y-67725000D03*
D12*
G36*
X142836200Y-68926200D02*
G01*
X141983800Y-68926200D01*
X141983800Y-66523800D01*
X142836200Y-66523800D01*
X142836200Y-68926200D01*
X142836200Y-68926200D01*
G37*
D11*
X143510000Y-67725000D03*
D12*
G36*
X143936200Y-68926200D02*
G01*
X143083800Y-68926200D01*
X143083800Y-66523800D01*
X143936200Y-66523800D01*
X143936200Y-68926200D01*
X143936200Y-68926200D01*
G37*
D11*
X144610000Y-67725000D03*
D12*
G36*
X145036200Y-68926200D02*
G01*
X144183800Y-68926200D01*
X144183800Y-66523800D01*
X145036200Y-66523800D01*
X145036200Y-68926200D01*
X145036200Y-68926200D01*
G37*
D11*
X145710000Y-67725000D03*
D12*
G36*
X146136200Y-68926200D02*
G01*
X145283800Y-68926200D01*
X145283800Y-66523800D01*
X146136200Y-66523800D01*
X146136200Y-68926200D01*
X146136200Y-68926200D01*
G37*
D11*
X146810000Y-67725000D03*
D12*
G36*
X147236200Y-68926200D02*
G01*
X146383800Y-68926200D01*
X146383800Y-66523800D01*
X147236200Y-66523800D01*
X147236200Y-68926200D01*
X147236200Y-68926200D01*
G37*
D11*
X147910000Y-67725000D03*
D12*
G36*
X148336200Y-68926200D02*
G01*
X147483800Y-68926200D01*
X147483800Y-66523800D01*
X148336200Y-66523800D01*
X148336200Y-68926200D01*
X148336200Y-68926200D01*
G37*
D11*
X151045000Y-69600000D03*
D12*
G36*
X149843800Y-70026200D02*
G01*
X149843800Y-69173800D01*
X152246200Y-69173800D01*
X152246200Y-70026200D01*
X149843800Y-70026200D01*
X149843800Y-70026200D01*
G37*
D11*
X151045000Y-70700000D03*
D12*
G36*
X149843800Y-71126200D02*
G01*
X149843800Y-70273800D01*
X152246200Y-70273800D01*
X152246200Y-71126200D01*
X149843800Y-71126200D01*
X149843800Y-71126200D01*
G37*
D11*
X151045000Y-71800000D03*
D12*
G36*
X149843800Y-72226200D02*
G01*
X149843800Y-71373800D01*
X152246200Y-71373800D01*
X152246200Y-72226200D01*
X149843800Y-72226200D01*
X149843800Y-72226200D01*
G37*
D11*
X151045000Y-72900000D03*
D12*
G36*
X149843800Y-73326200D02*
G01*
X149843800Y-72473800D01*
X152246200Y-72473800D01*
X152246200Y-73326200D01*
X149843800Y-73326200D01*
X149843800Y-73326200D01*
G37*
D11*
X151045000Y-74000000D03*
D12*
G36*
X149843800Y-74426200D02*
G01*
X149843800Y-73573800D01*
X152246200Y-73573800D01*
X152246200Y-74426200D01*
X149843800Y-74426200D01*
X149843800Y-74426200D01*
G37*
D11*
X151045000Y-75100000D03*
D12*
G36*
X149843800Y-75526200D02*
G01*
X149843800Y-74673800D01*
X152246200Y-74673800D01*
X152246200Y-75526200D01*
X149843800Y-75526200D01*
X149843800Y-75526200D01*
G37*
D11*
X151045000Y-76200000D03*
D12*
G36*
X149843800Y-76626200D02*
G01*
X149843800Y-75773800D01*
X152246200Y-75773800D01*
X152246200Y-76626200D01*
X149843800Y-76626200D01*
X149843800Y-76626200D01*
G37*
D11*
X151045000Y-77300000D03*
D12*
G36*
X149843800Y-77726200D02*
G01*
X149843800Y-76873800D01*
X152246200Y-76873800D01*
X152246200Y-77726200D01*
X149843800Y-77726200D01*
X149843800Y-77726200D01*
G37*
D11*
X151045000Y-78400000D03*
D12*
G36*
X149843800Y-78826200D02*
G01*
X149843800Y-77973800D01*
X152246200Y-77973800D01*
X152246200Y-78826200D01*
X149843800Y-78826200D01*
X149843800Y-78826200D01*
G37*
D11*
X151045000Y-79500000D03*
D12*
G36*
X149843800Y-79926200D02*
G01*
X149843800Y-79073800D01*
X152246200Y-79073800D01*
X152246200Y-79926200D01*
X149843800Y-79926200D01*
X149843800Y-79926200D01*
G37*
D11*
X151045000Y-80600000D03*
D12*
G36*
X149843800Y-81026200D02*
G01*
X149843800Y-80173800D01*
X152246200Y-80173800D01*
X152246200Y-81026200D01*
X149843800Y-81026200D01*
X149843800Y-81026200D01*
G37*
D11*
X151045000Y-81700000D03*
D12*
G36*
X149843800Y-82126200D02*
G01*
X149843800Y-81273800D01*
X152246200Y-81273800D01*
X152246200Y-82126200D01*
X149843800Y-82126200D01*
X149843800Y-82126200D01*
G37*
D11*
X151045000Y-82800000D03*
D12*
G36*
X149843800Y-83226200D02*
G01*
X149843800Y-82373800D01*
X152246200Y-82373800D01*
X152246200Y-83226200D01*
X149843800Y-83226200D01*
X149843800Y-83226200D01*
G37*
D11*
X147910000Y-84675000D03*
D12*
G36*
X148336200Y-85876200D02*
G01*
X147483800Y-85876200D01*
X147483800Y-83473800D01*
X148336200Y-83473800D01*
X148336200Y-85876200D01*
X148336200Y-85876200D01*
G37*
D11*
X146810000Y-84675000D03*
D12*
G36*
X147236200Y-85876200D02*
G01*
X146383800Y-85876200D01*
X146383800Y-83473800D01*
X147236200Y-83473800D01*
X147236200Y-85876200D01*
X147236200Y-85876200D01*
G37*
D11*
X145710000Y-84675000D03*
D12*
G36*
X146136200Y-85876200D02*
G01*
X145283800Y-85876200D01*
X145283800Y-83473800D01*
X146136200Y-83473800D01*
X146136200Y-85876200D01*
X146136200Y-85876200D01*
G37*
D11*
X144610000Y-84675000D03*
D12*
G36*
X145036200Y-85876200D02*
G01*
X144183800Y-85876200D01*
X144183800Y-83473800D01*
X145036200Y-83473800D01*
X145036200Y-85876200D01*
X145036200Y-85876200D01*
G37*
D11*
X143510000Y-84675000D03*
D12*
G36*
X143936200Y-85876200D02*
G01*
X143083800Y-85876200D01*
X143083800Y-83473800D01*
X143936200Y-83473800D01*
X143936200Y-85876200D01*
X143936200Y-85876200D01*
G37*
D11*
X142410000Y-84675000D03*
D12*
G36*
X142836200Y-85876200D02*
G01*
X141983800Y-85876200D01*
X141983800Y-83473800D01*
X142836200Y-83473800D01*
X142836200Y-85876200D01*
X142836200Y-85876200D01*
G37*
D11*
X141310000Y-84675000D03*
D12*
G36*
X141736200Y-85876200D02*
G01*
X140883800Y-85876200D01*
X140883800Y-83473800D01*
X141736200Y-83473800D01*
X141736200Y-85876200D01*
X141736200Y-85876200D01*
G37*
D11*
X135975000Y-76200000D03*
D12*
G36*
X134773800Y-76626200D02*
G01*
X134773800Y-75773800D01*
X137176200Y-75773800D01*
X137176200Y-76626200D01*
X134773800Y-76626200D01*
X134773800Y-76626200D01*
G37*
D11*
X135975000Y-77300000D03*
D12*
G36*
X134773800Y-77726200D02*
G01*
X134773800Y-76873800D01*
X137176200Y-76873800D01*
X137176200Y-77726200D01*
X134773800Y-77726200D01*
X134773800Y-77726200D01*
G37*
D11*
X135975000Y-78400000D03*
D12*
G36*
X134773800Y-78826200D02*
G01*
X134773800Y-77973800D01*
X137176200Y-77973800D01*
X137176200Y-78826200D01*
X134773800Y-78826200D01*
X134773800Y-78826200D01*
G37*
D11*
X135975000Y-79500000D03*
D12*
G36*
X134773800Y-79926200D02*
G01*
X134773800Y-79073800D01*
X137176200Y-79073800D01*
X137176200Y-79926200D01*
X134773800Y-79926200D01*
X134773800Y-79926200D01*
G37*
D11*
X135975000Y-80600000D03*
D12*
G36*
X134773800Y-81026200D02*
G01*
X134773800Y-80173800D01*
X137176200Y-80173800D01*
X137176200Y-81026200D01*
X134773800Y-81026200D01*
X134773800Y-81026200D01*
G37*
D11*
X135975000Y-81700000D03*
D12*
G36*
X134773800Y-82126200D02*
G01*
X134773800Y-81273800D01*
X137176200Y-81273800D01*
X137176200Y-82126200D01*
X134773800Y-82126200D01*
X134773800Y-82126200D01*
G37*
D11*
X135975000Y-82800000D03*
D12*
G36*
X134773800Y-83226200D02*
G01*
X134773800Y-82373800D01*
X137176200Y-82373800D01*
X137176200Y-83226200D01*
X134773800Y-83226200D01*
X134773800Y-83226200D01*
G37*
D11*
X139110000Y-84675000D03*
D12*
G36*
X139536200Y-85876200D02*
G01*
X138683800Y-85876200D01*
X138683800Y-83473800D01*
X139536200Y-83473800D01*
X139536200Y-85876200D01*
X139536200Y-85876200D01*
G37*
D11*
X140210000Y-84675000D03*
D12*
G36*
X140636200Y-85876200D02*
G01*
X139783800Y-85876200D01*
X139783800Y-83473800D01*
X140636200Y-83473800D01*
X140636200Y-85876200D01*
X140636200Y-85876200D01*
G37*
D13*
X139910000Y-73500000D03*
D12*
G36*
X140486200Y-72923800D02*
G01*
X140486200Y-74076200D01*
X139333800Y-74076200D01*
X139333800Y-72923800D01*
X140486200Y-72923800D01*
X140486200Y-72923800D01*
G37*
D13*
X139910000Y-75300000D03*
D12*
G36*
X140486200Y-74723800D02*
G01*
X140486200Y-75876200D01*
X139333800Y-75876200D01*
X139333800Y-74723800D01*
X140486200Y-74723800D01*
X140486200Y-74723800D01*
G37*
D13*
X139910000Y-77100000D03*
D12*
G36*
X140486200Y-76523800D02*
G01*
X140486200Y-77676200D01*
X139333800Y-77676200D01*
X139333800Y-76523800D01*
X140486200Y-76523800D01*
X140486200Y-76523800D01*
G37*
D13*
X139910000Y-78900000D03*
D12*
G36*
X140486200Y-78323800D02*
G01*
X140486200Y-79476200D01*
X139333800Y-79476200D01*
X139333800Y-78323800D01*
X140486200Y-78323800D01*
X140486200Y-78323800D01*
G37*
D13*
X141710000Y-80700000D03*
D12*
G36*
X142286200Y-80123800D02*
G01*
X142286200Y-81276200D01*
X141133800Y-81276200D01*
X141133800Y-80123800D01*
X142286200Y-80123800D01*
X142286200Y-80123800D01*
G37*
D13*
X143510000Y-80700000D03*
D12*
G36*
X144086200Y-80123800D02*
G01*
X144086200Y-81276200D01*
X142933800Y-81276200D01*
X142933800Y-80123800D01*
X144086200Y-80123800D01*
X144086200Y-80123800D01*
G37*
D13*
X145310000Y-80700000D03*
D12*
G36*
X145886200Y-80123800D02*
G01*
X145886200Y-81276200D01*
X144733800Y-81276200D01*
X144733800Y-80123800D01*
X145886200Y-80123800D01*
X145886200Y-80123800D01*
G37*
D13*
X147110000Y-78900000D03*
D12*
G36*
X147686200Y-78323800D02*
G01*
X147686200Y-79476200D01*
X146533800Y-79476200D01*
X146533800Y-78323800D01*
X147686200Y-78323800D01*
X147686200Y-78323800D01*
G37*
D13*
X147110000Y-77100000D03*
D12*
G36*
X147686200Y-76523800D02*
G01*
X147686200Y-77676200D01*
X146533800Y-77676200D01*
X146533800Y-76523800D01*
X147686200Y-76523800D01*
X147686200Y-76523800D01*
G37*
D13*
X147110000Y-75300000D03*
D12*
G36*
X147686200Y-74723800D02*
G01*
X147686200Y-75876200D01*
X146533800Y-75876200D01*
X146533800Y-74723800D01*
X147686200Y-74723800D01*
X147686200Y-74723800D01*
G37*
D13*
X147110000Y-73500000D03*
D12*
G36*
X147686200Y-72923800D02*
G01*
X147686200Y-74076200D01*
X146533800Y-74076200D01*
X146533800Y-72923800D01*
X147686200Y-72923800D01*
X147686200Y-72923800D01*
G37*
D13*
X145310000Y-71700000D03*
D12*
G36*
X145886200Y-71123800D02*
G01*
X145886200Y-72276200D01*
X144733800Y-72276200D01*
X144733800Y-71123800D01*
X145886200Y-71123800D01*
X145886200Y-71123800D01*
G37*
D13*
X143510000Y-71700000D03*
D12*
G36*
X144086200Y-71123800D02*
G01*
X144086200Y-72276200D01*
X142933800Y-72276200D01*
X142933800Y-71123800D01*
X144086200Y-71123800D01*
X144086200Y-71123800D01*
G37*
D13*
X141710000Y-71700000D03*
D12*
G36*
X142286200Y-71123800D02*
G01*
X142286200Y-72276200D01*
X141133800Y-72276200D01*
X141133800Y-71123800D01*
X142286200Y-71123800D01*
X142286200Y-71123800D01*
G37*
D14*
X146304000Y-88219500D03*
X147574000Y-88219500D03*
X150114000Y-88219500D03*
X148844000Y-88219500D03*
X145034000Y-88219500D03*
X150114000Y-92120500D03*
X148844000Y-92120500D03*
X147574000Y-92120500D03*
X146304000Y-92120500D03*
X145034000Y-92120500D03*
D15*
X148439000Y-63373000D03*
D16*
X146939000Y-61873000D03*
X146939000Y-64873000D03*
D17*
X147710500Y-94894000D03*
D18*
X148448000Y-94894000D03*
X149098000Y-94894000D03*
X149748000Y-94894000D03*
D17*
X150485500Y-94894000D03*
D19*
X147598000Y-99444000D03*
X150598000Y-99444000D03*
D20*
X136391500Y-92329000D03*
X133991500Y-92329000D03*
D21*
X143383000Y-94107000D03*
X143383000Y-95885000D03*
X139700000Y-93218000D03*
X137922000Y-93218000D03*
D22*
X149606000Y-65405000D03*
X149606000Y-64389000D03*
X152146000Y-65405000D03*
X152146000Y-64389000D03*
D23*
X143763999Y-65024000D03*
X141731999Y-65024000D03*
X143764000Y-62992000D03*
X141732000Y-62992000D03*
D24*
X139192001Y-65532000D03*
X140208001Y-65532000D03*
X139192000Y-64643001D03*
X140208000Y-64643001D03*
X139192000Y-63754000D03*
X140208000Y-63754000D03*
D21*
X140462000Y-88265000D03*
X140462000Y-90043000D03*
X134874000Y-88011000D03*
X134874000Y-89789000D03*
D25*
X134620000Y-63373000D03*
X134620000Y-61849000D03*
D24*
X150368000Y-65405000D03*
X151384000Y-65405000D03*
D25*
X136779000Y-63373000D03*
X136779000Y-61849000D03*
D10*
X136629000Y-100139500D03*
X131849000Y-100139500D03*
D24*
X135128000Y-65024000D03*
X134112000Y-65024000D03*
X138938000Y-91376500D03*
X139954000Y-91376500D03*
D22*
X140843000Y-93472000D03*
X140843000Y-92456000D03*
D24*
X137287000Y-65024000D03*
X136271000Y-65024000D03*
X134874000Y-86741000D03*
X135890000Y-86741000D03*
D26*
X139035000Y-94554000D03*
X139035000Y-95504000D03*
X139035000Y-96454000D03*
X141635000Y-94554000D03*
X141635000Y-96454000D03*
X138841000Y-89850000D03*
X138841000Y-88900000D03*
X138841000Y-87950000D03*
X136241000Y-89850000D03*
X136241000Y-87950000D03*
M02*
